<svg width="200" height="200" viewBox="0 0 200 200" fill="none" xmlns="http://www.w3.org/2000/svg">
<path d="M133.397 48.1172H70.817C66.2274 48.1172 62.5068 51.8378 62.5068 56.4274V119.007C62.5068 123.597 66.2274 127.317 70.817 127.317H133.397C137.986 127.317 141.707 123.597 141.707 119.007V56.4274C141.707 51.8378 137.986 48.1172 133.397 48.1172Z" fill="#B9E3F8"/>
<path d="M127.686 139.318H77.3276C75.328 139.318 73.707 140.93 73.707 142.918C73.707 144.907 75.328 146.518 77.3276 146.518H127.686C129.686 146.518 131.307 144.907 131.307 142.918C131.307 140.93 129.686 139.318 127.686 139.318Z" fill="#FFCBA0"/>
<path d="M133.226 153.719H70.9874C68.9546 153.719 67.3066 155.331 67.3066 157.319C67.3066 159.307 68.9546 160.919 70.9874 160.919H133.226C135.259 160.919 136.907 159.307 136.907 157.319C136.907 155.331 135.259 153.719 133.226 153.719Z" fill="#FFCBA0"/>
<path d="M64.8454 22.5589C66.9445 22.5589 68.7848 23.8066 69.6486 25.6428L76.7512 40.7075L92.5796 43.1154L92.7716 43.1487C94.687 43.5118 96.1935 44.8973 96.8152 46.675L96.8737 46.8544C97.4704 48.7699 96.9864 50.9023 95.5592 52.3545L84.029 64.1184L86.754 80.7606L86.7832 80.9442C87.0336 82.8638 86.2657 84.8251 84.68 86.027C83.0274 87.283 80.799 87.4625 78.9671 86.4526L64.8412 78.6782L50.7154 86.4526C48.8835 87.4625 46.655 87.283 45.0025 86.027C43.3708 84.7834 42.603 82.7344 42.9285 80.7564L45.6535 64.1142L34.1233 52.3503C32.6961 50.8939 32.2162 48.7657 32.8088 46.8502C33.4056 44.9223 35.0372 43.4242 37.1029 43.1112L52.9272 40.7033L60.0297 25.6386C60.8935 23.8024 62.7338 22.5547 64.8329 22.5547L64.8454 22.5589Z" fill="#F1CA00"/>
<path d="M48.1952 89.9669C46.455 89.9669 44.719 89.4077 43.2793 88.3102C40.8256 86.4407 39.6112 83.3735 40.1162 80.3063L42.6075 65.0913L32.0914 54.3582C29.9381 52.1632 29.1702 48.9624 30.0883 46.0079C31.0231 43.0033 33.6103 40.7582 36.6817 40.2908L51.0037 38.1125L57.4552 24.4248C58.8073 21.5579 61.7076 19.7051 64.8416 19.7051C67.9755 19.7051 70.8758 21.5579 72.2279 24.4248L78.6794 38.1125L93.2977 40.3409C96.1562 40.8834 98.5349 42.9532 99.5072 45.7366L99.599 46.0121C100.517 48.9666 99.7492 52.1673 97.5959 54.3582L87.0798 65.0913L89.6129 80.5901C89.9968 83.5571 88.7699 86.52 86.4079 88.3144C83.854 90.2549 80.3904 90.5136 77.5861 88.9696L64.8374 81.9547L52.0887 88.9696C50.8701 89.6414 49.5264 89.9711 48.1869 89.9711L48.1952 89.9669ZM64.8457 25.4138C63.8984 25.4138 63.0471 25.9688 62.6257 26.8577L54.8763 43.2996L37.5455 45.937C36.6066 46.0788 35.8429 46.7549 35.5466 47.698C35.2545 48.6411 35.4924 49.6593 36.1726 50.352L48.7127 63.1508L45.754 81.2244C45.5954 82.205 45.971 83.1732 46.7388 83.7574C47.5066 84.3416 48.504 84.4168 49.3428 83.9536L64.8457 75.4196L80.3486 83.9536C81.1874 84.4168 82.189 84.3416 82.9568 83.7574C83.6871 83.2024 84.071 82.2718 83.9583 81.3329L83.9375 81.1993L80.9788 63.1508L93.5188 50.352C94.1949 49.6635 94.4327 48.6536 94.149 47.7147L94.1072 47.5895C93.8068 46.7465 93.0974 46.1206 92.2544 45.9536L92.1167 45.9286L74.811 43.2954L67.0616 26.8535C66.6401 25.9647 65.793 25.4097 64.8416 25.4097L64.8457 25.4138Z" fill="white"/>
<path d="M93.585 48.1384C93.2919 47.1938 92.5171 46.5052 91.579 46.3667L74.1867 43.7133L66.4098 27.1714C65.991 26.2813 65.1283 25.7188 64.1819 25.7188C64.0144 25.7188 64.1819 76.0329 64.1819 76.0329L79.7399 84.6187C80.5775 85.0806 81.5909 85.005 82.3531 84.4214C83.1195 83.8378 83.5006 82.8512 83.3415 81.8729L80.3723 63.6895L92.9569 50.8128C93.6353 50.1201 93.8782 49.0831 93.585 48.1426V48.1384Z" fill="#D1AF00"/>
</svg>
