<svg width="250" height="250" viewBox="0 0 250 250" fill="none" xmlns="http://www.w3.org/2000/svg">
<g clip-path="url(#clip0_872_62665)">
<rect width="250" height="250" fill="white"/>
<path d="M12.8809 56.1104H74.3057C79.006 56.1104 82.8164 59.9208 82.8164 64.6211V138.627C82.8164 143.327 79.006 147.138 74.3057 147.138H12.8809C8.18053 147.138 4.37012 143.327 4.37012 138.627V64.6211C4.37012 59.9208 8.18053 56.1104 12.8809 56.1104Z" fill="#FAFAFA"/>
<path d="M12.8809 56.1104H74.3057C79.006 56.1104 82.8164 59.9208 82.8164 64.6211V138.627C82.8164 143.327 79.006 147.138 74.3057 147.138H12.8809C8.18053 147.138 4.37012 143.327 4.37012 138.627V64.6211C4.37012 59.9208 8.18053 56.1104 12.8809 56.1104Z" stroke="#FFCBA0" stroke-width="0.740061"/>
<path d="M22.8711 67.5806C22.8711 64.3108 25.5218 61.6602 28.7916 61.6602H58.394C61.6638 61.6602 64.3145 64.3108 64.3145 67.5806V97.1831C64.3145 100.453 61.6638 103.104 58.394 103.104H28.7916C25.5218 103.104 22.8711 100.453 22.8711 97.1831V67.5806Z" fill="#46AFE6"/>
<path d="M49.2293 88.3019C50.1259 88.3019 50.9858 88.6581 51.6198 89.2921C52.2538 89.926 52.6099 90.7859 52.6099 91.6825C52.6099 92.5791 52.2538 93.439 51.6198 94.073C50.9858 94.7069 50.1259 95.0631 49.2293 95.0631C48.5556 95.1021 47.8877 94.9195 47.3275 94.5432C46.7673 94.1669 46.3457 93.6175 46.127 92.9791H41.509C39.8513 92.9791 38.6258 92.4699 37.8146 91.4575C37.0366 90.5227 36.6075 89.3465 36.6009 88.1302V75.0282C35.9852 74.7824 35.4602 74.3525 35.0978 73.7973C34.7355 73.242 34.5533 72.5885 34.5761 71.9258C34.5715 71.4852 34.6562 71.0482 34.8251 70.6411C34.994 70.2341 35.2437 69.8655 35.5589 69.5576C35.8703 69.2387 36.2437 68.987 36.6561 68.8179C37.0685 68.6489 37.5111 68.5662 37.9567 68.5748C38.4016 68.5717 38.8426 68.657 39.2542 68.8258C39.6657 68.9945 40.0397 69.2434 40.3542 69.558C40.6687 69.8725 40.9176 70.2464 41.0864 70.658C41.2552 71.0696 41.3405 71.5106 41.3373 71.9554C41.3598 72.6188 41.1767 73.2728 40.8132 73.8281C40.4497 74.3835 39.9235 74.8129 39.3066 75.0578V78.2371C39.3066 79.7054 40.0407 80.4395 41.509 80.4395H46.127C46.3549 79.811 46.7804 79.2733 47.3398 78.9072C47.8992 78.5411 48.5622 78.3662 49.2293 78.4088C49.6742 78.4056 50.1152 78.4909 50.5268 78.6597C50.9383 78.8285 51.3123 79.0774 51.6268 79.3919C51.9414 79.7064 52.1903 80.0804 52.359 80.492C52.5278 80.9035 52.6131 81.3445 52.6099 81.7894C52.6131 82.2342 52.5278 82.6752 52.359 83.0868C52.1903 83.4984 51.9414 83.8723 51.6268 84.1868C51.3123 84.5014 50.9383 84.7503 50.5268 84.9191C50.1152 85.0878 49.6742 85.1731 49.2293 85.17C48.5556 85.209 47.8877 85.0264 47.3275 84.65C46.7673 84.2737 46.3457 83.7244 46.127 83.086H41.509C40.7512 83.0943 40.0004 82.9409 39.3066 82.636V88.1006C39.3066 89.5689 40.0407 90.303 41.509 90.303H46.127C46.36 89.6801 46.7876 89.1489 47.3465 88.7883C47.9055 88.4278 48.5658 88.2572 49.2293 88.3019ZM49.2293 79.8474C48.9737 79.8455 48.7201 79.8941 48.4833 79.9907C48.2466 80.0872 48.0313 80.2297 47.8499 80.4099C47.6567 80.5892 47.5039 80.8076 47.4018 81.0506C47.2997 81.2935 47.2506 81.5555 47.2578 81.819C47.2541 82.0732 47.3051 82.3253 47.4072 82.5582C47.5094 82.7911 47.6603 82.9993 47.8499 83.1688C48.2169 83.5326 48.7127 83.7366 49.2293 83.7366C49.746 83.7366 50.2418 83.5326 50.6088 83.1688C50.7984 82.9993 50.9493 82.7911 51.0515 82.5582C51.1536 82.3253 51.2046 82.0732 51.2009 81.819C51.2081 81.5555 51.159 81.2935 51.0569 81.0506C50.9548 80.8076 50.802 80.5892 50.6088 80.4099C50.4299 80.2243 50.2157 80.0764 49.9788 79.9747C49.7419 79.8731 49.4871 79.8197 49.2293 79.8178V79.8474ZM35.9852 71.9258C35.9815 72.1801 36.0325 72.4322 36.1346 72.6651C36.2367 72.898 36.3877 73.1062 36.5773 73.2757C36.9443 73.6394 37.44 73.8435 37.9567 73.8435C38.4734 73.8435 38.9692 73.6394 39.3362 73.2757C39.5258 73.1062 39.6767 72.898 39.7789 72.6651C39.881 72.4322 39.932 72.1801 39.9283 71.9258C39.9355 71.6624 39.8864 71.4004 39.7843 71.1574C39.6822 70.9144 39.5294 70.696 39.3362 70.5168C38.9677 70.1559 38.4725 69.9538 37.9567 69.9538C37.441 69.9538 36.9457 70.1559 36.5773 70.5168C36.384 70.696 36.2313 70.9144 36.1292 71.1574C36.0271 71.4004 35.978 71.6624 35.9852 71.9258ZM49.2293 93.5711C49.7416 93.5831 50.2376 93.3915 50.6088 93.0383C50.7991 92.8681 50.9506 92.6589 51.0527 92.425C51.1549 92.191 51.2054 91.9378 51.2009 91.6825C51.2073 91.4191 51.1579 91.1574 51.0558 90.9145C50.9538 90.6717 50.8014 90.4532 50.6088 90.2734C50.2403 89.9126 49.7451 89.7104 49.2293 89.7104C48.7136 89.7104 48.2184 89.9126 47.8499 90.2734C47.6573 90.4532 47.5049 90.6717 47.4029 90.9145C47.3008 91.1574 47.2514 91.4191 47.2578 91.6825C47.2533 91.9378 47.3038 92.191 47.406 92.425C47.5081 92.6589 47.6595 92.8681 47.8499 93.0383C48.2211 93.3915 48.7171 93.5831 49.2293 93.5711Z" fill="white"/>
<path d="M33.8898 118.137V121.025H32.9235V113.897H37.9876V114.686H33.8898V117.337H37.8662V118.137H33.8898ZM40.0365 118.172V121.025H39.1259V116.826C39.1259 116.634 39.1225 116.432 39.1158 116.219C39.1124 116.007 39.1056 115.784 39.0955 115.552H39.9556C39.9623 115.707 39.9674 115.847 39.9707 115.971C39.9775 116.096 39.9825 116.206 39.9859 116.3C39.9893 116.391 39.991 116.469 39.991 116.533C39.9943 116.594 39.996 116.639 39.996 116.67H40.0163C40.1174 116.339 40.2287 116.083 40.3502 115.901C40.4682 115.732 40.6031 115.616 40.7549 115.552C40.9067 115.484 41.0938 115.45 41.3164 115.45C41.4412 115.45 41.5643 115.467 41.6857 115.501V116.336C41.5711 116.302 41.4092 116.285 41.2001 116.285C40.8223 116.285 40.534 116.449 40.335 116.776C40.136 117.1 40.0365 117.565 40.0365 118.172ZM43.4615 113.518V114.388H42.5508V113.518H43.4615ZM43.4615 115.552V121.025H42.5508V115.552H43.4615ZM48.9707 119.513C48.9707 120.029 48.7751 120.427 48.3839 120.707C47.996 120.987 47.4513 121.127 46.7498 121.127C46.0685 121.127 45.5424 121.015 45.1714 120.793C44.8038 120.567 44.5643 120.216 44.453 119.74L45.2574 119.584C45.335 119.877 45.4952 120.093 45.738 120.231C45.9808 120.366 46.3181 120.433 46.7498 120.433C47.2119 120.433 47.5491 120.363 47.7616 120.221C47.9775 120.079 48.0854 119.867 48.0854 119.584C48.0854 119.368 48.0112 119.192 47.8628 119.057C47.7144 118.923 47.4749 118.811 47.1444 118.724C46.7532 118.619 46.4412 118.533 46.2085 118.466C45.9792 118.398 45.8021 118.341 45.6773 118.294C45.5525 118.243 45.453 118.196 45.3788 118.152C45.1562 118.024 44.9825 117.867 44.8577 117.681C44.7329 117.496 44.6706 117.268 44.6706 116.998C44.6706 116.499 44.8476 116.12 45.2018 115.86C45.5593 115.597 46.0786 115.466 46.7599 115.466C47.3636 115.466 47.8426 115.572 48.1967 115.784C48.5542 115.997 48.7802 116.337 48.8746 116.806L48.055 116.907C48.0044 116.665 47.8679 116.479 47.6453 116.351C47.426 116.219 47.1309 116.154 46.7599 116.154C46.3485 116.154 46.0449 116.216 45.8493 116.341C45.6537 116.466 45.5559 116.654 45.5559 116.907C45.5559 117.093 45.6115 117.246 45.7228 117.368C45.8341 117.486 46.0466 117.584 46.3603 117.661C46.7818 117.762 47.1832 117.874 47.5643 117.995C47.9454 118.113 48.2186 118.231 48.3839 118.349C48.5761 118.487 48.7211 118.651 48.8189 118.84C48.9201 119.025 48.9707 119.25 48.9707 119.513ZM50.7414 118.481C50.7414 119.108 50.8712 119.592 51.1309 119.933C51.3906 120.273 51.77 120.444 52.2692 120.444C52.6638 120.444 52.9791 120.364 53.2152 120.206C53.4547 120.047 53.6166 119.847 53.7009 119.604L54.5002 119.831C54.1731 120.695 53.4294 121.127 52.2692 121.127C51.4597 121.127 50.8425 120.885 50.4176 120.403C49.996 119.921 49.7852 119.204 49.7852 118.253C49.7852 117.349 49.996 116.656 50.4176 116.174C50.8425 115.692 51.4479 115.45 52.2338 115.45C53.0398 115.45 53.6436 115.693 54.0449 116.179C54.4463 116.665 54.6469 117.391 54.6469 118.359V118.481H50.7414ZM53.7059 117.783C53.6554 117.206 53.5086 116.786 53.2658 116.523C53.023 116.256 52.6739 116.123 52.2186 116.123C51.7768 116.123 51.426 116.272 51.1663 116.568C50.91 116.862 50.7717 117.267 50.7515 117.783H53.7059ZM13.8156 137.127C13.05 137.127 12.4649 136.885 12.0602 136.403C11.6588 135.917 11.4581 135.211 11.4581 134.283C11.4581 133.363 11.6605 132.661 12.0652 132.179C12.4699 131.693 13.05 131.45 13.8055 131.45C14.3654 131.45 14.8291 131.595 15.1968 131.885C15.5677 132.175 15.8005 132.575 15.8949 133.084L14.959 133.155C14.9118 132.852 14.792 132.611 14.5998 132.432C14.4075 132.253 14.1344 132.164 13.7802 132.164C13.2979 132.164 12.9489 132.324 12.733 132.644C12.5172 132.965 12.4092 133.504 12.4092 134.263C12.4092 134.992 12.5239 135.531 12.7533 135.882C12.9826 136.233 13.3283 136.408 13.7903 136.408C14.1141 136.408 14.3839 136.321 14.5998 136.145C14.819 135.97 14.9539 135.7 15.0045 135.336L15.9253 135.396C15.878 135.747 15.76 136.052 15.5711 136.312C15.3856 136.572 15.1428 136.772 14.8426 136.914C14.5458 137.056 14.2035 137.127 13.8156 137.127ZM17.8021 132.487C17.9978 132.13 18.2322 131.869 18.5053 131.703C18.7819 131.535 19.131 131.45 19.5526 131.45C20.1462 131.45 20.5829 131.606 20.8628 131.916C21.1462 132.223 21.2878 132.71 21.2878 133.378V137.025H20.3721V133.555C20.3721 133.059 20.2844 132.702 20.1091 132.482C19.937 132.263 19.6487 132.154 19.244 132.154C18.8156 132.154 18.4716 132.302 18.2119 132.599C17.9556 132.896 17.8274 133.295 17.8274 133.798V137.025H16.9168V129.518H17.8274V131.471C17.8274 131.606 17.8241 131.749 17.8173 131.901C17.8106 132.049 17.8038 132.179 17.7971 132.29C17.7937 132.398 17.7903 132.464 17.787 132.487H17.8021ZM23.5947 134.172V137.025H22.6841V132.826C22.6841 132.634 22.6807 132.432 22.674 132.219C22.6706 132.007 22.6639 131.784 22.6537 131.552H23.5138C23.5205 131.707 23.5256 131.847 23.5289 131.971C23.5357 132.096 23.5407 132.206 23.5441 132.3C23.5475 132.391 23.5492 132.469 23.5492 132.533C23.5526 132.594 23.5542 132.639 23.5542 132.67H23.5745C23.6757 132.339 23.787 132.083 23.9084 131.901C24.0264 131.732 24.1613 131.616 24.3131 131.552C24.4649 131.484 24.652 131.45 24.8746 131.45C24.9994 131.45 25.1225 131.467 25.244 131.501V132.336C25.1293 132.302 24.9674 132.285 24.7583 132.285C24.3805 132.285 24.0922 132.449 23.8932 132.776C23.6942 133.1 23.5947 133.565 23.5947 134.172ZM30.7431 134.283C30.7431 135.241 30.5323 135.955 30.1107 136.423C29.6891 136.892 29.077 137.127 28.2743 137.127C27.475 137.127 26.8713 136.884 26.4632 136.398C26.0551 135.909 25.851 135.204 25.851 134.283C25.851 133.339 26.0551 132.631 26.4632 132.159C26.8746 131.686 27.4885 131.45 28.3047 131.45C29.1411 131.45 29.7566 131.681 30.1512 132.143C30.5458 132.602 30.7431 133.315 30.7431 134.283ZM29.7869 134.283C29.7869 133.528 29.674 132.98 29.448 132.639C29.2254 132.295 28.8493 132.123 28.3198 132.123C27.7869 132.123 27.4008 132.299 27.1613 132.649C26.9252 132.997 26.8072 133.541 26.8072 134.283C26.8072 135.005 26.9235 135.548 27.1563 135.912C27.3923 136.273 27.7617 136.454 28.2642 136.454C28.8106 136.454 29.2001 136.278 29.4328 135.928C29.6689 135.577 29.7869 135.029 29.7869 134.283ZM32.8122 133.853V137.025H31.9016V132.72C31.9016 132.4 31.8982 132.143 31.8915 131.951C31.8881 131.756 31.8814 131.622 31.8713 131.552H32.7313C32.738 131.616 32.7431 131.697 32.7465 131.794C32.7532 131.892 32.7583 132 32.7616 132.118C32.765 132.236 32.7684 132.359 32.7718 132.487H32.7869C32.996 132.11 33.2372 131.843 33.5104 131.688C33.7869 131.53 34.1293 131.45 34.5374 131.45C35.1377 131.45 35.5761 131.604 35.8527 131.911C36.1326 132.218 36.2726 132.707 36.2726 133.378V137.025H35.3569V133.555C35.3569 133.032 35.2726 132.668 35.104 132.462C34.9353 132.256 34.6436 132.154 34.2288 132.154C33.7903 132.154 33.4446 132.304 33.1917 132.604C32.9387 132.904 32.8122 133.321 32.8122 133.853ZM42.2776 134.283C42.2776 135.241 42.0669 135.955 41.6453 136.423C41.2237 136.892 40.6115 137.127 39.8088 137.127C39.0095 137.127 38.4058 136.884 37.9977 136.398C37.5896 135.909 37.3856 135.204 37.3856 134.283C37.3856 133.339 37.5896 132.631 37.9977 132.159C38.4092 131.686 39.023 131.45 39.8392 131.45C40.6756 131.45 41.2911 131.681 41.6857 132.143C42.0803 132.602 42.2776 133.315 42.2776 134.283ZM41.3215 134.283C41.3215 133.528 41.2085 132.98 40.9825 132.639C40.7599 132.295 40.3839 132.123 39.8544 132.123C39.3215 132.123 38.9353 132.299 38.6959 132.649C38.4598 132.997 38.3417 133.541 38.3417 134.283C38.3417 135.005 38.4581 135.548 38.6908 135.912C38.9269 136.273 39.2962 136.454 39.7987 136.454C40.3451 136.454 40.7346 136.278 40.9674 135.928C41.2034 135.577 41.3215 135.029 41.3215 134.283ZM44.3265 129.518V137.025H43.4159V129.518H44.3265ZM50.3518 134.283C50.3518 135.241 50.141 135.955 49.7194 136.423C49.2979 136.892 48.6857 137.127 47.883 137.127C47.0837 137.127 46.48 136.884 46.0719 136.398C45.6638 135.909 45.4598 135.204 45.4598 134.283C45.4598 133.339 45.6638 132.631 46.0719 132.159C46.4834 131.686 47.0972 131.45 47.9134 131.45C48.7498 131.45 49.3653 131.681 49.7599 132.143C50.1545 132.602 50.3518 133.315 50.3518 134.283ZM49.3957 134.283C49.3957 133.528 49.2827 132.98 49.0567 132.639C48.8341 132.295 48.4581 132.123 47.9286 132.123C47.3957 132.123 47.0095 132.299 46.77 132.649C46.534 132.997 46.4159 133.541 46.4159 134.283C46.4159 135.005 46.5323 135.548 46.765 135.912C47.0011 136.273 47.3704 136.454 47.8729 136.454C48.4193 136.454 48.8088 136.278 49.0415 135.928C49.2776 135.577 49.3957 135.029 49.3957 134.283ZM53.5643 139.175C52.9673 139.175 52.4918 139.057 52.1377 138.821C51.7835 138.589 51.5559 138.256 51.4547 137.825L52.3704 137.693C52.4311 137.946 52.5643 138.14 52.77 138.275C52.9791 138.413 53.2523 138.482 53.5896 138.482C54.0415 138.482 54.3805 138.349 54.6065 138.083C54.8358 137.816 54.9505 137.418 54.9505 136.889V136.009H54.9403C54.7683 136.359 54.5323 136.624 54.2321 136.803C53.9319 136.978 53.5812 137.066 53.1798 137.066C52.5086 137.066 52.0146 136.843 51.6975 136.398C51.3839 135.953 51.227 135.253 51.227 134.299C51.227 133.331 51.3957 132.617 51.7329 132.159C52.0736 131.697 52.5896 131.466 53.281 131.466C53.6688 131.466 54.0044 131.555 54.2877 131.734C54.5744 131.909 54.7953 132.16 54.9505 132.487H54.9606C54.9606 132.42 54.964 132.315 54.9707 132.174C54.9774 132.029 54.9859 131.892 54.996 131.764C55.0061 131.636 55.0145 131.565 55.0213 131.552H55.8864C55.8661 131.734 55.856 132.111 55.856 132.685V136.869C55.856 137.638 55.6655 138.214 55.2844 138.599C54.9032 138.983 54.3299 139.175 53.5643 139.175ZM54.9505 134.288C54.9505 133.624 54.8139 133.101 54.5407 132.72C54.2709 132.336 53.9252 132.143 53.5036 132.143C53.0382 132.143 52.6992 132.312 52.4867 132.649C52.2742 132.987 52.168 133.533 52.168 134.288C52.168 135.037 52.2675 135.575 52.4665 135.902C52.6655 136.229 53.0061 136.393 53.4884 136.393C53.9201 136.393 54.2709 136.206 54.5407 135.831C54.8139 135.454 54.9505 134.939 54.9505 134.288ZM58.1629 129.518V130.388H57.2523V129.518H58.1629ZM58.1629 131.552V137.025H57.2523V131.552H58.1629ZM59.3012 134.314C59.3012 133.359 59.4682 132.644 59.8021 132.169C60.1393 131.69 60.6435 131.45 61.3147 131.45C61.7295 131.45 62.0736 131.525 62.3467 131.673C62.6199 131.818 62.8476 132.061 63.0297 132.401C63.0297 132.334 63.0331 132.229 63.0398 132.088C63.0466 131.943 63.055 131.808 63.0651 131.683C63.0752 131.558 63.0837 131.491 63.0904 131.481H63.9656C63.9521 131.579 63.942 131.752 63.9353 132.002C63.9319 132.251 63.9302 132.575 63.9302 132.973V139.175H63.0196V136.955L63.0398 136.125H63.0297C62.8476 136.486 62.6233 136.744 62.3569 136.899C62.0904 137.051 61.743 137.127 61.3147 137.127C60.6199 137.127 60.1107 136.892 59.7869 136.423C59.4631 135.955 59.3012 135.251 59.3012 134.314ZM63.0196 134.223C63.0196 133.511 62.9032 132.983 62.6705 132.639C62.4378 132.295 62.0668 132.123 61.5575 132.123C61.0955 132.123 60.7633 132.295 60.5609 132.639C60.3586 132.983 60.2574 133.531 60.2574 134.283C60.2574 135.049 60.3586 135.597 60.5609 135.928C60.7666 136.258 61.0955 136.423 61.5474 136.423C62.0634 136.423 62.4378 136.24 62.6705 135.872C62.9032 135.504 63.0196 134.955 63.0196 134.223ZM68.7919 136.089C68.5828 136.467 68.34 136.735 68.0634 136.894C67.7902 137.049 67.4496 137.127 67.0415 137.127C66.4412 137.127 66.001 136.978 65.7211 136.681C65.4445 136.381 65.3063 135.887 65.3063 135.199V131.552H66.2219V135.022C66.2219 135.568 66.3063 135.939 66.4749 136.135C66.6469 136.327 66.9386 136.423 67.3501 136.423C67.7886 136.423 68.1343 136.273 68.3872 135.973C68.6402 135.673 68.7666 135.256 68.7666 134.724V131.552H69.6772V135.857C69.6772 136.174 69.6789 136.43 69.6823 136.626C69.6891 136.821 69.6975 136.955 69.7076 137.025H68.8476C68.8442 137.009 68.8375 136.929 68.8273 136.788C68.8206 136.646 68.8138 136.413 68.8071 136.089H68.7919ZM71.797 134.481C71.797 135.108 71.9268 135.592 72.1865 135.933C72.4462 136.273 72.8256 136.444 73.3248 136.444C73.7194 136.444 74.0347 136.364 74.2708 136.206C74.5103 136.047 74.6722 135.847 74.7565 135.604L75.5558 135.831C75.2287 136.695 74.485 137.127 73.3248 137.127C72.5154 137.127 71.8982 136.885 71.4732 136.403C71.0516 135.921 70.8408 135.204 70.8408 134.253C70.8408 133.349 71.0516 132.656 71.4732 132.174C71.8982 131.692 72.5036 131.45 73.2894 131.45C74.0955 131.45 74.6992 131.693 75.1005 132.179C75.5019 132.665 75.7025 133.391 75.7025 134.359V134.481H71.797ZM74.7616 133.783C74.711 133.206 74.5643 132.786 74.3214 132.523C74.0786 132.256 73.7295 132.123 73.2742 132.123C72.8324 132.123 72.4816 132.272 72.2219 132.568C71.9656 132.862 71.8273 133.267 71.8071 133.783H74.7616Z" fill="#4A4A4A"/>
<path d="M77.5312 56.8506H80.1738C86.5967 56.8508 91.8037 62.0575 91.8037 68.4805V71.123C91.8035 77.5458 86.5966 82.7527 80.1738 82.7529H77.5312C71.1083 82.7529 65.9016 77.5459 65.9014 71.123V68.4805C65.9014 62.0574 71.1082 56.8506 77.5312 56.8506Z" fill="#FFEFE3"/>
<path d="M77.5312 56.8506H80.1738C86.5967 56.8508 91.8037 62.0575 91.8037 68.4805V71.123C91.8035 77.5458 86.5966 82.7527 80.1738 82.7529H77.5312C71.1083 82.7529 65.9016 77.5459 65.9014 71.123V68.4805C65.9014 62.0574 71.1082 56.8506 77.5312 56.8506Z" stroke="white" stroke-width="0.740061"/>
<circle cx="78.8523" cy="64.868" r="1.54179" fill="#FF8D2E"/>
<circle cx="78.8523" cy="69.8016" r="1.54179" fill="#FF8D2E"/>
<ellipse cx="78.8523" cy="74.7352" rx="1.54179" ry="1.54179" fill="#FF8D2E"/>
<g filter="url(#filter0_d_872_62665)">
<path d="M83.1865 66.841C83.1865 60.3014 88.4879 55 95.0275 55H234.159C240.699 55 246 60.3014 246 66.841V182.29C246 188.83 240.699 194.131 234.159 194.131H95.0275C88.4879 194.131 83.1865 188.83 83.1865 182.291V66.841Z" fill="white"/>
<rect x="97.9883" y="66.8398" width="133.211" height="17.7615" rx="8.88073" fill="#C7C7C7"/>
<g clip-path="url(#clip1_872_62665)">
<path fill-rule="evenodd" clip-rule="evenodd" d="M104.855 100.865C105.424 99.8861 106.834 99.8861 107.403 100.865L109.445 104.377L113.251 105.259C114.317 105.506 114.754 106.789 114.061 107.638L111.367 110.942L111.941 114.972C112.106 116.133 110.924 117.017 109.862 116.525L106.129 114.796L102.396 116.525C101.334 117.017 100.152 116.133 100.317 114.972L100.891 110.942L98.1969 107.638C97.5044 106.789 97.9413 105.506 99.0068 105.259L102.813 104.377L104.855 100.865ZM108.171 105.123L106.129 101.611L104.087 105.123C103.882 105.476 103.541 105.728 103.145 105.82L99.3385 106.701L102.033 110.005C102.294 110.326 102.41 110.741 102.351 111.152L101.777 115.182L105.511 113.453C105.903 113.271 106.355 113.271 106.747 113.453L110.481 115.182L109.907 111.152C109.848 110.741 109.964 110.326 110.225 110.005L112.92 106.701L109.113 105.82C108.717 105.728 108.376 105.476 108.171 105.123Z" fill="#4A4A4A"/>
</g>
<path d="M122.295 110.02L121.358 112.402H120.214L123.538 104.256H124.793L128.065 112.402H126.938L126.007 110.02H122.295ZM124.151 105.088C124.085 105.304 124.006 105.545 123.914 105.811C123.825 106.073 123.742 106.305 123.665 106.505L122.63 109.159H125.677L124.631 106.47C124.577 106.335 124.506 106.145 124.417 105.898C124.328 105.651 124.24 105.381 124.151 105.088ZM129.921 103.822V104.817H128.88V103.822H129.921ZM128.533 114.86C128.233 114.86 127.988 114.842 127.799 114.808V114.004C127.861 114.012 127.921 114.019 127.978 114.027C128.036 114.035 128.096 114.039 128.158 114.039C128.424 114.039 128.611 113.969 128.718 113.83C128.826 113.692 128.88 113.422 128.88 113.021V106.147H129.921V113.177C129.921 113.767 129.805 114.195 129.574 114.461C129.343 114.727 128.996 114.86 128.533 114.86ZM136.813 109.269C136.813 110.363 136.572 111.179 136.09 111.714C135.608 112.25 134.909 112.518 133.991 112.518C133.078 112.518 132.388 112.24 131.922 111.685C131.455 111.127 131.222 110.321 131.222 109.269C131.222 108.189 131.455 107.38 131.922 106.84C132.392 106.301 133.093 106.031 134.026 106.031C134.982 106.031 135.685 106.295 136.136 106.823C136.587 107.347 136.813 108.162 136.813 109.269ZM135.72 109.269C135.72 108.405 135.591 107.779 135.333 107.39C135.078 106.996 134.649 106.8 134.043 106.8C133.434 106.8 132.993 107 132.719 107.401C132.45 107.798 132.315 108.421 132.315 109.269C132.315 110.094 132.448 110.714 132.714 111.13C132.983 111.543 133.406 111.749 133.98 111.749C134.604 111.749 135.049 111.549 135.315 111.148C135.585 110.747 135.72 110.12 135.72 109.269ZM142.068 111.333C141.83 111.764 141.552 112.071 141.236 112.252C140.924 112.429 140.534 112.518 140.068 112.518C139.382 112.518 138.879 112.348 138.559 112.009C138.243 111.666 138.085 111.101 138.085 110.315V106.147H139.131V110.113C139.131 110.737 139.228 111.161 139.42 111.385C139.617 111.604 139.95 111.714 140.421 111.714C140.922 111.714 141.317 111.543 141.606 111.2C141.895 110.857 142.04 110.381 142.04 109.772V106.147H143.08V111.067C143.08 111.429 143.082 111.722 143.086 111.946C143.094 112.169 143.103 112.321 143.115 112.402H142.132C142.128 112.383 142.121 112.292 142.109 112.131C142.101 111.969 142.094 111.703 142.086 111.333H142.068ZM147.11 112.356C146.771 112.449 146.42 112.495 146.058 112.495C145.642 112.495 145.329 112.377 145.121 112.142C144.913 111.903 144.809 111.549 144.809 111.078V106.904H144.086V106.147H144.849L145.156 104.747H145.85V106.147H147.006V106.904H145.85V110.853C145.85 111.153 145.898 111.365 145.994 111.489C146.094 111.608 146.266 111.668 146.509 111.668C146.64 111.668 146.84 111.641 147.11 111.587V112.356ZM148.798 109.494C148.798 110.211 148.947 110.764 149.244 111.153C149.54 111.543 149.974 111.737 150.545 111.737C150.995 111.737 151.356 111.647 151.626 111.466C151.899 111.285 152.084 111.055 152.181 110.778L153.094 111.038C152.72 112.025 151.87 112.518 150.545 112.518C149.619 112.518 148.914 112.242 148.428 111.691C147.947 111.14 147.706 110.321 147.706 109.234C147.706 108.201 147.947 107.409 148.428 106.858C148.914 106.306 149.606 106.031 150.504 106.031C151.425 106.031 152.115 106.308 152.574 106.863C153.033 107.418 153.262 108.249 153.262 109.355V109.494H148.798ZM152.187 108.696C152.129 108.037 151.961 107.557 151.684 107.257C151.406 106.952 151.007 106.8 150.487 106.8C149.982 106.8 149.581 106.969 149.284 107.309C148.991 107.644 148.833 108.107 148.81 108.696H152.187ZM155.656 109.141V112.402H154.615V107.604C154.615 107.384 154.611 107.153 154.603 106.91C154.599 106.667 154.592 106.412 154.58 106.147H155.563C155.571 106.324 155.577 106.484 155.58 106.626C155.588 106.769 155.594 106.894 155.598 107.002C155.602 107.106 155.604 107.195 155.604 107.268C155.607 107.338 155.609 107.39 155.609 107.424H155.632C155.748 107.047 155.875 106.754 156.014 106.545C156.149 106.353 156.303 106.22 156.477 106.147C156.65 106.069 156.864 106.031 157.118 106.031C157.261 106.031 157.402 106.05 157.54 106.089V107.043C157.409 107.004 157.224 106.985 156.985 106.985C156.554 106.985 156.224 107.172 155.997 107.546C155.769 107.916 155.656 108.448 155.656 109.141ZM163.426 112.518C162.798 112.518 162.326 112.352 162.01 112.021C161.694 111.689 161.536 111.234 161.536 110.656C161.536 110.009 161.748 109.511 162.172 109.165C162.599 108.818 163.287 108.633 164.236 108.61L165.641 108.586V108.245C165.641 107.736 165.533 107.372 165.317 107.153C165.101 106.933 164.762 106.823 164.299 106.823C163.833 106.823 163.494 106.902 163.282 107.06C163.07 107.218 162.942 107.471 162.9 107.817L161.813 107.719C161.99 106.594 162.827 106.031 164.322 106.031C165.109 106.031 165.7 106.212 166.097 106.574C166.494 106.933 166.693 107.453 166.693 108.135V110.83C166.693 111.138 166.733 111.371 166.814 111.529C166.895 111.683 167.049 111.761 167.277 111.761C167.385 111.761 167.498 111.747 167.618 111.72V112.368C167.487 112.398 167.354 112.422 167.219 112.437C167.084 112.452 166.949 112.46 166.814 112.46C166.429 112.46 166.147 112.36 165.97 112.16C165.797 111.955 165.698 111.637 165.675 111.206H165.641C165.375 111.683 165.064 112.023 164.71 112.223C164.359 112.42 163.931 112.518 163.426 112.518ZM165.641 109.315L164.502 109.338C164.016 109.342 163.646 109.392 163.391 109.488C163.137 109.581 162.942 109.723 162.808 109.916C162.673 110.109 162.605 110.361 162.605 110.674C162.605 111.013 162.696 111.275 162.877 111.46C163.062 111.645 163.324 111.737 163.663 111.737C164.049 111.737 164.388 111.651 164.681 111.477C164.978 111.304 165.211 111.067 165.38 110.766C165.554 110.462 165.641 110.149 165.641 109.829V109.315ZM172.376 111.333C172.137 111.764 171.86 112.071 171.544 112.252C171.232 112.429 170.842 112.518 170.376 112.518C169.69 112.518 169.187 112.348 168.867 112.009C168.551 111.666 168.393 111.101 168.393 110.315V106.147H169.439V110.113C169.439 110.737 169.536 111.161 169.728 111.385C169.925 111.604 170.258 111.714 170.729 111.714C171.23 111.714 171.625 111.543 171.914 111.2C172.203 110.857 172.347 110.381 172.347 109.772V106.147H173.388V111.067C173.388 111.429 173.39 111.722 173.394 111.946C173.402 112.169 173.411 112.321 173.423 112.402H172.44C172.436 112.383 172.428 112.292 172.417 112.131C172.409 111.969 172.401 111.703 172.394 111.333H172.376ZM177.164 109.835L175.47 112.402H174.348L176.574 109.188L174.452 106.147H175.603L177.164 108.581L178.713 106.147H179.875L177.753 109.176L180.008 112.402H178.846L177.164 109.835ZM185.518 106.904V112.402H184.477V106.904H183.599V106.147H184.477V105.441C184.477 104.871 184.603 104.46 184.853 104.21C185.104 103.959 185.487 103.834 186.004 103.834C186.293 103.834 186.538 103.857 186.738 103.903V104.695C186.553 104.664 186.399 104.649 186.276 104.649C186.01 104.649 185.817 104.717 185.697 104.851C185.578 104.986 185.518 105.231 185.518 105.586V106.147H186.738V106.904H185.518ZM189.12 112.518C188.492 112.518 188.02 112.352 187.704 112.021C187.388 111.689 187.23 111.234 187.23 110.656C187.23 110.009 187.442 109.511 187.866 109.165C188.293 108.818 188.981 108.633 189.93 108.61L191.335 108.586V108.245C191.335 107.736 191.227 107.372 191.011 107.153C190.795 106.933 190.456 106.823 189.993 106.823C189.527 106.823 189.188 106.902 188.976 107.06C188.764 107.218 188.636 107.471 188.594 107.817L187.507 107.719C187.684 106.594 188.521 106.031 190.016 106.031C190.803 106.031 191.394 106.212 191.791 106.574C192.188 106.933 192.387 107.453 192.387 108.135V110.83C192.387 111.138 192.427 111.371 192.508 111.529C192.589 111.683 192.743 111.761 192.971 111.761C193.079 111.761 193.192 111.747 193.312 111.72V112.368C193.181 112.398 193.048 112.422 192.913 112.437C192.778 112.452 192.643 112.46 192.508 112.46C192.123 112.46 191.841 112.36 191.664 112.16C191.491 111.955 191.392 111.637 191.369 111.206H191.335C191.069 111.683 190.758 112.023 190.404 112.223C190.053 112.42 189.625 112.518 189.12 112.518ZM191.335 109.315L190.196 109.338C189.71 109.342 189.34 109.392 189.085 109.488C188.831 109.581 188.636 109.723 188.502 109.916C188.367 110.109 188.299 110.361 188.299 110.674C188.299 111.013 188.39 111.275 188.571 111.46C188.756 111.645 189.018 111.737 189.357 111.737C189.743 111.737 190.082 111.651 190.375 111.477C190.672 111.304 190.905 111.067 191.074 110.766C191.248 110.462 191.335 110.149 191.335 109.829V109.315ZM199.198 106.147L196.862 112.402H195.63L193.358 106.147H194.468L195.844 110.217C195.871 110.294 195.918 110.448 195.983 110.679C196.049 110.907 196.135 111.209 196.243 111.587C196.293 111.437 196.342 111.281 196.388 111.119C196.438 110.953 196.486 110.793 196.532 110.639C196.582 110.485 196.629 110.348 196.671 110.228L198.093 106.147H199.198ZM205.326 109.269C205.326 110.363 205.085 111.179 204.604 111.714C204.122 112.25 203.422 112.518 202.505 112.518C201.591 112.518 200.901 112.24 200.435 111.685C199.969 111.127 199.735 110.321 199.735 109.269C199.735 108.189 199.969 107.38 200.435 106.84C200.905 106.301 201.607 106.031 202.54 106.031C203.495 106.031 204.199 106.295 204.65 106.823C205.101 107.347 205.326 108.162 205.326 109.269ZM204.234 109.269C204.234 108.405 204.105 107.779 203.846 107.39C203.592 106.996 203.162 106.8 202.557 106.8C201.948 106.8 201.507 107 201.233 107.401C200.963 107.798 200.828 108.421 200.828 109.269C200.828 110.094 200.961 110.714 201.227 111.13C201.497 111.543 201.919 111.749 202.493 111.749C203.118 111.749 203.563 111.549 203.829 111.148C204.099 110.747 204.234 110.12 204.234 109.269ZM207.691 109.141V112.402H206.65V107.604C206.65 107.384 206.647 107.153 206.639 106.91C206.635 106.667 206.627 106.412 206.616 106.147H207.599C207.606 106.324 207.612 106.484 207.616 106.626C207.624 106.769 207.629 106.894 207.633 107.002C207.637 107.106 207.639 107.195 207.639 107.268C207.643 107.338 207.645 107.39 207.645 107.424H207.668C207.784 107.047 207.911 106.754 208.05 106.545C208.184 106.353 208.339 106.22 208.512 106.147C208.686 106.069 208.899 106.031 209.154 106.031C209.296 106.031 209.437 106.05 209.576 106.089V107.043C209.445 107.004 209.26 106.985 209.021 106.985C208.589 106.985 208.26 107.172 208.032 107.546C207.805 107.916 207.691 108.448 207.691 109.141ZM211.605 103.822V104.817H210.565V103.822H211.605ZM211.605 106.147V112.402H210.565V106.147H211.605ZM217.902 110.674C217.902 111.263 217.678 111.718 217.231 112.038C216.788 112.358 216.165 112.518 215.363 112.518C214.585 112.518 213.984 112.391 213.56 112.136C213.139 111.878 212.866 111.477 212.739 110.934L213.658 110.755C213.746 111.09 213.93 111.337 214.207 111.495C214.485 111.649 214.87 111.726 215.363 111.726C215.892 111.726 216.277 111.645 216.52 111.483C216.766 111.321 216.89 111.078 216.89 110.755C216.89 110.508 216.805 110.307 216.635 110.153C216.466 109.999 216.192 109.872 215.814 109.772C215.367 109.652 215.011 109.554 214.745 109.477C214.483 109.4 214.28 109.334 214.138 109.28C213.995 109.222 213.881 109.168 213.797 109.118C213.542 108.972 213.344 108.793 213.201 108.581C213.058 108.369 212.987 108.108 212.987 107.8C212.987 107.23 213.19 106.796 213.594 106.499C214.003 106.199 214.596 106.048 215.375 106.048C216.065 106.048 216.612 106.17 217.017 106.412C217.426 106.655 217.684 107.045 217.792 107.58L216.855 107.696C216.797 107.418 216.641 107.206 216.387 107.06C216.136 106.91 215.799 106.835 215.375 106.835C214.905 106.835 214.558 106.906 214.334 107.048C214.111 107.191 213.999 107.407 213.999 107.696C213.999 107.908 214.063 108.083 214.19 108.222C214.317 108.357 214.56 108.469 214.918 108.557C215.4 108.673 215.859 108.8 216.294 108.939C216.73 109.074 217.042 109.209 217.231 109.344C217.451 109.502 217.616 109.689 217.728 109.905C217.844 110.117 217.902 110.373 217.902 110.674Z" fill="#4A4A4A"/>
<rect x="97.9883" y="131.965" width="133.211" height="17.7615" rx="8.88073" fill="#C7C7C7"/>
<rect x="97.9883" y="164.527" width="133.211" height="17.7615" rx="8.88073" fill="#C7C7C7"/>
</g>
</g>
<defs>
<filter id="filter0_d_872_62665" x="75.7859" y="50.5596" width="177.615" height="153.932" filterUnits="userSpaceOnUse" color-interpolation-filters="sRGB">
<feFlood flood-opacity="0" result="BackgroundImageFix"/>
<feColorMatrix in="SourceAlpha" type="matrix" values="0 0 0 0 0 0 0 0 0 0 0 0 0 0 0 0 0 0 127 0" result="hardAlpha"/>
<feOffset dy="2.96024"/>
<feGaussianBlur stdDeviation="3.70031"/>
<feComposite in2="hardAlpha" operator="out"/>
<feColorMatrix type="matrix" values="0 0 0 0 0 0 0 0 0 0 0 0 0 0 0 0 0 0 0.15 0"/>
<feBlend mode="normal" in2="BackgroundImageFix" result="effect1_dropShadow_872_62665"/>
<feBlend mode="normal" in="SourceGraphic" in2="effect1_dropShadow_872_62665" result="shape"/>
</filter>
<clipPath id="clip0_872_62665">
<rect width="250" height="250" fill="white"/>
</clipPath>
<clipPath id="clip1_872_62665">
<rect width="16.2813" height="16.2813" fill="white" transform="translate(97.9883 100.143)"/>
</clipPath>
</defs>
</svg>
