<svg width="389" height="138" viewBox="0 0 389 138" fill="none" xmlns="http://www.w3.org/2000/svg">
<path d="M24.7192 35.1406H31.2963V92.1775C24.5285 92.1775 19 86.6914 19 79.9756V40.9105C19 37.7891 21.5736 35.1406 24.8145 35.1406H24.7192Z" fill="#2A9CC8"/>
<path d="M264.353 35.1406H270.93V92.1775C264.163 92.1775 258.634 86.6914 258.634 79.9756V40.9105C258.634 37.7891 261.208 35.1406 264.449 35.1406H264.353Z" fill="#2A9CC8"/>
<path d="M144.536 54.3477H151.113V111.385C144.346 111.385 138.817 105.898 138.817 99.1826V60.1176C138.817 56.9961 141.391 54.3477 144.632 54.3477H144.536Z" fill="#2A9CC8"/>
<path d="M385.187 68.2507H3.81279C1.71576 68.2507 0 66.5481 0 64.4671C0 62.3862 1.71576 60.6836 3.81279 60.6836H385.187C387.284 60.6836 389 62.3862 389 64.4671C389 66.5481 387.284 68.2507 385.187 68.2507Z" fill="#FF8D2E"/>
<path d="M39.5891 9.78906H115.75C120.325 9.78906 124.042 13.478 124.042 18.0183V83.8519C124.042 88.3921 120.325 92.0811 115.75 92.0811H31.2009V18.0183C31.2009 13.478 34.9184 9.78906 39.4937 9.78906H39.5891Z" fill="#AADAED"/>
<path d="M108.219 22.0859H47.1195C45.5928 22.0859 44.3552 23.2929 44.3552 24.7817C44.3552 26.2705 45.5928 27.4775 47.1195 27.4775H108.219C109.746 27.4775 110.984 26.2705 110.984 24.7817C110.984 23.2929 109.746 22.0859 108.219 22.0859Z" fill="white"/>
<path d="M100.022 34.0078H55.3171C54.001 34.0078 52.9341 35.0665 52.9341 36.3725V37.0346C52.9341 38.3406 54.001 39.3994 55.3171 39.3994H100.022C101.338 39.3994 102.405 38.3406 102.405 37.0346V36.3725C102.405 35.0665 101.338 34.0078 100.022 34.0078Z" fill="white"/>
<path d="M95.9233 48.3828H59.3205C54.6879 48.3828 50.9324 52.1095 50.9324 56.7066V70.8949C50.9324 75.492 54.6879 79.2187 59.3205 79.2187H95.9233C100.556 79.2187 104.311 75.492 104.311 70.8949V56.7066C104.311 52.1095 100.556 48.3828 95.9233 48.3828Z" fill="white"/>
<path d="M279.223 9.78906H355.384C359.959 9.78906 363.677 13.478 363.677 18.0183V83.8519C363.677 88.3921 359.959 92.0811 355.384 92.0811H270.835V18.0183C270.835 13.478 274.553 9.78906 279.128 9.78906H279.223Z" fill="#AADAED"/>
<path d="M347.854 22.0859H286.754C285.227 22.0859 283.989 23.2929 283.989 24.7817C283.989 26.2705 285.227 27.4775 286.754 27.4775H347.854C349.38 27.4775 350.618 26.2705 350.618 24.7817C350.618 23.2929 349.38 22.0859 347.854 22.0859Z" fill="white"/>
<path d="M339.656 34.0078H294.951C293.635 34.0078 292.568 35.0665 292.568 36.3725V37.0346C292.568 38.3406 293.635 39.3994 294.951 39.3994H339.656C340.972 39.3994 342.039 38.3406 342.039 37.0346V36.3725C342.039 35.0665 340.972 34.0078 339.656 34.0078Z" fill="white"/>
<path d="M335.557 48.3828H298.954C294.322 48.3828 290.566 52.1095 290.566 56.7066V70.8949C290.566 75.492 294.322 79.2187 298.954 79.2187H335.557C340.19 79.2187 343.945 75.492 343.945 70.8949V56.7066C343.945 52.1095 340.19 48.3828 335.557 48.3828Z" fill="white"/>
<path d="M159.406 29H235.566C240.142 29 243.859 32.689 243.859 37.2292V103.063C243.859 107.603 240.142 111.292 235.566 111.292H151.018V37.2292C151.018 32.689 154.735 29 159.311 29H159.406Z" fill="#AADAED"/>
<path d="M228.036 41.2969H166.936C165.41 41.2969 164.172 42.5038 164.172 43.9926C164.172 45.4815 165.41 46.6884 166.936 46.6884H228.036C229.563 46.6884 230.801 45.4815 230.801 43.9926C230.801 42.5038 229.563 41.2969 228.036 41.2969Z" fill="white"/>
<path d="M219.839 53.1172H175.134C173.818 53.1172 172.751 54.1759 172.751 55.4819V56.144C172.751 57.45 173.818 58.5087 175.134 58.5087H219.839C221.155 58.5087 222.222 57.45 222.222 56.144V55.4819C222.222 54.1759 221.155 53.1172 219.839 53.1172Z" fill="white"/>
<path d="M215.74 67.5H179.137C174.505 67.5 170.749 71.2267 170.749 75.8238V90.0121C170.749 94.6092 174.505 98.3359 179.137 98.3359H215.74C220.373 98.3359 224.128 94.6092 224.128 90.0121V75.8238C224.128 71.2267 220.373 67.5 215.74 67.5Z" fill="white"/>
<path d="M384.545 126.873L333.949 61.9113C333.08 60.7953 331.464 60.5899 330.339 61.4524L323.023 67.0632C321.899 67.9258 321.692 69.5297 322.561 70.6457L373.157 135.607C374.026 136.723 375.643 136.929 376.767 136.066L384.083 130.455C385.208 129.593 385.415 127.989 384.545 126.873Z" fill="#FF8D2E"/>
<path d="M322.5 67L330 60.9996C331.131 60.132 332.736 60.3359 333.61 61.4585L341 70.9987L329.802 80.0363L322.038 70.5825C321.163 69.4599 321.369 67.8677 322.5 67Z" fill="#F2F2F2"/>
<path d="M27.4392 0.141883L28.0111 3.73625C28.7737 8.56026 32.5865 12.3438 37.3525 13.1951L39.5448 13.5735C39.7355 13.5735 39.7355 13.8572 39.5448 13.8572L37.3525 14.2356C32.4912 15.0869 28.7737 18.965 28.0111 23.6944L27.4392 27.2888C27.4392 27.478 27.1533 27.478 27.1533 27.2888L26.5814 23.6944C25.8188 18.8704 22.1013 15.0869 17.24 14.2356L15.143 13.8572C14.9523 13.8572 14.9523 13.5735 15.143 13.5735L17.24 13.1951C22.006 12.2492 25.8188 8.46567 26.5814 3.73625L27.1533 0.141883C27.1533 -0.0472943 27.4392 -0.0472943 27.4392 0.141883Z" fill="#FF8D2E"/>
<path d="M111.429 96.7161L112.001 100.31C112.763 105.134 116.576 108.918 121.342 109.769L123.534 110.148C123.725 110.148 123.725 110.431 123.534 110.431L121.342 110.81C116.481 111.661 112.763 115.539 112.001 120.269L111.429 123.863C111.429 124.052 111.143 124.052 111.143 123.863L110.571 120.269C109.808 115.445 106.091 111.661 101.23 110.81L99.1325 110.431C98.9418 110.431 98.9418 110.148 99.1325 110.148L101.23 109.769C105.996 108.823 109.808 105.04 110.571 100.31L111.143 96.7161C111.143 96.5269 111.429 96.5269 111.429 96.7161Z" fill="#FF8D2E"/>
<path d="M249.166 3.35673L249.738 6.95109C250.501 11.7751 254.313 15.5586 259.079 16.4099L261.272 16.7883C261.462 16.7883 261.462 17.0721 261.272 17.0721L259.079 17.4504C254.218 18.3017 250.501 22.1798 249.738 26.9093L249.166 30.5036C249.166 30.6928 248.88 30.6928 248.88 30.5036L248.308 26.9093C247.546 22.0853 243.828 18.3017 238.967 17.4504L236.87 17.0721C236.679 17.0721 236.679 16.7883 236.87 16.7883L238.967 16.4099C243.733 15.4641 247.546 11.6805 248.308 6.95109L248.88 3.35673C248.88 3.16755 249.166 3.16755 249.166 3.35673Z" fill="#FF8D2E"/>
</svg>
