<svg xmlns="http://www.w3.org/2000/svg" viewBox="0 0 350 350"><path d="M266,72.65a4.23,4.23,0,0,0-4.42-3.81H261c-2.55,0-4.76,1.94-4.76,3.81V98.44c0,2.34,1.4,4.17,3.23,4.28l3.08.3c2.56,0,3.49-2.7,3.49-4.58V72.65Z" style="fill:#858fa9"/><path d="M251.39,64.84l-9-.92-18.3-1.79-2.68-11.47,12.72-7,11.29-6.48s14.11,1.44,14.81,10.71C261,58.57,251.39,64.84,251.39,64.84Z" style="fill:#dcdde0"/><path d="M323.6,43.77,251.19,64.94a18.89,18.89,0,0,0,4.35-16.51c-1.37-6.85-10-11.22-10-11.22L325.35,12s10.2-2.32,6.81,14.86C329.75,39,323.6,43.77,323.6,43.77Z" style="fill:#2a9cc8"/><path d="M225.15,55.91c.59,3.76-.47,7.05-2.36,7.34-.61.1-2.55.56-2.73.34A37.08,37.08,0,0,1,218.3,57a40.84,40.84,0,0,1-.24-6.78c.07-.22,1.27-.37,2.6-.56C222.55,49.37,224.56,52.16,225.15,55.91Z" style="fill:#414355"/><path d="M218.23,50.06c1.89-.3,3.9,2.5,4.49,6.26s-.46,7-2.35,7.34-3.91-2.51-4.5-6.26S216.34,50.35,218.23,50.06Z" style="fill:#ffa348"/><path d="M260.65,80.28l-9-1.11L233.42,77,231,65.49l12.86-6.71,11.42-6.25s14.07,1.74,14.58,11C270.42,74.21,260.65,80.28,260.65,80.28Z" style="fill:#dcdde0"/><path d="M333.28,60.69,260.45,80.38A18.91,18.91,0,0,0,265.14,64c-1.24-6.87-9.79-11.42-9.79-11.42l80.32-23.59s10.25-2.11,6.51,15C339.53,56,333.28,60.69,333.28,60.69Z" style="fill:#2a9cc8"/><path d="M234.6,70.82c.51,3.77-.61,7-2.51,7.29-.61.08-2.56.5-2.74.28a37.63,37.63,0,0,1-1.63-6.64,41.62,41.62,0,0,1-.1-6.78,7.52,7.52,0,0,1,2.61-.51C232.13,64.23,234.08,67.05,234.6,70.82Z" style="fill:#414355"/><path d="M227.85,64.78c1.9-.26,3.85,2.58,4.36,6.35s-.6,7-2.5,7.29-3.85-2.59-4.37-6.35S226,65,227.85,64.78Z" style="fill:#ffa348"/><path d="M169.47,341.3c0-2.25-3.51-3.76-4.8-4.14A14.63,14.63,0,0,1,158,333.8a6.53,6.53,0,0,1-2.24-3.37l-.36-2.34c-1.42.17-12.83-2.25-14.11-2.59-.63-.22-1.75-1.14-2,1.41a52.49,52.49,0,0,0-.2,6.53c0,.24,0,.56.08.9,9.19,4.55,18.45,8.8,28.29,10.7C168.82,344.31,169.47,343.43,169.47,341.3Z" style="fill:#ffa348"/><path d="M139.25,334.34a5.57,5.57,0,0,0,.84,2.57c1.31,1.45,4.29,2.61,6,3.47,3.85,1.9,7.6,4.23,11.93,5,3.41.6,6.25,1.41,9.28-.21l.22-.13C157.7,343.14,148.44,338.89,139.25,334.34Z" style="fill:#fcc18b"/><path d="M137.39,339.61c-.09-1.68-2.07-3.29-3.3-3.67-2.53-.78-4.41-1.48-6.31-3.37a6.52,6.52,0,0,1-2.14-3.36l-.34-2.35c-1.36.18-12.23-2.24-13.45-2.59-.6-.21-1.67-1.13-1.86,1.42a53.07,53.07,0,0,0-.2,6.44c8,5.6,16.91,10.92,25.89,11.27A4.76,4.76,0,0,0,137.39,339.61Z" style="fill:#ffa348"/><path d="M109.79,332.22a7.29,7.29,0,0,0,.88,3.46c1.25,1.46,4.08,2.62,5.73,3.47,3.67,1.9,6.45,4.13,10.58,4.9,3.25.6,6.68.78,8.26-.31a3.68,3.68,0,0,0,.44-.34c-9-.35-17.92-5.67-25.89-11.27Z" style="fill:#fcc18b"/><path d="M160.28,178.22v-.55l-.54-.08c-.2,0-1.09-.36-1.63-.56s-1-.38-1.23-.43c-3.35-.75-8.05-4.09-11.84-6.77-1.46-1-2.84-2-4-2.75-3.47-2.19-6.86-4.45-10.13-6.64s-6.37-4.26-9.65-6.34l-1.44-.91-.4-.25-.35.33c-.28.27-7,6.65-9.9,12.25-4.24,8.07-6.59,19.14-7,26.52-1,16.87.72,34,2.41,50.61.6,5.91,1.22,12,1.71,18,1,12.68.79,25.66.56,38.21-.12,6.83-.25,13.9-.17,20.82,0,5.22,1.37,7,6.13,8.43a51.39,51.39,0,0,0,8.35,1.55c.13,0,.54,0,1.09,0a14.42,14.42,0,0,0,3.81-.38l.39-.14v-.41s.21-5.18.29-6.84c.22-4.7.12-9.49,0-14.12-.06-2.75-.12-5.6-.12-8.4,0-5.44.11-10.94.2-16.26.1-5.77.2-11.74.2-17.64,0-11.41,0-25.62,1.17-38.93.41-4.63.57-9.32.73-13.86.1-2.84.2-5.78.36-8.67.09-1.63.06-4.34,0-6.43a35,35,0,0,1,1.6,6.75l.24,2.1c.48,4.38,1,8.9,1.18,12.07.27,4.51.7,9.75,1.16,15.3.57,7,1.17,14.29,1.53,21,.88,16.22,1.73,33.52,1.73,51.06,0,7.31,1.08,20.66,1.2,22.15l-.06.18.18.27c.62.91,11.65,1,11.59,1.05a38.06,38.06,0,0,0,5.39-.3l.51-.07v-.52s.07-3,.22-4.86c.25-3.27.35-6.87.45-10.36,0-1.32.07-2.6.11-3.79,1-27.36,1.73-47.64,2.91-76.41l.16-3.79c.4-9.52.75-17.75.46-27.61C159.67,195.06,160.28,178.39,160.28,178.22Z" style="fill:#858fa9"/><path d="M188.64,98.33c-17.58,6.2-10.69-23.63-8.5-32.12,2.12-8.21,7.38-15.57,15.22-18.91a34,34,0,0,1,8.21-2c9.82-1.58,14.79,6.15,15.66,15.07.54,5.47-.33,10.93-1.5,16.21C214.87,89.49,199.71,94.42,188.64,98.33Z" style="fill:#858fa9"/><path d="M246.78,73.39c-1.3-2-4.21,2.86-5.05,2.3-.63-.42,2.64-5.51,1.15-5.44-3.21.16-7.28,5.79-8.26,8.88-.63,2-1.05,4.1-1.65,6.49-.29,1.17-.61,2.37-.94,3.58,3.51,2.14,7.69,3.94,11.33,6,.28-1,.57-2,.85-2.94l.24-.81.09-.32c.28-1,.69-2.1,1.13-3.3.76-2.11,2.46-4.07,2.94-6.35.42-2,1.08-4.82-1.76-2.53C245.25,80.28,247.34,74.25,246.78,73.39Z" style="fill:#858fa9"/><path d="M196.6,99.86c2.65-5.25-6.38-10.92-10.62-12.25C179.4,85.54,171.58,86,164.36,86c-20.2,0-40.67.9-60.3,3.66-13.79,1.94-24.36,7.53-36.39,14.62-7,4.14-15.71,5-23.76,3.74-6.75-1.09-14.48-6.23-21.44-4.8-7.17,1.49-8.34,12.53-10.12,18.6,6,3.44,15.36,4.19,22.26,5,8.26.92,16.48,2.2,24.76,0a68.67,68.67,0,0,0,20.13-8.46c5.35-3.45,11.63-8,18.36-7,6.55,1,12.74,4.71,19.15,5.74a68.83,68.83,0,0,0,23.69-.52c15.58-3.08,25.61-20.47,42.84-20.31A36.8,36.8,0,0,1,197,99.49a1.39,1.39,0,0,1-.37,1.18" style="fill:#ffa348"/><path d="M232,89.2c-2.05,7.45-5,15.61-9.61,21.85-2.42,3.27-4.26,4.6-6.33,4.6a9.2,9.2,0,0,1-5-2c-4.15-2.85-7.58-6.63-10.89-10.28-.95-1-1.89-2.09-2.86-3.11l-.41-.44c-3.5-3.73-7.12-7.58-12.47-8.54a41.21,41.21,0,0,0-6.83-.72,13.6,13.6,0,0,0-1.92.12A25.54,25.54,0,0,0,163.78,96a55,55,0,0,0-7.75,7.44c-1.9,2.34-4.15,5.34-6.54,8.5-2.62,3.48-5.33,7.08-7.84,10.17-7.86,9.67-14,17.17-21.34,25.69a13.3,13.3,0,0,1-1.34,1.24c-1.31,1.13-2.8,2.42-2.88,3.8a2,2,0,0,0,.57,1.51,96.76,96.76,0,0,0,7.75,7.18,171.41,171.41,0,0,0,20.89,14.14,41.76,41.76,0,0,0,16,4.35l.43,0,.16-.38c2.33-5.39,6.26-10.75,10.07-15.94,1.48-2,2.87-3.91,4.16-5.79a159.16,159.16,0,0,0,9-15.27,117.37,117.37,0,0,1,8.71-14.44,31.54,31.54,0,0,1,3.76,2.11c4.65,2.84,11.68,7.13,17.37,7.13a8.49,8.49,0,0,0,3.76-.8c8.08-4,12.63-12.42,15.63-18l.25-.45c4-7.49,6.42-15.06,8.74-23C239.72,93.14,235.55,91.34,232,89.2Z" style="fill:#414355"/><path d="M207.61,49.06c-2.93,1-7.14,5.72-8.06,12.65-.76,5.79-3.71,10.74-6.83,14.59-7.45,9.18-15.17,12.57-28.66,14.69-8.77,1.37-15.41-.16-23.46-.16a31.54,31.54,0,0,0-15.3,3.45c-10.86,5.43-21.8,11.28-34.27,7.42-6.71-2.07-13.26-7.25-14.49-17.35-1.42-11.72,4.18-18.66,15.2-21.82,6.45-1.85,15.87.33,22.31-1.53,6.2-1.8,9.4-6.61,14.77-10a31.9,31.9,0,0,1,16.37-4.74c6.27-.15,12,3,17.82,2.16,6.77-1,10.13-6.13,16.55-8.08,4.51-1.36,9.59-3.06,18.36-1.53,7.71,1.35,16.83,7.25,16.63,9.69A11.68,11.68,0,0,0,207.61,49.06Z" style="fill:#414355"/><path d="M22.58,105.78c-3,.13-10.75-1.56-12.44-4.29" style="fill:none;stroke:#fcc18b;stroke-miterlimit:10;stroke-width:1.2240047854590728px"/><path d="M25,103.33c-3,.13-10.75-1.56-12.44-4.29" style="fill:none;stroke:#fcc18b;stroke-miterlimit:10;stroke-width:1.2240047854590728px"/><path d="M18.91,108c-1.81.25-3.89-.54-5.81-.92a36.8,36.8,0,0,1-6-1.48" style="fill:none;stroke:#fcc18b;stroke-miterlimit:10;stroke-width:1.2240047854590728px"/><path d="M17.33,110.62c-3.86,0-7.95.68-11.47-1" style="fill:none;stroke:#fcc18b;stroke-miterlimit:10;stroke-width:1.2240047854590728px"/><path d="M16.16,114.29c-3,.16-9.41-.05-12-1.53" style="fill:none;stroke:#fcc18b;stroke-miterlimit:10;stroke-width:1.2240047854590728px"/><path d="M3,119.49a14.53,14.53,0,0,1,5.71.16c1.79.41,3.6,2.16,5.15,1.63" style="fill:none;stroke:#fcc18b;stroke-miterlimit:10;stroke-width:1.2240047854590728px"/><path d="M14.32,117.15c-1.86.84-7.95-1.33-11-.87" style="fill:none;stroke:#fcc18b;stroke-miterlimit:10;stroke-width:1.2240047854590728px"/><path d="M317.47,325.38s-10.1,12.55-32.13,12.86S252.9,326.3,252.9,326.3l1.22-72.83,60.59.92Z" style="fill:#2a9cc8"/><ellipse cx="284.32" cy="255.77" rx="30.6" ry="13.01" style="fill:#dcdde0"/><polygon points="293.29 254.89 275.75 254.89 278.2 107.81 288.8 108.83 293.29 254.89" style="fill:#2a9cc8"/><path d="M253.44,309.44c15.81,12.38,48.31,14.26,62.78-1.43,1.6-1.73-1-4.34-2.6-2.59-13.21,14.32-43.9,12.14-57.59,1.43-1.84-1.44-4.46,1.14-2.59,2.59Z" style="fill:#858fa9"/><path d="M303.19,54.15h-3.5c-3.38,0-5.51,1.85-5.51,5v43.28l-32.41-8-2.94,8.18,35.44,11.89s2.34.71,3.29,1a13.42,13.42,0,0,0,5.24.3c3.25-.32,4.84-2.34,4.84-4.59v-52C307.64,55.9,307.17,54.15,303.19,54.15Z" style="fill:#2a9cc8"/><path d="M297.85,111.68h-3.67V58.18a3.93,3.93,0,0,1,1.55-2.79c1.58-1.07,5.44-.82,5.44-.82a12,12,0,0,0-2.33.77c-1,.51-1,2.75-1,2.75v53.59Z" style="fill:#dcdde0"/><path d="M234.28,81.71c1.29-3.94,2.5-8.09,6.58-10,1.57-.74.41.77.27,1-.7,1.24-1.09,2.67-1.73,4-.74,1.46-1.43,2.62-.86,4.24a.62.62,0,0,0,1.18,0,17.69,17.69,0,0,1,2.5-4.8c.3-.37,3.57-3.54,4.06-2.23.56,1.48-1.14,3.22-1.65,4.49-.6,1.5-1.07,3-1.71,4.51l1.69.71c.14-.53.29-1.06.47-1.58l.72-1.56a2.72,2.72,0,0,1,3-1.54c.17,1.53-1.24,3.89-1.72,5.23-1.29,3.59-3.17,7-4.52,10.61-.19.49.63.84.85.36,1.31-2.89,2.47-5.79,3.85-8.64a24.88,24.88,0,0,0,2.39-7.56,1.66,1.66,0,0,0-2-1.82c-2,.53-3.81,4.16-4.72,5.79a.93.93,0,0,0,1.6.93c1.55-2.09,1.39-4.67,2.41-7,.62-1.45.8-2.93-.26-4.19-.91-1.07-3.16,1.12-3.75,1.57a15.26,15.26,0,0,0-4.31,6.28l1.11.47a39.27,39.27,0,0,1,2.05-4c.55-1.12.82-2.36,1.37-3.48s1.07-2.17.06-3.21a.77.77,0,0,0-.75-.2c-2.11.55-4.38,2.87-5.65,4.57a14.82,14.82,0,0,0-2.92,7.12c0,.23.33.25.4,0Z" style="fill:#414355"/></svg>