<svg width="200" height="200" viewBox="0 0 200 200" fill="none" xmlns="http://www.w3.org/2000/svg">
<path d="M51.9333 58.3125H29.8807C25.3665 58.3125 21.707 61.972 21.707 66.4862V88.5388C21.707 93.053 25.3665 96.7125 29.8807 96.7125H51.9333C56.4475 96.7125 60.107 93.053 60.107 88.5388V66.4862C60.107 61.972 56.4475 58.3125 51.9333 58.3125Z" fill="#FFEFE3"/>
<path d="M53.5459 102.312H29.0674C28.095 102.312 27.3066 103.029 27.3066 103.912C27.3066 104.796 28.095 105.512 29.0674 105.512H53.5459C54.5183 105.512 55.3066 104.796 55.3066 103.912C55.3066 103.029 54.5183 102.312 53.5459 102.312Z" fill="#FFEFE3"/>
<path d="M111.133 58.3125H89.0799C84.5657 58.3125 80.9062 61.972 80.9062 66.4862V88.5388C80.9062 93.053 84.5657 96.7125 89.0799 96.7125H111.133C115.647 96.7125 119.306 93.053 119.306 88.5388V66.4862C119.306 61.972 115.647 58.3125 111.133 58.3125Z" fill="#2A9CC8"/>
<path d="M112.747 102.312H88.2686C87.2961 102.312 86.5078 103.029 86.5078 103.912C86.5078 104.796 87.2961 105.512 88.2686 105.512H112.747C113.719 105.512 114.508 104.796 114.508 103.912C114.508 103.029 113.719 102.312 112.747 102.312Z" fill="#AADAED"/>
<path d="M115.129 109.512H85.0842C84.1025 109.512 83.3066 110.228 83.3066 111.112C83.3066 111.995 84.1025 112.712 85.0842 112.712H115.129C116.111 112.712 116.907 111.995 116.907 111.112C116.907 110.228 116.111 109.512 115.129 109.512Z" fill="#AADAED"/>
<path d="M167.933 125.512H145.881C141.367 125.512 137.707 129.171 137.707 133.685V155.738C137.707 160.252 141.367 163.912 145.881 163.912H167.933C172.448 163.912 176.107 160.252 176.107 155.738V133.685C176.107 129.171 172.448 125.512 167.933 125.512Z" fill="#2A9CC8"/>
<path d="M168.747 169.512H144.269C143.296 169.512 142.508 170.228 142.508 171.112C142.508 171.995 143.296 172.712 144.269 172.712H168.747C169.719 172.712 170.508 171.995 170.508 171.112C170.508 170.228 169.719 169.512 168.747 169.512Z" fill="#AADAED"/>
<path d="M171.93 176.711H141.885C140.903 176.711 140.107 177.427 140.107 178.311C140.107 179.195 140.903 179.911 141.885 179.911H171.93C172.912 179.911 173.707 179.195 173.707 178.311C173.707 177.427 172.912 176.711 171.93 176.711Z" fill="#AADAED"/>
<path d="M167.933 58.3125H145.881C141.367 58.3125 137.707 61.972 137.707 66.4862V88.5388C137.707 93.053 141.367 96.7125 145.881 96.7125H167.933C172.448 96.7125 176.107 93.053 176.107 88.5388V66.4862C176.107 61.972 172.448 58.3125 167.933 58.3125Z" fill="#FFEFE3"/>
<path d="M168.747 102.312H144.269C143.296 102.312 142.508 103.029 142.508 103.912C142.508 104.796 143.296 105.512 144.269 105.512H168.747C169.719 105.512 170.508 104.796 170.508 103.912C170.508 103.029 169.719 102.312 168.747 102.312Z" fill="#FFEFE3"/>
<path d="M111.133 126.312H89.0799C84.5657 126.312 80.9062 129.972 80.9062 134.486V156.539C80.9062 161.053 84.5657 164.713 89.0799 164.713H111.133C115.647 164.713 119.306 161.053 119.306 156.539V134.486C119.306 129.972 115.647 126.312 111.133 126.312Z" fill="#FFEFE3"/>
<path d="M112.747 170.312H88.2686C87.2961 170.312 86.5078 171.029 86.5078 171.912C86.5078 172.796 87.2961 173.512 88.2686 173.512H112.747C113.719 173.512 114.508 172.796 114.508 171.912C114.508 171.029 113.719 170.312 112.747 170.312Z" fill="#FFEFE3"/>
<path d="M51.9333 126.312H29.8807C25.3665 126.312 21.707 129.972 21.707 134.486V156.539C21.707 161.053 25.3665 164.713 29.8807 164.713H51.9333C56.4475 164.713 60.107 161.053 60.107 156.539V134.486C60.107 129.972 56.4475 126.312 51.9333 126.312Z" fill="#2A9CC8"/>
<path d="M53.5459 170.312H29.0674C28.095 170.312 27.3066 171.029 27.3066 171.912C27.3066 172.796 28.095 173.512 29.0674 173.512H53.5459C54.5183 173.512 55.3066 172.796 55.3066 171.912C55.3066 171.029 54.5183 170.312 53.5459 170.312Z" fill="#AADAED"/>
<path d="M171.36 19.9121H28.8536C22.6975 19.9121 17.707 24.7474 17.707 30.7121C17.707 36.6768 22.6975 41.5121 28.8536 41.5121H171.36C177.517 41.5121 182.507 36.6768 182.507 30.7121C182.507 24.7474 177.517 19.9121 171.36 19.9121Z" fill="#FFEFE3"/>
<path d="M69.7509 23.1113H28.8616C24.468 23.1113 20.9062 26.514 20.9062 30.7113C20.9062 34.9087 24.468 38.3113 28.8616 38.3113H69.7509C74.1445 38.3113 77.7063 34.9087 77.7063 30.7113C77.7063 26.514 74.1445 23.1113 69.7509 23.1113Z" fill="#2A9CC8"/>
</svg>
