<svg width="200" height="200" viewBox="0 0 200 200" fill="none" xmlns="http://www.w3.org/2000/svg">
<path d="M144.006 36.7109H55.9946C50.6959 36.7109 46.4004 41.0081 46.4004 46.3089V163.913C46.4004 169.214 50.6959 173.511 55.9946 173.511H144.006C149.305 173.511 153.6 169.214 153.6 163.913V46.3089C153.6 41.0081 149.305 36.7109 144.006 36.7109Z" fill="#FFEFE3"/>
<path d="M144.006 36.7109H55.9946C50.6959 36.7109 46.4004 41.0081 46.4004 46.3089V163.913C46.4004 169.214 50.6959 173.511 55.9946 173.511H144.006C149.305 173.511 153.6 169.214 153.6 163.913V46.3089C153.6 41.0081 149.305 36.7109 144.006 36.7109Z" stroke="#2A9CC8" stroke-width="1.73722" stroke-miterlimit="10"/>
<path d="M127.349 53.5117H74.2512C70.3571 53.5117 67.2002 56.7062 67.2002 60.6467V114.377C67.2002 118.317 70.3571 121.512 74.2512 121.512H127.349C131.243 121.512 134.4 118.317 134.4 114.377V60.6467C134.4 56.7062 131.243 53.5117 127.349 53.5117Z" fill="white"/>
<path d="M121.783 131.912H79.8169C78.1506 131.912 76.7998 133.166 76.7998 134.712C76.7998 136.259 78.1506 137.512 79.8169 137.512H121.783C123.449 137.512 124.8 136.259 124.8 134.712C124.8 133.166 123.449 131.912 121.783 131.912Z" fill="white"/>
<path d="M126.554 143.912H75.0461C73.3638 143.912 72 145.166 72 146.712C72 148.259 73.3638 149.512 75.0461 149.512H126.554C128.236 149.512 129.6 148.259 129.6 146.712C129.6 145.166 128.236 143.912 126.554 143.912Z" fill="white"/>
<rect x="111.7" y="10.4121" width="63" height="63" rx="15.5" fill="#E5F5FF" stroke="#B9E3F8"/>
<path d="M143.6 59.9113C153.541 59.9113 161.6 51.6734 161.6 41.5113C161.6 31.3493 153.541 23.1113 143.6 23.1113C133.658 23.1113 125.6 31.3493 125.6 41.5113C125.6 51.6734 133.658 59.9113 143.6 59.9113Z" stroke="#2A9CC8" stroke-width="5.49053" stroke-miterlimit="10"/>
<path d="M144 51.9121V39.9121" stroke="#2A9CC8" stroke-width="5.49053" stroke-linecap="round" stroke-linejoin="round"/>
<path d="M143.6 31.3398C144.541 31.3398 145.371 32.2717 145.371 33.5117C145.371 34.7516 144.541 35.6826 143.6 35.6826C142.659 35.6826 141.828 34.7516 141.828 33.5117C141.828 32.2717 142.659 31.3398 143.6 31.3398Z" fill="#2A9CC8" stroke="#2A9CC8" stroke-width="0.457163"/>
<path d="M173.43 98.9743L164.714 59.7715L199.134 81.67L173.43 98.9743Z" fill="#FF8D2E"/>
<path d="M181.613 89.236L187.074 98.9284L193.759 94.5154L187.269 84.6738L181.613 89.236Z" fill="#FF8D2E"/>
</svg>
