<svg xmlns="http://www.w3.org/2000/svg" width="25" height="22" viewBox="0 0 25 22" fill="none">
<path d="M12.6328 -0.96582C13.2468 -0.920225 13.7805 -0.561297 14.0732 -0.0380859L14.1328 0.0771484L16.5459 5.19629L21.9258 6.01562L22.0557 6.04004C22.6544 6.17668 23.1281 6.60957 23.3438 7.16602L23.3867 7.28711L23.4199 7.41016C23.557 7.98713 23.4155 8.60445 23.0264 9.06152L22.9395 9.15723L19.0205 13.1562L19.9482 18.8135L19.9639 18.9395C20.0202 19.5294 19.797 20.1239 19.3438 20.5225L19.2432 20.6045C18.7161 21.0054 18.0173 21.083 17.4189 20.8086L17.3008 20.749L12.5 18.1064L7.69922 20.75C7.07678 21.0926 6.31909 21.0321 5.75684 20.6045C5.20187 20.1822 4.94173 19.4854 5.05176 18.8135L5.97852 13.1562L2.06055 9.15723C1.57564 8.66235 1.41192 7.93883 1.61426 7.28711H1.61328C1.81664 6.63183 2.37072 6.12263 3.07422 6.01562L8.45312 5.19629L10.8672 0.0771484L10.9268 -0.0380859C11.2404 -0.598585 11.8307 -0.970701 12.5 -0.970703L12.6328 -0.96582Z" fill="#FFD422" stroke="white" stroke-width="1.94218"/>
<path d="M22.4583 7.57508C22.3594 7.2563 22.0962 7.024 21.7794 6.97581L15.8883 6.07961L13.2537 0.490847C13.112 0.19032 12.8197 0 12.4995 0C12.4435 0 12.4995 16.9987 12.4995 16.9987L17.7687 19.8989C18.0521 20.0548 18.3955 20.0288 18.6544 19.8319C18.9134 19.6348 19.0431 19.301 18.989 18.9707L17.9827 12.828L22.2455 8.47773C22.4748 8.24374 22.5573 7.8938 22.4583 7.57508Z" fill="#EEBF00"/>
</svg>