<svg width="81" height="20" viewBox="0 0 81 20" fill="none" xmlns="http://www.w3.org/2000/svg">
<g clip-path="url(#clip0_808_982)">
<path d="M72.7702 1.95508C68.3219 1.95508 64.7148 5.57724 64.7148 10.0463H80.8255C80.8255 5.57724 77.2194 1.95508 72.7702 1.95508Z" fill="white" fill-opacity="0.7"/>
<path d="M76.4705 12.2416C76.288 12.5468 76.0665 12.8307 75.8088 13.0865C74.9958 13.8961 73.917 14.3422 72.7711 14.3422C71.6263 14.3422 70.5475 13.8961 69.7335 13.0865C68.9204 12.2769 68.4673 11.1984 68.4563 10.0494V10.0464H64.7158C64.7158 10.0464 64.7158 10.0474 64.7158 10.0484C64.7158 10.0605 64.7158 10.0726 64.7158 10.0847C64.7569 14.5175 68.347 18.0983 72.7701 18.0983C76.4474 18.0983 79.5483 15.6231 80.5137 12.2406H76.4695L76.4705 12.2416Z" fill="white"/>
<path d="M55.6035 10.07C55.6145 8.93011 56.0616 7.85968 56.8636 7.05609C57.6667 6.25251 58.7314 5.80944 59.8612 5.80944H63.4994V2.08154H59.8081C55.4671 2.11075 51.9522 5.65335 51.9121 10.0348H51.9111C51.9111 10.0479 51.9111 10.062 51.9111 10.0751C51.9111 10.0871 51.9111 10.0992 51.9111 10.1113C51.9522 14.4927 55.4671 18.0354 59.8071 18.0635H63.4984V14.3357H59.8602C58.7303 14.3357 57.6657 13.8926 56.8626 13.089C56.0606 12.2854 55.6125 11.215 55.6014 10.0751V10.068L55.6035 10.07Z" fill="white"/>
<path d="M50.2793 7.75488H46.6992V18.0645H50.2793V7.75488Z" fill="white" fill-opacity="0.7"/>
<path d="M50.2793 2.08154H46.6992V5.70975H50.2793V2.08154Z" fill="white"/>
<path d="M40.9072 2.08154H37.3271V18.0646H40.9072V2.08154Z" fill="white" fill-opacity="0.7"/>
<path d="M44.4726 2.08154H40.8926V5.67752H41.1161C42.9698 5.67752 44.4726 4.16804 44.4726 2.3061V2.08154Z" fill="white"/>
<path d="M44.4726 7.75488H40.8926V11.3509H41.1161C42.9698 11.3509 44.4726 9.84138 44.4726 7.97944V7.75488Z" fill="white"/>
<path d="M35.082 7.75488H31.502V18.0645H35.082V7.75488Z" fill="white" fill-opacity="0.7"/>
<path d="M35.082 2.08154H31.502V5.70975H35.082V2.08154Z" fill="white"/>
<path d="M29.4961 10.0731C29.4961 5.6594 25.9341 2.08154 21.54 2.08154V18.0646C25.9341 18.0646 29.4961 14.4867 29.4961 10.0731Z" fill="white" fill-opacity="0.7"/>
<path d="M21.541 2.08154H17.9609V18.0646H21.541V2.08154Z" fill="white"/>
<path d="M11.4349 0H4.67188V1.99788H11.4349V0Z" fill="white"/>
<path d="M8.05533 1.95996C3.6061 1.95996 0 5.58212 0 10.0512H16.1107C16.1107 5.58212 12.5046 1.95996 8.05533 1.95996Z" fill="white" fill-opacity="0.7"/>
<path d="M11.7547 12.2451C11.5722 12.5502 11.3506 12.8342 11.093 13.0899C10.2799 13.8996 9.20122 14.3457 8.05533 14.3457C6.91044 14.3457 5.83172 13.8996 5.01766 13.0899C4.20461 12.2803 3.75147 11.2018 3.74044 10.0528V10.0498H0C0 10.0498 0 10.0508 0 10.0518C0 10.0639 0 10.076 0 10.0881C0.0411037 14.5209 3.63116 18.1018 8.05433 18.1018C11.7316 18.1018 14.8324 15.6266 15.7979 12.2441H11.7537L11.7547 12.2451Z" fill="white"/>
</g>
<defs>
<clipPath id="clip0_808_982">
<rect width="81" height="20" fill="white"/>
</clipPath>
</defs>
</svg>
