<?xml version="1.0" encoding="UTF-8" standalone="no"?>
<!-- Generator: Adobe Illustrator 16.0.0, SVG Export Plug-In . SVG Version: 6.00 Build 0)  -->

<svg
   xmlns:pdf="http://ns.adobe.com/pdf/1.3/"
   xmlns:xmpG="http://ns.adobe.com/xap/1.0/g/"
   xmlns:stDim="http://ns.adobe.com/xap/1.0/sType/Dimensions#"
   xmlns:xmpTPg="http://ns.adobe.com/xap/1.0/t/pg/"
   xmlns:illustrator="http://ns.adobe.com/illustrator/1.0/"
   xmlns:stEvt="http://ns.adobe.com/xap/1.0/sType/ResourceEvent#"
   xmlns:stRef="http://ns.adobe.com/xap/1.0/sType/ResourceRef#"
   xmlns:xmpMM="http://ns.adobe.com/xap/1.0/mm/"
   xmlns:xmpGImg="http://ns.adobe.com/xap/1.0/g/img/"
   xmlns:xmp="http://ns.adobe.com/xap/1.0/"
   xmlns:x="adobe:ns:meta/"
   xmlns:dc="http://purl.org/dc/elements/1.1/"
   xmlns:cc="http://creativecommons.org/ns#"
   xmlns:rdf="http://www.w3.org/1999/02/22-rdf-syntax-ns#"
   xmlns:svg="http://www.w3.org/2000/svg"
   xmlns="http://www.w3.org/2000/svg"
   xmlns:sodipodi="http://sodipodi.sourceforge.net/DTD/sodipodi-0.dtd"
   xmlns:inkscape="http://www.inkscape.org/namespaces/inkscape"
   version="1.1"
   id="Layer_4"
   x="0px"
   y="0px"
   width="406.56195"
   height="317.89099"
   viewBox="0 0 406.56195 317.89099"
   xml:space="preserve"
   sodipodi:docname="empty-timeline.svg"
   inkscape:version="0.92.1 r15371"><defs
     id="defs215" /><sodipodi:namedview
     pagecolor="#ffffff"
     bordercolor="#666666"
     borderopacity="1"
     objecttolerance="10"
     gridtolerance="10"
     guidetolerance="10"
     inkscape:pageopacity="0"
     inkscape:pageshadow="2"
     inkscape:window-width="1920"
     inkscape:window-height="993"
     id="namedview213"
     showgrid="false"
     borderlayer="true"
     inkscape:showpageshadow="false"
     fit-margin-top="0"
     fit-margin-left="0"
     fit-margin-right="0"
     fit-margin-bottom="0"
     inkscape:zoom="0.42142857"
     inkscape:cx="391.57497"
     inkscape:cy="163.58645"
     inkscape:window-x="0"
     inkscape:window-y="0"
     inkscape:window-maximized="1"
     inkscape:current-layer="Layer_4" /><metadata
     id="metadata2"><?xpacket begin="" id="W5M0MpCehiHzreSzNTczkc9d"?><x:xmpmeta
       x:xmptk="Adobe XMP Core 5.3-c011 66.145661, 2012/02/06-14:56:27        "><metadata><rdf:RDF><rdf:Description
             rdf:about=""><dc:format>image/svg+xml</dc:format><dc:title><rdf:Alt><rdf:li
                   xml:lang="x-default">illus-cahier-texte</rdf:li></rdf:Alt></dc:title></rdf:Description><rdf:Description
             rdf:about=""><xmp:CreatorTool>Adobe Illustrator CS6 (Macintosh)</xmp:CreatorTool><xmp:CreateDate>2018-05-25T11:23:53+02:00</xmp:CreateDate><xmp:ModifyDate>2018-05-25T11:23:53+02:00</xmp:ModifyDate><xmp:MetadataDate>2018-05-25T11:23:53+02:00</xmp:MetadataDate><xmp:Thumbnails><rdf:Alt><rdf:li
                   rdf:parseType="Resource"><xmpGImg:width>256</xmpGImg:width><xmpGImg:height>104</xmpGImg:height><xmpGImg:format>JPEG</xmpGImg:format><xmpGImg:image>/9j/4AAQSkZJRgABAgEASABIAAD/7QAsUGhvdG9zaG9wIDMuMAA4QklNA+0AAAAAABAASAAAAAEA
AQBIAAAAAQAB/+4ADkFkb2JlAGTAAAAAAf/bAIQABgQEBAUEBgUFBgkGBQYJCwgGBggLDAoKCwoK
DBAMDAwMDAwQDA4PEA8ODBMTFBQTExwbGxscHx8fHx8fHx8fHwEHBwcNDA0YEBAYGhURFRofHx8f
Hx8fHx8fHx8fHx8fHx8fHx8fHx8fHx8fHx8fHx8fHx8fHx8fHx8fHx8fHx8f/8AAEQgAaAEAAwER
AAIRAQMRAf/EAaIAAAAHAQEBAQEAAAAAAAAAAAQFAwIGAQAHCAkKCwEAAgIDAQEBAQEAAAAAAAAA
AQACAwQFBgcICQoLEAACAQMDAgQCBgcDBAIGAnMBAgMRBAAFIRIxQVEGE2EicYEUMpGhBxWxQiPB
UtHhMxZi8CRygvElQzRTkqKyY3PCNUQnk6OzNhdUZHTD0uIIJoMJChgZhJRFRqS0VtNVKBry4/PE
1OT0ZXWFlaW1xdXl9WZ2hpamtsbW5vY3R1dnd4eXp7fH1+f3OEhYaHiImKi4yNjo+Ck5SVlpeYmZ
qbnJ2en5KjpKWmp6ipqqusra6voRAAICAQIDBQUEBQYECAMDbQEAAhEDBCESMUEFURNhIgZxgZEy
obHwFMHR4SNCFVJicvEzJDRDghaSUyWiY7LCB3PSNeJEgxdUkwgJChgZJjZFGidkdFU38qOzwygp
0+PzhJSktMTU5PRldYWVpbXF1eX1RlZmdoaWprbG1ub2R1dnd4eXp7fH1+f3OEhYaHiImKi4yNjo
+DlJWWl5iZmpucnZ6fkqOkpaanqKmqq6ytrq+v/aAAwDAQACEQMRAD8A9U4q7FXYq7FXYq7FXYq8
Y13UPMutanLHqJngsIpHVIeJiQAE0FD9pvnXK9fq46bFxCjI8nI0OlOfJwn6erIopPQ0CL6xOIL2
2IGlxKxFwUDDkWWu6b7Gn6852c8ksPiZDU79Pf8A2dzvIRgM3hwFxr1d39ve9BtWla2iaYUmKKZB
4MRv+OdHjJMRfOnnsgAka5WqZNg7FXYq7FXYq7FXYq7FXYq7FXYq7FXYq7FXYqw78wfPN15Yayjt
raO4e6WUsZCwC8OIWnHr9o5m6TSjLdmqdZ2jrzgqhd278vPO975n+vi7giga09Ip6XL4hJzrXkT0
4Y6zSjFVHmvZ2uln4uIAVTMcwnZuxV2KuxV2KuxV2KuxV2KuxV2Kpd5g1U6Zpc9xHxN0VK2iPUq0
xB4BgCDxr1p2yjUaiOKPEW/T6eWWXCEm0q10yfy1Fruv2kdzdPAbqeW4VblgtOQ9Lki8VKgFUVR1
7tUm/m08kXo3li1iuzqt3BEt7IoEFrHGiRWqE8vTQKPietOchPxEbcRtgnASqxdJjMxujzT/AAsX
Yq7FXYq7FXYq7FXYq7FXYq7FXYq7FXYq7FULqup2ul6dcahdtxt7ZC706nsFHux2GTxwM5CI5lrz
ZRjiZS5B4D5w84Xvma9SaeNIYIOS20KblVYgnkx+0ds6HT6cYhQeO1mslnlZ2A5IXy/5n1jQLlp9
NmEZkoJo2UMrhdwGB+fbJ5sEcgqTXp9VPCbgXuHkrzja+ZtPaVU9G8tyFuretQCejKf5Woc0Op0x
xSro9ZodaM8b5SHMMizGc12KuxV2KuxV2KuxV2KuxV5n+aX506X5RDabpqpf6+RvETWK3r0MxXq3
ggNfGm1ZxhaCXzxrn5leetbuPWvtZudiSkcLmCNa9lSLgMnLDA0SAaTHJIWAatCXXnbzjdQJb3Ou
X80EfHhE9zMVHE1U05dQehydBin2my/m1Z6ND5h0m+1GbSfircW1xJPHGyH41miDNwof51p36HBs
r0X8tf8AnIeee7h0rziYwJSEi1hFEYDHp9YUfCAf51AA7jvkJY+5IL3sEEAg1B3BGVJdirsVdirs
VdirsVdirsVdirsVdirsVdiryz8/fNllpGh2GnylzNfTmT046E+nCu9QSNuTrmZosghPiPc4HaOn
nmx8MSOfV5N5TurfzLqT6faN6EqxmUGeg5BSAQvEtvvXMvU9rQxR4iJF1mn9nsuQ1xRHz/UmfnLS
n8saWl/PKlx6kqwpCtVJJVmrU16ccx9P27HLKhEuRm9mZ442Zj5Ir8k/zAsl87xWE8RgXUontonL
gr6tQ6A7D7XAqPc5PV6gZI1XJs0HZ5wTMuK7FPo/Na7Z2KuxV2KuxV2KuxV2KsY/MvzU/lbyVqWr
w0+txoIrMHf99KQiGh68eXKntkoiypfOvlb8qdT1bTbnzh5suJNO8uxo95PcOeV3dA1YmMNX+8PR
26kigNctMugY0wq4563rKW+k2AhFxIILDT4AWIDNRFLH4nc13Zj9w2EuSGb6X+U1zq1hqNlZMG1v
TInnCj7M7q4V4gT7fY9/nmXqMcYY4nqXVaPVyy55j+EDYe4oz8gPOs2gebv0FeMyafrDCExvUend
jaNqHoW/uz8xXpmFMWHbB6R+aX5E6dr6Sar5cjjsNaFWltwAkFyeu4GySH+boe/jkIzrmkhkf5M3
usT+Rba01mGWHUdKlksJlnBV6QkGOoPhGyr9GRnzUM4yKXYq7FXYq7FXYq7FXYq7FXYq7FXYq7FX
yH+dnmv/ABD5+vjE/Oy03/QbWnSkJPqMO3xSlt/CmZEBQYlhFpd3Vncx3VrK0FxEeUcqEqyn2Iwy
iJCjyTGRBsIvWPMGtazKkuqXcl00YIj5kUUHrRRQCuQx4YQ+kUyyZZT+o2gre4mtriK4gcxzwusk
UimjK6mqsD4gjLGt9p/l/wCa4vNXlLT9ZWgmmThdxr+xPH8Mi07fEKj2IzGkKLNkWBXYq7FXYq7F
XYq7FUs8weWtH8wW0Frq0AubWCdLlYGJCNJGDx5gfaX4vsnY98INK84/5yU1Ga08hW1lD8Md7exR
TAbD040eQLT/AF0U/Rk8fNBS7/nH38sf0daL5u1aKl/dIRpcLjeKBhQy79GkGw/yf9bHJLooCM/L
GRofzB1SFtjJHcoVJp8SzK3Tv0ObXXC8MT7vueb7LNamQ9/3sS/5yA8gS6Nq8XnTRkMUFzKpvvTH
9zdA1Sb2EhG/+V/rZrIS6PRl9A6PqA1HSLHUFAAvLeK4AHQCVA/8cpLJF4q7FXYq7FXYq7FXYq7F
XYq7FXYq7FXYqxj8y/NI8seStT1VW43Sx+jZePry/BGf9iTyPsMlEWVL4uJJJJNSepzIYNYq7FXY
q9j/AOcb/OZ07zDN5buZKWerD1Lap2W6jXt/xkQU+YXK8g6pD6Wylk7FXYq7FVOa5ggAMrha9K4q
l1xrgWQrCgZR+0e/yw0qNs7xLmH1AOJBoynscCojFUo8xeU9C8xpZx6xbC6hsZxdRQsTwLhWQB1/
aX4uhwg0qbqoUBVFANgB0AwK8h0BDZ/nJcwAUE090ae0kbzDNzlPFpgfIfqea044dcR3mX3W9U1T
S7DVdOuNO1CFbiyukMc8L9GU/LcHuCOmaYF6V2k6bbaXpVnplry+rWMEdtBzNW4QoEXkdqmi4lUV
irsVWvNEiszMAEFW9hiqEi1i0klEfxLU0VmAoT9+GlRuBXYq7FXYq7FXYq7FXYq7FXzt/wA5L+aG
u9Y07ytasXWzAurqNd6zzDjEtP5ljqf9nl2MdUF49aac9LS9vI5E0ia4EEt2oJUFeLSKGAb41RuV
OuWMWR+b5vJFnFqFn5buTqq392LiG4ktmgWzt05lYITL+9LMXAc0UUUbHtEX1Sw3JIdiqtZ3lzZX
kF5ayGK5tpFlglXqroQysPkRir7X8k+Z7fzP5X0/WoaA3UQ9eNf2Jl+GVPocGntmMRRZp5gV2KqF
5dpaw+ow5EmiqO5xVIb27a6lEhXjQUC1rkkIfFW6mlK7daYqmNnrEqFEmoYlFC2/LYbYKVXbzFYo
rGQMrD7KDcnKM2ojj5lvxYJZOSXTebJyf3MCKP8ALJY/hxzXy7Rl0Dnx7Pj1LGWsYG82J5lNRdhg
zwrQRkiP0u9SNvfMiPbeUY/DIjXxcOXYGI5vFEpcXwrlXczC2802khCzxtDX9ofEv8D+GRx9oRP1
Cm7JoJDkbTmKWOVBJGwdG6MDUZnxkCLDgyiQaK7ChCaldi3t2o3GVxSP+OIVjxJJJJ3PU5JDWKou
z1CS3nMjEurfbBPX3wKnVnepdIzKpXiaEHAlEYq7FXYq7FXYq7FVC/vbawsbi+un9O2tY3mnkP7K
RqWY/cMVfGTed7p/Pcvm6e2ivJ3uZLkWlxVo6MCqIaU2RSAPlmTW1MUBq/mG51CCOzigi0/S4ZHm
h0615iFZZAA0h9R5HdyFAqzGg2FBiAhKcKuxVOYPLM9x5Yu9fguYpIrCeGC7tqOJE+sA+mwLKFar
IQQDtgvdLn8qawvl0eYUWObTFlEE7xSI7wuwBQTIDyTlXauNq9S/5xr85mz1i58rXUlLbUQbiyBO
y3Ea/Go/4yRj/hffIZB1UPo7KWTsVUbu0juYvTeooagjqDiqA/QK1/vjT/V/tw2rR0Adp/8Ahf7c
bVw0Ad5/+F/txtUp1Y29o/oQyGSYfbNAAvt88wNXrOD0x5/c52l0nF6pckpJJNSak980xJJsu3AA
FBrAl2KuxVGadqdzYy8ozyjP24j0P9Dl+DUSxnbk0ZsEcg35srt9X0+eFZBOiV6o7BWB9wTm9xZR
kFh0mXEYGi3KdMvGWMyxyuK8Arjl70ocsa0M9no0blHmVHHVWkAI+g4VQ7yeVo2KPfwI46q06Aj6
Ccd1bW78pL/x/Wp+dwn/ADVjuqKj1zy7GoVNQtFUdAJox/xtjSt2fmHQL6f6vZanaXVxQn0YZ45H
oOp4qxO2NKmGBXYq7FXYq7FXlH/ORfmv9FeTU0iB+N3rUnpsB1FvFR5T9J4r8icsxjdBfLuXMXYq
7FXYqi21bU205dMN1KdOV/VFpzPpepSnPh0rTvjSpg/m/Wj5XXywjxw6T631iWOKNFeWStQZZAOT
8e30eAwVvaUt03ULvTdQttQs5DFdWkqTQSDs6EMp+8YUPtnyl5itfMflvT9atqCO9hV3QGvCQfDJ
H/sHBXMYiizTfAqRw33lfVrkm21T1ppDRUt72VQ1BT4EjkVSPh6qMO6q15ptpbQNKq39wRQelDd3
Jc1NNg0yj8cVbtdLtZ4RJJHewV/3TPdzkke4WaRaHwONqgNeg0S1iEK2UEt0y0VpI1kZFJJrycE/
LMLV6rgFD6i5mk03GbP0hIAAAABQDoM0juXYEuxV2KuxV2Kqts9sk6Nc28dzCD8cUqK4p4gMDvl+
nznHKxyaM+EZI11ZRJoWjT2heysrFJJFrDLJapIgr3KKYyf+CGdBGdixydDKJBorbHy3YpBxv7PT
7iep/eQWawJx7Dg7zmvvyyVoVbWwKztFJpllDZqp9J4m5OTXYGMwoqim+zn+OKqd7daHZyGOWylZ
h3hsLiddxX7UMTr+OKqs1nHcWSS6fBbxySAOn1q3YfCezRn0nU/P7sVR8AlEMYm4mUKPUKAheVN+
INTSvTAq/FXYq7FXYq7FXyL+d3mr/EHn699J+Vlpn+g21Oh9In1G+mQtv4UzIgKDEsAySGQ2CeSJ
9Jslvp7yy1KGeQ37xQpcLNA3HgIuUsQRk4kUI3rWvbBul1n5h0jT/OE2r2ukRT6Q0s/paRcsWUW8
6sgTmKkMqv8AC29DjWyrdS8w6VJpEmlaXo8djDPcJczXEsrXNwTErKiK5Eaqg9Rui1Pc40qQYUOx
V2Kvc/8AnGjzmYL678qXUn7q6ButODHpKg/eoP8AWQcv9ifHKsg6sg+hsqSh5dR0+Ll6t1DHw2fl
Iq0p41O2KoQQPfTi9s9Zn+qkikFv9UeA8diOTQySb9/jwqmFw8qQu0SepIB8CVAqe25yEyQNhZZQ
AJ3NBjbeXNUuJGmnkjEjmrVJJr9ApmqOhySNyIt2g1uOIoA0tfyrfgVWSNvapH8Miez594SO0Idx
QNxpGo29TJA3EftL8Q/CuY89NkjzDkQ1OOXIoPKG92KuxV2KtgEmgFSegwqyTy+dSt6QzwOLZzVG
I+yT7daHNrojkjsQeF1WsGOW4I4kxv8ARNK1CRZL22Sd0HFWeuwrWmbO3XIdrjWLcLa2OlIYogEi
aS4WOMKvwqPhSV+n+TiqJ0+XWHL/AKQtbe3Ap6Zt7h569a8ucMHH8cVbv4NUlKCyu4rVNxKXhMr+
xQ+oiqf9ZWwKi8VdirsVdirsVYz+ZPmlfLHkvUtWVgtykfpWXibiX4I6DvxJ5H2GSiLKl8WsxYlm
NSdyT1JzIYNYq7FXYq7FXYq7FXYqjNH1W90jVbTVLJ/Tu7OVJoW7ckNaHxB6EeGJCvtvy3rtnr+g
2Os2ZrBfQrKBWvFjs6H3RgVPuMxiKZoew/Qt7eytHo7RSjm0l1cWno8m5UPxSKrMWqTUYqjLzVNE
0hI1u7q3sVl5GFJHSLmVpy4KSOR3HTGlS5/MWp3o46Dpclwp6X19ys7Ye4Dq07+3GLif5saVL7jy
h5s1U11fzVc2sR3+q6LGlkq+3rP68zf8EPow2EIRvye8vSOssup6xLMtP3z6hOXqN61r4748a0pP
5H87aGPW8reaLi8Cf9KzXj9bhcD9lZ1Cyx+1MPEDzV1h530S8v10bzbp58u+YG2SO4IEM5G3K3uV
okgr2O/bfKMulhPmG7HqJw5FPrjypuTbT/JZB/xsP6Zr59nfzT83Oh2h/OHyQv8AhfUq/aj+fI/0
yn+T8nk3fn8fmul0C2srZ7vVL6K1tYhyllYhUUeJdyoGWw7NPU/Jqn2iOgSWH8y/JVu5i8v2eoeY
bhTxZ9MtJJ6H/jK4jjp7qaZscWkjj5BwcuolPmUQ3mb8ztUBTSPKsWlo32L7WLpaD521vyk/HLqD
QyLQodX0vSmPmTV47+7ZzJJdenHaxRqQKRIBT4Vofibc4D5Jc/nXybG6xya9pyOxIVGu4ASR1oC+
NFUwstT02/QvY3cN2g6tBIkg+9ScFKhJvLOhzuz3Ft67sSxaZ5JDU+BdmoNugw2qYW1tb20CQW8a
xQxiiRoAFA9gMCqmKuxV2KuxV88f85N+ahPqOneWYHqlov1y9A6erICsSn3VKn/ZZdjHVBeG5Yxd
irsVdirsVdirsVdirsVe9f8AOM/nMiS88pXUnwtW800Mf2htNGPoo4H+tlWQdWQe/wCVJYxqkn5m
tcSJpUGix24ZvSnupruRyn7PKKOKMA+P7w5IUqTzeVfzX1A0vPOMGnRH7UWnWCkn5SStzXDY7kKa
fkxptwK61r+tavIfteveMsf+xRRsPpx41pFw/lHolkQ2j6rrGkuOn1a+kK/IpMJUYexGDiWkxi0P
zzageh5miuwvRdQsEckeBe2ktfvpjYSmV9oFlrmjrYeY7O2vuQrNGFJjD9OUfL41PgQa4LrkrDLr
yNL5Yi9TRfPFx5f08fYtdSMN5axj+WMXLIVH+yyXFfRCF0z8ztJ07UCmqedbfX14cVs9P0uUMWqB
y9SB5128MTHyW29R85flNqWqJqOuvdyCLiLaPUbW8+pROBSqxNH6Ic9eTCvvjRV6BY6rp+o6Z6/l
+5tbyMKBAYpA0I8FJj5cflTI0lIL/QvzG1RikvmK20e1OzJptoXmZf8AjNcO3E+6phsIQVv+Snkt
phc6wbzX7zqbjU7qSU1/1VMa09iDh4ytJxF+Wf5exqVXy5pxBHE8raNzT5sCa++DiKaQU/5PflzJ
OtzHo62lym8c1nLPbMp8V9F0H4Y8ZRTMlAAAHQbbmp+85FLsVdirsVdiqje3ltZWc97cuI7a2jea
eQ9FSNSzN9AGKviHzTr1z5g8xahrVxX1L6ZpQp34oTRE+SIAo+WZIFMUqwodirsVdirsVdirsVdi
qY6X5e1/VmC6Xpt1fE7f6PDJKPpKg0wEq9H8jfkz+atrrVjrMFtDpUtnKs0b3kwFQp+JSkXqvRhV
SCBkZTCae7eadC/MC+vvV0DzRHpFpxUfVWsYrhgwG59SQtXl4cdsqBDJJ/8AAv5pSMrz/mG4O3NI
tMtkH0EOB9PHDxDuQzjSbS7tNNt7a8vGv7qJAs146rG0rDqxVPhH0ZApSjU/N91akx2fl/VNRmqQ
vpQpHHUeLzPHQe4BwgKkZ8y/m7ctW18nWtlH2+uahG7MO20I+H5YaHehafzD846W/wDzsvky8itu
97pciX6AeLRpxZR88PCOhVL21f8ALvzHK7nzxfWYkYl9Oe/On8WY7pwkWKTbwrjRHRVaw0D8h7a5
JFxpF7eftNe30d5ISPETyyfqxuSs+0oaP9UX9E/V/qg2X6pw9P6PT+HIlKlqOv6TYzC2upWM7gEW
8UUs8hDbCiRK7H7saVjK+WPys16/lVdLt11IgtLH6MtjcEBgGYrSCQ70qcNkIZLpHlvRdILNp9v6
JdQjEySOSo6fbZsBKUPqXmuysZXh+p6jdToSojtrC7kViBX4ZvTENN+vOmNKkNzrH5qas3HRdFtN
DtT0utYm9WYr4i3ti4Q+zOcNBCj/AIe/OFf3g822Lv19FtOUJv25BuW2NjuVkXlRPOsdvNH5pksJ
plZfq02niVeS0+L1VkAAavTjgNdEp5gV2KuxV2KuxVKr/wAp+VtQqb/R7K6J6tNbxOfvZScNlUiu
/wAnPyyuq+roFuta/wB0ZIev/GJkw8ZRSV3H/OP35Xy14adLBWlPTuZzSnhzZ8PGVpBy/wDOOH5c
uQV+vRAdknBB/wCCRsfEK0s/6Fs/Lz/fuof8j0/6p4+IVpSl/wCcZvIDtVbvU4xSnFZoCPn8ULHD
4hWl8H/ONX5ex05z6jNQ1+OaIVHh8ESbY+IVpNbP8g/yvt6FtLe4YdDNcTn8FdV/DBxlaZHp3kDy
RppBstCsYnHST0I2f/g2Bb8cjxFKfKqqoVQFVRQAbAAYFbxV/9k=</xmpGImg:image></rdf:li></rdf:Alt></xmp:Thumbnails></rdf:Description><rdf:Description
             rdf:about=""><xmpMM:RenditionClass>proof:pdf</xmpMM:RenditionClass><xmpMM:OriginalDocumentID>uuid:65E6390686CF11DBA6E2D887CEACB407</xmpMM:OriginalDocumentID><xmpMM:DocumentID>xmp.did:7ED4E37908206811822AE71BFECAA82A</xmpMM:DocumentID><xmpMM:InstanceID>xmp.iid:7ED4E37908206811822AE71BFECAA82A</xmpMM:InstanceID><xmpMM:DerivedFrom
               rdf:parseType="Resource"><stRef:instanceID>xmp.iid:7DD4E37908206811822AE71BFECAA82A</stRef:instanceID><stRef:documentID>xmp.did:7DD4E37908206811822AE71BFECAA82A</stRef:documentID><stRef:originalDocumentID>uuid:65E6390686CF11DBA6E2D887CEACB407</stRef:originalDocumentID><stRef:renditionClass>proof:pdf</stRef:renditionClass></xmpMM:DerivedFrom><xmpMM:History><rdf:Seq><rdf:li
                   rdf:parseType="Resource"><stEvt:action>saved</stEvt:action><stEvt:instanceID>xmp.iid:0280117407206811822AA1A1DC31C4F2</stEvt:instanceID><stEvt:when>2018-04-23T10:06:05+02:00</stEvt:when><stEvt:softwareAgent>Adobe Illustrator CS6 (Macintosh)</stEvt:softwareAgent><stEvt:changed>/</stEvt:changed></rdf:li><rdf:li
                   rdf:parseType="Resource"><stEvt:action>saved</stEvt:action><stEvt:instanceID>xmp.iid:7ED4E37908206811822AE71BFECAA82A</stEvt:instanceID><stEvt:when>2018-05-25T11:23:53+02:00</stEvt:when><stEvt:softwareAgent>Adobe Illustrator CS6 (Macintosh)</stEvt:softwareAgent><stEvt:changed>/</stEvt:changed></rdf:li></rdf:Seq></xmpMM:History></rdf:Description><rdf:Description
             rdf:about=""><illustrator:StartupProfile>Web</illustrator:StartupProfile></rdf:Description><rdf:Description
             rdf:about=""><xmpTPg:NPages>1</xmpTPg:NPages><xmpTPg:HasVisibleTransparency>False</xmpTPg:HasVisibleTransparency><xmpTPg:HasVisibleOverprint>False</xmpTPg:HasVisibleOverprint><xmpTPg:MaxPageSize
               rdf:parseType="Resource"><stDim:w>960.000000</stDim:w><stDim:h>560.000000</stDim:h><stDim:unit>Pixels</stDim:unit></xmpTPg:MaxPageSize><xmpTPg:PlateNames><rdf:Seq><rdf:li>Cyan</rdf:li><rdf:li>Magenta</rdf:li><rdf:li>Yellow</rdf:li><rdf:li>Black</rdf:li></rdf:Seq></xmpTPg:PlateNames><xmpTPg:SwatchGroups><rdf:Seq><rdf:li
                   rdf:parseType="Resource"><xmpG:groupName>Default Swatch Group</xmpG:groupName><xmpG:groupType>0</xmpG:groupType><xmpG:Colorants><rdf:Seq><rdf:li
                         rdf:parseType="Resource"><xmpG:swatchName>White</xmpG:swatchName><xmpG:mode>RGB</xmpG:mode><xmpG:type>PROCESS</xmpG:type><xmpG:red>255</xmpG:red><xmpG:green>255</xmpG:green><xmpG:blue>255</xmpG:blue></rdf:li><rdf:li
                         rdf:parseType="Resource"><xmpG:swatchName>Black</xmpG:swatchName><xmpG:mode>RGB</xmpG:mode><xmpG:type>PROCESS</xmpG:type><xmpG:red>0</xmpG:red><xmpG:green>0</xmpG:green><xmpG:blue>0</xmpG:blue></rdf:li><rdf:li
                         rdf:parseType="Resource"><xmpG:swatchName>RGB Red</xmpG:swatchName><xmpG:mode>RGB</xmpG:mode><xmpG:type>PROCESS</xmpG:type><xmpG:red>255</xmpG:red><xmpG:green>0</xmpG:green><xmpG:blue>0</xmpG:blue></rdf:li><rdf:li
                         rdf:parseType="Resource"><xmpG:swatchName>RGB Yellow</xmpG:swatchName><xmpG:mode>RGB</xmpG:mode><xmpG:type>PROCESS</xmpG:type><xmpG:red>255</xmpG:red><xmpG:green>255</xmpG:green><xmpG:blue>0</xmpG:blue></rdf:li><rdf:li
                         rdf:parseType="Resource"><xmpG:swatchName>RGB Green</xmpG:swatchName><xmpG:mode>RGB</xmpG:mode><xmpG:type>PROCESS</xmpG:type><xmpG:red>0</xmpG:red><xmpG:green>255</xmpG:green><xmpG:blue>0</xmpG:blue></rdf:li><rdf:li
                         rdf:parseType="Resource"><xmpG:swatchName>RGB Cyan</xmpG:swatchName><xmpG:mode>RGB</xmpG:mode><xmpG:type>PROCESS</xmpG:type><xmpG:red>0</xmpG:red><xmpG:green>255</xmpG:green><xmpG:blue>255</xmpG:blue></rdf:li><rdf:li
                         rdf:parseType="Resource"><xmpG:swatchName>RGB Blue</xmpG:swatchName><xmpG:mode>RGB</xmpG:mode><xmpG:type>PROCESS</xmpG:type><xmpG:red>0</xmpG:red><xmpG:green>0</xmpG:green><xmpG:blue>255</xmpG:blue></rdf:li><rdf:li
                         rdf:parseType="Resource"><xmpG:swatchName>RGB Magenta</xmpG:swatchName><xmpG:mode>RGB</xmpG:mode><xmpG:type>PROCESS</xmpG:type><xmpG:red>255</xmpG:red><xmpG:green>0</xmpG:green><xmpG:blue>255</xmpG:blue></rdf:li><rdf:li
                         rdf:parseType="Resource"><xmpG:swatchName>R=193 G=39 B=45</xmpG:swatchName><xmpG:mode>RGB</xmpG:mode><xmpG:type>PROCESS</xmpG:type><xmpG:red>193</xmpG:red><xmpG:green>39</xmpG:green><xmpG:blue>45</xmpG:blue></rdf:li><rdf:li
                         rdf:parseType="Resource"><xmpG:swatchName>R=237 G=28 B=36</xmpG:swatchName><xmpG:mode>RGB</xmpG:mode><xmpG:type>PROCESS</xmpG:type><xmpG:red>237</xmpG:red><xmpG:green>28</xmpG:green><xmpG:blue>36</xmpG:blue></rdf:li><rdf:li
                         rdf:parseType="Resource"><xmpG:swatchName>R=241 G=90 B=36</xmpG:swatchName><xmpG:mode>RGB</xmpG:mode><xmpG:type>PROCESS</xmpG:type><xmpG:red>241</xmpG:red><xmpG:green>90</xmpG:green><xmpG:blue>36</xmpG:blue></rdf:li><rdf:li
                         rdf:parseType="Resource"><xmpG:swatchName>R=247 G=147 B=30</xmpG:swatchName><xmpG:mode>RGB</xmpG:mode><xmpG:type>PROCESS</xmpG:type><xmpG:red>247</xmpG:red><xmpG:green>147</xmpG:green><xmpG:blue>30</xmpG:blue></rdf:li><rdf:li
                         rdf:parseType="Resource"><xmpG:swatchName>R=251 G=176 B=59</xmpG:swatchName><xmpG:mode>RGB</xmpG:mode><xmpG:type>PROCESS</xmpG:type><xmpG:red>251</xmpG:red><xmpG:green>176</xmpG:green><xmpG:blue>59</xmpG:blue></rdf:li><rdf:li
                         rdf:parseType="Resource"><xmpG:swatchName>R=252 G=238 B=33</xmpG:swatchName><xmpG:mode>RGB</xmpG:mode><xmpG:type>PROCESS</xmpG:type><xmpG:red>252</xmpG:red><xmpG:green>238</xmpG:green><xmpG:blue>33</xmpG:blue></rdf:li><rdf:li
                         rdf:parseType="Resource"><xmpG:swatchName>R=217 G=224 B=33</xmpG:swatchName><xmpG:mode>RGB</xmpG:mode><xmpG:type>PROCESS</xmpG:type><xmpG:red>217</xmpG:red><xmpG:green>224</xmpG:green><xmpG:blue>33</xmpG:blue></rdf:li><rdf:li
                         rdf:parseType="Resource"><xmpG:swatchName>R=140 G=198 B=63</xmpG:swatchName><xmpG:mode>RGB</xmpG:mode><xmpG:type>PROCESS</xmpG:type><xmpG:red>140</xmpG:red><xmpG:green>198</xmpG:green><xmpG:blue>63</xmpG:blue></rdf:li><rdf:li
                         rdf:parseType="Resource"><xmpG:swatchName>R=57 G=181 B=74</xmpG:swatchName><xmpG:mode>RGB</xmpG:mode><xmpG:type>PROCESS</xmpG:type><xmpG:red>57</xmpG:red><xmpG:green>181</xmpG:green><xmpG:blue>74</xmpG:blue></rdf:li><rdf:li
                         rdf:parseType="Resource"><xmpG:swatchName>R=0 G=146 B=69</xmpG:swatchName><xmpG:mode>RGB</xmpG:mode><xmpG:type>PROCESS</xmpG:type><xmpG:red>0</xmpG:red><xmpG:green>146</xmpG:green><xmpG:blue>69</xmpG:blue></rdf:li><rdf:li
                         rdf:parseType="Resource"><xmpG:swatchName>R=0 G=104 B=55</xmpG:swatchName><xmpG:mode>RGB</xmpG:mode><xmpG:type>PROCESS</xmpG:type><xmpG:red>0</xmpG:red><xmpG:green>104</xmpG:green><xmpG:blue>55</xmpG:blue></rdf:li><rdf:li
                         rdf:parseType="Resource"><xmpG:swatchName>R=34 G=181 B=115</xmpG:swatchName><xmpG:mode>RGB</xmpG:mode><xmpG:type>PROCESS</xmpG:type><xmpG:red>34</xmpG:red><xmpG:green>181</xmpG:green><xmpG:blue>115</xmpG:blue></rdf:li><rdf:li
                         rdf:parseType="Resource"><xmpG:swatchName>R=0 G=169 B=157</xmpG:swatchName><xmpG:mode>RGB</xmpG:mode><xmpG:type>PROCESS</xmpG:type><xmpG:red>0</xmpG:red><xmpG:green>169</xmpG:green><xmpG:blue>157</xmpG:blue></rdf:li><rdf:li
                         rdf:parseType="Resource"><xmpG:swatchName>R=41 G=171 B=226</xmpG:swatchName><xmpG:mode>RGB</xmpG:mode><xmpG:type>PROCESS</xmpG:type><xmpG:red>41</xmpG:red><xmpG:green>171</xmpG:green><xmpG:blue>226</xmpG:blue></rdf:li><rdf:li
                         rdf:parseType="Resource"><xmpG:swatchName>R=0 G=113 B=188</xmpG:swatchName><xmpG:mode>RGB</xmpG:mode><xmpG:type>PROCESS</xmpG:type><xmpG:red>0</xmpG:red><xmpG:green>113</xmpG:green><xmpG:blue>188</xmpG:blue></rdf:li><rdf:li
                         rdf:parseType="Resource"><xmpG:swatchName>R=46 G=49 B=146</xmpG:swatchName><xmpG:mode>RGB</xmpG:mode><xmpG:type>PROCESS</xmpG:type><xmpG:red>46</xmpG:red><xmpG:green>49</xmpG:green><xmpG:blue>146</xmpG:blue></rdf:li><rdf:li
                         rdf:parseType="Resource"><xmpG:swatchName>R=27 G=20 B=100</xmpG:swatchName><xmpG:mode>RGB</xmpG:mode><xmpG:type>PROCESS</xmpG:type><xmpG:red>27</xmpG:red><xmpG:green>20</xmpG:green><xmpG:blue>100</xmpG:blue></rdf:li><rdf:li
                         rdf:parseType="Resource"><xmpG:swatchName>R=102 G=45 B=145</xmpG:swatchName><xmpG:mode>RGB</xmpG:mode><xmpG:type>PROCESS</xmpG:type><xmpG:red>102</xmpG:red><xmpG:green>45</xmpG:green><xmpG:blue>145</xmpG:blue></rdf:li><rdf:li
                         rdf:parseType="Resource"><xmpG:swatchName>R=147 G=39 B=143</xmpG:swatchName><xmpG:mode>RGB</xmpG:mode><xmpG:type>PROCESS</xmpG:type><xmpG:red>147</xmpG:red><xmpG:green>39</xmpG:green><xmpG:blue>143</xmpG:blue></rdf:li><rdf:li
                         rdf:parseType="Resource"><xmpG:swatchName>R=158 G=0 B=93</xmpG:swatchName><xmpG:mode>RGB</xmpG:mode><xmpG:type>PROCESS</xmpG:type><xmpG:red>158</xmpG:red><xmpG:green>0</xmpG:green><xmpG:blue>93</xmpG:blue></rdf:li><rdf:li
                         rdf:parseType="Resource"><xmpG:swatchName>R=212 G=20 B=90</xmpG:swatchName><xmpG:mode>RGB</xmpG:mode><xmpG:type>PROCESS</xmpG:type><xmpG:red>212</xmpG:red><xmpG:green>20</xmpG:green><xmpG:blue>90</xmpG:blue></rdf:li><rdf:li
                         rdf:parseType="Resource"><xmpG:swatchName>R=237 G=30 B=121</xmpG:swatchName><xmpG:mode>RGB</xmpG:mode><xmpG:type>PROCESS</xmpG:type><xmpG:red>237</xmpG:red><xmpG:green>30</xmpG:green><xmpG:blue>121</xmpG:blue></rdf:li><rdf:li
                         rdf:parseType="Resource"><xmpG:swatchName>R=199 G=178 B=153</xmpG:swatchName><xmpG:mode>RGB</xmpG:mode><xmpG:type>PROCESS</xmpG:type><xmpG:red>199</xmpG:red><xmpG:green>178</xmpG:green><xmpG:blue>153</xmpG:blue></rdf:li><rdf:li
                         rdf:parseType="Resource"><xmpG:swatchName>R=153 G=134 B=117</xmpG:swatchName><xmpG:mode>RGB</xmpG:mode><xmpG:type>PROCESS</xmpG:type><xmpG:red>153</xmpG:red><xmpG:green>134</xmpG:green><xmpG:blue>117</xmpG:blue></rdf:li><rdf:li
                         rdf:parseType="Resource"><xmpG:swatchName>R=115 G=99 B=87</xmpG:swatchName><xmpG:mode>RGB</xmpG:mode><xmpG:type>PROCESS</xmpG:type><xmpG:red>115</xmpG:red><xmpG:green>99</xmpG:green><xmpG:blue>87</xmpG:blue></rdf:li><rdf:li
                         rdf:parseType="Resource"><xmpG:swatchName>R=83 G=71 B=65</xmpG:swatchName><xmpG:mode>RGB</xmpG:mode><xmpG:type>PROCESS</xmpG:type><xmpG:red>83</xmpG:red><xmpG:green>71</xmpG:green><xmpG:blue>65</xmpG:blue></rdf:li><rdf:li
                         rdf:parseType="Resource"><xmpG:swatchName>R=198 G=156 B=109</xmpG:swatchName><xmpG:mode>RGB</xmpG:mode><xmpG:type>PROCESS</xmpG:type><xmpG:red>198</xmpG:red><xmpG:green>156</xmpG:green><xmpG:blue>109</xmpG:blue></rdf:li><rdf:li
                         rdf:parseType="Resource"><xmpG:swatchName>R=166 G=124 B=82</xmpG:swatchName><xmpG:mode>RGB</xmpG:mode><xmpG:type>PROCESS</xmpG:type><xmpG:red>166</xmpG:red><xmpG:green>124</xmpG:green><xmpG:blue>82</xmpG:blue></rdf:li><rdf:li
                         rdf:parseType="Resource"><xmpG:swatchName>R=140 G=98 B=57</xmpG:swatchName><xmpG:mode>RGB</xmpG:mode><xmpG:type>PROCESS</xmpG:type><xmpG:red>140</xmpG:red><xmpG:green>98</xmpG:green><xmpG:blue>57</xmpG:blue></rdf:li><rdf:li
                         rdf:parseType="Resource"><xmpG:swatchName>R=117 G=76 B=36</xmpG:swatchName><xmpG:mode>RGB</xmpG:mode><xmpG:type>PROCESS</xmpG:type><xmpG:red>117</xmpG:red><xmpG:green>76</xmpG:green><xmpG:blue>36</xmpG:blue></rdf:li><rdf:li
                         rdf:parseType="Resource"><xmpG:swatchName>R=96 G=56 B=19</xmpG:swatchName><xmpG:mode>RGB</xmpG:mode><xmpG:type>PROCESS</xmpG:type><xmpG:red>96</xmpG:red><xmpG:green>56</xmpG:green><xmpG:blue>19</xmpG:blue></rdf:li><rdf:li
                         rdf:parseType="Resource"><xmpG:swatchName>R=66 G=33 B=11</xmpG:swatchName><xmpG:mode>RGB</xmpG:mode><xmpG:type>PROCESS</xmpG:type><xmpG:red>66</xmpG:red><xmpG:green>33</xmpG:green><xmpG:blue>11</xmpG:blue></rdf:li></rdf:Seq></xmpG:Colorants></rdf:li><rdf:li
                   rdf:parseType="Resource"><xmpG:groupName>one-neo-01</xmpG:groupName><xmpG:groupType>1</xmpG:groupType><xmpG:Colorants><rdf:Seq><rdf:li
                         rdf:parseType="Resource"><xmpG:swatchName>texte 1</xmpG:swatchName><xmpG:mode>RGB</xmpG:mode><xmpG:type>PROCESS</xmpG:type><xmpG:red>65</xmpG:red><xmpG:green>67</xmpG:green><xmpG:blue>85</xmpG:blue></rdf:li><rdf:li
                         rdf:parseType="Resource"><xmpG:swatchName>texte 2</xmpG:swatchName><xmpG:mode>RGB</xmpG:mode><xmpG:type>PROCESS</xmpG:type><xmpG:red>133</xmpG:red><xmpG:green>143</xmpG:green><xmpG:blue>169</xmpG:blue></rdf:li><rdf:li
                         rdf:parseType="Resource"><xmpG:swatchName>texte 3</xmpG:swatchName><xmpG:mode>RGB</xmpG:mode><xmpG:type>PROCESS</xmpG:type><xmpG:red>220</xmpG:red><xmpG:green>221</xmpG:green><xmpG:blue>224</xmpG:blue></rdf:li><rdf:li
                         rdf:parseType="Resource"><xmpG:swatchName>fond</xmpG:swatchName><xmpG:mode>RGB</xmpG:mode><xmpG:type>PROCESS</xmpG:type><xmpG:red>248</xmpG:red><xmpG:green>248</xmpG:green><xmpG:blue>250</xmpG:blue></rdf:li><rdf:li
                         rdf:parseType="Resource"><xmpG:swatchName>R=255 G=163 B=72</xmpG:swatchName><xmpG:mode>RGB</xmpG:mode><xmpG:type>PROCESS</xmpG:type><xmpG:red>255</xmpG:red><xmpG:green>163</xmpG:green><xmpG:blue>72</xmpG:blue></rdf:li><rdf:li
                         rdf:parseType="Resource"><xmpG:swatchName>R=42 G=156 B=200</xmpG:swatchName><xmpG:mode>RGB</xmpG:mode><xmpG:type>PROCESS</xmpG:type><xmpG:red>42</xmpG:red><xmpG:green>156</xmpG:green><xmpG:blue>200</xmpG:blue></rdf:li><rdf:li
                         rdf:parseType="Resource"><xmpG:swatchName>R=252 G=193 B=139</xmpG:swatchName><xmpG:mode>RGB</xmpG:mode><xmpG:type>PROCESS</xmpG:type><xmpG:red>252</xmpG:red><xmpG:green>193</xmpG:green><xmpG:blue>139</xmpG:blue></rdf:li></rdf:Seq></xmpG:Colorants></rdf:li></rdf:Seq></xmpTPg:SwatchGroups></rdf:Description><rdf:Description
             rdf:about=""><pdf:Producer>Adobe PDF library 10.01</pdf:Producer></rdf:Description><cc:Work
             rdf:about=""><dc:format>image/svg+xml</dc:format><dc:type
               rdf:resource="http://purl.org/dc/dcmitype/StillImage" /><dc:title></dc:title></cc:Work></rdf:RDF></metadata></x:xmpmeta><?xpacket end="w"?></metadata><g
     id="g210"
     transform="translate(-88.425033,-125.69546)"><g
       id="g48"><path
         style="fill:#ffa348"
         d="m 300.414,126.456 c -1.644,-0.562 -5.818,-1.253 -6.833,0.733 -0.845,1.655 2.448,3.608 3.45,4.269 4.076,2.685 8.125,6.012 4.971,11.252 -1.483,2.464 -3.896,5.394 -6.64,7.119 -0.125,-0.258 -0.503,-0.32 -0.716,-0.035 -0.191,0.256 -0.378,0.495 -0.562,0.73 -0.555,0.258 -1.119,0.467 -1.688,0.6 -0.498,0.116 -0.279,0.834 0.208,0.753 0.196,-0.033 0.393,-0.086 0.589,-0.134 -0.411,0.65 -0.713,1.35 -0.801,2.258 -0.033,0.339 0.302,0.597 0.608,0.608 7.2,0.255 14.046,-4.352 16.231,-11.268 2.156,-6.827 -2.203,-14.622 -8.817,-16.885 z"
         id="path42"
         inkscape:connector-curvature="0" /><path
         style="fill:#ffa348"
         d="m 259.158,161.833 c -0.038,-0.043 -0.087,-0.074 -0.158,-0.066 -0.333,0.042 -0.666,0.075 -1,0.096 -0.176,0.014 -0.176,0.259 0,0.273 0.083,0.007 0.127,0.022 0.175,0.038 l 0.122,0.122 c -0.049,0.234 -0.897,0.675 -1.312,1.049 -0.992,0.893 -1.873,1.893 -2.734,2.909 -1.58,1.866 -2.925,3.921 -4.12,6.05 -2.329,4.147 -3.849,8.957 -4.251,13.695 -0.019,0.216 0.132,0.43 0.308,0.537 3.47,2.112 6.184,-3.945 7.273,-6.217 0.897,-1.872 1.459,-3.998 2.574,-5.747 2.43,-3.811 5.406,-7.234 7.502,-11.26 0.137,-0.263 0.094,-0.531 -0.097,-0.751 -1.083,-1.247 -3.063,-1.751 -4.282,-0.728 z"
         id="path44"
         inkscape:connector-curvature="0" /><path
         style="fill:#ffa348"
         d="m 295.842,136.842 c 0.447,-0.382 0.146,-1.031 -0.317,-1.203 -1.653,-0.614 -3.362,-1.007 -5.065,-1.452 -1.791,-0.468 -0.935,-2.492 -1.626,-4.021 -0.818,-1.806 -3.284,-3.162 -5.241,-3.127 -5.426,0.46 -6.937,1.563 -8.94,3.878 -1.368,1.581 -2.595,3.384 -3.363,5.335 -1.397,3.55 -1.588,4.958 0.71,7.914 3.5,4.5 -2.233,7.997 4,10.333 1.333,0.5 4.298,-0.717 4.833,-1 1.771,-0.939 1.297,-4.032 3.167,-4.833 2.333,-1 3.734,0.208 6.167,-3.333 0.681,-0.992 1.226,-3.066 1.667,-4.167 0.666,-1.666 2.248,-2.817 4.008,-4.324 z"
         id="path46"
         inkscape:connector-curvature="0" /></g><g
       id="g52"><path
         style="fill:#ffffff"
         d="m 258.125,162.708 c 1.625,0.333 2.466,0.249 4.042,0.792 2.542,0.875 0,4 -0.833,5.667 -1.167,2.333 -2.5,6 -3,8.5 -0.333,2.667 2,2 4.333,2.333 3.333,0.5 7.167,1.5 10.667,1 3.167,-0.333 4.542,-2.833 6.042,-5.5 2.5,-4.5 3.625,-11 7.625,-14.5 1.833,-1.5 4.333,-2.333 6,-4 2,-1.833 3.083,-4.792 3.75,-7.292 -2.625,0.125 -6.083,1.292 -8.917,1.458 -1.5,0.167 -2.333,0.167 -3.833,0.167 -1.333,0 -2.79,0.218 -4.083,0.542 -3.333,0.833 -6.208,-0.667 -8.333,-0.375 -3.343,0.458 -6.333,4 -9,6 -1.417,1.063 -2.083,2.167 -3.417,3 -0.667,0.5 -1.917,1 -2.083,1.833 z"
         id="path50"
         inkscape:connector-curvature="0" /></g><path
       style="fill:#414355"
       d="m 277.922,151.949 c 1.25,0.318 2.438,-0.08 3.724,-0.106 1.857,-0.039 3.742,-0.396 5.583,-0.628 3.42,-0.433 6.863,-0.907 10.252,-1.513 -0.209,-0.271 -0.417,-0.543 -0.626,-0.814 -1.055,1.91 -1.542,4.048 -2.427,6.032 -1.293,2.901 -4.286,3.523 -6.652,5.305 -2.339,1.761 -3.575,4.466 -4.814,7.035 -1.507,3.124 -3.018,6.23 -4.39,9.417 -0.715,1.66 -1.436,3.314 -2.282,4.913 -0.44,0.831 -3.292,0.812 -4.185,0.989 -3.664,0.727 -7.501,0.917 -11.195,0.261 -2.839,-0.504 -3.517,-2.235 -2.449,-4.735 0.593,-1.389 0.979,-2.876 1.473,-4.303 1.116,-3.226 2.689,-6.464 3.976,-9.641 0.09,-0.222 -0.052,-0.578 -0.274,-0.673 -0.953,-0.407 -1.941,-0.974 -2.985,-1.103 -1.023,-0.126 -2.814,0.183 -3.585,-0.613 -0.188,0.454 -0.375,0.907 -0.563,1.36 1.053,-0.07 1.623,-1.479 2.354,-2.124 1.091,-0.963 2.197,-1.898 3.268,-2.885 0.97,-0.894 2.173,-1.353 3.15,-2.184 2.153,-1.832 5.694,-5.524 8.769,-4.086 1.94,0.908 2.603,0.947 4.723,0.328 0.444,-0.13 0.258,-0.808 -0.191,-0.693 -1.764,0.451 -3.089,0.122 -4.67,-0.722 -0.455,-0.243 -1.145,-0.405 -1.663,-0.318 -2.125,0.356 -3.937,2.037 -5.601,3.308 -1.921,1.468 -3.912,2.813 -5.776,4.356 -1.116,0.924 -2.294,1.757 -3.422,2.662 -0.659,0.528 -0.768,0.775 -0.94,0.764 -0.697,-0.047 -1.051,0.901 -0.563,1.36 0.631,0.595 1.306,0.726 2.147,0.827 1.825,0.22 3.284,0.341 5.091,0.851 -0.139,-0.245 -0.278,-0.489 -0.417,-0.733 -1.067,3.952 -3.161,7.482 -4.424,11.359 -0.72,2.209 -2.396,4.877 -0.902,7.109 1.363,2.037 5.386,1.913 7.5,1.979 3.886,0.123 7.567,-1.115 11.401,-1.086 0.18,0.001 0.381,-0.101 0.464,-0.267 1.756,-3.489 3.132,-7.158 4.78,-10.698 1.675,-3.596 3.34,-7.92 6.262,-10.672 2.256,-2.125 5.491,-2.231 7.302,-4.877 1.472,-2.152 1.807,-4.981 2.727,-7.376 0.147,-0.384 -0.303,-0.819 -0.682,-0.682 -3.052,1.108 -6.756,1.46 -9.957,1.839 -1.605,0.19 -3.212,0.386 -4.814,0.594 -1.137,0.147 -3.222,0.487 -4.336,0.319 -0.369,-0.054 -0.536,0.47 -0.161,0.565 z"
       id="path54"
       inkscape:connector-curvature="0" /><path
       style="fill:#858fa9"
       d="m 287.589,127.094 c -1.136,-1.76 -3.655,-1.567 -5.596,-0.993 -2.547,-0.748 -5.301,-0.229 -7.644,1.582 -2.066,1.597 -4.089,3.167 -6.426,4.35 -1.85,0.936 -3.963,1.365 -5.7,2.523 -0.915,0.611 -1.24,1.561 -1.376,2.595 -0.162,1.231 0.29,2.403 -0.066,3.641 -0.245,0.853 -0.712,1.652 -0.815,2.545 -0.409,3.527 2.822,4.687 5.808,4.86 5.227,0.304 7.626,-2.069 9.346,-5.228 1.071,-1.967 0.759,-4.366 1.805,-6.359 1.175,-2.238 4.486,-2.862 6.633,-3.674 1.891,-0.716 5.698,-3.258 4.031,-5.842 z"
       id="path56"
       inkscape:connector-curvature="0" /><path
       style="fill:#2a9cc8"
       d="m 275.655,252.301 c -0.639,-6.421 -1.184,-12.848 -1.729,-19.278 -0.566,-6.663 -1.162,-13.437 -0.795,-20.126 0.301,-5.48 1.398,-10.842 1.98,-16.281 0.2,-1.873 0.316,-4.729 -2.309,-4.446 -2.481,0.268 -4.833,2.512 -6.575,4.112 -1.334,1.225 -2.88,2.687 -3.978,4.312 -0.002,-0.198 10e-4,-0.396 -0.003,-0.595 -0.008,-0.318 -0.479,-0.316 -0.492,0 -0.021,0.519 -0.059,1.037 -0.088,1.556 -0.068,0.129 -0.125,0.261 -0.187,0.392 -0.102,0.166 -0.162,0.321 -0.265,0.595 -0.119,0.315 0.105,0.521 0.364,0.553 -0.221,3.191 -0.543,6.374 -0.774,9.564 -0.334,4.635 -0.228,9.32 -0.259,13.966 -0.063,9.634 0.917,19.2 2.155,28.745 0.567,4.377 1.267,8.723 1.632,13.124 0.355,4.284 1.328,8.432 1.852,12.686 0.374,3.032 0.791,6.649 3.078,8.908 1.883,1.859 5.278,0.867 7.591,1.446 0.356,0.09 0.693,-0.169 0.703,-0.535 0.336,-12.943 -0.62,-25.825 -1.901,-38.698 z"
       id="path58"
       inkscape:connector-curvature="0" /><path
       style="fill:#414355"
       d="m 332.667,198.833 c -2.667,-3.667 -7.649,-8.874 -13.076,-12.51 -12.313,-8.251 -26.683,-10.699 -41.246,-9.365 -4.364,0.4 -8.696,1.118 -13.007,1.899 -3.051,-1.272 -6.294,-1.294 -9.576,-1.271 -3.94,0.028 -7.864,0.552 -11.677,1.533 -7.414,1.906 -13.949,6.376 -19.717,11.261 -5.813,4.923 -12.037,9.587 -15.701,16.286 -3.794,6.936 -6.047,15.029 -6.77,23 -0.059,0.649 0.682,0.868 1.158,0.665 3.578,-1.527 6.031,-4.692 8.563,-7.513 3.474,-3.87 7.81,-6.579 12.168,-9.336 4.315,-2.73 8.304,-5.935 12.661,-8.6 3.421,-2.092 7.091,-3.836 10.78,-5.476 -3.696,3.348 -7.234,6.894 -10.228,10.881 -4.048,5.391 -8.524,13.861 -10.166,20.379 -1.509,5.991 -2.167,8.667 -2,15 0.141,5.355 1,9.167 1.854,9.534 2.648,1.136 5.974,-4.064 7.091,-5.505 3.89,-5.018 7.638,-10.15 11.365,-15.293 8.985,-12.397 15.679,-21.3 24.356,-33.902 2.833,4.5 4.805,7.118 7.333,10.333 4.313,5.488 7.972,10.031 11.833,15.833 3.834,5.762 6.422,9.569 10,15.5 2.833,4.696 6.373,9.876 10.613,13.554 0.358,0.311 0.919,0.11 0.934,-0.387 0.393,-13.336 -2.646,-26.928 -8.389,-38.941 -2.834,-5.929 -5.96,-11.988 -9.804,-17.331 -2.555,-3.552 -3.688,-5.896 -7.188,-9.229 5.599,1.6 9.488,2.739 14.923,4.846 7.302,2.832 13.734,6.918 19.76,11.888 4.877,4.022 10.002,7.903 14.688,12.17 7.795,7.096 6.414,0.413 5.461,-3.571 -1.83,-7.665 -3.807,-11.945 -6.996,-16.332 z"
       id="path60"
       inkscape:connector-curvature="0" /><g
       id="g200"><g
         id="g66"><g
           id="g64"><path
             style="fill:#414355"
             d="m 95,326.022 c 15.677,0.01 31.486,0.562 47.146,-0.17 7.883,-0.368 15.712,-1.48 23.576,-2.106 8.016,-0.639 16.081,-0.388 24.114,-0.31 16.413,0.157 32.825,0.444 49.238,0.119 16.28,-0.322 32.451,-2.087 48.714,-2.681 32.753,-1.194 65.502,1.293 98.257,1.122 16.349,-0.085 32.628,-1.396 48.983,-1.166 7.897,0.111 15.789,0.233 23.687,0.234 7.509,10e-4 14.961,0.227 22.417,-0.765 4.326,-0.574 8.736,-1.078 13.022,0.014 0.841,0.215 1.189,-1.056 0.357,-1.295 -6.573,-1.896 -13.314,0.109 -19.951,0.537 -7.739,0.499 -15.664,0.069 -23.419,0.042 -7.948,-0.028 -15.894,-0.272 -23.843,-0.286 -8.183,-0.014 -16.316,0.543 -24.485,0.883 -32.798,1.363 -65.595,-1.037 -98.396,-0.868 -8.15,0.042 -16.303,0.255 -24.44,0.732 -8.118,0.478 -16.201,1.386 -24.315,1.91 -16.321,1.053 -32.687,1.056 -49.033,0.928 -16.145,-0.127 -32.281,-0.798 -48.368,0.849 -7.92,0.81 -15.792,1.58 -23.761,1.583 -7.912,0.002 -15.825,-0.01 -23.737,-0.021 -5.254,-0.007 -10.508,0 -15.762,0.003 -0.459,0.002 -0.459,0.712 -0.001,0.712 z"
             id="path62"
             inkscape:connector-curvature="0" /></g></g><g
         id="g72"><g
           id="g70"><path
             style="fill:#414355"
             d="m 125.529,392.164 c 6.481,1.1 11.868,-0.176 17.938,-2.585 7.798,-3.095 15.336,-6.289 23.488,-8.411 16.209,-4.22 33.869,-7.146 50.413,-2.868 15.225,3.938 27.457,14.19 41.429,20.832 12.837,6.103 26.66,8.541 40.583,5.247 1.555,-0.368 1.241,-2.926 -0.38,-2.809 -14.918,1.074 -28.818,-1.961 -42.073,-8.81 -13.357,-6.901 -25.062,-15.774 -39.904,-19.535 -14.359,-3.638 -31.607,-1.491 -45.451,3.206 -7.111,2.413 -14.13,5.329 -21.04,8.265 -7.914,3.361 -16.001,7.555 -24.866,6.455 -0.576,-0.071 -0.707,0.916 -0.137,1.013 z"
             id="path68"
             inkscape:connector-curvature="0" /></g></g><g
         id="g78"><g
           id="g76"><path
             style="fill:#414355"
             d="m 315.962,401.407 c 5.559,-1.641 10.43,-4.841 15.946,-6.592 6.681,-2.122 13.832,-3.386 20.683,-4.857 12.839,-2.758 26.012,-4.104 37.261,-11.501 1.632,-1.073 0.58,-3.459 -1.3,-3.084 -5.828,1.16 -11.18,4.227 -16.896,5.884 -6.582,1.908 -13.648,2.565 -20.351,4.034 -6.833,1.497 -13.972,3.006 -20.466,5.641 -5.53,2.243 -10.271,6.041 -15.733,8.441 -1.172,0.515 -0.331,2.385 0.856,2.034 z"
             id="path74"
             inkscape:connector-curvature="0" /></g></g><g
         id="g84"><g
           id="g82"><path
             style="fill:#414355"
             d="m 237.47,424.379 c 8.526,3.297 19.318,0.811 28.055,-0.724 12.32,-2.165 24.464,-5.473 36.885,-7.038 12.034,-1.518 23.115,-0.81 34.522,3.381 10.174,3.738 22.075,2.771 32.734,1.893 1.144,-0.095 1.15,-1.695 0,-1.781 -11.649,-0.872 -22.449,0.203 -33.497,-4.407 -10.666,-4.45 -20.656,-5.08 -32.086,-3.966 -10.936,1.066 -21.727,3.797 -32.438,6.148 -5.472,1.201 -10.975,2.31 -16.506,3.207 -5.625,0.912 -11.557,3.168 -17.277,1.863 -0.944,-0.216 -1.267,1.086 -0.392,1.424 z"
             id="path80"
             inkscape:connector-curvature="0" /></g></g><g
         id="g90"><g
           id="g88"><path
             style="fill:#414355"
             d="m 352.333,406.908 c 16.781,1.369 32.325,-5.559 48.578,-8.496 8.486,-1.533 17.12,-1.883 25.726,-1.706 9.11,0.188 17.963,3.2 27.029,3.175 1.821,-0.005 2.007,-2.463 0.411,-3.038 -15.573,-5.621 -33.137,-6.662 -49.424,-4.367 -8.72,1.229 -17.322,3.246 -25.648,6.124 -8.665,2.995 -17.521,6.111 -26.671,7.16 -0.73,0.084 -0.749,1.088 -10e-4,1.148 z"
             id="path86"
             inkscape:connector-curvature="0" /></g></g><g
         id="g96"><g
           id="g94"><path
             style="fill:#414355"
             d="m 385.371,437.506 c 4.446,2.423 9.117,1.81 13.971,1.066 6.307,-0.966 12.58,-2.71 18.719,-4.419 8.073,-2.248 15.817,-4.232 24.273,-3.903 7.318,0.285 14.72,2.665 22,2.391 1.667,-0.062 2.192,-2.156 0.828,-3.058 -5.084,-3.36 -12.403,-3.395 -18.306,-4.029 -7.559,-0.812 -14.669,-0.412 -22.011,1.635 -6.677,1.86 -13.048,4.729 -19.606,6.959 -5.916,2.011 -13.196,4.276 -19.416,2.287 -0.636,-0.204 -1.033,0.754 -0.452,1.071 z"
             id="path92"
             inkscape:connector-curvature="0" /></g></g><g
         id="g102"><g
           id="g100"><path
             style="fill:#414355"
             d="m 115.343,405.99 c 4.739,4.814 13.68,2.074 19.545,1.614 11.499,-0.901 23.318,-2.547 34.58,-5.024 11.799,-2.597 23.456,-3.097 35.274,-0.552 11.246,2.421 22.79,2.666 34.008,5.21 1.187,0.269 1.635,-1.412 0.498,-1.809 -10.292,-3.585 -21.435,-3.57 -31.857,-6.869 -10.415,-3.297 -19.617,-4.355 -30.494,-2.894 -11.114,1.493 -22.158,4.188 -33.218,6.1 -4.724,0.815 -9.47,1.513 -14.156,2.523 -4.428,0.955 -9.231,1.873 -13.736,0.937 -0.436,-0.09 -0.778,0.424 -0.444,0.764 z"
             id="path98"
             inkscape:connector-curvature="0" /></g></g><g
         id="g108"><g
           id="g106"><path
             style="fill:#414355"
             d="m 96.492,429.509 c 6.861,1.346 13.847,1.079 20.795,0.665 8.008,-0.478 16.382,-0.29 24.271,-1.817 2,-0.387 2.02,-3.673 0,-4.045 -7.299,-1.346 -15.045,-0.492 -22.401,-0.022 -7.521,0.48 -15.258,0.084 -22.664,1.536 -1.831,0.358 -1.831,3.324 -10e-4,3.683 z"
             id="path104"
             inkscape:connector-curvature="0" /></g></g><g
         id="g114"><g
           id="g112"><path
             style="fill:#414355"
             d="m 163.667,437.715 c 10.51,0.227 20.229,-0.819 30.622,-2.273 5.534,-0.774 11.016,-1.128 16.597,-0.769 5.907,0.381 11.772,2.434 17.438,4.018 9.308,2.602 18.491,5.052 28.246,4.548 12.324,-0.638 23.981,-1.665 36.272,0.338 0.744,0.121 1.079,-0.957 0.317,-1.152 -10.806,-2.768 -21.881,-2.555 -32.941,-2.214 -11.56,0.357 -21.398,-3.115 -32.107,-6.999 -10.257,-3.72 -20.236,-4.84 -31.046,-3.419 -11.166,1.469 -22.182,5.933 -33.398,6.493 -0.917,0.045 -0.926,1.409 0,1.429 z"
             id="path110"
             inkscape:connector-curvature="0" /></g></g><g
         id="g120"><g
           id="g118"><path
             style="fill:#414355"
             d="m 316.146,440.345 c 3.994,0.57 7.65,-0.075 11.573,-0.833 6.824,-1.32 13.159,0.943 19.778,2.099 0.652,0.113 1.194,-0.857 0.488,-1.157 -4.374,-1.855 -9.046,-2.833 -13.775,-3.19 -6.08,-0.46 -11.817,2.117 -17.877,1.701 -0.785,-0.055 -0.972,1.267 -0.187,1.38 z"
             id="path116"
             inkscape:connector-curvature="0" /></g></g><g
         id="g126"><g
           id="g124"><path
             style="fill:#414355"
             d="m 407.667,360.615 c 2.983,0.022 5.963,0.322 8.951,0.371 3.123,0.05 6.064,-0.337 9.136,-0.854 5.297,-0.892 11.199,0.957 16.213,-1.286 0.63,-0.282 0.174,-1.25 -0.458,-1.085 -5.017,1.312 -10.199,0.095 -15.281,0.844 -6.154,0.907 -12.328,1.399 -18.562,1.447 -0.362,0.004 -0.362,0.56 10e-4,0.563 z"
             id="path122"
             inkscape:connector-curvature="0" /></g></g><g
         id="g132"><g
           id="g130"><path
             style="fill:#414355"
             d="m 391,348.073 c 5.445,0.27 11.242,0.803 16.667,0.152 0.718,-0.086 0.718,-1.031 0,-1.117 -5.424,-0.65 -11.221,-0.117 -16.667,0.152 -0.523,0.027 -0.523,0.787 0,0.813 z"
             id="path128"
             inkscape:connector-curvature="0" /></g></g><g
         id="g138"><g
           id="g136"><path
             style="fill:#414355"
             d="m 435.667,341.34 c 3.797,0.109 7.582,0.303 11.384,0.344 3.314,0.036 6.812,0.33 10.095,-0.156 0.524,-0.078 0.524,-0.977 0,-1.055 -3.289,-0.487 -6.776,-0.177 -10.095,-0.156 -3.802,0.022 -7.586,0.234 -11.384,0.344 -0.438,0.012 -0.438,0.666 0,0.679 z"
             id="path134"
             inkscape:connector-curvature="0" /></g></g><g
         id="g144"><g
           id="g142"><path
             style="fill:#414355"
             d="m 375.429,330.571 c 1.471,1.767 4.355,1.604 6.406,1.465 2.682,-0.183 5.331,-0.748 7.983,-1.152 0.68,-0.104 0.44,-1.065 -0.152,-1.12 -1.879,-0.173 -3.837,0.399 -5.684,0.686 -2.112,0.328 -6.352,1.428 -8.079,-0.353 -0.305,-0.317 -0.747,0.147 -0.474,0.474 z"
             id="path140"
             inkscape:connector-curvature="0" /></g></g><g
         id="g150"><g
           id="g148"><path
             style="fill:#414355"
             d="m 407.667,335.281 c 4.076,0.072 8.115,0.522 12.123,-0.503 0.499,-0.127 0.402,-0.935 -0.123,-0.905 -3.999,0.222 -7.994,0.772 -12,0.846 -0.363,0.007 -0.363,0.555 0,0.562 z"
             id="path146"
             inkscape:connector-curvature="0" /></g></g><g
         id="g156"><g
           id="g154"><path
             style="fill:#414355"
             d="m 455.667,373.281 c 4.949,0.117 9.873,-0.453 14.82,-0.426 4.026,0.022 8.42,0.532 12.117,-1.394 0.548,-0.285 0.164,-1.131 -0.413,-0.978 -4.132,1.096 -8.3,0.913 -12.533,0.916 -4.716,0.004 -9.309,1.048 -13.991,1.318 -0.361,0.022 -0.365,0.555 0,0.564 z"
             id="path152"
             inkscape:connector-curvature="0" /></g></g><g
         id="g162"><g
           id="g160"><path
             style="fill:#414355"
             d="m 465.497,354.624 c 3.35,2.369 8.792,0.729 12.312,-0.441 0.662,-0.22 0.39,-1.153 -0.284,-1.031 -3.467,0.624 -8.362,2.815 -11.688,0.893 -0.382,-0.222 -0.688,0.333 -0.34,0.579 z"
             id="path158"
             inkscape:connector-curvature="0" /></g></g><g
         id="g168"><g
           id="g166"><path
             style="fill:#414355"
             d="m 469.667,332.65 c 3.784,0.039 7.546,0.51 11.333,0.184 0.644,-0.056 0.644,-0.944 0,-1 -3.787,-0.326 -7.55,0.145 -11.333,0.184 -0.409,0.003 -0.409,0.628 0,0.632 z"
             id="path164"
             inkscape:connector-curvature="0" /></g></g><g
         id="g174"><g
           id="g172"><path
             style="fill:#414355"
             d="m 120.333,368.602 c -4.815,-0.297 -9.665,-0.125 -14.483,0.026 -4.511,0.142 -9.198,-0.134 -13.667,0.497 -0.539,0.075 -0.541,1.011 0,1.084 4.46,0.607 9.181,0.044 13.667,-0.135 4.826,-0.192 9.664,-0.355 14.483,-0.676 0.513,-0.034 0.515,-0.765 0,-0.796 z"
             id="path170"
             inkscape:connector-curvature="0" /></g></g><g
         id="g180"><g
           id="g178"><path
             style="fill:#414355"
             d="m 135,351.292 c -4.867,0.365 -9.83,0.001 -14.667,0.515 -0.678,0.072 -0.679,0.982 0,1.055 4.789,0.507 10.043,0.089 14.766,-0.833 0.415,-0.082 0.322,-0.768 -0.099,-0.737 z"
             id="path176"
             inkscape:connector-curvature="0" /></g></g><g
         id="g186"><g
           id="g184"><path
             style="fill:#414355"
             d="m 106.904,341.987 c -5.807,1.518 -12.838,-2.125 -18.202,1.17 -0.561,0.345 -0.199,1.276 0.455,1.078 3.108,-0.94 6.003,-0.999 9.223,-0.784 2.937,0.195 5.938,0.352 8.716,-0.771 0.418,-0.168 0.268,-0.813 -0.192,-0.693 z"
             id="path182"
             inkscape:connector-curvature="0" /></g></g><g
         id="g192"><g
           id="g190"><path
             style="fill:#414355"
             d="m 145,337.343 c -4.871,0.419 -9.82,-0.097 -14.667,0.44 -0.708,0.078 -0.708,1.023 0,1.102 4.828,0.534 9.991,-0.04 14.753,-0.905 0.359,-0.066 0.277,-0.668 -0.086,-0.637 z"
             id="path188"
             inkscape:connector-curvature="0" /></g></g><g
         id="g198"><g
           id="g196"><path
             style="fill:#414355"
             d="m 102.855,386.477 c -4.408,1.089 -8.744,0.708 -13.189,1.229 -0.809,0.095 -0.809,1.164 0,1.258 4.338,0.505 9.366,0.089 13.478,-1.439 0.648,-0.242 0.402,-1.219 -0.289,-1.048 z"
             id="path194"
             inkscape:connector-curvature="0" /></g></g></g><g
       id="g206"><path
         style="fill:#dcdde0"
         d="m 460.042,286.378 c -2.145,-0.799 -4.722,-0.453 -6.946,-0.358 -1.524,0.064 -3.018,0.145 -4.404,-0.598 -1.408,-0.754 -2.216,-2.389 -2.886,-3.76 -1.736,-3.55 -3.323,-8.916 -8.222,-9.027 -3.696,-0.084 -6.421,2.605 -8.282,5.644 -0.406,-6.434 -3.62,-12.387 -10.029,-14.807 -3.934,-1.485 -8.143,-0.902 -11.922,0.697 -1.833,0.775 -4.159,1.85 -5.373,3.526 -1.433,1.979 -1.923,4.137 -2.747,6.336 -2.48,-1.863 -5.209,-3.072 -8.383,-3.163 -3.526,-0.101 -7.028,1.905 -9.859,3.806 -2.404,1.614 -4.108,3.826 -4.933,6.603 -0.569,1.914 -1.018,5.264 -0.139,7.348 -3.878,1.587 -7.89,2.911 -7.46,8.001 0.384,4.54 5.727,6.272 9.542,6.351 0.266,0.006 0.409,-0.17 0.445,-0.37 4.793,0.976 9.768,1.075 14.656,1.021 7.556,-0.084 15.106,0.043 22.662,0.041 10.729,-0.002 21.403,-0.864 32.026,-2.326 3.788,-0.521 7.609,-1.248 11.17,-2.678 2.356,-0.945 4.999,-2.435 5.666,-5.078 0.772,-3.05 -1.936,-6.225 -4.582,-7.209 z"
         id="path202"
         inkscape:connector-curvature="0" /><path
         style="fill:#dcdde0"
         d="m 204.947,292.672 c -0.162,-4.731 -0.256,-10.01 -5.398,-11.746 -3.102,-1.046 -6.582,-0.25 -8.203,2.148 -0.575,-4.295 -2.327,-7.948 -6.281,-10.592 -4.64,-3.102 -8.931,0.61 -12.061,4.023 -0.826,-8.009 -4.86,-15.955 -13.241,-18.04 -7.028,-1.749 -18.526,2.198 -19.992,10.131 -3.534,-2.627 -9.181,-2.268 -12.65,0.257 -4.567,3.323 -6.897,9.592 -5.05,14.954 -4.273,-0.365 -8.695,-0.33 -12.588,1.674 -3.895,2.005 -5.99,6.302 -6.41,10.513 -0.803,8.059 7.715,10.646 14.089,11.379 4.039,0.464 8.142,0.337 12.195,0.179 5.341,-0.209 10.64,0.037 15.984,0.196 16.141,0.481 32.287,-0.013 48.409,-0.867 6.115,-0.324 10.463,0.048 16.582,-0.213 0.039,0.045 5.333,0 8.167,0 2.5,0 5.617,-0.776 8.5,-4.667 2.967,-4.005 0.04,-7.9 -2.567,-11.752 -5.25,-7.755 -15.741,-4.696 -19.485,2.423 z"
         id="path204"
         inkscape:connector-curvature="0" /></g><path
       style="fill:#fcc18b"
       d="m 376.859,364.142 c -9.773,-10.009 -17.134,-21.718 -25.304,-32.986 -7.981,-11.009 -17.803,-20.029 -28.306,-28.596 -5.167,-4.215 -10.609,-8.103 -16.47,-11.298 -6.011,-3.277 -12.396,-5.3 -19.08,-6.684 -14.27,-2.953 -29.273,-4.96 -43.568,-1.276 -9.607,2.476 -18.701,7.662 -26.927,13.083 -8.339,5.495 -15.922,11.98 -22.917,19.092 -7.487,7.61 -14.277,16.047 -21.146,24.215 -5.958,7.084 -11.678,14.394 -16.692,22.178 -0.823,0.881 -1.198,2.131 -0.509,2.079 12.727,-4.781 27.209,-5.81 40.828,-4.663 15.708,1.321 30.45,6.363 45.226,11.555 14.062,4.939 28.177,11.148 42.967,13.506 14.833,2.364 29.947,-0.657 44.084,-5.141 7.97,-2.527 15.035,-6.475 22.495,-10.171 7.558,-3.745 16.317,-7.122 24.597,-3.65 0.722,0.303 1.2,-0.753 0.722,-1.243 z"
       id="path208"
       inkscape:connector-curvature="0" /></g></svg>
