<svg id="Layer_4" data-name="Layer 4" xmlns="http://www.w3.org/2000/svg" viewBox="0 0 279.3 327.09"><defs><style>.cls-1{fill:#414355;}.cls-2{fill:#fcc18b;}.cls-3{fill:#2a9cc8;}.cls-4{fill:#fff;}.cls-5{font-size:8px;font-family:Lato-Thin, Lato;font-weight:200;opacity:0.5;}.cls-6{letter-spacing:-0.01em;}.cls-7{letter-spacing:-0.01em;}.cls-8{letter-spacing:-0.03em;}.cls-9{letter-spacing:-0.01em;}</style></defs><title>6illus-mur-2019</title><path class="cls-1" d="M288.46,145.12c0,1-92,231-92,231s46.67,9.67,132.67,9c60.33,3.34,138-19,138-19L359.79,144.46Z" transform="translate(-187.83 -94.45)"/><path class="cls-2" d="M334.52,141.72c-4.34-6.93-13.51-7.89-19.84-3.52-.07-.15-.27-.25-.4-.09-5.27,6.57-3.49,15.86,2.43,21.24,5,4.57,12.41,3.63,16.72-1.37A14,14,0,0,0,334.52,141.72Z" transform="translate(-187.83 -94.45)"/><path class="cls-3" d="M360.42,142.11a26.3,26.3,0,0,0-4.22-12.5c-2.41-4-4.82-6.09-8.41-9a37.58,37.58,0,0,0-14.06-6.76l-1.6-19.41L309,95.62l-.68,20.25a30.62,30.62,0,0,0-11.55,7.44,35.63,35.63,0,0,0-6.09,9.71,41.62,41.62,0,0,0-3,10.77,20.37,20.37,0,0,0-.32,4.32c1.22.44,7.67-.05,12.18-.22,6.56-.25,32.73-1.72,39.26-1.9,7.85-.22,12.54-.71,21-.46C360.37,145.55,360.67,144.45,360.42,142.11Z" transform="translate(-187.83 -94.45)"/><path class="cls-4" d="M272.21,227.94a10.16,10.16,0,0,0-3.7,4.75,15.15,15.15,0,0,0-1.07,3.61c-.09.77-.57,3.61-.25,3.8a4.72,4.72,0,0,0,1.93.48,20.58,20.58,0,0,0,6.69-1.23c4.23-1.58,7.64-4.61,10.57-8a.88.88,0,0,0,0-1.22C282.2,226.17,277.37,224.64,272.21,227.94Z" transform="translate(-187.83 -94.45)"/><path class="cls-4" d="M313.38,212.34c.15-1.37-.41-1.32-1.07-1.73-1.72-1.06-7.24-2.4-10.34-1.16-5.35,2.14-6.22,5.44-6.83,10.93a17.55,17.55,0,0,0,.05,3.36.69.69,0,0,0,.64.64c5,0,8.95-.86,12.93-4A15.91,15.91,0,0,0,313.38,212.34Z" transform="translate(-187.83 -94.45)"/><path class="cls-4" d="M357.47,244.75c-2.3-.78-5.54.41-7.36,3a8.83,8.83,0,0,0-.73,6.11,6.44,6.44,0,0,0,8.87,4.14c4.15-2.08,4.32-6,3.49-9.52C361.32,246.73,359.2,245.34,357.47,244.75Z" transform="translate(-187.83 -94.45)"/><path class="cls-4" d="M386.16,252.22a8,8,0,0,0-5.05-4.48c-1.73-.59-4.1,0-5.92.91-2.61,1.53-3.68,5.22-3.34,7.49.65,4.36,5,6.62,9.21,5.75A7.11,7.11,0,0,0,386.16,252.22Z" transform="translate(-187.83 -94.45)"/><path class="cls-4" d="M299.59,286.86c-2.33-3.62-7.46-3.4-11.28-2.87-2.76.38-9.74,3.36-8.52,8,.43,1.65,2.81,2.63,4.69,3a26.49,26.49,0,0,0,11.2-.78c3.57-1.18,4.39-3.41,4.6-4.52A3.89,3.89,0,0,0,299.59,286.86Z" transform="translate(-187.83 -94.45)"/><path class="cls-4" d="M335.88,282.43c-2.89-3.48-9-3.3-14.41-2.34-3.7.6-7.18,2.24-6.68,6.25.43,3.47,3.81,3.89,5.38,4.08a31,31,0,0,0,9.95-.73C334.4,288.86,338.64,285.74,335.88,282.43Z" transform="translate(-187.83 -94.45)"/><path class="cls-1" d="M303,208c-7.47,1.52-3.28,14.77,3.72,9.41,7.37-5.63-4.33-15.4-6.33-6.05" transform="translate(-187.83 -94.45)"/><path class="cls-1" d="M275.4,224.35c-7.69,3.17-3.68,15.7,3.45,10.84,6.72-4.57-2.21-16.14-6.14-7.39" transform="translate(-187.83 -94.45)"/><path class="cls-1" d="M286.44,281.07a10.58,10.58,0,0,0-1.83,2.5c-3.53,6.95,6,12.68,10.6,5.77C300.84,280.8,286.44,281.07,286.44,281.07Z" transform="translate(-187.83 -94.45)"/><path class="cls-1" d="M322.56,277.33c-9.71,1.42.71,15.32,8.37,7.81,7.07-6.93-7-12-11.59-5" transform="translate(-187.83 -94.45)"/><path class="cls-1" d="M376.31,250.72c-2.69,0-5.05.68-6.06,3-1.34,2.69.68,6.73,4,6.73,2.36,0,5.06-2.36,5.73-5.39.34-3.36-4-5.39-6.74-3.7" transform="translate(-187.83 -94.45)"/><path class="cls-1" d="M353.22,247.23c-2.76,0-5.19.7-6.22,3.12-1.39,2.76.69,6.91,4.15,6.91,2.42,0,5.18-2.42,5.88-5.53.34-3.46-4.16-5.53-6.92-3.8" transform="translate(-187.83 -94.45)"/><text class="cls-5" transform="translate(0.05 312.82) rotate(0.23)">©<tspan class="cls-6" x="6.77" y="0">O</tspan><tspan x="12.97" y="0">pen </tspan><tspan class="cls-7" x="28.09" y="0">D</tspan><tspan x="34.07" y="0">igital </tspan><tspan class="cls-8" x="51.97" y="0">E</tspan><tspan x="56.4" y="0">duc</tspan><tspan class="cls-9" x="68.88" y="0">a</tspan><tspan x="72.66" y="0">tion</tspan></text></svg>