<?xml version="1.0" encoding="UTF-8"?>
<svg xmlns="http://www.w3.org/2000/svg" viewBox="0 0 283.46 283.46">
  <defs>
    <style>
      .cls-1 {
        fill: #fff;
      }

      .cls-2 {
        fill: #ed0039;
      }
    </style>
  </defs>
  <g id="Calque_3" data-name="Calque 3">
    <rect class="cls-2" x="-3.44" y="-8.58" width="292.6" height="297.7"/>
  </g>
  <g id="Calque_1" data-name="Calque 1">
    <g>
      <path class="cls-1" d="M102.72,176.93c0,5.08,1.1,7.47,2.38,10.23,1.4,3.03,2.99,6.47,2.99,13.01,0,.46,0,.91-.02,1.34,2.05,1.76,4.17,3.41,6.36,4.94.48-1.64.8-3.58.8-6.28,0-5.08-1.1-7.47-2.38-10.23-1.4-3.03-2.99-6.47-2.99-13s1.59-9.97,2.99-13c1.28-2.76,2.38-5.15,2.38-10.23s-1.1-7.46-2.38-10.23c-1.4-3.03-2.99-6.47-2.99-13s1.59-9.97,2.99-13c1.28-2.76,2.38-5.15,2.38-10.23s-1.1-7.46-2.38-10.23c-1.4-3.03-2.99-6.47-2.99-13s1.59-9.97,2.99-13c1.1-2.39,2.08-4.51,2.32-8.33h-7.13c-.27,5.33-1.68,8.39-2.94,11.11-1.28,2.76-2.38,5.15-2.38,10.22s1.1,7.46,2.38,10.23c1.4,3.03,2.99,6.47,2.99,13s-1.59,9.97-2.99,13c-1.28,2.76-2.38,5.15-2.38,10.23s1.1,7.46,2.38,10.23c1.4,3.03,2.99,6.47,2.99,13s-1.59,9.97-2.99,13c-1.28,2.76-2.38,5.15-2.38,10.23Z"/>
      <path class="cls-1" d="M88.96,176.93c0,.36,0,.71.02,1.05h0c.22.39.42.78.65,1.16,3.21,5.57,6.97,10.72,11.21,15.36h0c-.44-1.72-1.07-3.09-1.75-4.56-1.4-3.03-2.99-6.47-2.99-13s1.59-9.97,2.99-13c1.28-2.76,2.38-5.15,2.38-10.23s-1.1-7.46-2.38-10.23c-1.4-3.03-2.99-6.47-2.99-13s1.59-9.97,2.99-13c1.28-2.76,2.38-5.15,2.38-10.23s-1.1-7.46-2.38-10.23c-1.4-3.03-2.99-6.47-2.99-13s1.59-9.97,2.99-13c1.11-2.39,2.08-4.51,2.32-8.33h-7.13c-.27,5.33-1.68,8.39-2.94,11.11-1.28,2.76-2.38,5.15-2.38,10.22s1.1,7.46,2.38,10.23c1.4,3.03,2.99,6.47,2.99,13s-1.59,9.97-2.99,13c-1.28,2.76-2.38,5.15-2.38,10.23s1.1,7.46,2.38,10.23c1.4,3.03,2.99,6.47,2.99,13s-1.59,9.97-2.99,13c-1.28,2.76-2.38,5.15-2.38,10.23Z"/>
      <path class="cls-1" d="M116.48,176.93c0,5.08,1.1,7.47,2.38,10.23,1.4,3.03,2.99,6.47,2.99,13.01,0,4.49-.75,7.52-1.67,9.95,11.85,6.98,18.89,9.53,21.56,10.35,2.74-.84,10.07-3.49,22.5-10.9,12.06-7.19,22.3-17.71,29.61-30.42,7.31-12.7,11.17-26.67,11.17-40.4V62.67h-83.22c-.27,5.33-1.68,8.39-2.94,11.11-1.28,2.76-2.38,5.15-2.38,10.22s1.1,7.46,2.38,10.23c1.4,3.03,2.99,6.47,2.99,13s-1.59,9.97-2.99,13c-1.28,2.76-2.38,5.15-2.38,10.23s1.1,7.46,2.38,10.23c1.4,3.03,2.99,6.47,2.99,13s-1.59,9.97-2.99,13c-1.28,2.76-2.38,5.15-2.38,10.23ZM129.46,143.47c-.6-.09-1.68-.23-1.5,1.41,0,.07-.07.11-.12.07-1.42-.97-1.17-2.65.55-3.21.01,0,.02,0,.04,0,.21.03.43.14.62.33.33.33.51.81.51,1.33,0,.05-.04.08-.09.07ZM131.62,142.59c.03.65-.45,1.12-.95,1.26-.12.03-.25.05-.37.02-.04,0-.07-.04-.07-.08v-.28c.04-.75-.22-1.46-.7-1.94-.26-.26-.57-.43-.89-.5-.06-.01-.08-.08-.04-.13.51-.58,2.04-1.46,2.53-1.74.04-.02.03-.09-.02-.09-.42,0-1.47,0-1.84.05-.33.44-.55.65-.85.72-.05.01-.1-.03-.1-.08v-.54c-.01-.72-.21-1.78-.75-2.41l-.17-.23s-.02-.05-.01-.07c.05-.15.07-.19.19-.25.14-.08.35-.07.58,0,1.18.52,3,.45,3.7.4.06,0,.06-.08,0-.1-.52-.13-1.6-.4-1.7-.42-.43-.05-.66-.19-.78-.57-.01-.04,0-.08.04-.09l.19-.09c.49-.23.88-.59,1.16-1.08.16-.28.38-1,.44-1.23.01-.04.06-.07.1-.05.19.07.71.35,1.51,1.43.19.26.62.3,1.16.2,1.65-.29,4.77-2.15,6.25-5.25,1.26-1.54,3.68-3.37,5.9-4.88.4-.2.77-.38,1.12-.56.62-.31,1.2-.6,1.75-.85.08-.03.15.06.09.12-.74.92-1.52,2.37-1.71,4.48-.09,1.01-.96,1.28-1.46,1.28-.49,0-1.09-.23-1.29-.86l-.32-1.01c-.03-.08-.14-.11-.19-.04l-.68.8c-.5.58-.7,1.42-.55,2.31.18,1.11,1.01,2.56,2.75,3.01.62.16,1.18.24,1.71.24,2.28,0,4.35-1.45,6.44-4.54.04-.06.14-.04.15.04.02.52.14,1.06.44,1.63.26.47.62.92,1.1,1.34.03.03.04.07.02.1-.15.24-.41.67-.5.91-.16.42-.35,1.05-.04,1.64.21.41.61.72,1.22.95.06.02.07.1.02.14-.57.44-1.1.66-1.6.64-.37-.01-.72-.16-1.04-.44-.04-.04-.2-.2-.29-.3-.04-.04-.1-.05-.14-.01-.09.06-.23.17-.28.29-.13.27-.08.63.03.95.03.08-.04.16-.13.15-.55-.1-1.33-.4-1.65-1.35-.02-.07-.09-.38-.14-.6-.02-.09-.12-.12-.19-.06-.16.14-.38.33-.43.37-.63.43-1.3.4-1.68.33-.12-.02-.32-.09-.44-.13-.05-.02-.1,0-.13.05-.07.12-.2.34-.24.41-.97,1.88.15,3.18.9,3.87.04.04.02.11-.03.12-.48.1-1.25.09-1.93-.18-.5-.19-1.09-.56-1.31-1.28-.06-.21-.09-.53-.11-.73,0-.08-.09-.13-.16-.09-.17.08-.42.21-.54.32-.58.57-.56,1.44-.38,2.1.01.04-.02.09-.07.09-.58,0-1.25-.5-1.39-.61-.08-.06-.19,0-.18.09,0,.18,0,.4-.02.53-.05.23-.18.45-.38.65-.3.29-.7.49-1.01.61-.05.02-.09-.02-.09-.07.04-.39-.03-.9-.13-1.57-.01-.1-.08-.55-.12-.83-.01-.09-.13-.13-.19-.05-.15.19-.37.46-.41.5-.81.81-2.15.92-2.72.94-.1,0-.45-.02-.72-.03-.11,0-.16.13-.08.2.22.2.51.47.55.52.44.52.6,1.22.43,1.95-.14.59-.48,1.09-.89,1.35-.03.02-.06.02-.09,0l-.22-.16c-.6-.45-1.34-.74-2.16-.84l-.47-.06s-.05-.02-.06-.05c-.08-.18-.1-.35-.06-.49.04-.14.15-.24.33-.3l.06-.02.05-.05c.29-.3.33-.6.31-.79-.04-.48-.51-.89-.55-.92,0,0,0,0,0,0-.06-.01-.75-.16-.89-.19-.02,0-.03,0-.04.01-.13.16-1.02,1.3-1.4,1.88l-.05.07v.09ZM130.47,133.02s.04.05.03.08c-.19.84-.58,1.41-1.15,1.71-.03.02-.07,0-.09-.02-.8-.88-1.74-1.13-2.87-.75-.06.02-.11-.03-.1-.09.13-.61.5-1.08,1.07-1.35.93-.44,2.18-.27,3.11.41ZM128.5,103.33c-.02-.06.03-.12.09-.1.8.2,1.67.14,2.21-.54.03-.04.08-.04.11-.01.5.42.93.82,1.03,1.52,0,.04-.01.07-.05.08-.6.26-1.68.62-2.49.2-.41-.21-.72-.6-.91-1.16ZM134.79,159.62c.71-.93,2.74-1.39,4.28-.07.03.03.04.08,0,.11-.43.48-1.02.98-1.62,1.36-.04.03-.09,0-.11-.04-.42-.96-2.04-1.19-2.51-1.24-.06,0-.09-.08-.05-.12ZM132.98,145.87s-.02-.12.04-.13c.88-.16,1.29-1.1,1.29-1.56,0-.05.04-.08.09-.08.5.07,1.12.24,1.68.65.03.02.04.06.03.09-.41,1.01-1.99,2.1-3.13,1.02ZM132.09,165.07s-.12,0-.12-.06c-.03-.73.16-1.27.57-1.62.7-.6,1.99-.57,3.05-.26.04.01.06.04.06.08-.07.71-.37,1.6-.68,2.32-.02.05-.08.06-.12.02-.58-.55-1.19-.83-1.78-.82-.35,0-.68.12-.98.33ZM137.53,170.11c-.56.06-1.05.29-1.43.66-.37.36-.61.86-.73,1.45,0,.03-.04.04-.06.01-.48-.76-.65-1.46-.51-2.08.18-.79,1.4-1.62,1.56-1.72.01,0,.02,0,.04,0,.14.1,1.07.76,1.17,1.65,0,.02-.01.03-.03.04ZM143.9,173.09c-.53.3-1.11.35-1.62.18-.06-.02-.07-.09-.03-.13.32-.3,1.34-1.33.84-2.25-.02-.04,0-.09.04-.11.92-.34,1.78.04,1.98.14.03.01.04.04.04.07-.01.86-.49,1.67-1.25,2.1ZM156.61,155.48c.25.36,1.68,1.14,1.7,2.38,0,.04-.03.07-.07.08-.68.11-1.26.46-1.34.98-.09.58.27,1.08.24,1.53-.05.79-.86,1.01-.99,1.3-.31.71-.21,1.53-.13,1.91,0,.02,0,.04-.02.05-.25.2-.64.63-.64,1.24,0,.68.51,1.36,1.49,2.03.06.04.04.13-.03.15-1.32.2-2.39,0-3.22-.53-1.42-.9-1.45-2.05-1.56-3.06-.01-.13-.2-.14-.23,0-.18,1.1-.47,2.74-2.39,3.43-1.73.62-3.4-.19-3.75-.37-.04-.02-.09-.01-.12.02-.23.25-1.03,1.29.14,2.48.28.29.34.62.28.91-.04.17-.13.31-.23.43-.03.03-.08.03-.11,0-.17-.16-.42-.24-.6-.3-.37-.12-.74-.19-1.11-.19-.4,0-.78.08-1.14.22l-.1.04s-.08,0-.1-.04c-.11-.21-.1-.54.31-1.01.17-.2.15-.64-.07-1.13-.13-.3-.91-.27-1.22-.24-.06,0-.11.06-.1.12.07.35.1,1.42-1.87,1.66l-.17.05-.02.18c-.03.29-.33.5-.54.58-.12.04-.32.1-.54.08-.04,0-.07-.03-.07-.07l-.03-.34c-.11-1.27-1.36-2.12-1.5-2.21l-.24-.16s-.05-.08-.02-.12c.66-.77,2.03-.59,3.2-1.34.11-.07.04-.24-.08-.21-1.14.25-3.32.52-4.11.28-.05-.01-.07-.06-.05-.11l.12-.28s.03-.07.04-.11t0,0s0,0,0,0c0-.02.02-.04.02-.06,0-.02.02-.04.02-.06.01-.03.02-.06.03-.08,0-.01.01-.02.02-.04.01-.04.03-.07.04-.11,0,0,0,0,0-.01.18-.45.37-1.03.49-1.61,0-.01,0-.02,0-.03,0-.04.02-.08.02-.12,0-.02,0-.05.01-.07,0-.03.01-.06.02-.1,0-.03,0-.06.01-.09,0-.03,0-.06.01-.08,0-.02,0-.04,0-.06,0,0,0,0,0-.01,0-.02,0-.04,0-.06l.02-.18c0-.05.06-.09.11-.07.43.19,1.08.81,1.92.97.64.12,1.03.14,1.27.11.13-.01.14-.19.02-.22-.67-.18-1.99-.7-2.32-1.86,0-.03,0-.07.04-.09l.35-.22s.05-.03.07-.05c0,0,.01,0,.02,0,.03-.02.06-.04.1-.06.03-.02.07-.04.1-.07.05-.04.11-.07.16-.11.03-.02.05-.04.08-.06.07-.05.13-.1.2-.15.01-.01.03-.02.04-.03.25-.19.48-.4.7-.61.01-.01.02-.02.04-.04.06-.06.12-.11.17-.17.02-.03.05-.05.07-.08.03-.04.07-.07.1-.11,0,0,0,0,0,0,.01-.01.03-.03.04-.04l.27-.27s.08-.03.11,0c.19.16.33.48.23,1-.11.56.1,1.33,1.74,1.85.83.27,1.53-.53,2.2-1.31.41-.48.84-.97,1.24-1.13.13-.05,2.58-1.13,3.44-1.89.44-.39,1.22-2.18,1-2.56-.45-.81-1.14-1.64-1.47-2.1-.33-.46.61-2.25-.16-3.65-.06-.1-.22-.06-.21.06.08,1.85-.63,5.3-4.41,3.97-.08-.03-.07-.14.02-.15,3.23-.39,2.42-4.53,1.79-5.59-.01-.02-.02-.05-.01-.08.22-1.15.82-1.38,1.27-1.56.2-.08.37-.14.49-.28.3-.33.59-.77.9-1.24.9-1.34,2.02-3,3.96-3.27l.37-.05c2.58-.35,4-.54,7.39-3.94,1.28-1.29,2.59-1.98,3.71-2.35.02,0,.05,0,.07.01.5.35.98.72,1.42,1.12.01.01.02.03.03.05l.15.92c.09.56.23,1.13.42,1.7.18.54.26,1.29.24,2.17v.24c-.38.32-.62.78-.62,1.3,0,.97.85,1.77,1.9,1.77,0,0,.02,0,.02,0-.03.16-.05.32-.07.48-2.67-.02-6.74.57-9.53,3.85-2.95,3.47-1.93,4.93-.94,6.33ZM166.18,142.39c.22-.24.56-.4.94-.4.11,0,.22.02.32.04.02.03.04.05.06.08,0,.03,0,.06,0,.09,0,.52-.07,1-.14,1.45,0,.02,0,.05-.01.07,0,.05-.02.1-.03.15-.01.06-.02.12-.03.18,0,.03-.03.06-.07.06-.03,0-.06,0-.09,0-.66,0-1.2-.48-1.2-1.07,0-.25.1-.48.26-.66ZM165.94,137.86c-.02-.08.09-.13.14-.07.11.14.24.3.3.39.02.04.05.07.07.11.03.05.06.1.09.14.03.04.05.08.07.12.03.05.05.09.08.14.03.05.05.09.07.14.02.04.05.09.07.13.02.05.05.1.07.15.02.04.04.08.06.13.02.05.04.11.06.16.01.04.03.08.04.12,0,.02.01.04.02.06.03.08.05.16.08.24.01.04.03.09.04.13.02.07.04.13.05.2.02.08.04.16.06.24,0,.03.01.06.02.09.05.25.09.5.12.74,0,.05-.04.09-.09.09-.08-.01-.16-.02-.24-.02-.16,0-.32.02-.48.06-.05.01-.1-.02-.1-.08,0-.67-.05-1.47-.28-2.15-.13-.39-.25-.93-.33-1.27ZM167.53,170.27c-.35-1.85,1.24-2.52,3.37-2.35.03,0,.05.02.07.05.38.92-.11,1.83-.26,2.08-.02.04-.07.05-.1.03-.8-.47-2.17-.53-2.94.23-.04.04-.12.02-.13-.04ZM172.07,174.98c-1-.21-2.05.51-2.58,1.27-.03.05-.1.05-.13,0-.99-1.65.26-3.15,1.74-3.46.03,0,.06,0,.07.02.28.31.5.66.67,1.04.06.13.11.26.16.4.03.1.12.43.16.62.01.05-.03.1-.09.09ZM176.95,178c.01.06-.06.11-.11.08-1.37-.79-1.24-1.76-.97-2.73,0-.03.03-.05.06-.06.63-.14,1.23.01,1.67.34.04.03.04.08,0,.11-.61.62-.81,1.35-.65,2.25ZM182.28,173.39c-.3.44-.68.91-.46,1.73.01.05-.03.1-.09.09-1.13-.23-1.44-1.12-1.53-1.97,0-.04.02-.07.05-.08.54-.17,1.35-.08,1.98.1.05.01.07.07.04.12ZM186.75,133.9c-.54-3.9-2.81-6.64-5.01-9.3-1.93-2.33-3.75-4.53-4.37-7.38-1.18-5.37,1.11-10.27,6.63-14.16,5.38-3.8,6.73-8.35,5.72-10.98-.96-2.5-3.39-3.1-5.29-2.4-1.89.7-3.46,2.77-2.44,5.68,1.71,4.85.23,7.78-1.73,8.9-.9.52-1.78.61-2.36.42,0-.07,0-.07,0-.14.65-.3,1.06-.69,1.29-1.2.44-.99.15-2.5-.94-4.87-1.27-2.77-1.36-5.43-.24-7.49,1.13-2.08,3.36-3.42,6.45-3.86,5.11-.74,7.18,3.09,7.6,5.47.49,2.83.15,6.09-5.68,10.71-5.24,4.16-7.51,7.84-6.9,11.21.14.75.45,1.56.67,2.05.05.11.21.07.21-.04,0-.52.01-1.34.08-2.04.63-6.73,6.18-8.62,9.91-9.89.52-.18,1-.34,1.43-.51,1.36-.52,2.22-1.29,2.56-2.27.26-.74.2-1.6-.14-2.48-.03-.07.05-.14.11-.1.47.26.84.63,1.12,1.11.62,1.08.7,2.64.21,4.28-.6,2.01-2.55,3.5-6.16,4.69-2.36.78-5.29,2.59-6.42,5.35-.55,1.35-.63,2.79-.2,4.27.2.69.7,1.73.99,2.29.05.1.21.07.21-.05.01-.61.05-1.69.17-2.27.45-2.19,2.09-4.42,7.36-5.43,2.47-.47,2.64-2.12,2.61-2.89,0-.07.08-.11.13-.06.61.57.87,1.37.77,2.27-.18,1.6-1.75,3.05-4.42,4.08-3.9,1.51-4.34,4.55-4.07,6.74.06.49.35,1.58.5,2.11.03.1.17.11.21.01.21-.5.62-1.49.76-1.78.85-1.73,1.71-2.54,3.03-2.99.76-.26,1.55-.19,2.17.19.59.36,1.02.98,1.28,1.83.02.07-.05.13-.11.09-1.08-.54-2.19-.54-3.21,0-2.04,1.1-3.29,4.15-3.1,7.59.04.77.12,1.49.19,2.19.31,3.04.53,5.24-2.04,6.8-2.37,1.44-4.98,1.78-7.29.96-.66-.23-1.05-.42-1.25-.53-.08-.04-.17.02-.16.11.07.42.44,9.66,5.2,10.26.48.06,1.59-.12,2.48.8.06.06.16.04.19-.03.41-.86,1.4-.8,2.36-.63,1.15.21,2.16-.43,2.82-1.04.06-.05.15,0,.13.07-.22.98-.61,2.43-1.7,3-1.23.63-2.15.31-2.63.17-.05-.01-.11.01-.12.07-.21.77-.18,1.88.27,2.29.56.51,1.62.68,3.33.55,1.3-.1,2.23.14,2.77.72.35.38.47.85.5,1.2,0,.05-.05.09-.1.07-.71-.28-2.1-.53-3.76.68-1.19.87-1.77.41-2.51-.18-.37-.29-.75-.6-1.21-.71-.28-.07-.77-.09-1.17-.1-.13,0-.17.17-.05.22.37.15.83.35,1.07.49.55.32.96.82,1.39,1.34.7.85,1.47,1.79,2.97,2.02.08.01.09.13.01.15-1.17.43-2.29.53-3.47.38-.44-.06-.82-.14-1.05-.2-.1-.02-.17.08-.12.17.15.25.43.65.77.95.48.43.96.69,1.54.73.05,0,.08.05.06.09-.1.26-.38.97-1.23,1.15-.18.04-.42.04-.57.04-.07,0-.12.06-.11.12.01.14.05.4.14.7.23.71.75,1.7,2.13,2.08.06.02.08.09.04.13-.19.19-.54.3-.82.29-.37-.01-.79-.13-1.05-.47-.17-.22-.31-.45-.41-.63-.05-.09-.19-.07-.2.04-.02.2-.05.45-.11.72-.09.43-.36,1.3-1.03,1.99-.52.53-1.25.65-1.56.68-.07,0-.11.08-.08.15.16.36.56,1.36.31,2.01,0,.02-.02.02-.04.02l-.42-.13c-.52-.16-1.1-.25-1.6-.25-.37,0-.7.05-.98.15h-.01s-.01,0-.01,0l-.08.03s-.1-.01-.11-.06c-.08-.78.18-1.48.34-1.85.04-.1-.06-.19-.15-.14-.39.21-1.04.8-1.01,2.31,0,0,0,.02-.02.02-.74.37-.31,1.76-.5,2.41-.02.05-.08.07-.13.04l-.18-.15c-.47-.39-1.08-.6-1.71-.6-.23,0-.46.03-.69.09l-.19.05s-.1-.02-.1-.07c-.05-.69.8-2.05,1.26-2.73.07-.1-.05-.22-.15-.16-.79.48-2.4,1.58-2.7,2.88-.13.54-.35.63-.57.76-.06.04-.14.06-.22.07-.04,0-.08-.02-.09-.07l-.08-.46c-.03-.16-.16-.69-.22-.85s-.11-.31-.18-.46c-.22-.49-.49-.91-.83-1.27l-.13-.14s-.03-.08,0-.11c.19-.17.47-.19.66-.2,1.35-.1,2.5-.82,3.09-1.27.1-.08.02-.23-.1-.2-1.01.3-3.17.87-4.12.64-.05-.01-.08-.07-.05-.12l.26-.42c.22-.35.89-1.56.33-2.83l-.07-.16s0-.08.04-.1c.45-.22.85-.03,1.44.29.72.4,1.62.89,2.82.18,2.7-1.06,2.78-2.95,2.85-4.47.01-.32.03-.62.06-.89.03-.22.19-.63.24-.76.01-.02.01-.05,0-.08-.06-.15-.29-.73-.42-.97-1.39-2.7-4.11-3.91-6.34-4.89-1.82-.81-2.51-2.45-2.88-3.61-.04-.12-.21-.1-.22.02-.2,2.07-2.24,5.21-4.61,3.67-.06-.04-.04-.14.03-.15,2.79-.44,2.41-3.04,2.08-5.21-.2-1.36,1.77-2.29,2.66-2.59.1-.03.11-.17.01-.21-.48-.22-1.33-.62-1.47-1.07-.19-.62-.06-1.34.1-2.19.25-1.34.56-3.01-.19-5.19-.9-2.61-3.62-4.3-6.01-5.79-1.75-1.09-3.02-1.92-3.47-2.76,0-.02-.01-.04,0-.06.28-1.01,1-2.31,2.66-3.85.47-.43.88-.83,1.24-1.17.05-.05.14-.01.13.06-.09,1.42.02,3.5,1.19,4.87.74.86,1.8,1.32,3.13,1.36l1.23.03c.1,0,.15-.11.09-.18l-.75-.98c-.9-1.17-1.67-2.17.31-4.04,1.16-1.09,1.51-2.16,1.55-3.13,0-.07.09-.1.13-.04.23.32.52.66.86.95.01.01.02.02.03.04.86,3.71,2.24,7.2,3.9,8.79,3.04,5.44,6.87,6.46,9.44,5.6,2.25-.75,3.66-2.89,3.36-5.09ZM149.44,99.58c.51.07.97.3,1.48.56,1.15.57,2.45,1.53,4.72.53l.48-.21c2.61-1.17,4.23-2.19,6.23-1.47.02.02.03.04.05.07.05.4.04.81-.05,1.19,0,.04-.05.07-.1.06-2.65-.6-4,.1-5.2,1.05-1.03.81-2.01,1.94-3.75,1.69-1.82-.27-2.53-1.33-3.23-2.37-.23-.34-.45-.67-.7-.95-.05-.05,0-.14.07-.13ZM155.39,98.94s.02-.09.07-.09c.23-.02.47-.06.72-.12.06-.01.11.04.1.1-.1.38-.16.67-.19.86,0,.03-.02.05-.05.06l-.39.17s-.1,0-.11-.06c-.03-.27-.08-.6-.14-.91ZM158.25,102.84c.02.05-.02.11-.07.11-.29,0-.59-.03-.97-.06-.04,0-.07-.03-.07-.07l-.06-.56s0-.05.03-.07c.09-.07.19-.15.28-.22.09-.07.18-.14.27-.21.04-.03.1-.02.12.03l.48,1.05ZM146.99,106.74c.27-.52.71-.9,1.26-1.13.06-.02.12.02.11.09-.06.34-.04.66.07.96.2.54.67.98,1.4,1.31,1.04.47,2.04.25,3.11.01,1.04-.23,2.11-.47,3.33-.08,1.84.57,4.12,1.28,6.24-2.39l.79-1.37c.05-.08-.06-.16-.13-.09l-1.09,1.14c-.39.41-.99.54-1.63.68l-.24.05c-.29.06-.53.13-.74.19-.48.14-.83.23-1.35.2-.98-.56-1.02-2-.97-2.72,1.36.1,1.8.13,3.64-.32l.1-.02.06-.08c.16-.22.37-.45.6-.7.41-.44.88-.94,1.15-1.53.77-1.72-.15-4.14-1.17-4.81l-.07-.05h-.08c-1.24.02-2.81.24-3.37,1.14-3.33,1.83-4.27.51-4.64-.09,0,0,0,0,0,0-.01-.37-.08-.89-.11-1.12,0-.06-.04-.24-.04-.24,0,0-.21-.12-.27-.16-.21-.15-.5-.42-.51-.73,0-.21-.12-1.11-.17-1.55,0-.03.01-.06.04-.08.71-.35,2.86-1.4,3.31-1.74l.04-.03.03-.04c.25-.38.4-.9.58-1.69.01-.07.07-.12.14-.13.97-.17,1.77-.74,2.55-1.3.79-.56,1.52-1.09,2.31-1.06,1.14.04,1.99-.06,2.67-.14.27-.03.5-.06.7-.07,2.68-.15,4.1.69,4.84,1.47.04.04.01.11-.05.12-.69.05-2.2.54-2.95,1.66-.08.11.08.24.18.15,1.84-1.64,3.58-1.19,5.26-.31.06.03.06.11,0,.14-.94.45-1.7,1.06-2.6,1.41-.11.04-.09.21.04.22.38.02.78.02.99-.09.14.12.28.29.54.73.16,1.17.88,2.2,1.8,2.84.36.25.73.39,1.09.42.06,0,.1.08.06.13-.28.46-.76.69-1.1.8-.23.08-.58.13-.87.17-.12.02-.14.18-.02.22.28.1.61.25.82.43.85.74.18,2.54.18,2.57l-.02.04v.05c-.03,1.86.98,3.36,2.07,4.02.05.03.05.09.01.13-.78.69-1.54.59-2.26.3-.09-.03-.72-.33-1.2-.56-.12-.05-.22.09-.13.18.41.43.98,1.03,1.07,1.13.82.91,1.97,2.54,1.16,4.68-1.46,3.85-.07,6.26.58,7.1.03.04.02.1-.03.12-.76.35-1.21-.03-1.81-.52-.09-.08-.19-.16-.29-.24-.08-.07-.76-.48-1.29-.81-.11-.07-.23.07-.15.17.4.46.92,1.05.98,1.13.38.52.59,1.16.16,2.65-.61.88-.78,1.71-.52,2.47.34,1,1.36,1.62,2.01,1.92.05.02.05.09,0,.12-.7.45-1.39.54-2.04.25-.78-.34-1.43-1.16-1.87-2-.31-.59-.61-1.81-.75-3.15-.01-.14-.22-.14-.23,0-.1,1.41-.03,3.19-.01,3.34.15,1.14.1,2.33-1.28,3.63-2.3,2.16-1.43,3.6-.49,4.85.04.05,0,.12-.06.12-1.06-.06-1.88-.43-2.46-1.11-1.17-1.37-1.11-3.68-.97-4.92.04-.33.17-1.01.26-1.46.02-.11-.12-.19-.2-.1-.29.32-.72.81-.99,1.08-.35.35-.88.86-1.67,1.59-2.97,2.76-3.17,4.93-2.98,6.04,0,.06-.05.1-.1.07-1.26-.72-1.98-1.43-2.35-2.13-.64-1.18-.29-2.29,0-3.21.06-.18.2-.84.29-1.33.02-.12-.14-.19-.21-.08-.39.59-1.01,1.53-1.19,1.83-3.29,5.4-5.82,5.66-8.08,5.09-1.41-.36-2.08-1.54-2.23-2.44-.1-.63.01-1.2.3-1.62.04-.05.12-.04.14.02.33.83,1.14,1.21,1.9,1.21h0c.95,0,2.03-.6,2.15-1.91.21-2.31,1.24-3.95,2.3-4.88.23-.2,1.02-.7,1.7-1.07.11-.06.06-.22-.07-.21-.6.08-1.29.17-1.97.37-1.01.29-1.94.76-3.11,1.35-.41.21-.85.43-1.32.66-2.16,1.05-4.79.76-6.25-.68-.49-.48-1.85-2.1-.77-4.13.04-.07.15-.06.17.02.41,1.36,1.28,1.79,1.81,1.93,1.22.32,2.73-.33,3.66-1.58,1.09-1.47,2.02-2.1,3.13-2.51.55-.2,2.5-.68,2.77-.72.12-.02.13-.19.02-.22-.27-.08-2.29-.15-2.87-.24-2.34-.39-3.73-1.83-4.09-4.24-.01-.07.07-.12.13-.08,1.99,1.17,4.22.68,5.51.21.45-.16,1.13-.52,1.51-.73.09-.05.07-.19-.04-.2-.41-.05-1.1-.15-1.45-.26-.68-.22-1.55-.64-1.92-1.45-.36-.79-.34-1.7.05-2.44ZM137.13,91.34c1.04-.76.82-1.74.53-2.51-.03-.07.04-.13.11-.1,1.79.82,1.78,2.19,1.41,3.59,0,.03-.04.06-.08.06-.83.02-1.5-.42-1.99-.92-.03-.03-.03-.09.01-.12ZM131.5,88.83c.41-.18.85-.2,1.26-.04.75.28,1.29,1.08,1.48,2.15,0,.04-.01.07-.05.09-.49.2-1.19.29-1.77.3-.05,0-.08-.04-.08-.09.13-1.13-.14-1.88-.85-2.27-.06-.03-.05-.12,0-.14ZM130.33,93.68l.23-.56-.03-.02c.32-.04.74.03.88.12.49.32.41.77.39.81l-.04.15.1.11c0,.11,1.43,1.36,2.23,1.97.11.08.24-.05.16-.16-.42-.55-1.05-1.39-1.07-1.51-.02-.15-.06-.35-.17-.74l-.04-.12-.12-.05c-.53-.21-.96-.86-.92-1.57,0-.04.04-.07.08-.07h.33c.31,0,1.37-.03,2.19-.39l.3-.13s.08,0,.1.03c.33.47.44,1.13.05,1.66l-.23.31.37.11c.39.12.57.67.9,1.17.13.2.63,1.09.94,1.64.06.11.22.06.21-.06-.05-.67-.14-1.77-.25-1.95-.18-.3-.34-.55-.26-1.09v-.09s-.03-.08-.03-.08c-.29-.52-.46-.97-.32-1.37.02-.06.09-.07.13-.03l.09.1c.73.8,1.6,1.22,2.5,1.22.05,0,.1,0,.16,0l.45-.02s.06.02.08.05c.16.35.12.76-.13,1.1-.32.12-.58.4-.75.83-.4.99-.32,2.83.61,4.29.73,1.14,3.85,4.08,6.97,6.88.03.03.03.07.01.1-.02.04-.05.08-.07.12-.49.93-.52,2.07-.07,3.06.33.72.99,1.29,1.92,1.67.07.03.06.12,0,.14-.57.18-1.32.34-2.12.34-.96,0-1.82-.24-2.56-.71l-1.05-.67c-.08-.05-.18.01-.17.11l.15,1.24c.33,2.64,1.76,4.32,4.16,4.91.07.02.08.12.01.15-1.09.49-1.95,1.22-2.85,2.39-.02.03-.05.04-.08.03-.95-.25-3-1.1-3.3-1.57-.02-.04,0-.08.03-.11.91-.6-.26-3.2-.78-3.38-1.01-.36-.79-2.24-.73-2.49l.19-.71c.03-.12-.12-.19-.2-.1l-.46.57c-.27.33-.24.87-.22,1.56.05,1.2-.48,3.79-2,4.27-1.35.43-2.26-.29-2.38-.96-.01-.07.07-.12.13-.07.62.52,1.14.18,1.36.05.87-.49,1.19-2.2.63-3.37-.63-1.31-.54-2.02.55-4.21.85-1.73-.29-3.35-.83-4.21-.04-.06-.07-.11-.11-.17-.09-.15-.34-.69-.48-1-.04-.09-.16-.09-.21,0-.16.32-.47.89-.61,1.05-.32.36-.53.45-.95.55-.23.05-.44.04-.62-.06-.02-.01-.04-.04-.04-.06l-.05-.47c-.12-1.06-.8-1.63-1.35-2.09l-.41-.34s-.03-.05-.03-.08c.05-.15.13-.27.24-.36.41-.31,1.21-.18,1.48-.1h.03s.37.06.64-.22c.33-.34.4-.99.2-1.94-.23-1.12-1.37-1.65-2.2-2.04-.31-.14-.77-.36-.81-.47l.15-.48s-.04-.08-.08-.05c-.11.09-.29.21-.48.28-.3.12-.75.17-1.07.03-.39-.17-.59-.44-.69-.75-.01-.04,0-.08.04-.09l.31-.15c.85-.42,1.42-.97,1.69-1.62ZM125.97,93.14c1.41-.86,2.48-.46,3.65.23.04.02.05.07.03.1-.25.53-.77.91-1.25,1.16-.04.02-.09,0-.11-.04-.38-.89-1.21-1.18-2.29-1.3-.08,0-.1-.11-.03-.15ZM127,137.31s.02,0,.03.01c.36.42.57,1.21.58,1.9,0,.03-.03.04-.05.03-.98-.56-2.17-.29-3.05.63-.02.02-.05,0-.06-.02-.39-2.27,1.5-2.57,2.55-2.55Z"/>
      <path class="cls-1" d="M160.39,91.91c-.21-.66-.71-1.13-1.41-1.32-.85-.23-1.9-.02-2.43.49l-.58.56c-.08.08-.01.22.1.19l.79-.16c.36-.07.36-.05.46.2.13.33.34.87,1.34,1.01.4.05.92,0,1.28-.24l.94.28c.1.03.19-.09.12-.18l-.61-.83ZM159.6,92.02c-.11.12-.49.22-.85.17-.59-.08-.68-.3-.78-.57-.05-.13-.11-.26-.2-.37.32-.07.69-.07,1.02.02.42.11.71.34.87.69l-.06.06Z"/>
      <path class="cls-1" d="M65.2,49.43v89.31c0,16.05,4.47,32.3,12.93,47.01,8.45,14.68,20.31,26.85,34.31,35.2,18.34,10.93,27.18,12.72,28.13,12.89l1.16.21,1.16-.21c.95-.17,9.79-1.96,28.13-12.89,14-8.34,25.87-20.52,34.31-35.2,8.46-14.71,12.93-30.96,12.93-47.01V49.43H65.2ZM211.64,138.74c0,30.35-17.47,60.69-44.01,76.51-17.83,10.63-25.89,12.06-25.89,12.06,0,0-8.06-1.43-25.89-12.06-26.55-15.82-44.01-46.17-44.01-76.51V56.05h139.81v82.69Z"/>
      <path class="cls-1" d="M83.92,167.22c.44-1.21.93-2.28,1.4-3.29,1.28-2.76,2.38-5.15,2.38-10.23s-1.1-7.46-2.38-10.23c-1.4-3.03-2.99-6.47-2.99-13s1.59-9.97,2.99-13c1.28-2.76,2.38-5.15,2.38-10.23s-1.1-7.46-2.38-10.23c-1.4-3.03-2.99-6.47-2.99-13s1.59-9.97,2.99-13c1.11-2.39,2.08-4.51,2.32-8.33h-9.19v76.07c0,9.55,1.87,19.21,5.47,28.48h0Z"/>
    </g>
  </g>
</svg>