<?xml version="1.0" encoding="utf-8"?>
<!-- Generator: Adobe Illustrator 17.0.0, SVG Export Plug-In . SVG Version: 6.00 Build 0)  -->
<!DOCTYPE svg PUBLIC "-//W3C//DTD SVG 1.1//EN" "http://www.w3.org/Graphics/SVG/1.1/DTD/svg11.dtd">
<svg version="1.1" id="Layer_1" xmlns="http://www.w3.org/2000/svg" xmlns:xlink="http://www.w3.org/1999/xlink" x="0px" y="0px"
	 width="85.946px" height="54.955px" viewBox="0 0 85.946 54.955" enable-background="new 0 0 85.946 54.955" xml:space="preserve">
<rect x="0" y="0" fill="#FFFFFF" width="85.946" height="54.955"/>
<rect x="3.982" y="2.883" width="16.198" height="16.198"/>
<rect x="3.982" y="21.187" width="16.198" height="16.198"/>
<rect x="25.072" y="2.883" width="16.198" height="16.198"/>
<rect x="45.775" y="2.883" width="16.198" height="16.198"/>
<rect x="66.874" y="2.883" width="16.198" height="16.198"/>
<rect x="3.982" y="42.198" width="16.198" height="12.757"/>
<rect x="25.072" y="42.198" width="16.198" height="12.757"/>
<rect x="45.775" y="42.198" width="16.198" height="12.757"/>
<rect x="66.874" y="42.198" width="16.198" height="12.757"/>
<rect x="24.946" y="21.187" width="16.198" height="16.198"/>
<rect x="45.91" y="21.187" width="16.198" height="16.198"/>
<rect x="66.874" y="21.187" width="16.198" height="16.198"/>
<rect x="2.952" y="22.548" fill="#FFFFFF" width="80.189" height="1"/>
<rect x="2.952" y="26.771" fill="#FFFFFF" width="80.189" height="1"/>
<rect x="2.952" y="24.66" fill="#FFFFFF" width="80.189" height="1"/>
<rect x="2.952" y="20.437" fill="#FFFFFF" width="80.189" height="1"/>
<rect x="2.952" y="28.882" fill="#FFFFFF" width="80.189" height="1"/>
<rect x="2.952" y="30.994" fill="#FFFFFF" width="80.189" height="1"/>
<rect x="2.952" y="33.105" fill="#FFFFFF" width="80.189" height="1"/>
<rect x="2.952" y="35.216" fill="#FFFFFF" width="80.189" height="1"/>
</svg>
