<svg width="282" height="212" viewBox="0 0 282 212" fill="none" xmlns="http://www.w3.org/2000/svg">
<path d="M14.5 16C14.5 7.16344 21.6634 0 30.5 0H251.5C260.337 0 267.5 7.16344 267.5 16V32C267.5 40.8366 260.337 48 251.5 48H30.5C21.6634 48 14.5 40.8366 14.5 32V16Z" fill="#FFEFE3"/>
<path fill-rule="evenodd" clip-rule="evenodd" d="M27.5 15C27.5 13.8954 28.3954 13 29.5 13H35.5C36.6046 13 37.5 13.8954 37.5 15V21C37.5 22.1046 36.6046 23 35.5 23H29.5C28.3954 23 27.5 22.1046 27.5 21V15ZM35.5 15H29.5V21H35.5V15Z" fill="#4A4A4A"/>
<path fill-rule="evenodd" clip-rule="evenodd" d="M39.5 15C39.5 13.8954 40.3954 13 41.5 13H47.5C48.6046 13 49.5 13.8954 49.5 15V21C49.5 22.1046 48.6046 23 47.5 23H41.5C40.3954 23 39.5 22.1046 39.5 21V15ZM47.5 15H41.5V21H47.5V15Z" fill="#4A4A4A"/>
<path fill-rule="evenodd" clip-rule="evenodd" d="M39.5 27C39.5 25.8954 40.3954 25 41.5 25H47.5C48.6046 25 49.5 25.8954 49.5 27V33C49.5 34.1046 48.6046 35 47.5 35H41.5C40.3954 35 39.5 34.1046 39.5 33V27ZM47.5 27H41.5V33H47.5V27Z" fill="#4A4A4A"/>
<path fill-rule="evenodd" clip-rule="evenodd" d="M27.5 27C27.5 25.8954 28.3954 25 29.5 25H35.5C36.6046 25 37.5 25.8954 37.5 27V33C37.5 34.1046 36.6046 35 35.5 35H29.5C28.3954 35 27.5 34.1046 27.5 33V27ZM35.5 27H29.5V33H35.5V27Z" fill="#4A4A4A"/>
<path fill-rule="evenodd" clip-rule="evenodd" d="M235.512 19.8711C236.136 19.3256 237.083 19.3888 237.629 20.0122L243.5 26.7221L249.371 20.0122C249.917 19.3888 250.864 19.3256 251.488 19.8711C252.111 20.4167 252.174 21.3643 251.629 21.9878L244.629 29.9878C244.344 30.3133 243.933 30.5 243.5 30.5C243.067 30.5 242.656 30.3133 242.371 29.9878L235.371 21.9878C234.826 21.3643 234.889 20.4167 235.512 19.8711Z" fill="#4A4A4A"/>
<g filter="url(#filter0_d_3461_156127)">
<g clip-path="url(#clip0_3461_156127)">
<rect x="10.5" y="48" width="261" height="150" rx="16" fill="white"/>
<g clip-path="url(#clip1_3461_156127)">
<rect x="30.5" y="64" width="36" height="36" rx="8" fill="#FFEFE3"/>
</g>
<g clip-path="url(#clip2_3461_156127)">
<path d="M41.831 79.9772C41.9113 79.9703 41.986 79.9329 42.0396 79.8726C42.0931 79.8123 42.1216 79.7338 42.119 79.6532C42.1202 79.6148 42.1136 79.5766 42.0996 79.5408C42.0856 79.5051 42.0645 79.4726 42.0376 79.4452C42.0107 79.4179 41.9785 79.3963 41.943 79.3817C41.9074 79.3672 41.8693 79.36 41.831 79.3607H40.031C39.9496 79.3581 39.8705 79.3872 39.8101 79.4417C39.7497 79.4962 39.7127 79.572 39.707 79.6532C39.7123 79.7373 39.7481 79.8167 39.8078 79.8764C39.8674 79.936 39.9468 79.9718 40.031 79.9772H41.831ZM41.831 81.2822C41.9063 81.273 41.9757 81.2366 42.026 81.1799C42.0764 81.1231 42.1041 81.0498 42.1041 80.9739C42.1041 80.898 42.0764 80.8248 42.026 80.768C41.9757 80.7112 41.9063 80.6748 41.831 80.6657H40.031C39.9874 80.6604 39.9431 80.6644 39.9012 80.6775C39.8593 80.6906 39.8206 80.7124 39.7877 80.7415C39.7548 80.7707 39.7285 80.8064 39.7105 80.8465C39.6925 80.8866 39.6831 80.93 39.6831 80.9739C39.6831 81.0178 39.6925 81.0613 39.7105 81.1013C39.7285 81.1414 39.7548 81.1771 39.7877 81.2063C39.8206 81.2354 39.8593 81.2572 39.9012 81.2703C39.9431 81.2834 39.9874 81.2874 40.031 81.2822H41.831ZM45.638 81.5387C46.6182 81.5193 47.5917 81.7041 48.4965 82.0814C49.4014 82.4587 50.2179 83.0202 50.894 83.7302V76.9172C50.2318 77.6509 49.42 78.2342 48.5133 78.6278C47.6067 79.0213 46.6262 79.216 45.638 79.1987V81.5387ZM54.638 77.5517L54.0395 76.9352L56.5235 74.4692L57.14 75.0497L54.638 77.5517ZM55.088 80.7017V79.8512H59.255V80.7197L55.088 80.7017ZM54.035 83.8022L54.6335 83.1857L57.1355 85.6877L56.528 86.2862L54.035 83.8022ZM51.7265 74.4692C51.8099 74.4662 51.8932 74.4798 51.9714 74.5093C52.0495 74.5387 52.121 74.5834 52.1818 74.6408C52.2425 74.6982 52.2912 74.7671 52.325 74.8434C52.3589 74.9198 52.3772 75.0021 52.379 75.0857V85.5437C52.3766 85.627 52.3579 85.709 52.3238 85.7851C52.2898 85.8612 52.2411 85.9299 52.1805 85.9871C52.1199 86.0444 52.0486 86.0891 51.9707 86.1188C51.8928 86.1485 51.8098 86.1626 51.7265 86.1602C51.644 86.1626 51.5619 86.1484 51.485 86.1185C51.4081 86.0886 51.338 86.0436 51.2788 85.9861C51.2197 85.9286 51.1727 85.8598 51.1406 85.7838C51.1084 85.7078 51.0919 85.6262 51.092 85.5437C50.021 84.2387 48.1535 82.5512 45.35 82.5512H44.1845L46.7225 86.8307L45.1835 87.9512C45.0023 88.0205 44.803 88.0262 44.6182 87.9673C44.4334 87.9085 44.2741 87.7885 44.1665 87.6272L41.0165 82.5512H39.311C39.311 82.5512 37.736 81.6962 37.736 80.3462C37.736 78.9962 39.311 78.2087 39.311 78.2087H45.35C48.158 78.2087 50.0255 76.4672 51.0965 75.0902C51.0958 75.0075 51.1119 74.9255 51.1438 74.8492C51.1757 74.773 51.2227 74.7039 51.282 74.6463C51.3413 74.5887 51.4116 74.5437 51.4888 74.514C51.566 74.4843 51.6483 74.4706 51.731 74.4737L51.7265 74.4692Z" fill="#FF8D2E"/>
</g>
<path d="M82.5 75C82.5 72.7909 84.2909 71 86.5 71H247.5C249.709 71 251.5 72.7909 251.5 75V89C251.5 91.2091 249.709 93 247.5 93H86.5C84.2909 93 82.5 91.2091 82.5 89V75Z" fill="#F2F2F2"/>
<g clip-path="url(#clip3_3461_156127)">
<rect x="30.5" y="120" width="36" height="36" rx="8" fill="#EAF7E4"/>
</g>
<path d="M48.2525 135.59C48.2565 135.873 48.2003 136.153 48.0878 136.412C47.9753 136.671 47.8091 136.903 47.6 137.093C47.1634 137.506 46.5854 137.736 45.9845 137.737C45.3968 137.75 44.8271 137.533 44.3973 137.132C43.9676 136.731 43.7119 136.178 43.685 135.59C43.6827 135.302 43.7427 135.018 43.8607 134.755C43.9788 134.493 44.1522 134.259 44.369 134.069C44.8108 133.667 45.3869 133.444 45.9845 133.444C46.5822 133.444 47.1583 133.667 47.6 134.069C47.8152 134.258 47.9855 134.493 48.0984 134.756C48.2113 135.019 48.264 135.304 48.2525 135.59ZM53.5715 135.59C53.5738 135.873 53.5159 136.154 53.4019 136.413C53.2879 136.672 53.1202 136.904 52.91 137.093C52.4724 137.505 51.8951 137.735 51.2945 137.737C50.996 137.742 50.6995 137.688 50.4221 137.577C50.1447 137.467 49.8921 137.302 49.679 137.093C49.4692 136.902 49.3004 136.67 49.1829 136.412C49.0653 136.154 49.0014 135.874 48.995 135.59C48.9915 135.302 49.0509 135.017 49.1691 134.754C49.2872 134.492 49.4612 134.258 49.679 134.069C50.1157 133.659 50.6952 133.434 51.2945 133.444C51.8944 133.431 52.475 133.656 52.91 134.069C53.1216 134.262 53.29 134.497 53.404 134.759C53.5181 135.021 53.5752 135.304 53.5715 135.59ZM55.9655 137.489V130.42C56.0077 129.957 55.8867 129.494 55.6235 129.11C55.4685 128.963 55.2825 128.853 55.0793 128.788C54.876 128.722 54.6606 128.703 54.449 128.732H42.65C42.4364 128.704 42.2192 128.722 42.0128 128.784C41.8065 128.846 41.6157 128.951 41.453 129.092C41.2022 129.496 41.0885 129.969 41.129 130.442V137.566C41.4328 137.733 41.7505 137.873 42.0785 137.984C42.407 138.097 42.695 138.2 42.9335 138.29C43.2109 138.384 43.4976 138.447 43.7885 138.479C44.117 138.515 44.3735 138.556 44.549 138.592C44.7941 138.635 45.0433 138.648 45.2915 138.632C45.4932 138.607 45.6973 138.607 45.899 138.632C46.1081 138.656 46.3195 138.643 46.5245 138.596C46.8395 138.547 46.997 138.542 46.997 138.596C47.3569 138.558 47.7177 138.66 48.005 138.88C48.0306 138.918 48.0626 138.951 48.0995 138.979C48.293 139.154 48.5045 139.339 48.7475 139.528C48.7955 138.88 49.214 138.569 50.003 138.596H50.399H50.849H51.3215C51.5115 138.616 51.703 138.616 51.893 138.596C52.0861 138.578 52.2804 138.578 52.4735 138.596C52.6917 138.599 52.909 138.568 53.117 138.502C53.3336 138.433 53.5569 138.388 53.783 138.367C54.0293 138.341 54.268 138.266 54.485 138.146C54.7162 138.027 54.959 137.932 55.2095 137.863C55.483 137.783 55.7393 137.653 55.9655 137.48V137.489ZM57.698 137.453C56.6186 138.652 55.2599 139.565 53.7425 140.113C54.341 142.124 54.2555 143.771 53.4995 145.063C53.2968 145.439 53.0206 145.77 52.6875 146.038C52.3544 146.305 51.971 146.503 51.56 146.62C51.2484 146.738 50.9144 146.786 50.5821 146.76C50.2497 146.733 49.9275 146.633 49.6385 146.467C49.3405 146.291 49.0996 146.032 48.9448 145.722C48.7899 145.413 48.7277 145.065 48.7655 144.721V141.26L48.5 141.197L48.2525 141.139V144.712C48.2903 145.056 48.2281 145.404 48.0733 145.713C47.9184 146.023 47.6776 146.282 47.3795 146.458C47.0868 146.623 46.7616 146.722 46.4266 146.748C46.0917 146.775 45.755 146.728 45.44 146.611C44.6106 146.363 43.9132 145.797 43.5005 145.036C42.7685 143.752 42.6935 142.111 43.2755 140.113C41.7582 139.565 40.3995 138.652 39.32 137.453C39.2359 137.361 39.1863 137.242 39.1797 137.118C39.1731 136.993 39.21 136.87 39.284 136.769C39.437 136.58 39.644 136.585 39.9095 136.769C39.956 136.792 40.001 136.818 40.0445 136.846C40.0848 136.867 40.1225 136.893 40.157 136.922V129.596C40.149 129.111 40.326 128.641 40.652 128.282C40.8009 128.107 40.9877 127.969 41.1982 127.877C41.4087 127.785 41.6375 127.742 41.867 127.751H55.187C55.4155 127.75 55.6417 127.796 55.851 127.888C56.0603 127.979 56.2481 128.114 56.402 128.282C56.5675 128.457 56.6953 128.664 56.7774 128.89C56.8594 129.116 56.894 129.356 56.879 129.596V136.94L57.1085 136.787C57.374 136.598 57.5585 136.589 57.734 136.787C57.9095 136.985 57.8735 137.192 57.698 137.471V137.453Z" fill="#5AC235"/>
<path d="M82.5 131C82.5 128.791 84.2909 127 86.5 127H247.5C249.709 127 251.5 128.791 251.5 131V145C251.5 147.209 249.709 149 247.5 149H86.5C84.2909 149 82.5 147.209 82.5 145V131Z" fill="#F2F2F2"/>
<g clip-path="url(#clip4_3461_156127)">
<rect x="30.5" y="176" width="36" height="36" rx="8" fill="#F6ECF9"/>
</g>
<g clip-path="url(#clip5_3461_156127)">
<path d="M44.0945 200.493L47.8655 198.608V195.498L44.0945 197.123V200.493ZM43.46 195.993L47.4425 194.301L43.46 192.591L39.5 194.324L43.46 195.993ZM54.1745 200.493L57.95 198.608V195.498L54.179 197.123L54.1745 200.493ZM53.54 195.993L57.5 194.324L53.5355 192.614L49.553 194.324L53.54 195.993ZM49.1345 193.118L52.9055 191.498V188.897L49.1345 190.517V193.118ZM48.5 189.405L52.8335 187.556L48.5 185.688L44.162 187.556L48.5 189.405ZM59.1965 194.499V198.608C59.1981 198.836 59.1375 199.06 59.021 199.256C58.9014 199.456 58.722 199.613 58.508 199.706L54.1025 201.911C53.9291 202.002 53.736 202.05 53.54 202.05C53.344 202.05 53.1509 202.002 52.9775 201.911L48.572 199.706C48.5448 199.702 48.5196 199.689 48.5 199.67C48.4797 199.688 48.4548 199.7 48.428 199.706L44.0225 201.911C43.8509 202.007 43.6566 202.055 43.46 202.05C43.2675 202.056 43.0773 202.008 42.911 201.911L38.5055 199.706C38.2935 199.612 38.1159 199.455 37.997 199.256C37.8786 199.06 37.812 198.837 37.8035 198.608V194.499C37.8014 194.253 37.8752 194.013 38.015 193.811C38.1519 193.607 38.3483 193.449 38.5775 193.361L42.8435 191.529V187.592C42.8426 187.345 42.9136 187.103 43.0479 186.896C43.1821 186.689 43.3738 186.526 43.5995 186.426L48.005 184.541C48.1611 184.473 48.3297 184.438 48.5 184.438C48.6704 184.438 48.8389 184.473 48.995 184.541L53.4005 186.426C53.6245 186.524 53.8186 186.679 53.963 186.876C54.105 187.084 54.1789 187.331 54.1745 187.583V191.511L58.4405 193.343C58.6698 193.431 58.8662 193.589 59.003 193.793C59.1413 193.995 59.2093 194.237 59.1965 194.481V194.499Z" fill="#A348C0"/>
</g>
<path d="M82.5 187C82.5 184.791 84.2909 183 86.5 183H247.5C249.709 183 251.5 184.791 251.5 187V201C251.5 203.209 249.709 205 247.5 205H86.5C84.2909 205 82.5 203.209 82.5 201V187Z" fill="#F2F2F2"/>
</g>
</g>
<defs>
<filter id="filter0_d_3461_156127" x="0.5" y="42" width="281" height="170" filterUnits="userSpaceOnUse" color-interpolation-filters="sRGB">
<feFlood flood-opacity="0" result="BackgroundImageFix"/>
<feColorMatrix in="SourceAlpha" type="matrix" values="0 0 0 0 0 0 0 0 0 0 0 0 0 0 0 0 0 0 127 0" result="hardAlpha"/>
<feOffset dy="4"/>
<feGaussianBlur stdDeviation="5"/>
<feComposite in2="hardAlpha" operator="out"/>
<feColorMatrix type="matrix" values="0 0 0 0 0 0 0 0 0 0 0 0 0 0 0 0 0 0 0.15 0"/>
<feBlend mode="normal" in2="BackgroundImageFix" result="effect1_dropShadow_3461_156127"/>
<feBlend mode="normal" in="SourceGraphic" in2="effect1_dropShadow_3461_156127" result="shape"/>
</filter>
<clipPath id="clip0_3461_156127">
<rect x="10.5" y="48" width="261" height="150" rx="16" fill="white"/>
</clipPath>
<clipPath id="clip1_3461_156127">
<rect x="30.5" y="64" width="36" height="36" rx="8" fill="white"/>
</clipPath>
<clipPath id="clip2_3461_156127">
<rect width="22.5" height="22.5" fill="white" transform="translate(37.25 70)"/>
</clipPath>
<clipPath id="clip3_3461_156127">
<rect x="30.5" y="120" width="36" height="36" rx="8" fill="white"/>
</clipPath>
<clipPath id="clip4_3461_156127">
<rect x="30.5" y="176" width="36" height="36" rx="8" fill="white"/>
</clipPath>
<clipPath id="clip5_3461_156127">
<rect width="22.5" height="22.5" fill="white" transform="translate(37.25 182)"/>
</clipPath>
</defs>
</svg>
