<svg width="250" height="195" viewBox="0 0 250 195" fill="none" xmlns="http://www.w3.org/2000/svg">
<g clip-path="url(#clip0_3597_141057)">
<rect width="250" height="194.203" fill="white"/>
<path d="M115.148 81.9222C115.178 84.0781 114.749 86.2158 113.891 88.1936C113.032 90.1714 111.763 91.9442 110.167 93.3943C106.835 96.5457 102.423 98.3031 97.8364 98.3061C93.3503 98.4095 89.0019 96.753 85.7217 93.691C82.4415 90.629 80.4899 86.4048 80.2847 81.9222C80.2673 79.7252 80.7248 77.5504 81.6259 75.5466C82.527 73.5429 83.8504 71.7574 85.5056 70.3126C88.8773 67.2401 93.2747 65.537 97.8364 65.537C102.398 65.537 106.796 67.2401 110.167 70.3126C111.81 71.7543 113.11 73.545 113.972 75.5537C114.833 77.5623 115.235 79.7382 115.148 81.9222V81.9222ZM155.747 81.9222C155.764 84.0826 155.323 86.2221 154.452 88.1996C153.582 90.1771 152.302 91.9476 150.698 93.3943C147.358 96.5339 142.951 98.2892 138.367 98.3061C136.088 98.3464 133.825 97.9329 131.708 97.0896C129.591 96.2463 127.663 94.9902 126.036 93.3943C124.435 91.935 123.146 90.1658 122.249 88.1938C121.351 86.2218 120.864 84.0882 120.815 81.9222C120.789 79.7238 121.242 77.546 122.144 75.5409C123.045 73.5358 124.374 71.7515 126.036 70.3126C129.369 67.1777 133.792 65.465 138.367 65.5383C142.946 65.4429 147.377 67.1587 150.698 70.3126C152.313 71.7803 153.598 73.5741 154.468 75.5754C155.339 77.5767 155.775 79.74 155.747 81.9222ZM174.02 96.417V42.4565C174.342 38.9223 173.419 35.3867 171.409 32.4613C170.226 31.34 168.807 30.4987 167.255 29.9993C165.704 29.4999 164.06 29.3553 162.445 29.5761H72.3847C70.754 29.3607 69.0962 29.4944 67.5211 29.9681C65.946 30.4418 64.4895 31.2448 63.2482 32.3239C61.3335 35.4018 60.466 39.0166 60.7751 42.6283V97.0009C63.0935 98.2742 65.5185 99.3431 68.0225 100.195C70.5299 101.054 72.7282 101.844 74.5486 102.531C76.6661 103.244 78.854 103.728 81.0747 103.973C83.5821 104.248 85.5399 104.557 86.8795 104.832C88.7498 105.159 90.6522 105.262 92.5469 105.141C94.0864 104.947 95.6443 104.947 97.1838 105.141C98.7794 105.319 100.393 105.226 101.958 104.867C104.363 104.489 105.565 104.454 105.565 104.867C108.312 104.576 111.066 105.35 113.259 107.03C113.454 107.322 113.698 107.577 113.98 107.786C115.457 109.126 117.071 110.534 118.926 111.977C119.292 107.03 122.487 104.66 128.509 104.867H131.532H134.966H138.573C140.023 105.019 141.485 105.019 142.935 104.867C144.409 104.73 145.892 104.73 147.366 104.867C149.031 104.891 150.69 104.647 152.278 104.145C153.931 103.623 155.635 103.278 157.361 103.115C159.241 102.915 161.063 102.343 162.719 101.432C164.484 100.523 166.337 99.7979 168.249 99.2678C170.337 98.659 172.293 97.6691 174.02 96.3483V96.417ZM187.244 96.1422C179.005 105.291 168.634 112.264 157.052 116.442C161.62 131.795 160.968 144.367 155.197 154.224C153.65 157.094 151.542 159.625 148.999 161.666C146.456 163.707 143.53 165.218 140.393 166.109C138.015 167.013 135.465 167.377 132.929 167.175C130.392 166.973 127.932 166.21 125.727 164.941C123.452 163.596 121.614 161.623 120.432 159.259C119.25 156.895 118.775 154.241 119.063 151.614V125.2L117.037 124.72L115.148 124.273V151.545C115.436 154.172 114.961 156.827 113.779 159.19C112.598 161.554 110.759 163.527 108.484 164.872C106.25 166.13 103.768 166.887 101.211 167.088C98.6545 167.29 96.0847 166.932 93.6804 166.04C87.3496 164.149 82.0263 159.826 78.8764 154.018C73.2892 144.218 72.7167 131.692 77.1591 116.442C65.5774 112.264 55.2065 105.291 46.9673 96.1422C46.3249 95.4379 45.9464 94.5328 45.8962 93.5809C45.8461 92.629 46.1275 91.6891 46.6925 90.9213C47.8604 89.4787 49.4404 89.513 51.4669 90.9213C51.8213 91.096 52.1653 91.291 52.4973 91.5052C52.8044 91.6673 53.0924 91.8632 53.356 92.0891V36.1709C53.2948 32.4689 54.6457 28.8827 57.1343 26.1413C58.2705 24.8055 59.6963 23.7462 61.3032 23.0439C62.9102 22.3417 64.656 22.0148 66.4082 22.0882H168.078C169.821 22.0758 171.548 22.4302 173.146 23.1285C174.743 23.8267 176.176 24.8532 177.352 26.1413C178.615 27.4733 179.59 29.0513 180.217 30.7769C180.843 32.5025 181.107 34.3387 180.992 36.1709V92.2265L182.744 91.0587C184.771 89.6161 186.179 89.5474 187.519 91.0587C188.858 92.57 188.583 94.15 187.244 96.2796V96.1422Z" fill="#5AC235"/>
<g filter="url(#filter0_d_3597_141057)">
<ellipse cx="169.707" cy="113.765" rx="44.2029" ry="44.2029" fill="white" fill-opacity="0.85"/>
<path d="M241.707 177.101L215.011 150.405C214.308 149.703 213.482 149.21 212.605 148.92C220.41 139.391 225.098 127.21 225.098 113.934C225.098 95.9054 216.453 79.891 203.091 69.8112C198.323 66.217 192.946 63.3837 187.149 61.4707C181.707 59.6808 175.903 58.6953 169.866 58.6953C165.678 58.6953 161.598 59.1808 157.678 60.0649C152.634 61.2026 147.852 63.0142 143.432 65.4272C135.272 69.8837 128.374 76.3402 123.366 84.1373C121.403 87.1953 119.736 90.4489 118.403 93.8765C115.975 100.094 114.634 106.855 114.634 113.934C114.634 144.442 139.359 169.166 169.866 169.166C183.142 169.166 195.323 164.485 204.852 156.674C205.142 157.55 205.642 158.384 206.337 159.079L233.033 185.775C235.432 188.174 239.316 188.174 241.714 185.775C244.113 183.376 244.113 179.492 241.714 177.094L241.707 177.101ZM169.859 156.891C146.134 156.891 126.903 137.659 126.903 113.934C126.903 109.203 127.678 104.652 129.091 100.391C130.265 96.8475 131.888 93.5141 133.895 90.4489C136.482 86.4924 139.707 82.9924 143.424 80.0866C147.62 76.804 152.432 74.2895 157.671 72.746C161.533 71.6011 165.627 70.9779 169.859 70.9779C193.584 70.9779 212.816 90.2098 212.816 113.934C212.816 137.659 193.584 156.891 169.859 156.891Z" fill="#B9E3F8"/>
</g>
</g>
<defs>
<filter id="filter0_d_3597_141057" x="108.634" y="54.6953" width="140.879" height="140.875" filterUnits="userSpaceOnUse" color-interpolation-filters="sRGB">
<feFlood flood-opacity="0" result="BackgroundImageFix"/>
<feColorMatrix in="SourceAlpha" type="matrix" values="0 0 0 0 0 0 0 0 0 0 0 0 0 0 0 0 0 0 127 0" result="hardAlpha"/>
<feOffset dy="2"/>
<feGaussianBlur stdDeviation="3"/>
<feComposite in2="hardAlpha" operator="out"/>
<feColorMatrix type="matrix" values="0 0 0 0 0 0 0 0 0 0 0 0 0 0 0 0 0 0 0.15 0"/>
<feBlend mode="normal" in2="BackgroundImageFix" result="effect1_dropShadow_3597_141057"/>
<feBlend mode="normal" in="SourceGraphic" in2="effect1_dropShadow_3597_141057" result="shape"/>
</filter>
<clipPath id="clip0_3597_141057">
<rect width="250" height="194.203" fill="white"/>
</clipPath>
</defs>
</svg>
