<svg width="250" height="195" viewBox="0 0 250 195" fill="none" xmlns="http://www.w3.org/2000/svg">
<g clip-path="url(#clip0_3597_141064)">
<rect width="250" height="194.203" fill="white"/>
<path d="M162.96 77.3913C162.89 85.8103 159.876 93.9395 154.442 100.37C148.32 107.777 140.429 113.518 131.497 117.063C121.472 121.206 110.71 123.274 99.8631 123.143C94.5868 123.132 89.322 122.649 84.1318 121.7C76.568 126.97 68.1401 130.876 59.2296 133.241C56.997 133.79 54.4209 134.271 51.5357 134.683H51.1922C50.4803 134.645 49.8024 134.366 49.2687 133.893C48.9821 133.661 48.7503 133.368 48.59 133.035C48.4297 132.703 48.3448 132.339 48.3413 131.97C48.2834 131.815 48.2834 131.644 48.3413 131.489C48.2927 131.274 48.2927 131.051 48.3413 130.837C48.3703 130.678 48.3703 130.515 48.3413 130.356V129.875L48.6505 129.394L49.2687 128.913L49.7496 128.432L50.0931 128.123L52.1539 125.856L54.5926 123.28C55.333 122.45 55.9782 121.54 56.5161 120.567C57.173 119.367 57.9193 118.219 58.7487 117.132C59.6141 115.933 60.2116 114.563 60.5005 113.113C53.6501 109.249 47.7754 103.868 43.3265 97.3817C38.8185 90.9748 36.5738 83.2485 36.947 75.4235C37.3202 67.5985 40.2901 60.1209 45.3874 54.1721C51.5111 46.829 59.3586 41.1174 68.2287 37.5478C78.2549 33.4028 89.0144 31.3233 99.8631 31.4339C110.711 31.3299 121.469 33.4091 131.497 37.5478C140.421 41.1055 148.31 46.845 154.442 54.2408C159.904 60.7225 162.918 68.9152 162.96 77.3913V77.3913ZM197.308 100.198C197.292 107.441 195.05 114.504 190.885 120.429C186.451 126.928 180.573 132.312 173.711 136.16C174.177 137.532 174.752 138.864 175.428 140.145C176.064 141.357 176.812 142.506 177.661 143.58C178.52 144.679 179.241 145.537 179.756 146.156C180.271 146.774 181.061 147.701 182.023 148.903C182.639 149.711 183.329 150.458 184.084 151.136L184.427 151.445L184.908 151.926C185.034 152.083 185.138 152.257 185.217 152.441C185.304 152.611 185.408 152.772 185.527 152.922L185.698 153.403V153.884C185.727 154.089 185.727 154.297 185.698 154.502C185.733 154.661 185.733 154.825 185.698 154.983C185.533 155.777 185.139 156.505 184.565 157.078C184.324 157.339 184.022 157.535 183.686 157.649C183.35 157.763 182.991 157.791 182.641 157.731C179.653 157.284 177.077 156.803 174.947 156.288C165.975 153.932 157.487 150.014 149.873 144.713C144.704 145.633 139.462 146.093 134.211 146.087C119.268 146.436 104.564 142.296 91.9974 134.203C95.4322 134.546 98.0426 134.683 99.8631 134.683C109.171 134.709 118.431 133.354 127.341 130.665C135.934 128.161 144.057 124.262 151.385 119.124C158.355 113.999 164.2 107.5 168.559 100.026C172.487 93.138 174.492 85.3202 174.363 77.3913C174.375 72.7311 173.669 68.097 172.268 63.6521C179.528 67.4524 185.797 72.8986 190.576 79.5552C194.987 85.5256 197.392 92.7408 197.445 100.164L197.308 100.198Z" fill="#46AFE6"/>
<g filter="url(#filter0_d_3597_141064)">
<ellipse cx="169.707" cy="113.765" rx="44.2029" ry="44.2029" fill="white" fill-opacity="0.85"/>
<path d="M241.707 177.101L215.011 150.405C214.308 149.703 213.482 149.21 212.605 148.92C220.41 139.391 225.098 127.21 225.098 113.934C225.098 95.9054 216.453 79.891 203.091 69.8112C198.323 66.217 192.946 63.3837 187.149 61.4707C181.707 59.6808 175.903 58.6953 169.866 58.6953C165.678 58.6953 161.598 59.1808 157.678 60.0649C152.634 61.2026 147.852 63.0142 143.432 65.4272C135.272 69.8837 128.374 76.3402 123.366 84.1373C121.403 87.1953 119.736 90.4489 118.403 93.8765C115.975 100.094 114.634 106.855 114.634 113.934C114.634 144.442 139.359 169.166 169.866 169.166C183.142 169.166 195.323 164.485 204.852 156.674C205.142 157.55 205.642 158.384 206.337 159.079L233.033 185.775C235.432 188.174 239.316 188.174 241.714 185.775C244.113 183.376 244.113 179.492 241.714 177.094L241.707 177.101ZM169.859 156.891C146.134 156.891 126.903 137.659 126.903 113.934C126.903 109.203 127.678 104.652 129.091 100.391C130.265 96.8475 131.888 93.5141 133.895 90.4489C136.482 86.4924 139.707 82.9924 143.424 80.0866C147.62 76.804 152.432 74.2895 157.671 72.746C161.533 71.6011 165.627 70.9779 169.859 70.9779C193.584 70.9779 212.816 90.2098 212.816 113.934C212.816 137.659 193.584 156.891 169.859 156.891Z" fill="#B9E3F8"/>
</g>
</g>
<defs>
<filter id="filter0_d_3597_141064" x="108.634" y="54.6953" width="140.879" height="140.875" filterUnits="userSpaceOnUse" color-interpolation-filters="sRGB">
<feFlood flood-opacity="0" result="BackgroundImageFix"/>
<feColorMatrix in="SourceAlpha" type="matrix" values="0 0 0 0 0 0 0 0 0 0 0 0 0 0 0 0 0 0 127 0" result="hardAlpha"/>
<feOffset dy="2"/>
<feGaussianBlur stdDeviation="3"/>
<feComposite in2="hardAlpha" operator="out"/>
<feColorMatrix type="matrix" values="0 0 0 0 0 0 0 0 0 0 0 0 0 0 0 0 0 0 0.15 0"/>
<feBlend mode="normal" in2="BackgroundImageFix" result="effect1_dropShadow_3597_141064"/>
<feBlend mode="normal" in="SourceGraphic" in2="effect1_dropShadow_3597_141064" result="shape"/>
</filter>
<clipPath id="clip0_3597_141064">
<rect width="250" height="194.203" fill="white"/>
</clipPath>
</defs>
</svg>
