<svg width="250" height="250" viewBox="0 0 250 250" fill="none" xmlns="http://www.w3.org/2000/svg">
<path d="M112.623 54.9003L136.543 81.875" stroke="#414355" stroke-width="3"/>
<path d="M97.0494 59.0732L89.8215 94.394" stroke="#414355" stroke-width="3"/>
<path d="M115.997 202.287L115.127 201.957C116.067 199.467 115.127 196.247 114.377 193.417C114.047 192.237 113.737 191.127 113.557 190.087L113.377 189.087C112.97 187.165 112.736 185.21 112.677 183.247C112.677 178.967 113.857 175.017 114.977 171.247C116.467 166.247 117.867 161.447 116.847 155.977C116.447 153.847 115.897 151.757 115.367 149.737C114.187 145.894 113.515 141.914 113.367 137.897C113.382 135.343 113.777 132.805 114.537 130.367C114.836 129.47 115.217 128.603 115.677 127.777C116.095 127.064 116.431 126.306 116.677 125.517L117.587 125.727C117.325 126.591 116.966 127.423 116.517 128.207C116.087 128.98 115.726 129.79 115.437 130.627C114.7 132.98 114.319 135.431 114.307 137.897C114.465 141.837 115.137 145.74 116.307 149.507C116.837 151.507 117.397 153.637 117.797 155.807C118.867 161.497 117.367 166.587 115.917 171.507C114.807 175.267 113.667 179.147 113.657 183.307C113.707 185.21 113.935 187.105 114.337 188.967L114.517 189.967C114.687 190.967 114.997 192.047 115.317 193.197C116.137 196.137 117.077 199.507 115.997 202.287Z" fill="#2A9CC8"/>
<path d="M114.597 175.187C113.247 177.097 105.907 181.727 105.217 177.187C104.427 172.017 112.097 174.247 114.597 175.187Z" fill="#2A9CC8"/>
<path d="M116.187 201.307C116.187 202.587 114.697 207.197 113.127 205.587C111.327 203.757 114.957 201.847 116.187 201.307Z" fill="#2A9CC8"/>
<path d="M117.487 160.777C115.767 160.715 114.045 160.788 112.337 160.997C110.827 161.217 108.337 163.057 109.167 164.997C110.687 168.507 116.527 160.737 117.817 160.827" fill="#2A9CC8"/>
<path d="M112.997 185.017C111.634 185.319 110.297 185.727 108.997 186.237C107.857 186.707 106.287 188.667 107.307 189.977C109.207 192.437 112.247 185.147 113.307 184.977" fill="#2A9CC8"/>
<path d="M115.617 196.867C114.254 197.164 112.916 197.569 111.617 198.077C110.467 198.557 108.897 200.507 109.917 201.827C111.817 204.287 114.857 196.987 115.917 196.827" fill="#2A9CC8"/>
<path d="M116.057 199.607C117.246 199.816 118.417 200.12 119.557 200.517C120.557 200.897 121.967 202.587 121.117 203.817C119.537 206.107 116.727 199.687 115.827 199.557" fill="#2A9CC8"/>
<path d="M114.607 191.697C116.327 191.64 118.048 191.714 119.757 191.917C121.257 192.137 123.757 193.987 122.917 195.867C121.407 199.377 115.557 191.617 114.277 191.697" fill="#2A9CC8"/>
<path d="M116.567 167.817C117.853 168.169 119.11 168.62 120.327 169.167C121.387 169.677 122.787 171.607 121.757 172.817C119.827 175.057 117.297 167.977 116.327 167.747" fill="#2A9CC8"/>
<path d="M115.057 145.807C116.586 145.748 118.118 145.815 119.637 146.007C120.967 146.217 123.167 147.937 122.447 149.707C121.097 152.987 115.907 145.707 114.767 145.807" fill="#2A9CC8"/>
<path d="M164.907 153.547C165.517 155.807 170.787 162.707 173.007 158.707C175.547 154.127 167.577 153.547 164.907 153.547Z" fill="#2A9CC8"/>
<path d="M170.307 117.397C169.177 119.307 162.927 124.297 162.307 120.067C161.557 115.237 168.187 116.727 170.307 117.397Z" fill="#2A9CC8"/>
<path d="M167.257 145.777C165.827 147.487 158.847 151.367 158.887 147.097C158.937 142.207 165.237 144.757 167.257 145.777Z" fill="#2A9CC8"/>
<path d="M163.407 169.117C161.687 169.06 159.965 169.134 158.257 169.337C156.747 169.557 154.257 171.407 155.097 173.337C156.607 176.847 162.447 169.087 163.737 169.167" fill="#2A9CC8"/>
<path d="M166.697 190.177C164.977 190.12 163.256 190.194 161.547 190.397C160.037 190.617 157.547 192.457 158.387 194.397C159.897 197.907 165.737 190.147 167.027 190.227" fill="#2A9CC8"/>
<path d="M165.997 200.707C164.277 200.645 162.555 200.719 160.847 200.927C159.347 201.147 156.847 202.987 157.687 204.927C159.197 208.437 165.047 200.667 166.327 200.757" fill="#2A9CC8"/>
<path d="M165.372 180.07C163.666 180.296 161.976 180.631 160.317 181.073C158.865 181.492 156.639 183.381 157.723 184.815C159.675 187.413 164.429 180.19 165.704 180.057" fill="#2A9CC8"/>
<path d="M170.647 134.907C168.927 134.845 167.205 134.918 165.497 135.127C163.987 135.347 161.497 137.187 162.327 139.127C163.847 142.637 169.687 134.867 170.977 134.957" fill="#2A9CC8"/>
<path d="M163.407 161.227C161.687 161.165 159.965 161.239 158.257 161.447C156.747 161.667 154.257 163.507 155.097 165.397C156.607 168.907 162.447 161.137 163.737 161.227" fill="#2A9CC8"/>
<path d="M168.627 110.187C169.961 110.102 171.3 110.142 172.627 110.307C173.807 110.477 175.757 112.127 175.157 113.857C174.047 117.087 169.367 110.097 168.377 110.187" fill="#2A9CC8"/>
<path d="M165.768 204.257C165.868 205.592 165.843 206.935 165.692 208.266C165.529 209.435 163.916 211.406 162.171 210.833C158.917 209.741 165.871 204.999 165.752 204" fill="#2A9CC8"/>
<path d="M167.107 196.757C168.827 196.695 170.549 196.768 172.257 196.977C173.767 197.197 176.257 199.037 175.427 200.927C173.907 204.437 168.067 196.677 166.777 196.757" fill="#2A9CC8"/>
<path d="M171.707 129.607C173.43 129.55 175.155 129.623 176.867 129.827C178.367 130.047 180.867 131.897 180.027 133.827C178.517 137.337 172.667 129.577 171.377 129.657" fill="#2A9CC8"/>
<path d="M165.707 181.257C167.577 181.927 170.347 181.257 172.477 181.847C174.607 182.437 177.857 185.487 175.677 187.847C171.267 192.547 167.987 182.957 165.677 181.647" fill="#2A9CC8"/>
<path d="M163.737 166.117C165.597 166.787 168.377 166.177 170.497 166.717C172.617 167.257 175.887 170.357 173.707 172.717C169.297 177.417 166.017 167.827 163.707 166.517" fill="#2A9CC8"/>
<path d="M168.997 141.117C170.867 141.787 173.637 141.167 175.767 141.707C177.897 142.247 181.147 145.357 178.967 147.707C174.557 152.407 171.277 142.817 168.967 141.507" fill="#2A9CC8"/>
<path d="M165.237 206.027L164.367 205.697C166.187 200.827 166.877 193.157 166.047 187.047C165.427 182.477 164.617 178.217 163.897 174.647C161.487 162.567 164.527 151.967 167.827 143.187C169.661 138.635 170.634 133.783 170.697 128.877C170.697 122.027 169.087 115.147 167.527 108.507L167.467 108.237C167.307 107.537 167.127 106.857 166.957 106.177C166.077 102.747 165.237 99.4967 166.247 95.8767C167.257 92.2567 169.067 91.8767 170.037 92.0267C172.037 92.3267 173.957 95.1367 173.907 97.8167H172.967C172.967 95.6067 171.497 93.2067 169.907 92.9667C168.747 92.7967 167.757 93.9667 167.147 96.1467C166.207 99.5267 167.007 102.657 167.857 105.967C168.037 106.647 168.207 107.337 168.377 108.047L168.437 108.317C170.007 115.007 171.637 121.937 171.627 128.897C171.57 133.916 170.576 138.881 168.697 143.537C164.087 155.807 162.927 165.057 164.817 174.537C165.527 178.117 166.347 182.397 166.967 186.997C167.687 192.207 167.427 200.157 165.237 206.027Z" fill="#2A9CC8"/>
<rect x="45" y="103.622" width="139.735" height="102.114" rx="12" transform="rotate(-15 45 103.622)" fill="#FAC18A"/>
<path d="M186.04 97.2788C185.77 99.5988 181.56 107.189 178.78 103.549C175.6 99.3988 183.4 97.6588 186.04 97.2788Z" fill="#2A9CC8"/>
<path d="M188.49 142.119C188.81 143.789 191.66 148.909 192.86 145.939C194.23 142.549 189.93 142.119 188.49 142.119Z" fill="#2A9CC8"/>
<path d="M189.15 112.339C189.75 114.599 195.02 121.499 197.24 117.499C199.78 112.919 191.81 112.339 189.15 112.339Z" fill="#2A9CC8"/>
<path d="M184.99 84.2788C183.29 84.6137 181.619 85.0784 179.99 85.6688C178.57 86.2288 176.59 88.5888 177.81 90.2388C180.08 93.3088 184 84.4188 185.28 84.2388" fill="#2A9CC8"/>
<path d="M189.13 140.589C188.003 140.407 186.861 140.33 185.72 140.359C184.72 140.409 182.9 141.689 183.25 143.259C183.9 146.189 188.51 140.449 189.35 140.619" fill="#2A9CC8"/>
<path d="M190.99 131.219C189.267 131.152 187.541 131.226 185.83 131.439C184.33 131.659 181.83 133.499 182.67 135.379C184.18 138.889 190.03 131.129 191.31 131.219" fill="#2A9CC8"/>
<path d="M190.99 136.689C192.327 136.631 193.666 136.698 194.99 136.889C196.15 137.089 198.07 138.779 197.44 140.499C196.27 143.699 191.73 136.609 190.73 136.689" fill="#2A9CC8"/>
<path d="M184.84 90.1488C186.526 90.5091 188.181 91.0006 189.79 91.6189C191.19 92.1989 193.14 94.6188 191.9 96.2188C189.57 99.2188 185.79 90.3088 184.52 90.0688" fill="#2A9CC8"/>
<path d="M192.08 101.999C193.763 102.354 195.414 102.842 197.02 103.459C198.43 104.039 200.38 106.459 199.13 108.059C196.81 111.059 193.03 102.149 191.76 101.919" fill="#2A9CC8"/>
<path d="M189.99 125.279C191.713 125.222 193.438 125.296 195.15 125.499C196.65 125.719 199.15 127.569 198.31 129.449C196.8 132.959 190.95 125.199 189.66 125.279" fill="#2A9CC8"/>
<path d="M191.09 107.219C189.16 107.649 186.48 106.709 184.3 106.989C182.12 107.269 178.52 109.989 180.4 112.529C184.21 117.729 188.63 108.599 191.11 107.529" fill="#2A9CC8"/>
<path d="M187.56 118.869C185.95 120.029 183.12 120.219 181.23 121.339C179.34 122.459 177.08 126.339 179.83 127.969C185.38 131.239 185.83 121.109 187.72 119.199" fill="#2A9CC8"/>
<path d="M189.28 142.329L188.35 142.229C188.575 140.757 189.03 139.329 189.7 137.999C190.356 136.696 190.792 135.294 190.99 133.849C191.1 131.162 190.637 128.482 189.63 125.989C189.35 125.179 189 124.379 188.63 123.599C187.647 121.698 187.087 119.607 186.99 117.469C186.99 115.589 187.99 113.299 188.99 110.869C190.64 106.959 192.34 102.869 190.41 100.219C189.77 99.4841 188.905 98.9813 187.95 98.7888C186.701 98.5301 185.593 97.8175 184.84 96.7888C184.149 95.4074 183.891 93.8494 184.1 92.3188C184.1 91.9388 184.1 91.5688 184.1 91.1988C184.1 90.0088 184.1 88.8088 184.17 87.6488C184.452 84.162 184.256 80.653 183.59 77.2188C182.98 74.7788 181.02 69.0188 176.02 68.2188C174.02 67.8988 171.91 67.6688 170.8 68.5288C170.531 68.7595 170.313 69.0444 170.161 69.3649C170.01 69.6854 169.928 70.0343 169.92 70.3888L169 70.2988C169.017 69.8174 169.135 69.345 169.347 68.9124C169.559 68.4799 169.86 68.097 170.23 67.7888C171.64 66.6988 173.93 66.9488 176.17 67.2988C181.71 68.1588 183.84 74.3588 184.49 76.9788C185.212 80.4899 185.444 84.0841 185.18 87.6588C185.18 88.8188 185.11 90.0088 185.12 91.1888C185.12 91.5688 185.12 91.9488 185.12 92.3388C184.924 93.6826 185.133 95.0544 185.72 96.2788C186.359 97.1239 187.289 97.7013 188.33 97.8988C189.478 98.1483 190.51 98.7749 191.26 99.6788C193.49 102.799 191.61 107.279 189.94 111.229C188.94 113.579 188.02 115.789 187.99 117.479C188.091 119.485 188.623 121.446 189.55 123.229C189.9 124.019 190.25 124.839 190.55 125.679C191.603 128.297 192.084 131.11 191.96 133.929C191.757 135.475 191.294 136.977 190.59 138.369C189.949 139.612 189.506 140.948 189.28 142.329Z" fill="#2A9CC8"/>
<circle cx="102.75" cy="49.1996" r="13.436" transform="rotate(-15 102.75 49.1996)" fill="#FAC18A"/>
<circle cx="125.701" cy="134.856" r="26.5593" transform="rotate(-15 125.701 134.856)" stroke="white" stroke-width="6"/>
<path d="M100.872 120.521L151.146 149.547" stroke="white" stroke-width="6"/>
<path d="M51.1667 135.926C51.7767 138.176 57.0467 145.076 59.2667 141.076C61.8067 136.496 53.8367 135.926 51.1667 135.926Z" fill="#2A9CC8"/>
<path d="M49.6767 165.366C48.7767 167.216 43.2468 172.306 42.1368 168.476C40.8668 164.086 47.4867 164.916 49.6767 165.366Z" fill="#2A9CC8"/>
<path d="M50.8567 173.376C50.0967 174.896 45.3167 179.066 44.3067 175.876C43.1667 172.226 48.9467 172.976 50.8567 173.376Z" fill="#2A9CC8"/>
<path d="M48.9967 181.876C48.6667 183.446 45.3068 188.376 43.6368 185.706C41.7268 182.706 47.1667 181.976 48.9967 181.876Z" fill="#2A9CC8"/>
<path d="M51.8969 130.656C50.3474 130.603 48.7961 130.67 47.2569 130.856C45.8969 131.056 43.6769 132.746 44.4069 134.466C45.7669 137.676 51.0369 130.576 52.1969 130.656" fill="#2A9CC8"/>
<path d="M47.2868 143.816C45.7373 143.763 44.186 143.83 42.6468 144.016C41.2968 144.216 39.0668 145.906 39.7968 147.626C41.1668 150.836 46.4268 143.736 47.5868 143.816" fill="#2A9CC8"/>
<path d="M46.6368 155.656C45.0837 155.601 43.5286 155.671 41.9868 155.866C40.6368 156.066 38.4068 157.746 39.1468 159.466C40.5068 162.676 45.7668 155.586 46.9268 155.656" fill="#2A9CC8"/>
<path d="M52.4768 120.086C51.3471 119.897 50.2018 119.816 49.0568 119.846C48.0568 119.906 46.2368 121.176 46.5868 122.756C47.2468 125.686 51.8468 119.946 52.6868 120.116" fill="#2A9CC8"/>
<path d="M52.2969 112.546C53.4767 112.815 54.6336 113.176 55.7569 113.626C56.7569 114.056 58.0569 115.806 57.1569 116.996C55.4769 119.206 52.9669 112.656 52.0769 112.486" fill="#2A9CC8"/>
<path d="M50.847 176.646C51.954 177.13 53.0207 177.702 54.037 178.356C54.917 178.966 55.8869 180.936 54.7769 181.926C52.6969 183.786 51.477 176.876 50.637 176.546" fill="#2A9CC8"/>
<path d="M46.0869 148.816C47.6269 149.376 49.9369 148.816 51.6969 149.246C53.4569 149.676 56.1169 152.346 54.2869 154.386C50.5669 158.516 47.9569 150.236 46.0269 149.136" fill="#2A9CC8"/>
<path d="M48.6268 182.956L47.7968 182.536C49.4868 179.186 50.5068 176.846 50.3768 172.606C50.2268 168.086 49.0968 164.546 47.4968 160.046C45.2668 153.736 45.0168 148.996 46.6668 144.206C47.2668 142.456 48.0468 140.736 48.7968 139.076C49.7952 137.014 50.6408 134.882 51.3268 132.696C52.9168 127.116 52.4468 122.106 51.9568 116.806C51.5468 112.426 51.1268 107.886 51.9568 103.046C53.3268 95.4262 58.0568 94.2062 60.0268 94.0462C62.1668 93.8662 66.0268 94.1662 67.7968 95.7762C68.1088 96.0476 68.3594 96.3824 68.5319 96.7584C68.7043 97.1343 68.7946 97.5426 68.7968 97.9562H67.8668C67.8617 97.6666 67.7938 97.3817 67.6678 97.1209C67.5417 96.8602 67.3606 96.63 67.1368 96.4462C65.5668 95.0462 61.9668 94.7962 60.0668 94.9562C58.3168 95.1162 54.0668 96.2262 52.8368 103.216C51.9868 107.926 52.4068 112.396 52.8368 116.726C53.3168 121.876 53.8368 127.206 52.1768 132.946C51.4768 135.179 50.6145 137.359 49.5968 139.466C48.8568 141.106 48.0868 142.796 47.4968 144.466C45.9268 149.046 46.1768 153.596 48.3268 159.696C49.9468 164.276 51.1068 167.876 51.2568 172.536C51.4468 177.036 50.3868 179.476 48.6268 182.956Z" fill="#2A9CC8"/>
</svg>
