<svg width="250" height="195" viewBox="0 0 250 195" fill="none" xmlns="http://www.w3.org/2000/svg">
<g clip-path="url(#clip0_3597_148677)">
<path d="M84.4167 110.853C78.3713 110.853 73.1103 111.52 68.8274 112.345C66.4949 112.794 64.2397 111.268 63.7903 108.935C63.341 106.603 64.8675 104.347 67.2001 103.898C71.9244 102.988 77.7364 102.25 84.4167 102.25C91.214 102.25 97.145 102.986 101.95 103.895C104.284 104.337 105.818 106.587 105.376 108.921C104.935 111.255 102.685 112.789 100.351 112.348C95.9831 111.521 90.5931 110.853 84.4167 110.853Z" fill="#E13A3A"/>
<path d="M68.8274 78.0098C73.1103 77.1846 78.3714 76.5174 84.4167 76.5174C90.5931 76.5174 95.9831 77.1862 100.351 78.0125C102.685 78.454 104.935 76.9199 105.376 74.5859C105.818 72.2519 104.284 70.0018 101.95 69.5602C97.145 68.6512 91.2141 67.9152 84.4167 67.9152C77.7364 67.9152 71.9244 68.6527 67.2001 69.5629C64.8675 70.0123 63.341 72.2675 63.7903 74.6C64.2397 76.9326 66.4949 78.4592 68.8274 78.0098Z" fill="#E13A3A"/>
<path fill-rule="evenodd" clip-rule="evenodd" d="M150.458 30.8538C165.237 30.7684 177.494 33.1176 186.162 35.4234C188.101 35.9391 189.45 37.694 189.45 39.6997V50.2965H191.842C194.159 50.2965 196.037 52.1746 196.037 54.4913V155.636C196.037 156.932 195.438 158.155 194.415 158.95C193.391 159.744 192.058 160.021 190.803 159.7C182.024 157.456 169.09 155.084 153.336 155.245L153.328 155.245C138.817 155.365 126.803 157.577 118.419 159.702C117.846 159.848 117.249 159.87 116.667 159.769C107.151 158.108 95.318 156.73 81.6978 156.608C66.415 156.487 53.2816 157.987 42.9451 159.77C41.7258 159.98 40.4758 159.642 39.5295 158.845C38.5831 158.048 38.0369 156.874 38.0369 155.636V54.4913C38.0369 52.1746 39.915 50.2965 42.2318 50.2965H45.12V39.6997C45.12 37.6596 46.5149 35.8838 48.497 35.4006C57.0607 33.313 68.4745 31.354 81.9741 31.2258C96.2128 31.0626 108.249 33.0206 117.215 35.1372C125.59 32.9737 136.932 30.9355 150.458 30.8538ZM112.839 43.2188C104.702 41.4459 94.2414 39.9354 82.0713 40.0753L82.0623 40.0754C71.0696 40.1794 61.549 41.5748 53.97 43.2207V142.353C61.8788 140.859 71.2994 139.697 81.9635 139.56C94.3935 139.386 104.346 140.676 112.839 142.334V43.2188ZM121.689 142.056C129.495 140.244 139.781 138.711 150.732 138.61C162.607 138.508 172.769 140.125 180.6 142.019V43.148C177.248 42.3511 173.444 41.5904 169.241 40.9873V81.1825C169.241 83.5376 166.804 85.0664 164.696 84.0334L155.4 79.5298C154.491 79.0754 153.458 79.0754 152.549 79.5712L144.74 83.7442C142.633 84.8598 140.071 83.331 140.071 80.9346V40.1868C133.018 40.799 126.832 41.9207 121.689 43.1449V142.056Z" fill="#E13A3A"/>
<g filter="url(#filter0_d_3597_148677)">
<ellipse cx="169.707" cy="113.765" rx="44.2029" ry="44.2029" fill="white" fill-opacity="0.85"/>
<path d="M241.707 177.101L215.011 150.405C214.308 149.703 213.482 149.21 212.605 148.92C220.41 139.391 225.098 127.21 225.098 113.934C225.098 95.9054 216.453 79.891 203.091 69.8112C198.323 66.217 192.946 63.3837 187.149 61.4707C181.707 59.6808 175.903 58.6953 169.866 58.6953C165.678 58.6953 161.598 59.1808 157.678 60.0649C152.634 61.2026 147.852 63.0142 143.432 65.4272C135.272 69.8837 128.374 76.3402 123.366 84.1373C121.403 87.1953 119.736 90.4489 118.403 93.8765C115.975 100.094 114.634 106.855 114.634 113.934C114.634 144.442 139.359 169.166 169.866 169.166C183.142 169.166 195.323 164.485 204.852 156.674C205.142 157.55 205.642 158.384 206.337 159.079L233.033 185.775C235.432 188.174 239.316 188.174 241.714 185.775C244.113 183.376 244.113 179.492 241.714 177.094L241.707 177.101ZM169.859 156.891C146.134 156.891 126.903 137.659 126.903 113.934C126.903 109.203 127.678 104.652 129.091 100.391C130.265 96.8475 131.888 93.5141 133.895 90.4489C136.482 86.4924 139.707 82.9924 143.424 80.0866C147.62 76.804 152.432 74.2895 157.671 72.746C161.533 71.6011 165.627 70.9779 169.859 70.9779C193.584 70.9779 212.816 90.2098 212.816 113.934C212.816 137.659 193.584 156.891 169.859 156.891Z" fill="#B9E3F8"/>
</g>
</g>
<defs>
<filter id="filter0_d_3597_148677" x="108.634" y="54.6953" width="140.879" height="140.875" filterUnits="userSpaceOnUse" color-interpolation-filters="sRGB">
<feFlood flood-opacity="0" result="BackgroundImageFix"/>
<feColorMatrix in="SourceAlpha" type="matrix" values="0 0 0 0 0 0 0 0 0 0 0 0 0 0 0 0 0 0 127 0" result="hardAlpha"/>
<feOffset dy="2"/>
<feGaussianBlur stdDeviation="3"/>
<feComposite in2="hardAlpha" operator="out"/>
<feColorMatrix type="matrix" values="0 0 0 0 0 0 0 0 0 0 0 0 0 0 0 0 0 0 0.15 0"/>
<feBlend mode="normal" in2="BackgroundImageFix" result="effect1_dropShadow_3597_148677"/>
<feBlend mode="normal" in="SourceGraphic" in2="effect1_dropShadow_3597_148677" result="shape"/>
</filter>
<clipPath id="clip0_3597_148677">
<rect width="250" height="194.203" fill="white"/>
</clipPath>
</defs>
</svg>
