<svg width="250" height="195" viewBox="0 0 250 195" fill="none" xmlns="http://www.w3.org/2000/svg">
<g clip-path="url(#clip0_3597_141008)">
<rect width="250" height="194.203" fill="white"/>
<path d="M50.849 66.2978V65.4391C50.849 64.7012 51.1421 63.9936 51.6639 63.4718C52.1856 62.95 52.8933 62.6569 53.6312 62.6569H65.5155C66.2534 62.6569 66.961 62.95 67.4828 63.4718C68.0046 63.9936 68.2977 64.7012 68.2977 65.4391V66.2978C68.2977 66.6616 68.2255 67.0217 68.0853 67.3573C67.945 67.693 67.7396 67.9974 67.4808 68.253C67.222 68.5087 66.915 68.7103 66.5776 68.8464C66.2403 68.9824 65.8792 69.0502 65.5155 69.0456H53.6312C53.2674 69.0502 52.9064 68.9824 52.5691 68.8464C52.2317 68.7103 51.9247 68.5087 51.6659 68.253C51.4071 67.9974 51.2016 67.693 51.0614 67.3573C50.9212 67.0217 50.849 66.6616 50.849 66.2978V66.2978ZM53.6312 39.8843H65.5155C66.2534 39.8843 66.961 39.5912 67.4828 39.0694C68.0046 38.5477 68.2977 37.84 68.2977 37.1021V36.1747C68.2977 35.811 68.2255 35.4508 68.0853 35.1152C67.945 34.7796 67.7396 34.4751 67.4808 34.2195C67.222 33.9639 66.915 33.7622 66.5776 33.6261C66.2403 33.4901 65.8792 33.4224 65.5155 33.4269H53.6312C53.2674 33.4224 52.9064 33.4901 52.5691 33.6261C52.2317 33.7622 51.9247 33.9639 51.6659 34.2195C51.4071 34.4751 51.2016 34.7796 51.0614 35.1152C50.9212 35.4508 50.849 35.811 50.849 36.1747V37.0334C50.8398 37.4045 50.905 37.7737 51.0407 38.1192C51.1764 38.4648 51.3799 38.7796 51.6392 39.0453C51.8984 39.311 52.2083 39.5221 52.5504 39.6662C52.8925 39.8102 53.26 39.8844 53.6312 39.8843V39.8843ZM53.6312 97.7604H65.5155C65.8792 97.765 66.2403 97.6972 66.5776 97.5612C66.915 97.4251 67.222 97.2235 67.4808 96.9678C67.7396 96.7122 67.945 96.4078 68.0853 96.0721C68.2255 95.7365 68.2977 95.3763 68.2977 95.0126V94.1539C68.2977 93.416 68.0046 92.7083 67.4828 92.1866C66.961 91.6648 66.2534 91.3717 65.5155 91.3717H53.6312C52.8933 91.3717 52.1856 91.6648 51.6639 92.1866C51.1421 92.7083 50.849 93.416 50.849 94.1539V95.0126C50.849 95.3763 50.9212 95.7365 51.0614 96.0721C51.2016 96.4078 51.4071 96.7122 51.6659 96.9678C51.9247 97.2235 52.2317 97.4251 52.5691 97.5612C52.9064 97.6972 53.2674 97.765 53.6312 97.7604V97.7604ZM53.6312 126.647H65.5155C65.8792 126.651 66.2403 126.584 66.5776 126.448C66.915 126.312 67.222 126.11 67.4808 125.854C67.7396 125.599 67.945 125.294 68.0853 124.959C68.2255 124.623 68.2977 124.263 68.2977 123.899V123.04C68.2977 122.303 68.0046 121.595 67.4828 121.073C66.961 120.551 66.2534 120.258 65.5155 120.258H53.6312C52.8933 120.258 52.1856 120.551 51.6639 121.073C51.1421 121.595 50.849 122.303 50.849 123.04V123.899C50.849 124.263 50.9212 124.623 51.0614 124.959C51.2016 125.294 51.4071 125.599 51.6659 125.854C51.9247 126.11 52.2317 126.312 52.5691 126.448C52.9064 126.584 53.2674 126.651 53.6312 126.647ZM68.1946 152.957V152.099C68.1442 151.415 67.8428 150.773 67.3483 150.298C66.8538 149.822 66.2011 149.546 65.5155 149.523H53.6312C53.2658 149.523 52.904 149.595 52.5665 149.734C52.2289 149.874 51.9222 150.079 51.6639 150.337C51.4055 150.596 51.2006 150.903 51.0608 151.24C50.921 151.578 50.849 151.939 50.849 152.305V152.957C50.849 153.321 50.9212 153.681 51.0614 154.017C51.2016 154.353 51.4071 154.657 51.6659 154.913C51.9247 155.168 52.2317 155.37 52.5691 155.506C52.9064 155.642 53.2674 155.71 53.6312 155.705H65.5155C66.2323 155.687 66.9137 155.39 67.4143 154.876C67.9148 154.363 68.1949 153.674 68.1946 152.957V152.957ZM167.425 25.8704V163.262C167.426 164.322 167.007 165.339 166.261 166.091C165.514 166.844 164.501 167.271 163.441 167.28H65.2407C64.6943 167.308 64.1478 167.225 63.6344 167.036C63.1209 166.847 62.651 166.556 62.253 166.181C61.855 165.805 61.5372 165.353 61.3187 164.851C61.1002 164.35 60.9855 163.809 60.9816 163.262V157.56C62.3192 157.663 63.6627 157.663 65.0003 157.56C66.1143 157.679 67.2368 157.431 68.1975 156.855C69.1582 156.278 69.9048 155.405 70.3242 154.366C70.6364 153.604 70.7551 152.777 70.6696 151.959C70.5842 151.141 70.2973 150.356 69.8346 149.676C69.3719 148.995 68.7478 148.44 68.018 148.06C67.2883 147.679 66.4757 147.486 65.6529 147.496H60.9816V128.433H65.859C66.91 128.513 67.9583 128.247 68.8448 127.677C69.7312 127.106 70.4074 126.262 70.7707 125.273C71.0555 124.518 71.1428 123.703 71.0243 122.904C70.9058 122.106 70.5854 121.351 70.0935 120.711C69.6016 120.071 68.9544 119.568 68.2134 119.248C67.4724 118.928 66.662 118.803 65.859 118.884H60.9816V99.5465H63.5233C68.8129 99.5465 70.9425 98.0352 70.9425 94.6348C70.9425 91.2343 68.6412 89.9634 63.5233 89.9634H60.9816V71.0034H65.859C67.2104 70.9944 68.5033 70.4512 69.4557 69.4924C70.408 68.5336 70.9425 67.237 70.9425 65.8856V65.8856C70.9475 65.223 70.8184 64.5662 70.563 63.9548C70.3075 63.3434 69.931 62.79 69.4561 62.3279C68.9812 61.8658 68.4177 61.5046 67.7995 61.266C67.1813 61.0274 66.5212 60.9163 65.859 60.9395H60.9816V41.533C62.537 41.4299 64.0975 41.4299 65.6529 41.533C66.5903 41.5819 67.5229 41.3703 68.3474 40.9217C69.172 40.4731 69.8561 39.8049 70.3242 38.9913C70.7208 38.2534 70.9116 37.4225 70.8768 36.5855C70.8419 35.7486 70.5827 34.9364 70.1261 34.234C69.6696 33.5317 69.0326 32.965 68.2819 32.5934C67.5312 32.2218 66.6943 32.0588 65.859 32.1217H60.9816V26.0421C61.0159 24.9872 61.4504 23.9849 62.1967 23.2385C62.943 22.4922 63.9454 22.0578 65.0003 22.0234H163.407C164.462 22.0578 165.464 22.4922 166.21 23.2385C166.957 23.9849 167.391 24.9872 167.425 26.0421V25.8704ZM141.081 64.9239H92.9938V74.1291H141.081V64.9239ZM141.081 50.3261H92.9938V59.5313H141.081V50.3261ZM177.833 137.501H172.749C171.101 137.501 169.761 139.39 169.761 141.657V157.423C169.761 159.69 171.101 161.544 172.749 161.544H177.833C180.787 161.544 183.225 158.11 183.225 154.056V144.989C183.225 140.867 180.787 137.501 177.833 137.501ZM177.833 110.263H172.749C171.101 110.263 169.761 112.118 169.761 114.419V130.15C169.761 132.452 171.101 134.306 172.749 134.306H177.833C180.787 134.306 183.225 130.872 183.225 126.819V117.751C183.225 113.629 180.787 110.263 177.833 110.263ZM177.833 83.0252H172.749C171.101 83.0252 169.761 84.88 169.761 87.1469V102.913C169.761 105.18 171.101 107.034 172.749 107.034H177.833C180.787 107.034 183.225 103.6 183.225 99.5465V90.513C183.225 86.3569 180.787 83.0252 177.833 83.0252ZM177.833 55.753H172.749C171.101 55.753 169.761 57.6078 169.761 59.9091V75.6404C169.761 77.9417 171.101 79.7965 172.749 79.7965H177.833C180.787 79.7965 183.225 76.3617 183.225 72.3087V63.2408C183.225 59.1191 180.787 55.753 177.833 55.753V55.753ZM177.833 28.5152H172.749C171.101 28.5152 169.761 30.37 169.761 32.6713V48.4026C169.761 50.7039 171.101 52.5587 172.749 52.5587H177.833C180.787 52.5587 183.225 49.1239 183.225 45.0708V36.1747C183.225 32.053 180.787 28.6869 177.833 28.6869V28.5152Z" fill="#2A9CC8"/>
<g filter="url(#filter0_d_3597_141008)">
<ellipse cx="169.707" cy="113.765" rx="44.2029" ry="44.2029" fill="white" fill-opacity="0.85"/>
<path d="M241.707 177.101L215.011 150.405C214.308 149.703 213.482 149.21 212.605 148.92C220.41 139.391 225.098 127.21 225.098 113.934C225.098 95.9054 216.453 79.891 203.091 69.8112C198.323 66.217 192.946 63.3837 187.149 61.4707C181.707 59.6808 175.902 58.6953 169.866 58.6953C165.678 58.6953 161.598 59.1808 157.678 60.0649C152.634 61.2026 147.852 63.0142 143.431 65.4272C135.272 69.8837 128.373 76.3402 123.366 84.1373C121.402 87.1953 119.736 90.4489 118.402 93.8765C115.975 100.094 114.634 106.855 114.634 113.934C114.634 144.442 139.359 169.166 169.866 169.166C183.142 169.166 195.323 164.485 204.852 156.674C205.142 157.55 205.642 158.384 206.337 159.079L233.033 185.775C235.431 188.174 239.315 188.174 241.714 185.775C244.113 183.376 244.113 179.492 241.714 177.094L241.707 177.101ZM169.859 156.891C146.134 156.891 126.902 137.659 126.902 113.934C126.902 109.203 127.678 104.652 129.091 100.391C130.265 96.8475 131.888 93.5141 133.895 90.4489C136.482 86.4924 139.707 82.9924 143.424 80.0866C147.62 76.804 152.431 74.2895 157.671 72.746C161.533 71.6011 165.627 70.9779 169.859 70.9779C193.584 70.9779 212.815 90.2098 212.815 113.934C212.815 137.659 193.584 156.891 169.859 156.891Z" fill="#B9E3F8"/>
</g>
</g>
<defs>
<filter id="filter0_d_3597_141008" x="108.634" y="54.6953" width="140.878" height="140.875" filterUnits="userSpaceOnUse" color-interpolation-filters="sRGB">
<feFlood flood-opacity="0" result="BackgroundImageFix"/>
<feColorMatrix in="SourceAlpha" type="matrix" values="0 0 0 0 0 0 0 0 0 0 0 0 0 0 0 0 0 0 127 0" result="hardAlpha"/>
<feOffset dy="2"/>
<feGaussianBlur stdDeviation="3"/>
<feComposite in2="hardAlpha" operator="out"/>
<feColorMatrix type="matrix" values="0 0 0 0 0 0 0 0 0 0 0 0 0 0 0 0 0 0 0.15 0"/>
<feBlend mode="normal" in2="BackgroundImageFix" result="effect1_dropShadow_3597_141008"/>
<feBlend mode="normal" in="SourceGraphic" in2="effect1_dropShadow_3597_141008" result="shape"/>
</filter>
<clipPath id="clip0_3597_141008">
<rect width="250" height="194.203" fill="white"/>
</clipPath>
</defs>
</svg>
