<svg xmlns="http://www.w3.org/2000/svg" viewBox="0 0 350 350"><path d="M119.7,334.09c0,5.6-13.86,5.33-45.32,7.47-25.85,1.75-40.51-1.87-40.51-7.47S46.87,324,72.78,324,119.7,328.5,119.7,334.09Z" style="fill:#dcdde0"/><path d="M297.76,330.36c7.47,8.53-18.45,9.24-49,10.66-45.85,2.13-55.55-3.24-53.32-8,4.27-9.07,40-11.71,70.56-10.49C288.17,323.43,294.08,326.15,297.76,330.36Z" style="fill:#dcdde0"/><path d="M172.74,54.85a.41.41,0,0,1,.45-.28c3,.5,6.25,1.49,8.5,3.55a8.69,8.69,0,0,1,2.82,5.26c.26,1,.34,1.79.53,2.8.35,1.37-.12,1-.61.95-3.15-.63-6.56-1.5-8.94-3.75C173.58,61.58,172.05,57.43,172.74,54.85Z" style="fill:#fcc18b"/><path d="M243.27,11.08a.32.32,0,0,1,.38-.12,12.73,12.73,0,0,1,5.52,4.3,6.51,6.51,0,0,1,1,4.4c0,.8-.1,1.39-.17,2.17,0,1.07-.3.74-.64.57-2.17-1.09-4.5-2.4-5.8-4.52C242.54,16.18,242.25,12.84,243.27,11.08Z" style="fill:#fcc18b"/><path d="M263.73,12.37a.31.31,0,0,1,.39.1A12.72,12.72,0,0,1,266.64,19a6.5,6.5,0,0,1-1.4,4.3c-.42.68-.8,1.14-1.26,1.77-.56.91-.63.48-.84.16-1.31-2-2.62-4.37-2.64-6.86C260.48,16.37,262,13.35,263.73,12.37Z" style="fill:#fcc18b"/><path d="M280.7,57.22a.33.33,0,0,1,.4,0,12.76,12.76,0,0,1,3.63,6,6.53,6.53,0,0,1-.62,4.48c-.3.74-.59,1.26-.93,2-.39,1-.54.59-.8.31-1.65-1.79-3.35-3.85-3.81-6.29C278.2,61.73,279.12,58.5,280.7,57.22Z" style="fill:#fcc18b"/><path d="M306.13,61.75a.32.32,0,0,1,.34.2,12.86,12.86,0,0,1,.54,7,6.54,6.54,0,0,1-2.58,3.72c-.6.53-1.09.86-1.71,1.33-.81.71-.75.28-.86-.09-.66-2.34-1.25-4.94-.55-7.33C301.86,64.64,304.14,62.17,306.13,61.75Z" style="fill:#fcc18b"/><path d="M279.72,28.36a.36.36,0,0,1,.4.1A12.79,12.79,0,0,1,282.63,35a6.53,6.53,0,0,1-1.4,4.31c-.42.67-.8,1.13-1.25,1.76-.57.92-.64.49-.85.16-1.3-2.05-2.62-4.37-2.64-6.86C276.47,32.36,278,29.34,279.72,28.36Z" style="fill:#fcc18b"/><path d="M268,55a.32.32,0,0,1,.39.1,12.79,12.79,0,0,1,2.51,6.52A6.57,6.57,0,0,1,269.51,66c-.42.67-.8,1.13-1.26,1.76-.57.91-.64.48-.85.16-1.3-2.05-2.62-4.37-2.64-6.86C264.75,59,266.22,56,268,55Z" style="fill:#fcc18b"/><path d="M216.34,24.05a.34.34,0,0,0-.13.38,12.76,12.76,0,0,0,4.11,5.66,6.53,6.53,0,0,0,4.37,1.17c.8,0,1.38-.06,2.17-.1,1.07,0,.75-.27.59-.62-1-2.21-2.25-4.58-4.33-5.95C221.46,23.5,218.13,23.09,216.34,24.05Z" style="fill:#fcc18b"/><path d="M256.86,61.37a.32.32,0,0,0-.13.38,12.79,12.79,0,0,0,4.1,5.66,6.56,6.56,0,0,0,4.38,1.17c.79,0,1.38-.06,2.16-.1,1.07,0,.75-.27.59-.62-1-2.21-2.24-4.58-4.32-6C262,60.82,258.65,60.41,256.86,61.37Z" style="fill:#fcc18b"/><path d="M202.5,37a.33.33,0,0,1,.4,0,12.8,12.8,0,0,1,4,5.77,6.58,6.58,0,0,1-.36,4.51c-.26.75-.52,1.28-.82,2-.33,1-.5.61-.78.35-1.74-1.7-3.56-3.65-4.16-6.07C200.26,41.67,201,38.4,202.5,37Z" style="fill:#fcc18b"/><path d="M210,22.1a.33.33,0,0,1,.4,0,12.8,12.8,0,0,1,4,5.77,6.51,6.51,0,0,1-.36,4.51c-.25.75-.52,1.29-.81,2-.34,1-.51.61-.79.35-1.74-1.69-3.56-3.65-4.16-6.06C207.72,26.74,208.46,23.47,210,22.1Z" style="fill:#fcc18b"/><path d="M314.84,72.57a.32.32,0,0,1,0,.4,12.86,12.86,0,0,1-6.1,3.4,6.61,6.61,0,0,1-4.46-.78c-.73-.32-1.23-.64-1.93-1-1-.43-.56-.56-.27-.81,1.85-1.58,4-3.21,6.42-3.58C310.43,69.91,313.63,70.94,314.84,72.57Z" style="fill:#fcc18b"/><path d="M297,40.78a.43.43,0,0,0-.12-.52c-2.44-1.74-5.46-3.38-8.51-3.53a8.65,8.65,0,0,0-5.71,1.7c-.91.54-1.52,1-2.37,1.6-1.22.72-.65.83-.24,1.11,2.66,1.78,5.68,3.59,9,3.7C291.59,44.93,295.61,43.09,297,40.78Z" style="fill:#fcc18b"/><path d="M279.59,14.65a.42.42,0,0,0-.38-.36c-3-.1-6.42.2-9,1.76a8.66,8.66,0,0,0-3.82,4.58c-.46.95-.7,1.69-1.09,2.64-.62,1.27-.09,1.05.42,1.06,3.2,0,6.71-.15,9.5-1.87C277.42,21.08,279.75,17.33,279.59,14.65Z" style="fill:#fcc18b"/><path d="M258.07,6.27a.42.42,0,0,0-.51-.12c-2.63,1.44-5.42,3.44-6.88,6.13a8.65,8.65,0,0,0-1,5.89c.08,1,.26,1.8.41,2.82.11,1.41.46,1,.89.7,2.76-1.62,5.71-3.55,7.23-6.45C259.47,12.91,259.57,8.49,258.07,6.27Z" style="fill:#fcc18b"/><path d="M240,8a.43.43,0,0,0-.49-.2c-2.82,1-5.89,2.56-7.75,5a8.64,8.64,0,0,0-1.85,5.67c-.08,1,0,1.82,0,2.85-.11,1.41.3,1,.77.83,3-1.17,6.19-2.62,8.14-5.25C240.39,14.81,241.16,10.46,240,8Z" style="fill:#fcc18b"/><path d="M246.06,24.64a.44.44,0,0,0-.42-.33c-3,.19-6.37.82-8.83,2.63a8.62,8.62,0,0,0-3.36,4.92c-.37,1-.53,1.75-.83,2.74-.49,1.32,0,1,.51,1,3.19-.29,6.68-.78,9.29-2.77C244.51,31.25,246.47,27.28,246.06,24.64Z" style="fill:#fcc18b"/><path d="M218.75,50.47a.33.33,0,0,1,0,.4A12.87,12.87,0,0,1,213.09,55a6.51,6.51,0,0,1-4.51-.25c-.77-.23-1.3-.48-2-.76-1-.31-.62-.49-.36-.77,1.64-1.79,3.55-3.66,5.95-4.32C214.05,48.35,217.34,49,218.75,50.47Z" style="fill:#fcc18b"/><path d="M308.9,96.42a.33.33,0,0,1-.25.31,12.83,12.83,0,0,1-7-.38,6.56,6.56,0,0,1-3.35-3c-.45-.67-.7-1.2-1.1-1.88-.59-.89-.17-.78.21-.83,2.4-.35,5.06-.59,7.34.41C306.59,91.81,308.73,94.39,308.9,96.42Z" style="fill:#fcc18b"/><path d="M316,78.45a.41.41,0,0,1,.21.48c-1,2.83-2.52,5.91-4.94,7.78a8.63,8.63,0,0,1-5.65,1.9c-1,.08-1.83,0-2.86,0-1.41.11-1-.3-.83-.77,1.15-3,2.58-6.2,5.2-8.18C309.2,78.14,313.54,77.33,316,78.45Z" style="fill:#fcc18b"/><path d="M299.21,58.57a.42.42,0,0,0-.42-.32c-3,.27-6.34,1-8.75,2.88a8.64,8.64,0,0,0-3.22,5c-.34,1-.49,1.76-.75,2.76-.46,1.33,0,1,.54,1,3.18-.39,6.65-1,9.2-3C297.85,65.22,299.7,61.2,299.21,58.57Z" style="fill:#fcc18b"/><path d="M218.7,7a.42.42,0,0,1,.49-.2c2.82,1,5.88,2.56,7.74,5a8.63,8.63,0,0,1,1.86,5.67c.08,1,0,1.83,0,2.86.11,1.4-.3,1-.77.82-3-1.17-6.19-2.62-8.14-5.25C218.34,13.74,217.56,9.39,218.7,7Z" style="fill:#fcc18b"/><path d="M172.15,74.46A.43.43,0,0,1,172,74c1.4-2.66,3.35-5.48,6-7a8.62,8.62,0,0,1,5.87-1c1,.06,1.81.22,2.83.36,1.41.08,1,.44.71.87-1.57,2.8-3.44,5.77-6.32,7.35C178.82,75.75,174.4,75.92,172.15,74.46Z" style="fill:#fcc18b"/><path d="M200.36,17.84a.33.33,0,0,1,.41,0,12.9,12.9,0,0,1,4,5.76,6.57,6.57,0,0,1-.36,4.51c-.26.76-.52,1.29-.82,2-.34,1-.51.62-.78.35-1.75-1.69-3.57-3.64-4.16-6.06C198.13,22.48,198.86,19.2,200.36,17.84Z" style="fill:#fcc18b"/><path d="M272.06,34.48a.33.33,0,0,1,0,.4A12.84,12.84,0,0,1,266.41,39a6.6,6.6,0,0,1-4.52-.25c-.76-.23-1.3-.49-2-.76-1-.32-.63-.5-.37-.78,1.65-1.79,3.55-3.65,5.95-4.31C267.37,32.36,270.66,33,272.06,34.48Z" style="fill:#fcc18b"/><path d="M185.15,32.37a.42.42,0,0,1,.16-.5c2.61-1.49,5.78-2.81,8.83-2.65a8.63,8.63,0,0,1,5.51,2.28c.85.62,1.41,1.16,2.19,1.83,1.14.83.57.88.13,1.12-2.83,1.51-6,3-9.28,2.77C190.07,37,186.26,34.8,185.15,32.37Z" style="fill:#fcc18b"/><path d="M175.11,41.66a.43.43,0,0,1,.3-.43c2.93-.67,6.34-1,9.22,0A8.67,8.67,0,0,1,189.25,45c.63.84,1,1.52,1.57,2.39.85,1.13.29,1-.2,1.11-3.14.63-6.62,1.14-9.69,0C178.48,47.56,175.47,44.32,175.11,41.66Z" style="fill:#fcc18b"/><path d="M217.8,80.86c0,2.82-.31,5.64-.42,8.47,0,1.37,2.08,1.37,2.13,0,.11-2.83.4-5.65.42-8.47a1.07,1.07,0,0,0-2.13,0Z" style="fill:#414355"/><path d="M301.91,86.89a187.47,187.47,0,0,0-18.35,4.38c-1.85.52-3.66,1.17-5.49,1.77,1.78-2.43,3.51-4.91,5.21-7.39.57-.83,1.23-1.67,1.87-2.54a34.08,34.08,0,0,0,6.47-2.47c4-1.75,8.41-3.54,11.51-6.68a1.32,1.32,0,0,0-1.27-2.19c-3.43.84-6.49,2.79-9.63,4.34-1.51.74-3,1.42-4.58,2.1.73-2.62,1-5.33,1.59-8,.46-2.1-2-4.74-4.07-3.13A14.63,14.63,0,0,0,281,71.71a38.76,38.76,0,0,1-5.61,7.89c-.42.45-.83.92-1.24,1.39-.45-5.18-1.93-11.14-5.58-14.87a1.75,1.75,0,0,0-2.91,1.69c1.1,3.83,2.85,7.33,3.67,11.26a45.16,45.16,0,0,1,.84,6.84c-2.72,3.57-5.33,7.25-8.26,10.62-3.65,4.17-7.34,7.62-10.2,12.16-.45-10.57,1.79-20.87.14-31.37a48.51,48.51,0,0,0-2-7.92c1.07-3.92,2.19-7.83,3.32-11.74,4.8-2.64,9.34-5.54,14.38-7.76a107.66,107.66,0,0,0,13.59-7.82c1.46-.95-.3-2.95-1.78-2.29-4.64,2.07-9,4.83-13.63,7a58.88,58.88,0,0,0-11.59,7.55q1-3.32,1.94-6.64c2.38-8.14,5-16.31,10.89-22.6a1.54,1.54,0,0,0-1.86-2.42c-4.55,2.45-7.71,7-10.21,11.82.11-5.33-.56-10.84-3.19-14.9a1.7,1.7,0,0,0-3.09,1.3c.82,4.11,2,7.93,2.32,12.16.24,2.74.51,5.46.84,8.17l-1.17,2.72a73,73,0,0,0-5,15.54,129.63,129.63,0,0,0-8.12-13.67c-2.72-4-3.69-11.23-3.79-13.1-.31-6,0-11-1.19-13.25-1.54-2.88-5.2-1.52-6.13.8-2.14,5.34-.48,11.92,0,17.49.09,1,.14,2.07.18,3.12-2.88-1.44-5.71-3-8.53-4.58-4.43-2.54-8.87-6.18-14-7.17-1.89-.37-4.92,1.67-3.44,3.44,3.41,4.06,10.52,6.72,15,10.45a66.32,66.32,0,0,1,9,10.35c5.09,8.68,10.37,16,12.15,26.08-2.27-1.19-4.62-1.77-7.11-2.84-5.49-2.35-10.95-3.53-15.71-7.24a52.81,52.81,0,0,1-8.43-8.6c.22-1.75.23-3.52.39-5.28a27,27,0,0,1,1.85-6.88c.64-1.76-2.05-2.8-3-1.25a20.23,20.23,0,0,0-2.38,9.28c-2.7-4-4.9-8.68-8.32-12-2.29-2.22-5.52.07-5,2.92,1,5.57,4.69,11.33,7.42,16.22.2.36.42.72.63,1.08l-3.13-.3c-3.63-.35-10.2,0-10.57.87-.5,1.2-.76,2.29.35,2.62,3.28,1,6.82.64,10.22.79,1.94.08,3.89.21,5.84.25a42.37,42.37,0,0,0,7.89,8.56c4.9,4,11.09,5.9,17,7.94a111,111,0,0,0,11,3.37c.64.14,1.27.32,1.9.49-.29,3-.84,6-1.14,9-.62,6.19.41,12.69.56,18.9.29,11.93,3.69,23.15,5,34.93a181.43,181.43,0,0,1-.18,38.21c-1.21,12.07-3.79,24-5.56,35.95a302.26,302.26,0,0,0-2.77,38.26,314.14,314.14,0,0,0,.86,35.39c.53,5.72,1.4,12.69,2,18.39.48,4.32,2.24,11.52,3.9,13.51,1.36,1.62,4.09,1.92,7.68,1.34,2.44-.39,4.73-.42,6-2.41,1.41-2.2-.27-6.77-.79-9.31s-1.14-7.87-1.55-10.5c-.84-5.48-1.21-11.06-1.72-16.58-1.15-12.53-1-25.31-.71-37.88.57-25.06,6.7-49.34,8.38-74.27a183.84,183.84,0,0,0-1.22-36.1c-.75-5.87-2.17-11.62-3.28-17.42-.3-1.53-.51-3.08-.66-4.63,2.3-2.9,4.33-6,6.43-9,3.6-5.24,8.69-9.16,12.79-14,.93-1.08,1.83-2.2,2.72-3.33,2.79-.78,5.62-1.4,8.36-2.37,6.58-2.31,14.12-2.46,20-6.54A1.12,1.12,0,0,0,301.91,86.89Z" style="fill:#858fa9"/><path d="M226.46,100c-1.23-1.2-2.39-2.39-3.38-3.45a48.75,48.75,0,0,1,4-2.94l-.59-.89a50.21,50.21,0,0,0-4.12,3l-.39-.43c-.62-.7-1.86-2.26-3.14-4,.75-.65,1.34-1.14,2.21-1.79a10.88,10.88,0,0,0-1.46-.22c-.48.38-1,.77-1.39,1.15-.6-.8-.93-.94-1.46-1.69-.4.05-.66.18-1.07.22.63.92,1,1.17,1.72,2.18-1.51,1.35-2.7,2.57-3.41,3.31l-.41.45c-1.08-1.4-2.33-3.07-3.37-4.54.7-.71,1.36-1.36,1.93-1.93-.49,0-1,0-1.49,0l-1.06,1.07c-.26-.38-.36-.45-.57-.77l-1,.28c.25.38.53.81.85,1.27-1.54,1.57-3.11,3.2-4,4.15-.54-.92-1.42-2.49-2.13-3.79l-.93.51c.69,1.27,1.74,3.17,2.31,4.11a61.29,61.29,0,0,0-4.45,5.57l-.06-.07c-.41-.52-.91-1.14-1.45-1.8-.67-.84-1.43-1.77-2.11-2.64,1-1.3,2.11-2.64,2.73-3.33l-.78-.71c-.57.62-1.61,1.89-2.62,3.17-.49-.63-.9-1.19-1.17-1.6l-.89.59c.31.48.8,1.14,1.38,1.88-.84,1.07-1.57,2-1.88,2.51-.47.72-.91,1.36-1.33,2-.15.22-.31.44-.46.67a44,44,0,0,1-2.7-3.5l-.88.6a45.62,45.62,0,0,0,3,3.82c-.54.81-1.07,1.66-1.64,2.66-.22.41-.62,1.16-1.11,2.12l-1.31-1.68c-.84-1.06-1.6-2-2.06-2.58l-.82.68c.45.54,1.21,1.51,2,2.56l1.62,2.07c-.81,1.64-1.76,3.67-2.6,5.7-1.63-2.07-3.06-4-3.84-5.19l-.9.58c.85,1.32,2.47,3.46,4.28,5.74a28.69,28.69,0,0,0-1.51,4.8l1.05.2a26.39,26.39,0,0,1,1.22-4c1.81,2.26,3.7,4.56,5.16,6.29-.12.47.82,1.17.86,1,.14.17.93-.54.31-1.28.34-1.37.72-2.74,1.17-4.07.28-.8.61-1.66,1-2.6.23.27.46.53.7.79l2.5,2.84c.23.27.48.52.72.79-.32.77-.63,1.52-.89,2.19s.85.76,1,.38c.21-.53.45-1.11.7-1.72.73.77,1.29,1.38,2,2.11.41-.09.79-.34,1.2-.44-1-1-1.82-1.71-2.8-2.74.78-1.8,1.69-3.78,2.64-5.69l.81.79c.76.73,2.21,2.07,3.89,3.58a22.14,22.14,0,0,0-1.47,3.12c.43-.14.85-.2,1.28-.35.32-.8.63-1.26,1-2,.49.44.75.74,1.26,1.18.36-.15.71-.32,1.07-.49-.7-.6-1.15-1.07-1.82-1.67.58-1.09,1.2-2.15,1.78-3.15.38-.65.74-1.27,1.08-1.89,1.17,1,2.28,2.09,3.71,3.29-.21.36,1.35-.73,1.46-.35-.06-.42.66-.62.88-1a35.49,35.49,0,0,1,2-3.4c.65.65.94,1,1.27,1.25.27-.24.63-.42.89-.67-.32-.28-.79-.71-1.54-1.47.58-.84,1.17-1.66,1.76-2.45.35-.49.71-1,1-1.45,0-.06.32-.43.81-1,.76.68,1.51,1.33,2.23,1.91.22-.28.42-.57.63-.86-.69-.56-1.42-1.19-2.16-1.85a44.63,44.63,0,0,1,3.41-3.44l1.34,1.25c.17-.33.12-.85.29-1.18l-.83-.78c.55-.48.61-.46,1.23-1,0-.46-.09-.82-.09-1.25C227.46,99.28,227.22,99.37,226.46,100Zm-11.71-4.75c.68-.72,1.82-1.88,3.27-3.18,1.29,1.7,2.51,3.24,3.15,4l.37.4a48.58,48.58,0,0,0-3.68,3.48c-.86-.89-1.65-1.73-2.29-2.46-.32-.36-.79-.93-1.35-1.64Zm0,2.92c.66.75,1.48,1.62,2.37,2.54a27.42,27.42,0,0,0-1.82,2.18l-1,1.45-.7,1-1.83-1.89c-.57-.59-1.32-1.48-2.1-2.45,1.27-1.52,2.55-3,3.84-4.35C214,97.31,214.46,97.86,214.77,98.21Zm-5.34-7c1.06,1.49,2.31,3.16,3.39,4.55-1.3,1.39-2.59,2.82-3.86,4.34-1.51-1.93-3-4-3.54-4.7C206.22,94.57,207.83,92.89,209.43,91.25Zm-4.74,5c.67.92,2.12,2.88,3.57,4.72-1.28,1.57-2.54,3.26-3.8,5.13-1.55-1.61-3.13-3.26-4.11-4.36A59.22,59.22,0,0,1,204.69,96.25Zm-12.36,5.24c.43-.62.87-1.27,1.35-2,.26-.4.9-1.25,1.65-2.23.63.8,1.32,1.65,2,2.45l1.45,1.79.26.32c-.86,1.25-1.67,2.55-2.45,3.92-.25.43-.46.89-.68,1.34l-1.33-1.47-.86-1-2-2.24Zm-1,16.23c-.38,1.12-.7,2.26-1,3.41-1.48-1.77-3.32-4-5-6.17.81-2,1.76-4,2.59-5.73.42.52.79,1,1.06,1.27,1.21,1.35,2.41,2.72,3.61,4.08C192,115.71,191.62,116.76,191.29,117.72ZM193,113.5c-1.09-1.24-2.18-2.48-3.29-3.71-.31-.36-.79-.94-1.33-1.61.58-1.15,1.06-2.05,1.32-2.52.48-.86.95-1.62,1.42-2.34l1.78,2,.86,1c.53.6,1.07,1.2,1.63,1.8-.26.57-.51,1.15-.75,1.71-.32.76-.64,1.52-1,2.24C193.4,112.56,193.19,113,193,113.5Zm4.7,5.3c-.12-.14-.26-.27-.38-.41l-2.5-2.84-1-1.17c.26-.6.54-1.21.84-1.86s.68-1.51,1-2.28l.56-1.28c1.28,1.36,2.65,2.76,4.15,4.23C199.37,115.06,198.46,117,197.68,118.8Zm3.14-6.6c-1.51-1.49-2.89-2.91-4.18-4.29.26-.56.53-1.12.83-1.64.73-1.26,1.47-2.46,2.26-3.63,1.05,1.17,2.61,2.8,4.13,4.36-.43.65-.85,1.32-1.27,2C202,110,201.41,111.06,200.82,112.2Zm7.18,2.21c-.55.94-1.13,1.93-1.68,3-1.58-1.43-2.93-2.68-3.66-3.38l-1-1c.63-1.21,1.26-2.38,1.88-3.41.37-.61.75-1.19,1.12-1.77,1.51,1.55,2.87,2.91,3.44,3.48l1.13,1.06C208.82,113,208.42,113.69,208,114.41Zm1.77-3.14a.41.41,0,0,0-.05.09c-.33-.3-.64-.6-.91-.86-.68-.66-2.07-2.07-3.59-3.62,1.23-1.84,2.47-3.51,3.72-5,.76.92,1.47,1.77,2,2.35l2,2A40.64,40.64,0,0,0,209.77,111.27Zm5.33,3.19c-.18.36-.39.73-.6,1.1-1.44-1.22-2.82-2.42-4-3.46l.19-.35a40.65,40.65,0,0,1,3-4.75l.39.41,3.24,3.36A37.94,37.94,0,0,0,215.1,114.46Zm5.55-8.33-1.05,1.45c-.55.75-1.11,1.52-1.66,2.3-.94-1-2-2.09-3.08-3.21l-.54-.56.81-1.1c.35-.49.71-1,1.05-1.45.06-.08.63-.86,1.7-2,1.15,1.16,2.4,2.36,3.65,3.51C221,105.67,220.69,106.08,220.65,106.13Zm1.58-1.92c-1.24-1.14-2.48-2.33-3.62-3.49a47.89,47.89,0,0,1,3.65-3.45c1,1.07,2.16,2.27,3.4,3.48A45.21,45.21,0,0,0,222.23,104.21Z" style="fill:#858fa9"/><path d="M228.48,93.76a.74.74,0,0,0,.2-.16c3.57-4.31,3.69-12.24,2.31-17.51-1-3.93-6.81-6-10-2.92-.13.13.56.37,1,.52s1,.46,1.26.37c2.34-.8,3.54.08,4.77,1.2,1.68,1.54,1.53,4.53,1.62,6.56.13,3.15-.31,7.33-2.31,10-2.07-2.46-5.86-3.18-8.92-3.55a40.57,40.57,0,0,0-35.81,14.06c-.28.34-.55.68-.81,1-3.2-1.49-6.52-3.43-10.15-3.3a7,7,0,0,0-6.42,6.4c-.46,8.37,8.5,13.58,15.92,13.94,2.43,2,5.91,3,8.68,3.55,12.39,2.41,26.23-6.45,34.62-14.91a15.84,15.84,0,0,0,4.18-14.71C228.61,94.13,228.55,94,228.48,93.76Zm-60.95,15.16c-1.37-4.78,3-7.44,7.11-6.33a37.1,37.1,0,0,1,6,2.52,14.16,14.16,0,0,0-2.23,10.9,6.74,6.74,0,0,0,.78,2C174.07,117.17,169,114,167.53,108.92Zm57.23-3.8c-2.34,4.24-7.28,7.45-11.24,9.95-8.1,5.12-16.58,8.58-26.09,6.14-16.25-4.17-1.79-20.47,5.6-25,8-4.87,16.15-6.94,25.42-5.83,2.58.32,4.74.67,6.88,2.4C229.07,95.8,226.47,102,224.76,105.12Z" style="fill:#414355"/><path d="M181.1,119.24c3.55,2.84,6.18,6.05,9,8.81,3.13,3,5.94,6.37,8.94,9.58s5.63,6.85,8.53,10.13c2.48,2.81,4.85,5.58,7.42,8.3a.38.38,0,0,1-.16-.3" style="fill:none;stroke:#414355;stroke-miterlimit:10;stroke-width:1.066255416072607px"/><path d="M214.77,155.76c1.25,1.24,5.22-.07,8.08-.79a43,43,0,0,0,9.07-3.54,28.13,28.13,0,0,0,8.47-6.88c1.8-2,4.35-4.79,4.06-7.63" style="fill:none;stroke:#414355;stroke-miterlimit:10;stroke-width:1.066255416072607px"/><path d="M228.19,93.65c1,1.29,1.06,3.12,1.59,4.54.84,2.22,2.11,4.36,3,6.59,1.39,3.45,2.82,7,4.13,10.46,1.44,3.83,2.91,7.65,4.33,11.46a56.07,56.07,0,0,1,2.14,6.06c.37,1.55,1.05,2.74,1.06,4.34" style="fill:none;stroke:#414355;stroke-miterlimit:10;stroke-width:1.066255416072607px"/><path d="M223.39,108.58c4,0,7.18.33,11.07.33" style="fill:none;stroke:#414355;stroke-miterlimit:10;stroke-width:1.066255416072607px"/><path d="M227.48,102.63c1.78.79,3.11.88,4.89,1.51" style="fill:none;stroke:#414355;stroke-miterlimit:10;stroke-width:1.066255416072607px"/><path d="M196.6,123.24c-.86,3.26-3.46,5.06-4.39,6.66" style="fill:none;stroke:#414355;stroke-miterlimit:10;stroke-width:1.066255416072607px"/><path d="M196.67,135.17a58.81,58.81,0,0,0,4-5.6,24.16,24.16,0,0,0,2.7-7.64" style="fill:none;stroke:#414355;stroke-miterlimit:10;stroke-width:1.066255416072607px"/><path d="M213,117.37a23.64,23.64,0,0,1-.6,5.74,33.45,33.45,0,0,1-3.67,8.53c-2.44,3.93-5.2,7.64-6.66,8.66" style="fill:none;stroke:#414355;stroke-miterlimit:10;stroke-width:1.066255416072607px"/><path d="M222.13,110.51c.44.66-1,8.33-1.34,9.86a55.36,55.36,0,0,1-2.59,8.73,61.78,61.78,0,0,1-5.53,10.4,37.55,37.55,0,0,1-3.07,4.87,24.64,24.64,0,0,0-2.47,2.86" style="fill:none;stroke:#414355;stroke-miterlimit:10;stroke-width:1.066255416072607px"/><path d="M228,101.45a48,48,0,0,1,.67,14c-.52,5.68-1.27,11.7-3.73,17.07-1.75,3.83-3.63,7.8-5.54,11.52a27.34,27.34,0,0,1-3.12,5.13c-1,1.2-2.72,2.63-3.27,4.2" style="fill:none;stroke:#414355;stroke-miterlimit:10;stroke-width:1.066255416072607px"/><path d="M235.52,111.44c-.06,2.47-.56,8.94-.8,11.13a59.24,59.24,0,0,1-2.87,13.21c-.73,2.14-1.89,4.24-2.79,6.33a57,57,0,0,1-2.66,5.44,82.75,82.75,0,0,1-5.41,7.94" style="fill:none;stroke:#414355;stroke-miterlimit:10;stroke-width:1.066255416072607px"/><path d="M240.92,126c-.2,1.8-1.12,6.87-1.47,8.13-.72,2.65-1.07,4.52-2,7.12-.62,1.78-3.35,7.08-4.28,9.34" style="fill:none;stroke:#414355;stroke-miterlimit:10;stroke-width:1.066255416072607px"/><path d="M214.46,115.91a69.22,69.22,0,0,0,11.47.86,109.76,109.76,0,0,0,11.26-.93" style="fill:none;stroke:#414355;stroke-miterlimit:10;stroke-width:1.066255416072607px"/><path d="M204.93,121.57a51.15,51.15,0,0,0,6.67,1.4c1.55.2,8.13.4,12.39.6a103.59,103.59,0,0,0,10.6-.6c.69-.09,3.33-.66,5.06-1.06" style="fill:none;stroke:#414355;stroke-miterlimit:10;stroke-width:1.066255416072607px"/><path d="M188.92,123.24c1.78,1.13,7.11,3.11,12.48,4.33,2.69.61,14.47,2.54,19.23,2.88,2.24.16,11.26.64,13.43.52,2.46-.13,7-.27,8.79-.53" style="fill:none;stroke:#414355;stroke-miterlimit:10;stroke-width:1.066255416072607px"/><path d="M193.34,131.37c2,.73,11.89,3.7,14,4.12,4.21.81,11.91,1.65,14.69,1.88,3.92.32,7.76.53,11.71.53a91.43,91.43,0,0,0,10.8-.47" style="fill:none;stroke:#414355;stroke-miterlimit:10;stroke-width:1.066255416072607px"/><path d="M203.2,142.43c1.52.28,6.31.9,7.87,1.06a111.87,111.87,0,0,0,11.32.81c3.82,0,7.65,0,11.47,0,1.74,0,5.21-.28,7-.34" style="fill:none;stroke:#414355;stroke-miterlimit:10;stroke-width:1.066255416072607px"/><path d="M209,149.43c1.2.2,4.61,1.07,5.66,1.27s5,.69,6.07.73c2,.06,10.43-.06,11.19.06" style="fill:none;stroke:#414355;stroke-miterlimit:10;stroke-width:1.066255416072607px"/><path d="M128.62,85.93c-1.76-3.56-6-3.31-9.13-2.15a11.79,11.79,0,0,0-7.7,9.37.67.67,0,0,0,.41.7c.9,5.44,7.79,10.34,12.43,6.63,2.1-1.68,3-5.16,3.84-7.66C129.15,90.76,129.63,88,128.62,85.93Z" style="fill:#ffa348"/><path d="M106.9,79.52a29.9,29.9,0,0,0,8.5-.82,44.63,44.63,0,0,0,8.29-3.32c0-.13-.06-.26-.08-.39l-.16-.76a25.94,25.94,0,0,0-2.64-7,14.9,14.9,0,0,1-6.25,1.18c-.71,0-1.27,0-1.58,0a46.43,46.43,0,0,1-13.44-3.22,82.38,82.38,0,0,1-7.49-3.67,21.2,21.2,0,0,0-5.73,13,110.68,110.68,0,0,0,12.37,3.93A38.94,38.94,0,0,0,106.9,79.52Z" style="fill:#858fa9"/><path d="M113.06,67.26c.61,0,4.58.29,7.23-1A25.92,25.92,0,0,0,114,58.89a27.91,27.91,0,0,0-7.79-4.26l-.49-.18a38.37,38.37,0,0,0-6,1.7,22.4,22.4,0,0,0-7,4.5,73.1,73.1,0,0,0,7.09,3.47A45.33,45.33,0,0,0,113.06,67.26Z" style="fill:#858fa9"/><path d="M124,82.74a19.8,19.8,0,0,0,.26-3.08,17.23,17.23,0,0,0-.33-3.19,45.8,45.8,0,0,1-8.2,3.25,30.5,30.5,0,0,1-8.8.87,40.11,40.11,0,0,1-8.44-1.14,114.87,114.87,0,0,1-12.19-3.84,18.8,18.8,0,0,0,3.84,11.78,24,24,0,0,0,11.94,8.2c6.84-2.09,11-5.5,14.42-8.28C119.06,85.18,121.3,83.35,124,82.74Z" style="fill:#858fa9"/><path d="M121.21,65.7a3.51,3.51,0,0,0,1.38-2,12.94,12.94,0,0,0-.62-6.85,21.08,21.08,0,0,0-14.16-2.71A28.59,28.59,0,0,1,114.69,58,27.12,27.12,0,0,1,121.21,65.7Z" style="fill:#858fa9"/><path d="M123.63,63.92a4.56,4.56,0,0,1-1.88,2.73A27.32,27.32,0,0,1,124.5,74l.15.75s0,.06,0,.08l1.19-.67.32-.19a22.63,22.63,0,0,0,5.24-4.46,23.64,23.64,0,0,0-1.32-3.34,23.38,23.38,0,0,0-6.75-8.41A12.88,12.88,0,0,1,123.63,63.92Z" style="fill:#858fa9"/><path d="M126.71,74.92l-.32.18-1.5.85a19,19,0,0,1,.41,3.71,21.11,21.11,0,0,1-.25,3.11,3.4,3.4,0,0,1,1.61.92,6.59,6.59,0,0,1,1.73,4.36,20.54,20.54,0,0,0,3.36-17.29A23,23,0,0,1,126.71,74.92Z" style="fill:#858fa9"/><path d="M125.9,84.44a2.41,2.41,0,0,0-1-.63,33,33,0,0,1-2.17,6.89,18,18,0,0,1-2.3,3.76,22.71,22.71,0,0,0,3.19-1.8,20.5,20.5,0,0,0,3.61-3.17A5.76,5.76,0,0,0,125.9,84.44Z" style="fill:#858fa9"/><path d="M123.77,83.9c-2.24.65-4.2,2.24-6.63,4.23a41.52,41.52,0,0,1-13.25,8,25.93,25.93,0,0,0,14.46-.8,21.14,21.14,0,0,0,3.38-5A32.62,32.62,0,0,0,123.77,83.9Z" style="fill:#858fa9"/><path d="M126.18,74l-.32.19-1.19.67s0,0,0-.08L124.5,74a27.32,27.32,0,0,0-2.75-7.37,4.56,4.56,0,0,0,1.88-2.73,12.88,12.88,0,0,0-.28-6.14q-.67-.51-1.38-1a12.94,12.94,0,0,1,.62,6.85,3.51,3.51,0,0,1-1.38,2A27.12,27.12,0,0,0,114.69,58a28.59,28.59,0,0,0-6.88-3.93c-.67.09-1.36.21-2,.34l.49.18A27.91,27.91,0,0,1,114,58.89a25.92,25.92,0,0,1,6.25,7.38c-2.65,1.28-6.62,1-7.23,1a45.33,45.33,0,0,1-13.13-3.14,73.1,73.1,0,0,1-7.09-3.47c-.27.26-.53.53-.79.79a82.38,82.38,0,0,0,7.49,3.67A46.43,46.43,0,0,0,113,68.33c.31,0,.87,0,1.58,0a14.9,14.9,0,0,0,6.25-1.18,25.94,25.94,0,0,1,2.64,7l.16.76c0,.13,0,.26.08.39a44.63,44.63,0,0,1-8.29,3.32,29.9,29.9,0,0,1-8.5.82,38.94,38.94,0,0,1-8.21-1.11,110.68,110.68,0,0,1-12.37-3.93c0,.38,0,.75,0,1.13a114.87,114.87,0,0,0,12.19,3.84,40.11,40.11,0,0,0,8.44,1.14,30.5,30.5,0,0,0,8.8-.87,45.8,45.8,0,0,0,8.2-3.25,17.23,17.23,0,0,1,.33,3.19,19.8,19.8,0,0,1-.26,3.08c-2.67.61-4.91,2.44-7.5,4.57-3.4,2.78-7.58,6.19-14.42,8.28.61.19,1.22.37,1.84.52a41.52,41.52,0,0,0,13.25-8c2.43-2,4.39-3.58,6.63-4.23a32.62,32.62,0,0,1-2,6.38,21.14,21.14,0,0,1-3.38,5c.7-.25,1.38-.54,2.06-.85a18,18,0,0,0,2.3-3.76,33,33,0,0,0,2.17-6.89,2.41,2.41,0,0,1,1,.63,5.76,5.76,0,0,1,1.31,5c.42-.47.81-.95,1.18-1.44a6.59,6.59,0,0,0-1.73-4.36,3.4,3.4,0,0,0-1.61-.92,21.11,21.11,0,0,0,.25-3.11,19,19,0,0,0-.41-3.71l1.5-.85.32-.18a23,23,0,0,0,5-4.16c-.1-.41-.2-.82-.33-1.23A22.63,22.63,0,0,1,126.18,74Z" style="fill:#414355"/><path d="M124.36,100.51A22.85,22.85,0,0,1,116,99a12.15,12.15,0,0,0-1.2-.46c-.29-.16-.31-.12-.42.31a240.66,240.66,0,0,0-5.25,25.36c-.71,4.76,1.92,7.63,5.68,10.12a.78.78,0,0,0,1.06-.28c2.25-4.39,2.87-9.17,3.89-13.94,1.34-6.34,3.35-12.5,4.9-18.79C124.73,100.87,124.82,100.51,124.36,100.51Z" style="fill:#2a9cc8"/><path d="M76.58,286.35c1.49,3.19,3.79,9.31,7.74,10.1,3.29.65,3.35-5.19,3-6.92-.25-1.38-.57-2.74-.91-4.1-5-1.81-7.26-4.47-10.57-8.2C74.77,280.14,74.57,282.07,76.58,286.35Z" style="fill:#414355"/><path d="M87.45,266.65c0-.35-2.25.55-2.67.61-1.28.16-3.78,2-4.53,2s-1.78,1.22-3,4.6c-.52,1.32-1,2.4-1.36,3.38,3.45,5,7.31,7.28,10.57,8.2-.39-1.61-.81-3.22-1.16-4.84C84.37,276.44,87.91,270.87,87.45,266.65Z" style="fill:#ffa348"/><path d="M69.05,276a9.62,9.62,0,0,0-.12-8.12A4.24,4.24,0,0,0,64.55,266a.47.47,0,0,0-.76.23c-.8,2.44-2.48,3.87-4,5.46,2.51,6.26,4.64,9.59,8.11,13.45C67.53,282.27,67,279.54,69.05,276Z" style="fill:#ffa348"/><path d="M59.75,271.72a13.48,13.48,0,0,0-2.25,2.84c-1.49,2.68.4,7.89,1.07,10.66.81,3.38,2.55,9.78,6.22,9.78,2.84,0,2.9-2,3.2-4a27.8,27.8,0,0,0-.13-5.87C64.79,281,62.3,278.11,59.75,271.72Z" style="fill:#414355"/><path d="M104.88,187.59c-1-3.47-5.21-3.78-8.2-4.16-5.36-.69-10.73-.9-16.09-1.63-2.65-.36-6.22-.37-6.34,3a.8.8,0,0,0,.25.64c-5.32,3.89-7.28,11-8.15,17.26a36.06,36.06,0,0,0-.08,11.68c.65,3.47,3.9,9.84,1,15.82-1.87,3.89-1.43,6.66-.41,10.76,1.5,6-2.11,9.05-4,14.22-2.58,6.91-.49,16.51,5.13,21.32a.78.78,0,0,0,1.2-.15,112.93,112.93,0,0,0,8.31-15.91A34.72,34.72,0,0,0,78.87,256c0,6.52-.74,10.46-1.69,16.12-.26,1.59.27,2.53,1.74,2.51,3.58,0,7.81-.77,9.33-4.58s1.9-7.81,2.53-11.71a117.41,117.41,0,0,1,3.5-14.8c4.13-13.85,9-27.08,10.78-41.49C105.64,197.37,106.17,192.19,104.88,187.59Z" style="fill:#414355"/><path d="M107.84,121.24c-.48-1.12,2.26-2.75-.54-4.53a13.29,13.29,0,0,0-3.86-1.47c-11.86-1.73-22.75,8.54-30.59,16.21-2.58,2.52-5.83,5.71-6.26,9.48-.3,2.6,2.16,3.74,4.39,3.75-.18,2.86-.32,5.49,1.46,8a.56.56,0,0,0,.19.28c7.29,5.83,19.39-10.74,23.54-15.54,3.69-4.26,7.57-8.85,9.72-14.11C106.36,122.19,108.34,122.43,107.84,121.24Z" style="fill:#414355"/><path d="M111.91,139.14c-3.53-6.83-8.58-7.55-15.63-8.57C80,128.21,96.62,101,100,92.74a.59.59,0,0,0-.28-.67c-3.2-2-6.34-4.18-9.51-6.28l-.1,0c-.31-.33-.95-.41-1.16.08-6.43,14.67-11.87,28.48-11.72,44.75.08,9.23,1.44,18.34.81,27.58-.64,9.5-4.55,18.47-8,27.23a.83.83,0,0,0,.39,1c7.82,5.2,21.2,6.5,30.27,5.15,3.73-.56,7-1.54,8.48-5.19,1.31-3.15,1.13-7.22,1.23-10.54.15-5.15,1.39-10,2.52-15C114.55,153.9,115.27,145.62,111.91,139.14Z" style="fill:#2a9cc8"/><path d="M108.5,87.25c-1.74-1.79-4.52.18-7.26,1.33,3.26-2.85,9.89-8,5.86-10.32-2.52-1.47-5.66,2.06-8.15,4.7.62-4.37,2.49-9.83,1.16-10.5-2.24-1.12-3.82,1.11-4.58,2.62-.89,1.78-.94,3.31-1.42,5.38-.43,1.85-1.73,2-1.73-.54,0-3.32,1-4.92-.15-8-.36-.94-1.55-1.73-2.28-.66-2.9,4.27-3.73,13.25-.91,18a6,6,0,0,0,.56,1.23c1.46,2.89,3.57,4.08,6.79,4.16a19.41,19.41,0,0,0,10.91-3.52C108.92,89.87,110,88.84,108.5,87.25Z" style="fill:#ffa348"/><path d="M114.86,123.28c-6.2-7.89-16.45-8.8-23.88-2.37,0,0,0,0,0,0-4.82,4-3.75,17.65,1.76,24.87,5.82,7.63,15.13,6.27,21-.42C118.85,139.61,119.74,129.51,114.86,123.28Z" style="fill:#ffa348"/><path d="M91.67,207.14a53.64,53.64,0,0,0-3.53,12.18q-.52,2.9-.91,5.81a44.67,44.67,0,0,1-1,6.42c-1,3.69-3.43,6.72-4.92,10.22-1.61,3.77-2.12,8-2.79,12a.42.42,0,0,0,.81.22c1.14-3.91,1.09-8.1,2.79-11.86,1.55-3.45,3.86-6.45,5-10.11,1.22-3.91,1.61-8.07,2.34-12.09a60.7,60.7,0,0,1,3.44-12.26c.28-.69-.92-1.2-1.22-.51Z" style="fill:#2a9cc8"/><path d="M101,124.84a1.47,1.47,0,1,1-1.47-1.6A1.54,1.54,0,0,1,101,124.84Z" style="fill:#414355"/><path d="M111.7,125.9a1.47,1.47,0,1,1-1.46-1.59A1.53,1.53,0,0,1,111.7,125.9Z" style="fill:#414355"/></svg>