<svg id="Layer_3" data-name="Layer 3" xmlns="http://www.w3.org/2000/svg" viewBox="0 0 616.88 487.85"><defs><style>.cls-1{fill:#ffa348;}.cls-2{fill:#dcdde0;}.cls-3{fill:#2a9cc8;}.cls-4{fill:#fcc18b;}.cls-5{fill:#858fa9;}.cls-6,.cls-9{fill:none;stroke-miterlimit:10;}.cls-6{stroke:#2a9cc8;stroke-width:1.42px;}.cls-7{fill:#414355;}.cls-8{fill:#f8f8fa;}.cls-9{stroke:#414355;}.cls-10{font-size:8px;font-family:Lato-Thin, Lato;font-weight:200;opacity:0.5;}.cls-11{letter-spacing:-0.01em;}.cls-12{letter-spacing:-0.01em;}.cls-13{letter-spacing:-0.03em;}.cls-14{letter-spacing:-0.01em;}</style></defs><title>5illus-espace-docu</title><path class="cls-1" d="M327.67,321c-3.86.18-7.68.64-11.5,1.12-1.28.16-1.28,2.19,0,2,3.82-.51,7.64-1,11.5-1.21,1.23-.07,1.24-2,0-1.92Z" transform="translate(-137.74 -42)"/><path class="cls-1" d="M374.5,352.08a1.08,1.08,0,0,0,0-2.16,1.08,1.08,0,0,0,0,2.16Z" transform="translate(-137.74 -42)"/><path class="cls-1" d="M373.24,350.33c.05-.4-.05,0-.08.08a2,2,0,0,0,0,1,1.39,1.39,0,0,0,2.52.33,4.34,4.34,0,0,0,.41-1.37,1.44,1.44,0,0,0-1.43-1.43,1.46,1.46,0,0,0-1.43,1.43Z" transform="translate(-137.74 -42)"/><path class="cls-2" d="M471.08,244.67c3.17.13,6.15.32,9.32.46,7.55.34,15.13,1,22.7.63s15.12.22,22.62-.41c5.81-.49,11.74,0,17.38-1.82A5,5,0,0,0,546,241.9c-1.57-1.57-11.49-2.65-18.41-2.9-7.15-.26-14.44-.89-21.61-.87-13.16,0-28.22-.55-40.7,2.74-.81.21-2.95.81-3.15,1.88S468.51,244.56,471.08,244.67Z" transform="translate(-137.74 -42)"/><path class="cls-1" d="M506.17,268.33c.16-1.83,1.64-5.14,4.08-6.39a17.1,17.1,0,0,1,11.62-1.07c2.29.85,4.21,2.53,6.53,3.38,2.54.93,5.77.18,8.24-.45-.66,1.23-2.08,2.19-2,3.7s1.59,2.15,2,3.35a52.91,52.91,0,0,1-6.23-.47,24.22,24.22,0,0,0-6.88.84,21.69,21.69,0,0,1-12.33-.22A15.24,15.24,0,0,1,506.17,268.33Z" transform="translate(-137.74 -42)"/><path class="cls-3" d="M500.75,236.5c-2.32-.62-6.58.25-7.67,5.33-.83,2.67.58,7.08-1.16,9.77-1.86,2.88-1.07,5.34-1.08,8.53,0,2.16-1.58,3.75-2.34,5.65a26.16,26.16,0,0,1-.88,3.78c-.81,2.06-1.79,4.72-4.39,4.69-1.7,0-2.34-2-2.74-3.55-.17-.69-.33-1.39-.49-2.09-.5-1.94-1.88-3.2-2.51-5-.5-1.41-.32-3.56-.6-5.28a5.11,5.11,0,0,0-2.64-3.86c-2.17-.83-2.55,1.64-2.65,4,.4,3,2,5.46,1.79,8.63-.25,3.73,1.07,5.5,2.71,8.56,1.79,3.34.32,6.71,1.27,11.36a31.56,31.56,0,0,0,4,8.56,6.5,6.5,0,0,0,3.84.28c2-3.8,4.19-7.6,5-11.71.51-2.66.51-5.25,1.59-7.76.9-2.08,2.11-4,3-6.09,1.25-2.94.61-6.17,1.77-9,.73-1.78,2.11-3.08,2.87-4.78,1.45-3.22.14-6.77,1.54-9.94.83-1.9,2.48-4.3,2.46-6.62A3.28,3.28,0,0,0,500.75,236.5Z" transform="translate(-137.74 -42)"/><path class="cls-2" d="M488.58,245.39c10.5.24,21.49,1,31.92-.2a.53.53,0,0,0,0-1.05c-10.59-.63-21.31-.56-31.92-.53a.89.89,0,0,0,0,1.78Z" transform="translate(-137.74 -42)"/><path class="cls-4" d="M484.6,227.05c-5.15-.05-8.18.28-12.94,2.43-5.4,2.45-8.47,6.86-10.75,12.2-4.38,10.29-5.36,21.75-4.06,32.72A25.53,25.53,0,0,0,474,295.57a107.34,107.34,0,0,0,30.57,4.84c9.61.25,19.6-1.8,28.77-4.39,10.12-2.87,16.78-11,18.63-21.29,2-11,.07-22.43-3.67-32.88s-13.19-15.88-24-15.08a1,1,0,0,0,0,2c1.84.14,3.66.18,5.5.19,2,0,6.07,2.12,7.87,2.94,5.88,2.71,8.42,9.81,10.1,15.54a62.62,62.62,0,0,1,2,28.51c-.88,5.24-3.88,9.16-7.24,13-3.61,4.18-8.95,4.79-13.83,6.53-3.84,1.37-8.35,1.54-12.36,2.13a79.52,79.52,0,0,1-11.42,1c-8,0-15.71-1.33-23.51-2.71-10.66-1.9-18.69-7.89-22.14-18.32-3-9-1.13-19.8,1.08-28.65,1.57-6.31,4-12.63,9.35-16.67,4.27-3.2,9.81-3.76,14.91-3.78a.71.71,0,0,0,0-1.41Z" transform="translate(-137.74 -42)"/><path class="cls-5" d="M280,138.68c132.79,1.13,265.61.32,398.4.31,20.53,0,41.07.07,61.6-.42a.57.57,0,0,0,0-1.14c-66.23-1.58-132.61-.45-198.85-.43q-99.7,0-199.41.08c-20.58,0-41.16.07-61.74.24a.68.68,0,0,0,0,1.36Z" transform="translate(-137.74 -42)"/><path class="cls-5" d="M283,216.68c55.27.74,110.56.29,165.83.32,42.34,0,84.87,1.15,127.17-.43a.57.57,0,0,0,0-1.14c-28.11-1.05-56.32-.42-84.44-.43H431.91l-80,0c-23,0-45.95,0-68.92.27a.68.68,0,0,0,0,1.36Z" transform="translate(-137.74 -42)"/><path class="cls-5" d="M283,216.68c132.79,1.13,265.61.32,398.4.31,20.53,0,41.07.07,61.6-.42a.57.57,0,0,0,0-1.14c-66.23-1.58-132.61-.45-198.85-.43q-99.7,0-199.41.08c-20.58,0-41.16.07-61.74.24a.68.68,0,0,0,0,1.36Z" transform="translate(-137.74 -42)"/><path class="cls-5" d="M284,306.68c132.79,1.13,265.61.32,398.4.31,20.53,0,41.07.07,61.6-.42a.57.57,0,0,0,0-1.14c-66.23-1.58-132.61-.45-198.85-.43q-99.7,0-199.41.08c-20.58,0-41.16.07-61.74.24a.68.68,0,0,0,0,1.36Z" transform="translate(-137.74 -42)"/><path class="cls-6" d="M644.33,111c-.48,2-2.53,5-3.26,7.41a38.85,38.85,0,0,0-1.74,11.25c0,9.61,3.57,18,5.32,27.34,2.8,15-6.28,26.93-6.32,41.66a58.8,58.8,0,0,0,1.33,10.27c1,5.47,4.45,12.84,2.34,18.4" transform="translate(-137.74 -42)"/><path class="cls-1" d="M688.69,93.44c-.49-.59-1.88-.5-1.88-.5l-46.75.31s-1.56-.25-2.14.58a2.49,2.49,0,0,0-.39,1.83l8,35.33a5.79,5.79,0,0,0,.54,1.76c.34.33,1.75.25,1.75.25h30.34a5,5,0,0,0,1.66-.33c.5-.34.67-1.84.67-1.84l8.28-35.47S689.1,93.94,688.69,93.44Z" transform="translate(-137.74 -42)"/><path class="cls-3" d="M626.17,150.83c.91,3.43,8.92,13.92,12.3,7.84,3.86-7-8.25-7.84-12.3-7.84" transform="translate(-137.74 -42)"/><path class="cls-3" d="M656.17,177.83c.91,3.43,8.92,13.92,12.3,7.84,3.86-7-8.25-7.84-12.3-7.84" transform="translate(-137.74 -42)"/><path class="cls-3" d="M664.37,122.89c-1.72,2.91-11.21,10.48-12.22,4.06-1.15-7.34,8.93-5.08,12.22-4.06" transform="translate(-137.74 -42)"/><path class="cls-3" d="M659.73,166c-2.17,2.58-12.77,8.49-12.71,2,.07-7.43,9.64-3.55,12.71-2" transform="translate(-137.74 -42)"/><path class="cls-3" d="M623.89,195.58c-1.36,2.82-9.77,10.55-11.45,4.72-1.93-6.67,8.14-5.4,11.45-4.72" transform="translate(-137.74 -42)"/><path class="cls-3" d="M625.69,207.75c-1.15,2.32-8.43,8.65-10,3.8-1.74-5.54,7-4.4,10-3.8" transform="translate(-137.74 -42)"/><path class="cls-3" d="M640.49,186.41c-2,2.89-13.2,9.94-14.25,3.06-1.2-7.86,10.46-4.47,14.25-3.06" transform="translate(-137.74 -42)"/><path class="cls-3" d="M700.44,133.93c-.4,3.53-6.8,15.07-11,9.55-4.83-6.32,7-9,11-9.55" transform="translate(-137.74 -42)"/><path class="cls-3" d="M704.17,202.08c.49,2.55,4.82,10.33,6.64,5.82,2.09-5.16-4.45-5.82-6.64-5.82" transform="translate(-137.74 -42)"/><path class="cls-3" d="M642.92,226.09c0,1.95-2.27,9-4.66,6.52-2.73-2.79,2.77-5.7,4.66-6.52" transform="translate(-137.74 -42)"/><path class="cls-3" d="M622.83,220.67c-.5,2.39-5.61,9.88-8.15,5.83-2.9-4.63,5.37-5.68,8.15-5.83" transform="translate(-137.74 -42)"/><path class="cls-3" d="M705.17,156.83c.91,3.43,8.92,13.92,12.3,7.84,3.86-7-8.25-7.84-12.3-7.84" transform="translate(-137.74 -42)"/><path class="cls-3" d="M644.89,164.5a51.38,51.38,0,0,0-7.84.33c-2.28.34-6,3.14-4.8,6,2.3,5.34,11.18-6.46,13.14-6.33" transform="translate(-137.74 -42)"/><path class="cls-3" d="M653.89,201.5a51.38,51.38,0,0,0-7.84.33c-2.28.34-6,3.14-4.8,6,2.3,5.34,11.18-6.46,13.14-6.33" transform="translate(-137.74 -42)"/><path class="cls-3" d="M658.89,233.5a51.38,51.38,0,0,0-7.84.33c-2.28.34-6,3.14-4.8,6,2.3,5.34,11.18-6.46,13.14-6.33" transform="translate(-137.74 -42)"/><path class="cls-3" d="M657.89,249.5a51.38,51.38,0,0,0-7.84.33c-2.28.34-6,3.14-4.8,6,2.3,5.34,11.18-6.46,13.14-6.33" transform="translate(-137.74 -42)"/><path class="cls-3" d="M698.84,114.19a51,51,0,0,0-7.55,2.11c-2.15.85-5.16,4.43-3.31,6.94,3.46,4.67,9.42-8.84,11.35-9.17" transform="translate(-137.74 -42)"/><path class="cls-3" d="M627.27,142.83a44.92,44.92,0,0,0-7,.31c-2.06.3-5.45,2.86-4.33,5.48,2.07,4.87,10.07-5.91,11.83-5.79" transform="translate(-137.74 -42)"/><path class="cls-3" d="M620.27,162.83a44.92,44.92,0,0,0-7,.31c-2.06.3-5.45,2.86-4.33,5.48,2.07,4.87,10.07-5.91,11.83-5.79" transform="translate(-137.74 -42)"/><path class="cls-3" d="M619.27,180.83a44.92,44.92,0,0,0-7,.31c-2.06.3-5.45,2.86-4.33,5.48,2.07,4.87,10.07-5.91,11.83-5.79" transform="translate(-137.74 -42)"/><path class="cls-3" d="M664.89,149.5a51.38,51.38,0,0,0-7.84.33c-2.28.34-6,3.14-4.8,6,2.3,5.34,11.18-6.46,13.14-6.33" transform="translate(-137.74 -42)"/><path class="cls-3" d="M653.89,189.5a51.38,51.38,0,0,0-7.84.33c-2.28.34-6,3.14-4.8,6,2.3,5.34,11.18-6.46,13.14-6.33" transform="translate(-137.74 -42)"/><path class="cls-3" d="M638,201.34a40.82,40.82,0,0,0-6.1,1.85c-1.73.72-4.13,3.69-2.57,5.7,2.89,3.73,7.5-7.35,9.07-7.65" transform="translate(-137.74 -42)"/><path class="cls-3" d="M642,219.34a40.82,40.82,0,0,0-6.1,1.85c-1.73.72-4.13,3.69-2.57,5.7,2.89,3.73,7.5-7.35,9.07-7.65" transform="translate(-137.74 -42)"/><path class="cls-3" d="M628.15,126.77a27.36,27.36,0,0,0-5.19-.37c-1.54.09-4.29,2-3.76,4.42,1,4.45,8-4.27,9.28-4" transform="translate(-137.74 -42)"/><path class="cls-3" d="M705.15,199.77a27.36,27.36,0,0,0-5.19-.37c-1.54.09-4.29,2-3.76,4.42,1,4.45,8-4.27,9.28-4" transform="translate(-137.74 -42)"/><path class="cls-3" d="M707.89,185.5a51.38,51.38,0,0,0-7.84.33c-2.28.34-6,3.14-4.8,6,2.3,5.34,11.18-6.46,13.14-6.33" transform="translate(-137.74 -42)"/><path class="cls-3" d="M661.82,111.93a33.42,33.42,0,0,1,6.08.18c1.78.27,4.75,2.77,3.84,5.41-1.68,4.9-8.8-5.73-10.31-5.58" transform="translate(-137.74 -42)"/><path class="cls-3" d="M656,256.7a32.79,32.79,0,0,1,5.78,1.88c1.64.76,3.78,4,2.17,6.27-3,4.24-6.83-8-8.33-8.26" transform="translate(-137.74 -42)"/><path class="cls-3" d="M707.89,193.83a33.46,33.46,0,0,1,6.08.31c1.77.3,4.68,2.86,3.73,5.48-1.79,4.87-8.68-5.9-10.2-5.79" transform="translate(-137.74 -42)"/><path class="cls-3" d="M659.5,243.5a51.19,51.19,0,0,1,7.83.33c2.29.34,6,3.14,4.81,6-2.3,5.34-11.18-6.46-13.14-6.33" transform="translate(-137.74 -42)"/><path class="cls-3" d="M627.89,115.31a34.57,34.57,0,0,1,5.24,1.64c1.49.65,3.51,3.31,2.13,5.12-2.56,3.36-6.36-6.59-7.71-6.85" transform="translate(-137.74 -42)"/><path class="cls-3" d="M625.68,212.72a34.74,34.74,0,0,1,4.84,2.61c1.33.92,2.81,3.91,1.12,5.42-3.15,2.82-5-7.67-6.28-8.18" transform="translate(-137.74 -42)"/><path class="cls-3" d="M642.71,223.48a32.78,32.78,0,0,1,5.32,1.39c1.51.58,3.66,3.14,2.37,5-2.4,3.48-6.67-6.28-8-6.48" transform="translate(-137.74 -42)"/><path class="cls-3" d="M640.5,211.5a51.19,51.19,0,0,1,7.83.33c2.29.34,6,3.14,4.81,6-2.3,5.34-11.18-6.46-13.14-6.33" transform="translate(-137.74 -42)"/><path class="cls-3" d="M698.62,123.11a50.34,50.34,0,0,1,7.52,2.23c2.14.88,5.1,4.51,3.2,7-3.52,4.61-9.27-9-11.2-9.34" transform="translate(-137.74 -42)"/><path class="cls-3" d="M709.62,141.11a50.34,50.34,0,0,1,7.52,2.23c2.14.88,5.1,4.51,3.2,7-3.52,4.61-9.27-9-11.2-9.34" transform="translate(-137.74 -42)"/><path class="cls-3" d="M643.49,175.2a38.5,38.5,0,0,1,5.71,2.06c1.61.77,3.74,3.71,2.17,5.54-2.93,3.4-6.77-7.35-8.25-7.71" transform="translate(-137.74 -42)"/><path class="cls-3" d="M641.2,141.75a42.52,42.52,0,0,1,6.95.31c2,.31,5.37,2.94,4.27,5.61-2,5-9.93-6-11.67-5.92" transform="translate(-137.74 -42)"/><path class="cls-3" d="M666.5,141.5a51.19,51.19,0,0,1,7.83.33c2.29.34,6,3.14,4.81,6-2.3,5.34-11.18-6.46-13.14-6.33" transform="translate(-137.74 -42)"/><path class="cls-3" d="M706.5,176.5a51.19,51.19,0,0,1,7.83.33c2.29.34,6,3.14,4.81,6-2.3,5.34-11.18-6.46-13.14-6.33" transform="translate(-137.74 -42)"/><path class="cls-3" d="M618.44,170.43c2.34.85,5.85,0,8.52.66,2.86.71,6.73,4.7,3.94,7.8-5.65,6.28-9.61-6.3-12.55-8" transform="translate(-137.74 -42)"/><path class="cls-3" d="M657.38,219.94c2.84,1,7,.08,10.28.9,3.45.87,8.19,5.54,4.87,9.07-6.7,7.15-11.69-7.43-15.25-9.42" transform="translate(-137.74 -42)"/><path class="cls-3" d="M654.38,196.94c2.84,1,7,.08,10.28.9,3.45.87,8.19,5.54,4.87,9.07-6.7,7.15-11.69-7.43-15.25-9.42" transform="translate(-137.74 -42)"/><path class="cls-3" d="M662.38,158.94c2.84,1,7,.08,10.28.9,3.45.87,8.19,5.54,4.87,9.07-6.7,7.15-11.69-7.43-15.25-9.42" transform="translate(-137.74 -42)"/><path class="cls-3" d="M708.13,149c-2.94.66-7-.77-10.32-.35-3.53.45-8.79,4.51-5.93,8.42,5.79,7.9,12.5-6,16.28-7.51" transform="translate(-137.74 -42)"/><path class="cls-3" d="M702.75,166.75c-2.44,1.77-6.74,2.06-9.62,3.75-3.06,1.81-6.3,7.61-2.12,10.07,8.44,5,9.13-10.41,12-13.32" transform="translate(-137.74 -42)"/><path class="cls-6" d="M675.25,93c.5-5.12,5.43-4.65,10.08-3.92,6.86,1.06,10.54,8,12.08,14.18,1.74,7,.92,14.1.92,21.43,0,2.81-.49,5.74,1,8.11,2,3.26,6.31,2.22,8.44,5.2,5.07,7.09-5,19.42-5.1,26.63-.07,4.67,2.42,8.42,3.91,12.71,1.39,4,2.48,8,2.11,12.24-.38,4.57-3.55,8.27-4,12.75" transform="translate(-137.74 -42)"/><path class="cls-6" d="M669.13,93.13c.12-6.38-7.38-13.13-10.25-2.75-1.78,6.39.37,12.09,1.86,18.43,2.42,10.28,4.94,20.89,4.93,31.53a61.15,61.15,0,0,1-4.41,22c-5.83,15.54-9.26,30.79-5.94,47.43,1.27,6.32,2.39,12.41,3.27,18.89,1.19,8.74.44,20.56-2.59,28.68" transform="translate(-137.74 -42)"/><path class="cls-6" d="M652.38,93.13c-.11-4.8-8.6-5.61-12.63-5.25-4.25.37-9.87,3.37-11.62,13.12-2.85,15.83,3.48,29.23-1,45.12-1.73,6.09-5.06,11.62-7.09,17.53-2.78,8.1-1.54,15.65,1.27,23.61,2.32,6.56,4.18,12.18,4.41,19.31.2,6.45-1.26,10-4,15.43" transform="translate(-137.74 -42)"/><rect class="cls-4" x="470.26" y="190" width="21" height="69"/><rect class="cls-4" x="520.26" y="238" width="60" height="21"/><rect class="cls-4" x="444.26" y="190" width="21" height="69"/><rect class="cls-1" x="417.26" y="198" width="21" height="61"/><rect class="cls-1" x="175.26" y="274" width="21" height="66"/><rect class="cls-1" x="325.53" y="257.68" width="62.82" height="21" transform="translate(-170.47 444.08) rotate(-66.13)"/><rect class="cls-4" x="262.64" y="340.38" width="59.1" height="21" transform="translate(-292.18 403.8) rotate(-62.21)"/><rect class="cls-1" x="387.26" y="274" width="21" height="66"/><rect class="cls-1" x="361.26" y="274" width="21" height="66"/><rect class="cls-1" x="335.26" y="274" width="21" height="66"/><rect class="cls-1" x="292.26" y="182" width="21" height="77"/><rect class="cls-4" x="266.26" y="190" width="21" height="69"/><rect class="cls-1" x="240.26" y="191" width="21" height="68"/><rect class="cls-1" x="242.26" width="21" height="91"/><rect class="cls-1" x="412.26" y="102" width="21" height="67"/><rect class="cls-1" x="386.26" y="102" width="21" height="67"/><rect class="cls-1" x="360.26" y="107" width="21" height="62"/><rect class="cls-1" x="334.26" y="107" width="21" height="62"/><rect class="cls-1" x="308.26" y="114" width="21" height="55"/><rect class="cls-1" x="450.26" y="1" width="21" height="90"/><rect class="cls-1" x="424.26" y="1" width="21" height="90"/><rect class="cls-1" x="398.26" y="16" width="21" height="75"/><rect class="cls-1" x="372.26" y="15" width="21" height="76"/><rect class="cls-1" x="346.26" y="35" width="21" height="56"/><rect class="cls-4" x="320.26" y="18" width="21" height="73"/><rect class="cls-1" x="294.26" y="4" width="21" height="87"/><rect class="cls-4" x="331" y="58" width="21" height="73" transform="translate(-150.57 50.37) rotate(-15.12)"/><rect class="cls-4" x="268.26" y="18" width="21" height="73"/><rect class="cls-3" x="202.26" y="271" width="128" height="69"/><path class="cls-5" d="M388.5,321.83h3.33a1.5,1.5,0,0,0,0-3H388.5a1.5,1.5,0,0,0,0,3Z" transform="translate(-137.74 -42)"/><path class="cls-5" d="M379.5,321.83h3.33a1.5,1.5,0,0,0,0-3H379.5a1.5,1.5,0,0,0,0,3Z" transform="translate(-137.74 -42)"/><path class="cls-5" d="M439.5,321.83c1,0,2,.14,3,.17,1.94.05,1.93-2.95,0-3-1,0-2-.17-3-.17a1.5,1.5,0,0,0,0,3Z" transform="translate(-137.74 -42)"/><path class="cls-5" d="M431.5,321.83c1,0,2,.14,3,.17,1.94.05,1.93-2.95,0-3-1,0-2-.17-3-.17a1.5,1.5,0,0,0,0,3Z" transform="translate(-137.74 -42)"/><path class="cls-5" d="M397.5,321.83c1,0,2,.14,3,.17,1.94.05,1.93-2.95,0-3-1,0-2-.17-3-.17a1.5,1.5,0,0,0,0,3Z" transform="translate(-137.74 -42)"/><path class="cls-5" d="M370.5,321.83c1,0,2,.14,3,.17,1.94.05,1.93-2.95,0-3-1,0-2-.17-3-.17a1.5,1.5,0,0,0,0,3Z" transform="translate(-137.74 -42)"/><path class="cls-5" d="M360.5,321.83c1,0,2,.14,3,.17,1.94.05,1.93-2.95,0-3-1,0-2-.17-3-.17a1.5,1.5,0,0,0,0,3Z" transform="translate(-137.74 -42)"/><path class="cls-1" d="M433.19,338c-3.87-1.32-9.79-.48-12.91,2.31-4.25,3.8-5,8.13-5.18,13.71-.33,9.36,6.06,18.32,16.22,16.88,4-.56,8.94-1.77,12.14-4.42,3.66-3,4.28-9.65,3.62-13.93-1.15-7.46-9.59-18.22-18-14.73-.84.35-.86,1.9.24,1.77,6.93-.85,12,4,14.33,10.17,1.66,4.39,1.82,8.07-.11,12.52-1.33,3.09-5,4.5-8,5.53-8.93,3-16.91-.77-18.31-10.37-.62-4.25-.44-8.91,1.42-12.83,2.19-4.62,9.56-6.55,14.18-5.23a.72.72,0,0,0,.38-1.38Z" transform="translate(-137.74 -42)"/><path class="cls-1" d="M371.05,338.49c-4.12.92-7,4.11-9.13,7.57-3.06,5-1.79,10.43-.07,15.58,3.29,9.8,16,11.11,24.14,7.12,4.16-2,7.24-6.89,8.59-11.16,1.48-4.64-.42-9.37-3-13.22-2.93-4.31-5.68-6.56-10.94-7.32-3.2-.47-6.9-.78-9.72,1.14-.55.37-.42,1.46.37,1.37,5.3-.55,11.12-.57,15.41,3,2,1.65,3.27,4.65,4.35,6.88,2.55,5.29.28,9.82-3,14-5.38,6.77-19,6.15-23.43-1.3a16,16,0,0,1,6.85-22.87c.48-.22.13-.92-.34-.81Z" transform="translate(-137.74 -42)"/><path class="cls-1" d="M376.18,349.07c-.51.3-1.13.22-1.63.53a5.64,5.64,0,0,0-1.43,1.37,3.93,3.93,0,0,0-.72,3.7c.75,2.4,3.74,4,6.1,2.73a4.89,4.89,0,0,0,2.31-6.59,4.08,4.08,0,0,0-3-2.16,3.75,3.75,0,0,0-3.38,1.49.51.51,0,0,0,.62.8,6.46,6.46,0,0,1,1.92-1,2.65,2.65,0,0,1,2.67,1.51c1.18,2-.33,4.19-2.19,4.93-2.17.87-4.39-1.49-4-3.55a4.76,4.76,0,0,1,1.88-2.64,10.2,10.2,0,0,0,1.16-.66c.28-.23-.08-.66-.37-.48Z" transform="translate(-137.74 -42)"/><path class="cls-1" d="M430.18,349.07c-.51.3-1.13.22-1.63.53a5.64,5.64,0,0,0-1.43,1.37,3.93,3.93,0,0,0-.72,3.7c.75,2.4,3.74,4,6.1,2.73a4.89,4.89,0,0,0,2.31-6.59,4.08,4.08,0,0,0-3-2.16,3.75,3.75,0,0,0-3.38,1.49.51.51,0,0,0,.62.8,6.46,6.46,0,0,1,1.92-1,2.65,2.65,0,0,1,2.67,1.51c1.18,2-.33,4.19-2.19,4.93-2.17.87-4.39-1.49-4-3.55a4.76,4.76,0,0,1,1.88-2.64,10.2,10.2,0,0,0,1.16-.66c.28-.23-.08-.66-.37-.48Z" transform="translate(-137.74 -42)"/><path class="cls-4" d="M358,328c2.55-1.06,7.33-.11,10.08-.12q6.5,0,13,0c8.59,0,17.19.11,25.78-.15s17.26-.19,25.87-.05c4.09.07,8.18.21,12.27.25,2.06,0,4.44.51,6.34-.37,1.36-.63.18-2.69-1.18-2-2.39,1.17-7.79.13-10.39.1-4.09,0-8.18-.15-12.27-.17q-12.9,0-25.79.24c-8.76.18-17.55,0-26.31,0q-6.12,0-12.25,0c-1.75,0-4.35-.55-5.91.5-.89.6-.33,2.3.78,1.84Z" transform="translate(-137.74 -42)"/><path class="cls-3" d="M556,346.67c-2.5,7.5-5.36,11.68-8.83,14.34-5.78,4.44-13.55,5.82-20.07,8.73-14.86,6.64-26.09,21.89-29.48,37.75-2.8,13.09-2,28.27,6.63,39,9,11.21,22.69,20.71,36.25,25.5,13.32,4.71,30.68,6.35,44.83,5.67,17-.83,32.21-8.27,48-13.41,36.91-12,62-3,90.91-14.76,41.25-16.75,35-77.58,13.5-108.75-9.29-13.46-21.73-21.54-36.41-27.49a128.56,128.56,0,0,0-18-5.26c-6.19-1.36-10.83-7.69-15.08-12.25C649.9,276.06,613.51,277.53,593,292c-9.64,6.81-17.27,17.41-23.77,27.08C563.47,327.68,558.5,339.17,556,346.67Z" transform="translate(-137.74 -42)"/><path class="cls-7" d="M575.17,435.33c1.07,3.13,1,7,1.79,10.3,1.22,5.17,2.08,10.38,3.58,15.5,2.51,8.57,5.2,16.71,10.62,23.7,4.31,5.57,11.05,9.35,17.21,12.79,5.94,3.31,12.18,6.39,18.3,9.39,2.42,1.18,5,2.11,7.5,3.16a12.72,12.72,0,0,0,3.13,1.2c1.23.14,1.13.14,2-1a71.26,71.26,0,0,0,4.95-6.84c1.38-2.31,2.46-5.27,4.4-7.16-.81-.88-2.6-1.37-3.69-2l-4.29-2.52c-2.79-1.63-5.73-3.22-8.59-4.8-6.45-3.58-12.91-7.42-18.09-12.67-5.41-5.5-6.21-15.79-7.49-23-.51-2.85-1.83-6.86.84-8.74s5.94-2.6,8.87-4.13a129.4,129.4,0,0,0,12.08-7.33c10.67-7.79,14.3-14,15.63-15.14,2.73,7.71,4.7,15.94,7.84,23.67,1.45,3.59,3.26,7.14,4.5,10.81a32.28,32.28,0,0,1,1,4.5c.25,1.34,0,3.21.5,4.42a20.64,20.64,0,0,1,8.7-6.56c1.83-.58,3.76-.8,5.65-1.2,1.59-.34,3.11-.38,3.07-1.17-.06-1.26-.25-3.37-1.92-11.73A73.88,73.88,0,0,0,670,426c-2.89-7.37-5.21-14.93-8.08-22.33-2.09-5.38-5.71-11.42-10.71-12.17a18.76,18.76,0,0,0-8.08.54A41.71,41.71,0,0,0,634.3,396a77.16,77.16,0,0,0-14,9.51,40,40,0,0,1-5.12,4.54c-2.4,1.53-5.18,1.61-7.71,3-3,1.68-5.84,4-8.79,5.85-3.37,2.14-6.75,4.41-10,6.76a119.74,119.74,0,0,0-9.92,7.54A23.69,23.69,0,0,1,575.17,435.33Z" transform="translate(-137.74 -42)"/><path class="cls-8" d="M566.33,362c-2.32,1-5.83-.08-11.33,6.75a80.13,80.13,0,0,0-6.33,8.88,64.27,64.27,0,0,0-4.17,8.19,62.88,62.88,0,0,0-4.5,22.62c0,3.23.33,7.06,1.83,9.06a15.94,15.94,0,0,0,8.84,5.66c6.21,1.42,11.71-.63,16.46-5a14.73,14.73,0,0,0,2.2,5.82c1.47,2.39,2.32,4.56,3.67,7,.5.92,1.46,4.38,2.67,4.83,1,.35,5.69-1.53,6.66-2,8-3.83,13.09-6.64,19.17-11.16,3-2.21,6-4.16,8.87-6.5a30.06,30.06,0,0,0,3.63-3.34c.67-.83-.56-2.46-1-3.63-1.2-2.94-2.85-5.68-3.5-8.83-.71-3.46,1.27-5.25,4.17-2.5,2,1.87,2.22,5,4,7.3s1.71.46,6.58-3c2.42-1.74,8.53-5.13,9.63-6.25,4.25-4.38,4.62-8.05,3.12-10.38-2.28-3.55-12.26-1.06-15.61-3.11a61,61,0,0,0-9.89-5c-2.73-1.05-5.58-1.58-8.33-2.52-4.65-1.58-8.27-4.66-12.34-7.29A30,30,0,0,0,578,363a99.13,99.13,0,0,0-11-.95Z" transform="translate(-137.74 -42)"/><path class="cls-4" d="M592.05,334c-.6-.26-1.23-.49-1.88-.71a19,19,0,0,0-9.4-2.8c-4.53-.14-10.59,1-13.95,4.34-.13.12-.24.25-.36.38a14.14,14.14,0,0,0-2.59,2.13c-2.3,2.44-5.89,10.41-3.39,14.05,2.29,9.37,10.57,19.23,20.52,20,10.6.83,19.5-8.62,19.49-19.13,0-.26,0-.52,0-.79C601.28,344.46,599.05,337.05,592.05,334Z" transform="translate(-137.74 -42)"/><path class="cls-7" d="M570.83,315c10.33-1.59,19.15,0,25.41,6.37a33.09,33.09,0,0,1,9.2,18.44c.4,2.78.94,9.69-.44,11.94-.68,1.11-2.14,1.3-3.67,1.42-2.16.16-1.32-7-3.33-9.84-1.5-2.12-10.75-2.17-14.49-2.57-4.23-.44-10.1-3.29-13.38,0a24.36,24.36,0,0,0-3.5,4,20,20,0,0,0-3.38,10c-.12,2.5-7.62-.87-8.37-2-2.53-3.79-2.66-11.08-2-15.37,1-6.31,2-10.38,6-15.75A20,20,0,0,1,570.83,315Z" transform="translate(-137.74 -42)"/><polygon class="cls-4" points="492.51 351.75 495.37 307.59 475.9 317.75 475.64 364.75 492.51 351.75"/><polygon class="cls-1" points="475.97 317.71 440.76 315.25 443.26 365.75 475.76 364.67 475.97 317.71"/><path class="cls-4" d="M574.67,387.83c-2.34,2.84-2.86,4.5-2.92,5.42-.16,2.18,3.51,8.82,4.52,9.44a2.7,2.7,0,0,0,1.9.12,29.32,29.32,0,0,0,4.25-.75c2.48-.74,8.24-3.37,8.5-4.06a2.11,2.11,0,0,0-.44-1.74c-.75-.82-2.74-.82-3.63-.27a25,25,0,0,1,2.82-1.57c.86-.46,2.84-1.13,3.23-2.11.63-1.6-.4-2.13-1.73-2.31a12.32,12.32,0,0,0-4.34.42c-1.31.4-2.77.56-4.08.91.48-.32,1.17-.49,1.67-.83,1.16-.8,2.49-1.4,3.66-2.17s2.73-1.5,3.4-2.5c1.07-1.59-.85-2.08-2.23-2.08s-2.56.85-3.8.92a7.26,7.26,0,0,1,1.46-1.52c.62-.49,2-1,2.24-1.75.56-2-2.36-2.06-3.48-1.8a16.3,16.3,0,0,0-6.9,4.07,41.25,41.25,0,0,0-3.34,3.27Z" transform="translate(-137.74 -42)"/><path class="cls-7" d="M572.84,390.09c3.52-3.74,7-8.24,12.08-9.93.47-.15,4.42-.83,3.67.84-.38.84-1.91,1.39-2.67,1.78-2.36,1.19-5.08,2.27-6.87,4.27a.64.64,0,0,0,.77,1c1.81-.79,3.59-1.64,5.4-2.45a21.24,21.24,0,0,1,3.41-1.21c1-.26,3.46.06,2,1.38-2.9,2.59-7.07,3.35-10.1,5.74-.49.38-.08,1.21.49,1.19,3.59-.13,7.22-2.91,10.86-2.07,1.85.43.72,2.12-.18,2.66a22.41,22.41,0,0,1-3.5,1.57c-2,.79-4.16,1.46-6.25,2.15a.25.25,0,0,0,.14.48c1.68-.31,3.31-.91,5-1.24.9-.18,4.5-.71,3.54,1.56-.33.79-1.42,1.26-2.12,1.62-3.68,1.9-7.93,2.57-11.89,3.67a.24.24,0,0,0,.13.47c2.54-.55,5.06-1.17,7.55-1.92,2.18-.65,4.78-1.41,6.45-3a1.71,1.71,0,0,0-.58-2.84c-2-.87-5.07.42-7,1l-.7.18c-.43,0-.4.16.07.43l2.17-.71c1.79-.6,3.57-1.23,5.31-2,1.39-.58,3.43-1.25,3.49-3s-2.28-2-3.57-1.95c-3,.19-5.88,1.46-8.93,1.58.16.4.33.8.49,1.19,2-1.6,4.66-2.57,6.87-3.89,1-.59,3.94-2.05,3.66-3.62-.75-4.2-10.63,1.68-12.52,1.88l.32,1.19c2.9-1.9,6.2-3.49,8.92-5.64,1.59-1.26,1-3.09-.91-3.45-2.87-.55-5.73,1.71-7.81,3.33a38.44,38.44,0,0,0-7.38,7.64c-.09.12.1.27.2.16Z" transform="translate(-137.74 -42)"/><path class="cls-4" d="M628.69,372.25a25.9,25.9,0,0,1,5.37,3.19c2.94,2.62,3.82,4.17,3.85,7.23,0,2.39.34,5.58-2.83,7.64a5.25,5.25,0,0,1-3.66.69c-1.58-.53-1-1.82-1.17-3-1,.7-2.87,1.25-3.9.56-1.37-.91-.29-2.62,1.09-3.12-1.3.43-3.06-.07-3.19-1.52-.17-1.75,1.26-2,2.54-2.42-1.62,0-3.6-.5-3.37-2.33s2.41-2.44,3.89-2.5c-1.23-.19-2.71-1.52-2.4-2.92.24-1.08.47-1.62,2.09-1.75Z" transform="translate(-137.74 -42)"/><path class="cls-7" d="M635.59,376.66c-1.7-1.83-8-6.76-10.56-4.15-3.33,3.41,4.23,5.74,6.52,6.2.07-.48.13-1,.2-1.45-2.34-.17-7.22-1.94-8.68.8-2.16,4.05,5.86,4.11,7.68,3.92l-.63-1.1c.14-.3-1.25,0-1.62.09a14.48,14.48,0,0,0-3.12.68,2.19,2.19,0,0,0-1.48,2.56c.77,2.88,5.49.93,7.26.33,0-.19-.1-.39-.16-.58-1.2.45-7.47,2-5.5,4.44,1.72,2.15,6.58-.7,8.2-1.86a.24.24,0,0,0-.24-.41,25.8,25.8,0,0,1-5.53,2.32c-.54.12-3.37.24-1.76-1.71a4.72,4.72,0,0,1,1.56-1c1.09-.53,2.29-.81,3.43-1.23.36-.13.21-.7-.16-.58-1,.32-1.92.63-2.9.86a8.41,8.41,0,0,1-2.12.24c-1,0-1.44-.62-1.31-1.95a2.45,2.45,0,0,1,1.33-.8c1.27-.41,4.55.47,5.38-.69.35-.49-.13-1.06-.63-1.1-1.38-.11-2.77.08-4.16.05-.79,0-2.25,0-2.63-.95s.29-1.62,1.16-1.83c2-.49,4.49.34,6.43.92.79.24,1.35-1,.57-1.35-1-.43-2.06-.67-3.08-1s-6.48-2.5-2.83-3.94c2.75-1.09,7.28,2.79,9.2,4.42.12.1.29-.06.18-.18Z" transform="translate(-137.74 -42)"/><path class="cls-7" d="M563.48,377.89c1,5-5.55,12.56-7.71,16.8-1,2-3.08,6.76-1.36,8.9,1.93,2.39,5.24,1.76,7.38-.25,4.08-3.83,6.72-8.86,10.79-12.76.32-.3,0-1-.45-.78-3.06,1.25-4.83,4.19-7.07,6.51-1.35,1.41-2.51,3-3.91,4.34-6.3,6.15-3.1-3.2-2.61-4.34,1.53-3.6,3.46-6.74,4.64-10.49.84-2.65,2.46-5.47,1.34-8.21a.54.54,0,0,0-1,.28Z" transform="translate(-137.74 -42)"/><path class="cls-7" d="M571.79,389.54c-2.62,2-1.18,6.53-.07,9,1.24,2.71,3,6.53,6.28,6.94a.94.94,0,0,0,.81-1.41c-1.41-1.85-3.15-3.65-3.74-6-.41-1.6-1.28-3-1.47-4.63-.12-1.05,0-2.14-.09-3.19a1,1,0,0,0-1.72-.71Z" transform="translate(-137.74 -42)"/><path class="cls-1" d="M639.33,509.33c3.13,1.67,3.67,3.26,3.33,6.67a48,48,0,0,0-.33,8.5c.18,2.09,2.26,5.4,4.84,3.8,2.27-1.41,4.41-4.85,5.46-7.17,1.2-2.71,1.84-5.78,3-8.46,1.12-2.49,2.67-5.71,2.51-8.5-.19-3.32-3.21-3.54-5.84-4.33-2.26-.68-6.64-2.09-8.62-.46-1.5,1.22-2.53,4-3,5.8-.34,1.29-.45,3.2-1.21,4.15" transform="translate(-137.74 -42)"/><path class="cls-1" d="M659,455.5c-.22,1.94-.84,5,.16,6.75,1.09,2,3.4,2.28,5.47,2.38,4.79.22,9.68.3,14.46.77,4,.4,9.49,1,12.25-2.55,2.95-3.83.07-7.38-4.09-8.1-1.91-.33-3.87-.41-5.75-.88-1.51-.37-4-.55-5.25-1.56-.69-.56-1.5-1.19-2.19-1.81-1.83-1.67-4-1-6.18-.41-2.64.68-8.62,5-8.63,5.35Z" transform="translate(-137.74 -42)"/><path class="cls-7" d="M637.38,509c1.7.84,3.61,1.42,4.22,3.64.67,2.45,0,5.33-.07,7.82-.11,2.22-.45,6.29,1.36,8.11,3.73,3.73,8-1.87,10-4.68,2.57-3.57,3.57-8.12,5-12.19.93-2.63,3.5-6.48,1.84-9.32-2.45-4.19-12.09-4.64-16.25-5.95a.94.94,0,0,0-.72,1.71c3.78,2.07,8.28,2.21,12.28,3.7,5.14,1.9,1,7.26-.42,10.65-1.72,4.09-2.58,8.28-5.38,11.89-1.27,1.63-4.65,5.09-6,1.38-1.14-3-.07-7.64,0-10.86.11-4-2-5.72-5.5-6.78-.51-.15-.86.64-.37.88Z" transform="translate(-137.74 -42)"/><path class="cls-7" d="M674.23,450.21c1.93,3.42,5.61,3.58,9.18,4.14,3.2.51,6.51.87,8.46,3.8,1.56,2.34-.87,4.82-2.69,5.92a12,12,0,0,1-5.32,1.19c-3,.05-6.12-.53-9.15-.71-2.72-.17-5.5-.23-8.21-.62-2.55-.36-5.89.59-7.11-2.46-.31-.77.06-2.18.12-3,.08-1.33.15-2.67.17-4a.85.85,0,0,0-1.69,0c0,2.38-.66,5.07-.21,7.41.51,2.67,3.27,3.34,5.55,3.54,3.22.27,6.6.5,9.84.47,4.08,0,8.25,1.1,12.33.59,5.4-.66,11.18-6,5.59-10.66-2-1.7-5.67-1.8-8.19-2.15-1.34-.19-2.66-.43-4-.74-2.17-.53-3-1.45-4.42-3a.17.17,0,0,0-.27.21Z" transform="translate(-137.74 -42)"/><path class="cls-9" d="M642.25,521.75a4.82,4.82,0,0,1,4-3c.92-.15,1.89.1,2.69-.37,1.37-.82,5.44-11.88,6.69-18" transform="translate(-137.74 -42)"/><path class="cls-9" d="M690.17,455.75c-5.5.42-4.77,5.71-6,6.38-.93.51-3.13.26-4.15.21-4.34-.21-7.93-.55-12.27-1.09-3-.37-6.08-.67-9.08-1.08" transform="translate(-137.74 -42)"/><path class="cls-9" d="M678.17,453.33c-2.42.67-3.42,1.25-4.67,3.3" transform="translate(-137.74 -42)"/><path class="cls-9" d="M675.17,452.33c-2.42.67-3.42,1.25-4.67,3.3" transform="translate(-137.74 -42)"/><path class="cls-9" d="M681.17,453.92a7.23,7.23,0,0,0-4.5,3.25" transform="translate(-137.74 -42)"/><path class="cls-9" d="M642.67,513.5a8.12,8.12,0,0,1,1.79-3.2c.72-.73,2.87-1.72,3.67-.42" transform="translate(-137.74 -42)"/><path class="cls-9" d="M641.67,511.5a8.12,8.12,0,0,1,1.79-3.2c.72-.73,2.87-1.72,3.67-.42" transform="translate(-137.74 -42)"/><path class="cls-9" d="M640.67,509.5a8.12,8.12,0,0,1,1.79-3.2c.72-.73,2.87-1.72,3.67-.42" transform="translate(-137.74 -42)"/><ellipse class="cls-7" cx="438.51" cy="307.38" rx="2" ry="2.13"/><ellipse class="cls-7" cx="453.51" cy="309.38" rx="2" ry="2.13"/><path class="cls-4" d="M256.79,393.79c-2-2.21-4-2.72-6.82-3.29-1.9-.38-3.8-.74-5.7-1.14-3.82-.82-5-3.81-6.64-6.9-.45-.83-6.53,1.27-9,1.5-1.14.11-3.72.46-3.87.91-1.11,3.27-.36,6.74-.51,10.13-.13,2.85-.31,3.73,2.78,4.37a100,100,0,0,0,19.76,1.94c3,0,6.26.25,8.65-2C256.88,398,258.51,395.68,256.79,393.79Z" transform="translate(-137.74 -42)"/><path class="cls-4" d="M152.31,332.68c-2.83,1.5-6.42,1.43-9.36,2.8-1.89.88-2.22,4-2.56,5.78-1.56,8.12-4.55,16.92-.95,25,2.37,5.31,7.76-3,8.73-4.78,3.88-7.3,4.69-16.62,14.64-18.15C163.66,343.16,152.67,332.5,152.31,332.68Z" transform="translate(-137.74 -42)"/><path class="cls-7" d="M233.13,254.63a65.82,65.82,0,0,1,15,.7c5.82.85,10.2.41,16,1.55,4.51.88,8.23-2.52,8.62,2.37.53,6.65-1.1,18.14-2,24.62-1.89,13.45-3.65,27.36-7.76,40.57-4.41,14.19-8.82,28.08-15.91,41.56-2.92,5.56-3.85,12.06-6.74,17.71-2.81,5.49-11.77,2.14-17.26,3.92-.33-5.13,1.58-9.12,3.28-14,4.56-13,7.12-26.73,12.05-39.65a70.63,70.63,0,0,0,4.23-16.13c.76-5.19,1.25-25-.63-24.88-1.62-.37-12.46,19.79-21,28.08-7.67,7.45-19.5,9.7-28.76,13.5a136,136,0,0,1-18.25,6.5c-5.76,1.44-9.39,2.62-14,5.95-1.89-1.63-3.13-5.19-4.75-7.35a23.45,23.45,0,0,0-6.21-5.94c1.55-.6,2.25-1.86,3.54-2.82a46.09,46.09,0,0,1,6-3.33c4.16-2.19,8.13-4.33,12.42-6.26,7.07-3.17,14-5.62,21.31-8.06,5.54-1.86,11.12-3.2,16.33-5.69,5.67-2.7,5.78-8.26,7.27-13.91,1.78-6.75,3.71-13.69,5.65-20.41,1.33-4.57,4.8-14.63,6.55-16.76S233.13,254.63,233.13,254.63Z" transform="translate(-137.74 -42)"/><path class="cls-1" d="M334.07,116.44c-1.49-1.92-3.06-1.92-4.58-1a1.05,1.05,0,0,0-.9.17c-2,1.58-3.5,3.87-5.19,5.77-2.94,3.31-5.81,6.57-8.57,10a101.91,101.91,0,0,1-8.31,8.58c-3.42,3.4-6.16,7.42-9.23,11.12-5.56,6.7-10.93,13.59-15.93,20.73-2.27,3.24-4.48,6.55-6.51,9.95s-3.61,7.59-7,9.9a.4.4,0,0,0-.15.23,6.54,6.54,0,0,1-3.24.67c-2.53-.11-13.45.11-15.54.3-1.27.11-1.74-1.39-2-1.16-5.28,3.89-10.3,6.47-14.83,11.41-5.31,5.76-11,11.09-16.54,16.6-6.24,6.18-11.8,13.05-17.55,19.68-2.18,2.51-4.19,5.68-6.12,8.4-1.8,2.55-4.13,4.68-5.78,7.33-.43.7,3.94,7.21,3.81,7.31-.54.43.16,1.29.73.94,3.22-1.94,5.66-4.61,8.3-7.24,4.46-4.41,8.94-8.81,13.72-12.86,6.3-5.35,13.06-10.64,17.75-17.55A93.38,93.38,0,0,0,228.65,237q-.89,10.92-2,21.81a.9.9,0,0,0,.08.48.8.8,0,0,0,.13.21l.14.09s0,0,.07.05h0l.15.05c3,1.23,6.2.79,9.42.76,5.73-.06,11.28.36,17,.55,3.82.12,7.45-1,11.28-.94,2,0,5.09.59,7.1-.24a1.28,1.28,0,0,0,1.11-.66c1.88-3,.72-8.35.73-11.69,0-5.85.54-11.68.42-17.53-.12-5.48.72-10.78.85-16.22.07-2.91.67-6,.15-8.86,1.87-1.65,3.07-3.86,4.83-5.67a82.83,82.83,0,0,0,7.74-9.85c5.64-8,11.5-15.61,16.89-23.75,5.1-7.71,11.37-14.4,16.52-22,2.73-4.06,5.34-8.2,8.14-12.21,2.49-3.56,4-7.7,6.41-11.36C336.39,119.2,334.5,117,334.07,116.44Z" transform="translate(-137.74 -42)"/><path class="cls-7" d="M250.5,140.67c-3.67,1.66-7.91,11.37-9.29,19.15a29.7,29.7,0,0,0,2.54,17.67,61.94,61.94,0,0,1,2.54,7.39,12.48,12.48,0,0,1,1,3.94c0,.81-1.36,3.78-1.25,4.6a89.26,89.26,0,0,0,10.84-.42c1.74-.11,5.75-.08,6-.5a20.09,20.09,0,0,1,3-4.38c2.57-2.32,5.68-3.81,7.67-6.8a26.59,26.59,0,0,0,3.57-8.49,23,23,0,0,0,.34-9.65c-.53-3-2.55-5.7-2.88-8.68-.23-2.12,3.5-3.83,2.17-6.5-.88-1.77-5.87.79-8-.67-2.68-1.87-4.49-4.78-7.37-6.46C259.41,139.65,254.17,139,250.5,140.67Z" transform="translate(-137.74 -42)"/><path class="cls-7" d="M332.67,119.08c-1.7-1.15-3.58-1.3-5.34-2.16,3.28-4.35,1.49-8.52,2.09-14.92.25-2.67,1.08-4.58,2.66-3.67,1.09.63,1.42,3.38,1.89,4.58.62,1.57.95.8,2-.22,2.67-2.54,5.08-5.75,8.65-7.06,2.78-1,3.49.68,1.85,2.74-1.19,1.5-3.18,3.41-3.73,5.23,1.78.33,8.23-7,9.6-3.22,1.11,3.06-6.59,5.57-7.73,8,1.2.21,2.6-.53,3.72-.94,2.22-.83,4.9-1.7,5.39-.41.83,2.17-4.09,4-4.75,4.28-2.36,1.06-4.14,2.91-6,4.6a13.12,13.12,0,0,1-5.61,3.09c-1,.28-1.82,1.72-2.38,2Z" transform="translate(-137.74 -42)"/><path class="cls-7" d="M189.75,264.17c-2.85,1.63-5.42.88-7.5,1.09-3.55.35-8.39,7.15-12.16,4.19-2.67-2.1-1.09-4.87.49-6.62a26.27,26.27,0,0,1,4.92-4.5c2-1.29,5.26-1.12,7.5-1.71,2.42-.65,2.66-1.81,4.58-3.45-.41,2.42,1.59,7.66,4.84,8.66A8.75,8.75,0,0,1,189.75,264.17Z" transform="translate(-137.74 -42)"/><path class="cls-3" d="M263,143c.56,4.52-3,9.33-1.67,14.67,1.28,5.11,1.16,11.3-1.64,15.77-3.12,5-4.19,6.08-6.69,11.56-1.8,3.93.67,9.33-7.67,14.33-5.51,3.31-16.57,2-23.33-.33s-11.18-5.48-11.75-11.75c-1-11,11-8.11,15.41-19.58,2.77-7.19-2-24.5,17.34-30.34C247.18,136.07,262,135,263,143Z" transform="translate(-137.74 -42)"/><text class="cls-10" transform="translate(268.8 358.8) rotate(-0.5)">©<tspan class="cls-11" x="6.77" y="0">O</tspan><tspan x="12.97" y="0">pen </tspan><tspan class="cls-12" x="28.09" y="0">D</tspan><tspan x="34.07" y="0">igital </tspan><tspan class="cls-13" x="51.97" y="0">E</tspan><tspan x="56.4" y="0">duc</tspan><tspan class="cls-14" x="68.88" y="0">a</tspan><tspan x="72.66" y="0">tion</tspan></text></svg>