<svg xmlns="http://www.w3.org/2000/svg" xmlns:xlink="http://www.w3.org/1999/xlink">
    <symbol id="icon-play" viewBox="0 0 32 32">
        <title>Play Icon</title>
        <g>
            <path d="M32,16A16,16,0,1,1,16,0,16,16,0,0,1,32,16Z"/>
            <path d="M11.83,9.34a1.36,1.36,0,0,1,1.34,0l9,5.21a1.32,1.32,0,0,1,.66,1.12,1.34,1.34,0,0,1-.61,1.15l-9,5.79a1.33,1.33,0,0,1-2.05-1.12v-11A1.34,1.34,0,0,1,11.83,9.34Zm2,3.47v6.25l5.11-3.29Z" fill="#fff"/>
        </g>
    </symbol>
    <!-- next symbol example -->
    <!-- 
        id="xxx" used to call it in a component
        check if all <path /> have a fill attr
        if not, check if it's class css (wrong implementation)
        svg file needs optimization
        then, don't hesitate to copy/paste the svg code into 
        https://jakearchibald.github.io/svgomg/ to optimize the code
        then call your file in your component as follow :
        <svg class="xxx"><use xlink:href="assets/svg-sprite.svg#ID"></use></svg>
        -->
    <!-- <symbol id="empty-screen" viewBox="0 0 520 520">
        paste the svg inside and change viewBox above according to svg viewBox
    </symbol> -->
</svg>