<?xml version="1.0" encoding="utf-8"?>
<!-- Generator: Adobe Illustrator 19.1.0, SVG Export Plug-In . SVG Version: 6.00 Build 0)  -->
<svg version="1.1" id="Layer_1" xmlns="http://www.w3.org/2000/svg" xmlns:xlink="http://www.w3.org/1999/xlink" x="0px" y="0px"
	 viewBox="0 0 48 48" style="enable-background:new 0 0 48 48;" xml:space="preserve">
<g id="folder-open_2_">
	<path d="M16.516,20.688C16.266,21.25,12,31.906,12,31.906V17c0-0.55,0.45-1,1-1h1.334l0.35-1.052C14.857,14.427,15.45,14,16,14h5
		c0.55,0,1.143,0.427,1.316,0.948L22.666,16H32c0.55,0,1,0.45,1,1v3H17.5C17.225,20,16.766,20.125,16.516,20.688z M41,21H19
		c-0.55,0-1.167,0.418-1.371,0.929l-5.258,13.143C12.167,35.582,12.45,36,13,36h22c0.55,0,1.167-0.418,1.371-0.929l5.258-13.143
		C41.833,21.418,41.55,21,41,21z"/>
</g>
</svg>
