<svg xmlns:dc="http://purl.org/dc/elements/1.1/" xmlns:cc="http://creativecommons.org/ns#" xmlns:rdf="http://www.w3.org/1999/02/22-rdf-syntax-ns#" xmlns:svg="http://www.w3.org/2000/svg" xmlns="http://www.w3.org/2000/svg" xmlns:sodipodi="http://sodipodi.sourceforge.net/DTD/sodipodi-0.dtd" xmlns:inkscape="http://www.inkscape.org/namespaces/inkscape" viewBox="0 0 284.33402 282.27023" version="1.1" id="svg72" sodipodi:docname="zen-woman.svg" width="284.33401" height="282.27023" inkscape:version="0.92.4 (5da689c313, 2019-01-14)"><metadata id="metadata76"><rdf:RDF><cc:Work rdf:about=""><dc:format>image/svg+xml</dc:format><dc:type rdf:resource="http://purl.org/dc/dcmitype/StillImage" /><dc:title>VALIDE</dc:title></cc:Work></rdf:RDF></metadata><sodipodi:namedview pagecolor="#ffffff" bordercolor="#666666" borderopacity="1" objecttolerance="10" gridtolerance="10" guidetolerance="10" inkscape:pageopacity="0" inkscape:pageshadow="2" inkscape:window-width="2560" inkscape:window-height="995" id="namedview74" showgrid="false" fit-margin-top="0" fit-margin-left="0" fit-margin-right="0" fit-margin-bottom="0" borderlayer="true" inkscape:showpageshadow="false" inkscape:zoom="0.47207129" inkscape:cx="100.44302" inkscape:cy="109.46431" inkscape:window-x="0" inkscape:window-y="0" inkscape:window-maximized="1" inkscape:current-layer="Calque_2" /><defs id="defs4"><style id="style2">.cls-1{fill:#f6f6f6;}.cls-2{fill:#00325e;}.cls-3{fill:#eac403;}.cls-4{fill:#895d41;}.cls-5,.cls-8{opacity:0.2;}.cls-6{fill:#fff;}.cls-7{fill:none;stroke:#ff8d2e;stroke-miterlimit:10;stroke-width:3.21px;}.cls-8{fill-rule:evenodd;}.cls-9{fill:#299cc8;}.cls-10{fill:#ccc;}.cls-11{fill:#46afe6;}</style></defs><title id="title6">VALIDE</title><g id="Calque_2" data-name="Calque 2" transform="translate(-349.538,-324.17)"><g id="g87"><path id="path10" d="m 564,418.74 c 0,0 6.45,-14.41 -2.34,-23.64 -8.79,-9.23 -20.51,-13.26 -22.85,-15.57 -2.34,-2.31 -2.93,-1.15 -7.62,-13.84 -4.69,-12.69 -4.1,-23.07 -5.86,-26.53 -1.76,-3.46 -1.76,-5.19 -8.2,-7.49 a 17,17 0 0 0 -11.72,0 c 0,0 -2.34,-7.5 -21.68,-7.5 -19.34,0 -26.36,11.53 -29.88,20.76 -3.52,9.23 2.35,26.53 0,35.75 -2.35,9.22 -10.54,12.11 -14.65,16.15 -4.11,4.04 -6.44,10.38 -8.2,19.61 -1.76,9.23 7.62,16.14 14.06,20.75 6.44,4.61 32.23,12.11 55.66,12.11 23.43,0 40.43,-11.53 51,-18.45 10.57,-6.92 12.28,-12.11 12.28,-12.11 z" class="cls-2" inkscape:connector-curvature="0" style="fill:#00325e" /><path id="path12" d="m 516.45,419.54 h -46.11 l -22.76,40.35 c 0,0 -25.49,58.56 -7.18,81.83 h 105.39 c 21.58,-20.66 -7.19,-81.83 -7.19,-81.83 z" class="cls-3" inkscape:connector-curvature="0" style="fill:#eac403" /><path id="path14" d="M 460.24,595.79 C 365.74,624.53 359.55,586 359.55,586 c 3.64,-23.35 40.59,-28.74 40.59,-28.74 29.68,-1.8 40.59,-16.17 40.59,-16.17 h 106 c 0,0 26.65,7.19 47.25,19.16 0,0 34.53,3 33.31,25.75 0,0 -1.81,21.56 -42.4,16.77 0,0 -51.69,-6.21 -65.63,-12.2 l 0.29,-26.13 -63.08,10.78 z" class="cls-2" inkscape:connector-curvature="0" style="fill:#00325e" /><path id="path16" d="m 536.81,505.79 c 5.58,19.76 42.51,49.1 42.51,49.1 19.17,11.38 27.55,11.38 27.55,11.38 9,2.4 11.38,-0.6 11.38,-0.6 6,2.4 15.57,-9.58 15.57,-9.58 0.6,-6 -4.19,-2.4 -4.19,-2.4 -1.8,1.8 -3,1.2 -3,1.2 -1.19,-13.17 -7.4,-16.22 -9,-16.17 -1.6,0.05 -6.59,4.2 -10.78,4.2 -4.19,0 -10.18,3 -10.18,3 -4.79,3.59 -8.38,-1.8 -8.38,-1.8 -3,-7.18 -28.84,-33.45 -31.14,-47.9 -2.3,-14.45 2.39,-41.92 2.39,-41.92 h -21 c -2.93,17.35 -7.31,31.7 -1.73,51.49 z M 611.88,553 c -0.89,-2.61 -1.09,-4.36 1.58,-5.9 2.67,-1.54 5.34,-3 4.79,-3 -0.55,0 1.3,1.85 2.55,4.2 1.25,2.35 1.72,6.08 -1.95,7.18 -3.67,1.1 -7,-2.48 -7,-2.48" class="cls-4" inkscape:connector-curvature="0" style="fill:#895d41" /><path id="path18" d="m 446.6,505.79 c -5.58,19.76 -42.52,49.1 -42.52,49.1 -19.16,11.38 -27.55,11.38 -27.55,11.38 -9,2.4 -11.38,-0.6 -11.38,-0.6 -6,2.4 -15.56,-9.58 -15.56,-9.58 -0.6,-6 4.19,-2.4 4.19,-2.4 1.79,1.8 3,1.2 3,1.2 1.2,-13.17 7.4,-16.22 9,-16.17 1.6,0.05 6.59,4.2 10.78,4.2 4.19,0 10.18,3 10.18,3 4.79,3.59 8.39,-1.8 8.39,-1.8 3,-7.18 28.83,-33.45 31.14,-47.9 2.31,-14.45 -2.4,-41.92 -2.4,-41.92 h 21 c 2.92,17.35 7.31,31.7 1.73,51.49 z M 371.53,553 c 0.88,-2.61 1.09,-4.36 -1.58,-5.9 -2.67,-1.54 -5.35,-3 -4.8,-3 0.55,0 -1.3,1.85 -2.55,4.2 -1.25,2.35 -1.72,6.08 2,7.18 3.72,1.1 7,-2.48 7,-2.48" class="cls-4" inkscape:connector-curvature="0" style="fill:#895d41" /><path id="path20" d="m 464.36,574.72 c 10.75,4.77 50.83,17.33 56.44,15.95 5.61,-1.38 9,-22 3.39,-22.39 -5.61,-0.39 -15.79,-1 -24,-1.27 -8.21,-0.27 -12.2,-8.64 -12.2,-8.64 -5.25,-11.25 -11,-6.32 -16,-4.4 -5,1.92 -18.91,-2.62 -31.14,-4.44 -12.23,-1.82 -15,7.38 -10.13,8.66 4.87,1.28 12.67,2.81 17.17,6.25 4.5,3.44 5.73,5.56 16.47,10.28 z" class="cls-4" inkscape:connector-curvature="0" style="fill:#895d41" /><path id="path22" d="m 464.36,574.72 c 10.75,4.77 50.83,17.33 56.44,15.95 5.61,-1.38 9,-22 3.39,-22.39 -5.61,-0.39 -15.79,-1 -24,-1.27 -8.21,-0.27 -12.2,-8.64 -12.2,-8.64 -5.25,-11.25 -11,-6.32 -16,-4.4 -5,1.92 -18.91,-2.62 -31.14,-4.44 -12.23,-1.82 -15,7.38 -10.13,8.66 4.87,1.28 12.67,2.81 17.17,6.25 4.5,3.44 5.73,5.56 16.47,10.28 z" class="cls-5" inkscape:connector-curvature="0" style="opacity:0.2" /><path id="path24" d="m 514,575.62 c -10.4,5.46 -49.57,20.65 -55.26,19.64 -5.69,-1.01 -10.38,-21.41 -4.86,-22.11 5.52,-0.7 15.7,-2 23.87,-2.85 8.17,-0.85 11.6,-9.43 11.6,-9.43 4.49,-11.58 10.59,-7 15.65,-5.45 5.06,1.55 18.7,-3.87 30.79,-6.49 12.09,-2.62 15.46,6.37 10.67,8 -4.79,1.63 -12.46,3.64 -16.71,7.37 -4.25,3.73 -5.37,5.85 -15.75,11.32 z" class="cls-4" inkscape:connector-curvature="0" style="fill:#895d41" /><path id="path26" d="m 559,485.89 c 0,0 6.59,-52.52 -12.57,-59.89 0,0 -6.82,-4.67 -21.83,-6.39 -15.01,-1.72 -43.31,-1.71 -59.08,0.37 A 272.84,272.84 0 0 0 435,426 c -19.17,7.37 -12.58,59.89 -12.58,59.89 z" class="cls-3" inkscape:connector-curvature="0" style="fill:#eac403" /></g></g><g id="Calque_3" data-name="Calque 3" transform="translate(-349.538,-324.17)"><path class="cls-4" d="m 530.22,420.37 c -6.89,-1.79 -20,-0.88 -22.85,-2.61 -5.14,-3.13 -5.5,-9.17 -5.86,-10.39 -1.17,-4 0.59,-20.95 0.59,-20.95 l -0.58,2.2 -25,-0.85 -0.44,6.34 a 88.93,88.93 0 0 1 0,13.26 c -0.58,5.77 -1.17,8.08 -2.93,10.38 -1.76,2.3 -17.65,3.21 -20,3.79 -6.91,2.13 17.59,7 38.38,7 20.79,0 45.58,-6.38 38.69,-8.17 z" id="path34" inkscape:connector-curvature="0" style="fill:#895d41" /><path class="cls-5" d="m 476.05,396.58 c 0,0 0,-1.68 0.13,-3.87 0.19,-2.76 0.31,-4.78 0.31,-4.78 l 20.2,2.89 4.83,3.46 a 119.12,119.12 0 0 0 0,13.26 c 0.48,5.77 -25.47,-10.96 -25.47,-10.96 z" id="path36" inkscape:connector-curvature="0" style="opacity:0.2" /><path class="cls-4" d="m 515.68,368.86 c 0,0 0.09,15.2 -2,19.52 -2.09,4.32 -5.08,13.42 -13,13.7 -7.92,0.28 -24.68,-11.79 -27.37,-18.78 -2.69,-6.99 -2.54,-19.78 2,-22.66 a 121.91,121.91 0 0 0 14.62,-10.23 c 6.74,-5.48 7.91,-8.36 10,-8.65 2.09,-0.29 7.32,3.75 10.83,7.21 3.51,3.46 3.52,6.92 4.4,11.24 a 36.62,36.62 0 0 1 0.52,8.65 z" id="path38" inkscape:connector-curvature="0" style="fill:#895d41" /><ellipse class="cls-7" cx="509.20999" cy="367.23999" rx="7.3499999" ry="8.8900003" id="ellipse40" style="fill:none;stroke:#ff8d2e;stroke-width:3.21000004px;stroke-miterlimit:10" /><ellipse class="cls-7" cx="488.17999" cy="367.75" rx="7.3499999" ry="8.8900003" id="ellipse42" style="fill:none;stroke:#ff8d2e;stroke-width:3.21000004px;stroke-miterlimit:10" /><path class="cls-7" d="m 501.84,367 a 3.72,3.72 0 0 0 -3.37,-1.52 c -2.52,0 -2.94,1.52 -2.94,1.52" id="path44" inkscape:connector-curvature="0" style="fill:none;stroke:#ff8d2e;stroke-width:3.21000004px;stroke-miterlimit:10" /><path class="cls-8" d="m 498.9,371.41 c 0.37,0 1,4.35 1.66,6.4 a 10.89,10.89 0 0 0 1.94,3.51 1.47,1.47 0 0 1 -0.14,1.9 1.06,1.06 0 0 1 -1.26,-0.46 11.68,11.68 0 0 1 -1.69,-3 10.81,10.81 0 0 1 -0.65,-3.72 c -0.13,-2.04 -0.1,-4.63 0.14,-4.63 z" id="path46" inkscape:connector-curvature="0" style="opacity:0.2;fill-rule:evenodd" /></g></svg>