<?xml version="1.0" encoding="utf-8"?>
<!-- Generator: Adobe Illustrator 21.1.0, SVG Export Plug-In . SVG Version: 6.00 Build 0)  -->
<svg version="1.1" id="Calque_1" xmlns="http://www.w3.org/2000/svg" xmlns:xlink="http://www.w3.org/1999/xlink" x="0px" y="0px"
	 viewBox="0 0 49.8 53.2" style="enable-background:new 0 0 49.8 53.2;" xml:space="preserve">
<title>blur</title>
<g>
	<path d="M32,46.5l1,2.4c1.6-0.8,3-1.6,4.5-2.6l-1.6-2.2C34.6,45.3,33.4,45.9,32,46.5z"/>
	<polygon points="32,46.5 32,46.5 32,46.5 	"/>
	<path d="M38.4,41.9l2,1.8c1.2-1.2,2.2-2.6,3-4.1l-2.4-1.4C40.5,39.6,39.5,40.8,38.4,41.9z"/>
	<path d="M9.6,41.7l-2,1.8c0.6,0.6,1.2,1.2,1.8,1.8c0.6,0.6,1.2,1,2,1.6l1.6-2.2c-0.6-0.4-1.2-0.8-1.8-1.4
		C10.6,42.7,10.2,42.1,9.6,41.7z"/>
	<path d="M14.9,48.8c1.6,0.8,3.2,1.2,4.9,1.6l0.6-2.6c-1.4-0.4-2.8-0.8-4.3-1.4L14.9,48.8z"/>
	<path d="M26.3,48.2L26.3,48.2c-0.8,0-1.4,0.2-2.2,0v2.6c0.8,0,1.6,0,2.6,0c0.8-0.2,1.6-0.2,2.6-0.4l-0.6-2.6
		C27.7,48,26.9,48,26.3,48.2z"/>
	<path d="M3.1,22.2L5.8,23c0.4-1.4,1-2.8,1.8-4.1l-2.4-1.4C4.3,18.9,3.7,20.6,3.1,22.2z"/>
	<path d="M4.8,28.7c0-0.8,0-1.4,0.2-2.2L2.3,26c-0.2,0.8-0.2,1.6-0.2,2.6c0,0.8,0,1.6,0.2,2.6L5,31.1C5,30.3,5,29.5,4.8,28.7z"/>
	<path d="M3.1,35.4c0.6,1.6,1.2,3.2,2,4.7l2.4-1.4c-0.8-1.2-1.4-2.6-1.8-4.1L3.1,35.4z"/>
	<path d="M28.5,9.6L29.1,7c-0.8-0.2-1.6-0.2-2.6-0.4c-0.8,0.2-1.6,0-2.4,0v2.6c0.8,0,1.4,0,2.2,0C27.1,9.4,27.7,9.4,28.5,9.6z"/>
	<path d="M15.1,8.6l1.2,2.4c1.4-0.6,2.8-1,4.3-1.4L20,7C18.2,7.4,16.5,8,15.1,8.6z"/>
	<path d="M11.2,14.3c0.6-0.4,1.2-0.8,1.8-1.4l-1.6-2.2c-0.6,0.6-1.4,1-2,1.6c-0.6,0.6-1.2,1.2-1.8,1.8l2,1.8
		C10.2,15.3,10.6,14.9,11.2,14.3z"/>
	<path d="M40.1,1.9c0,0-2.6,3.2-4.9,7.5c-0.6-0.4-1.4-0.8-2-1l-1,2.4c0.6,0.4,1.2,0.6,2,1c-1.6,3.2-2.8,7.1-2.8,10.6
		c0,9.3,8.9,9.3,8.9,9.3s1.6,0,3.5-0.8c0,0.6-0.2,1.2-0.2,1.8c-0.2,0.8-0.4,1.4-0.6,2.2l2.6,0.8c0.4-0.8,0.4-1.6,0.6-2.4
		c0.2-0.8,0.2-1.6,0.4-2.6l-2-0.2c2-1,4.5-3.2,4.5-8.1l0,0C49,13.2,40.1,1.9,40.1,1.9z"/>
</g>
</svg>
