<svg xmlns="http://www.w3.org/2000/svg" xmlns:xlink="http://www.w3.org/1999/xlink">
    <symbol id="info-circle" viewBox="0 0 24 24">
        <path fill-rule="evenodd" clip-rule="evenodd" d="M12 3C7.02944 3 3 7.02944 3 12C3 16.9706 7.02944 21 12 21C16.9706 21 21 16.9706 21 12C21 7.02944 16.9706 3 12 3ZM1 12C1 5.92487 5.92487 1 12 1C18.0751 1 23 5.92487 23 12C23 18.0751 18.0751 23 12 23C5.92487 23 1 18.0751 1 12Z" fill="currentColor" />
        <path fill-rule="evenodd" clip-rule="evenodd" d="M12.01 17C11.4577 17 11.01 16.5523 11.01 16L11.01 11C11.01 10.4477 11.4577 10 12.01 10C12.5623 10 13.01 10.4477 13.01 11L13.01 16C13.01 16.5523 12.5623 17 12.01 17Z" fill="currentColor" />
        <path fill-rule="evenodd" clip-rule="evenodd" d="M13.01 7.5C13.01 8.05228 12.5623 8.5 12.01 8.5L12 8.5C11.4477 8.5 11 8.05228 11 7.5C11 6.94772 11.4477 6.5 12 6.5L12.01 6.5C12.5623 6.5 13.01 6.94772 13.01 7.5Z" fill="currentColor" />
    </symbol>
    <symbol id="alert-triangle" viewBox="0 0 24 24">
        <path fill-rule="evenodd" clip-rule="evenodd" d="M12 8C12.5523 8 13 8.44772 13 9V14C13 14.5523 12.5523 15 12 15C11.4477 15 11 14.5523 11 14V9C11 8.44772 11.4477 8 12 8Z" fill="currentColor" />
        <path fill-rule="evenodd" clip-rule="evenodd" d="M11 17.5C11 16.9477 11.4477 16.5 12 16.5H12.01C12.5623 16.5 13.01 16.9477 13.01 17.5C13.01 18.0523 12.5623 18.5 12.01 18.5H12C11.4477 18.5 11 18.0523 11 17.5Z" fill="currentColor" />
        <path fill-rule="evenodd" clip-rule="evenodd" d="M10.2476 2.11111C11.0075 0.729566 12.9926 0.729562 13.7525 2.11111L23.0612 19.0361C23.7943 20.369 22.83 21.9999 21.3088 21.9999H2.69133C1.17012 21.9999 0.205794 20.369 0.938894 19.0361L10.2476 2.11111ZM21.3088 19.9999L12.0001 3.07495L2.69133 19.9999H21.3088Z" fill="currentColor" />
    </symbol>
    <symbol id="close" viewBox="0 0 24 24">
        <path fill-rule="evenodd" clip-rule="evenodd" d="M4.22221 4.22218C4.65178 3.7926 5.34827 3.7926 5.77784 4.22218L19.7778 18.2222C20.2074 18.6518 20.2074 19.3482 19.7778 19.7778C19.3483 20.2074 18.6518 20.2074 18.2222 19.7778L4.22221 5.77781C3.79263 5.34823 3.79263 4.65175 4.22221 4.22218Z" fill="currentColor" />
        <path fill-rule="evenodd" clip-rule="evenodd" d="M19.7778 4.22218C20.2074 4.65175 20.2074 5.34823 19.7778 5.77781L5.77779 19.7778C5.34822 20.2074 4.65173 20.2074 4.22216 19.7778C3.79258 19.3482 3.79258 18.6518 4.22216 18.2222L18.2222 4.22218C18.6517 3.7926 19.3482 3.7926 19.7778 4.22218Z" fill="currentColor" />
    </symbol>
</svg>