<?xml version="1.0" encoding="utf-8"?>
<!-- Generator: Adobe Illustrator 19.1.0, SVG Export Plug-In . SVG Version: 6.00 Build 0)  -->
<svg version="1.1" id="Calque_1" xmlns="http://www.w3.org/2000/svg" xmlns:xlink="http://www.w3.org/1999/xlink" x="0px" y="0px"
	 viewBox="-341 342 117 117" style="enable-background:new -341 342 117 117;" xml:space="preserve">
<style type="text/css">
	.st0{fill:#4BAED4;}
	.st1{fill:#FDFEFE;}
</style>
<path class="st0" d="M-282.5,448.2c-15.3,0-30.5,0-45.8,0c-1.6,0-2-0.4-1.9-2c0.1-30.5,0.1-61.1,0-91.6c0-1.6,0.4-2,1.9-1.9
	c30.5,0.1,61.1,0.1,91.6,0c1.6,0,2,0.4,1.9,1.9c-0.1,30.5-0.1,61.1,0,91.6c0,1.6-0.4,2-1.9,2C-252,448.2-267.2,448.2-282.5,448.2z
	 M-282.8,432.9c11.6,0,23.1-0.1,34.7,0c2.4,0,3.3-0.4,3.3-3.1c-0.2-18.9-0.2-37.8-0.1-56.8c0-2.7-0.9-3.1-3.3-3.1
	c-23.1,0.1-46.2,0.1-69.3,0c-2.4,0-3.3,0.4-3.3,3.1c0.1,19,0.1,37.9,0,56.9c0,2.7,0.9,3.1,3.3,3.1
	C-305.9,432.9-294.4,432.9-282.8,432.9z"/>
<path class="st1" d="M-282.8,432.9c-11.6,0-23.1-0.1-34.7,0c-2.4,0-3.3-0.4-3.3-3.1c0.1-19,0.1-37.9,0-56.9c0-2.6,0.9-3.1,3.3-3.1
	c23.1,0.1,46.2,0.1,69.3,0c2.4,0,3.3,0.4,3.3,3.1c-0.1,19-0.1,37.9,0,56.9c0,2.6-0.9,3.1-3.3,3.1
	C-259.7,432.9-271.3,432.9-282.8,432.9z M-280,419c0.1,0.1,0.4,0.4,0.4,0.4c0.4-0.2,0.2-0.5,0-0.8c-1.8-3.2-3.7-6.5-6-9.3
	c-1.1-1.3-0.9-2,0.1-3.1c3.1-3.1,6.3-6,9.7-8.6c8.1-6.1,9.2-6.1,16.4,1.1c3,3,5.9,6.3,9.2,9.9c0-11,0-21.5,0-31.9
	c0-2.2-1.7-1.5-2.8-1.5c-19.9,0-39.8,0-59.8-0.1c-2.3,0-3.1,0.6-3,3c0.1,14.9,0.1,29.9,0.1,44.8c0,0.8-0.4,1.7,0.5,2.3
	c1.5-0.3,2.7-1.3,3.9-2.1c4.6-3.1,9.4-6.2,13.8-9.6c2.5-1.9,4.7-1.9,7.3-0.6C-286.5,414.6-283.4,417.1-280,419z"/>
<path class="st0" d="M-280,419c-3.4-1.9-6.4-4.4-10-6.1c-2.6-1.3-4.9-1.3-7.3,0.6c-4.5,3.4-9.2,6.4-13.8,9.6
	c-1.2,0.8-2.4,1.8-3.9,2.1c-0.9-0.7-0.5-1.6-0.5-2.3c0-14.9,0-29.9-0.1-44.8c0-2.4,0.7-3,3-3c19.9,0.1,39.8,0,59.8,0.1
	c1.1,0,2.8-0.7,2.8,1.5c0,10.4,0,20.9,0,31.9c-3.4-3.6-6.2-6.8-9.2-9.9c-7.2-7.2-8.3-7.2-16.4-1.1c-3.5,2.6-6.7,5.6-9.7,8.6
	c-1.1,1.1-1.2,1.8-0.1,3.1c2.4,2.8,4.2,6.1,6,9.3C-279.7,418.8-279.9,418.9-280,419z M-295.9,388.6c0.1-3.1-2.4-5.7-5.5-5.9
	c-3.2-0.1-5.9,2.5-6,5.7c0,3.1,2.6,5.7,5.6,5.7C-298.6,394.2-296,391.6-295.9,388.6z"/>
<path class="st0" d="M-279.6,418.6c0.2,0.3,0.3,0.6,0,0.8c-0.1,0-0.3-0.2-0.4-0.4C-279.9,418.9-279.7,418.8-279.6,418.6z"/>
<path class="st1" d="M-295.9,388.6c-0.1,3.1-2.7,5.6-5.8,5.5c-3.1,0-5.6-2.7-5.6-5.7c0-3.2,2.8-5.9,6-5.7
	C-298.3,382.8-295.8,385.5-295.9,388.6z"/>
</svg>
