<?xml version="1.0" encoding="utf-8"?>
<!-- Generator: Adobe Illustrator 17.0.0, SVG Export Plug-In . SVG Version: 6.00 Build 0)  -->
<!DOCTYPE svg PUBLIC "-//W3C//DTD SVG 1.1//EN" "http://www.w3.org/Graphics/SVG/1.1/DTD/svg11.dtd">
<svg version="1.1" id="Layer_1" xmlns="http://www.w3.org/2000/svg" xmlns:xlink="http://www.w3.org/1999/xlink" x="0px" y="0px"
	 width="85.946px" height="54.955px" viewBox="0 0 85.946 54.955" enable-background="new 0 0 85.946 54.955" xml:space="preserve">
<rect y="0" fill="#FFFFFF" width="85.946" height="54.955"/>
<rect x="5.405" y="4.685" width="20" height="18.378"/>
<rect x="29.91" y="4.685" width="52.613" height="3.243"/>
<rect x="29.91" y="11.171" width="52.613" height="40.901"/>
<rect x="29.39" y="13.412" fill="#FFFFFF" width="55.333" height="1.583"/>
<rect x="28.55" y="16.804" fill="#FFFFFF" width="55.333" height="1.583"/>
<rect x="28.55" y="20.196" fill="#FFFFFF" width="55.333" height="1.583"/>
<rect x="28.55" y="23.589" fill="#FFFFFF" width="55.333" height="1.583"/>
<rect x="29.056" y="26.981" fill="#FFFFFF" width="55.333" height="1.583"/>
<rect x="28.55" y="30.373" fill="#FFFFFF" width="55.333" height="1.583"/>
<rect x="28.14" y="33.766" fill="#FFFFFF" width="55.333" height="1.583"/>
<rect x="28.14" y="37.158" fill="#FFFFFF" width="55.333" height="1.583"/>
<rect x="28.14" y="40.55" fill="#FFFFFF" width="55.333" height="1.583"/>
<rect x="28.55" y="43.943" fill="#FFFFFF" width="55.333" height="1.583"/>
<rect x="28.55" y="47.335" fill="#FFFFFF" width="55.333" height="1.583"/>
<rect x="29.056" y="50.728" fill="#FFFFFF" width="55.333" height="1.583"/>
<rect x="29.056" y="10.019" fill="#FFFFFF" width="55.333" height="1.583"/>
</svg>
