<svg xmlns="http://www.w3.org/2000/svg" xmlns:xlink="http://www.w3.org/1999/xlink">
    <symbol id="see" viewBox="0 0 24 24">
        <path fill-rule="evenodd" clip-rule="evenodd" d="M2.14 12a18.68 18.68 0 0 0 2.464 3.316C6.397 17.226 8.9 19 12 19c3.1 0 5.605-1.774 7.395-3.684A18.684 18.684 0 0 0 21.86 12a18.681 18.681 0 0 0-2.464-3.316C17.605 6.774 15.101 5 12 5 8.9 5 6.396 6.774 4.605 8.684A18.678 18.678 0 0 0 2.14 12ZM23 12l.894-.448-.002-.003-.003-.007-.011-.022a10.615 10.615 0 0 0-.192-.354 20.675 20.675 0 0 0-2.831-3.85C18.895 5.226 15.899 3 12 3 8.1 3 5.104 5.226 3.145 7.316a20.674 20.674 0 0 0-2.831 3.85 12.375 12.375 0 0 0-.192.354l-.011.022-.003.007-.002.002s0 .002.894.449l-.894-.447a1 1 0 0 0 0 .894L1 12l-.894.447.002.004.003.007.011.022a8.267 8.267 0 0 0 .192.354 20.67 20.67 0 0 0 2.831 3.85C5.105 18.774 8.1 21 12 21c3.9 0 6.895-2.226 8.855-4.316a20.672 20.672 0 0 0 2.831-3.85 11.81 11.81 0 0 0 .192-.354l.011-.022.003-.007.002-.002s0-.002-.894-.449Zm0 0 .894.447c.141-.281.14-.613 0-.895L23 12Z" fill="#4A4A4A"/>
        <path fill-rule="evenodd" clip-rule="evenodd" d="M12 10a2 2 0 1 0 0 4 2 2 0 0 0 0-4Zm-4 2a4 4 0 1 1 8 0 4 4 0 0 1-8 0Z" fill="#4A4A4A"/>
    </symbol>

    <symbol id="hide" viewBox="0 0 24 24">
        <path fill-rule="evenodd" clip-rule="evenodd" d="M1.707.293A1 1 0 0 0 .293 1.707l4.275 4.276a19.45 19.45 0 0 0-4.45 5.544 1 1 0 0 0-.012.92L1 12c-.894.447-.894.448-.894.449l.002.002.003.007.011.022.04.078c.036.065.086.159.152.276a20.682 20.682 0 0 0 2.831 3.85C5.105 18.774 8.1 21 12 21h.016a11.07 11.07 0 0 0 5.81-1.76l4.467 4.467a1 1 0 0 0 1.414-1.414l-5.06-5.06-3.816-3.816-.007-.007-4.234-4.234-.007-.007-3.816-3.816-5.06-5.06Zm14.664 17.493-2.321-2.322a3.993 3.993 0 0 1-3.623.32A4 4 0 0 1 8.536 9.95L5.987 7.401a17.45 17.45 0 0 0-3.844 4.602 18.68 18.68 0 0 0 2.462 3.313c1.789 1.909 4.29 3.68 7.387 3.684a9.07 9.07 0 0 0 4.38-1.214Zm-6.343-6.344a2 2 0 0 0 2.53 2.53l-2.53-2.53Zm10.725 2.246L12.073 5c3.067.028 5.546 1.789 7.322 3.684a18.676 18.676 0 0 1 2.463 3.314 17.51 17.51 0 0 1-1.105 1.69ZM23 12l.894-.447L23 12Zm.882.471a1 1 0 0 0 .012-.918l-.002-.004-.003-.007-.011-.022a9.13 9.13 0 0 0-.192-.354 20.676 20.676 0 0 0-2.831-3.85C18.895 5.226 15.9 3 12 3a10.12 10.12 0 0 0-2.329.266 1 1 0 0 0-.48 1.68l10.94 10.95a1 1 0 0 0 1.473-.062 19.505 19.505 0 0 0 2.277-3.363ZM12.002 3H12v1l.002-1Z" fill="#4A4A4A"/>
    </symbol>

    <symbol id="success-fill" viewBox="0 0 24 24">
        <path fill-rule="evenodd" clip-rule="evenodd" d="M12 23c6.075 0 11-4.925 11-11S18.075 1 12 1 1 5.925 1 12s4.925 11 11 11Zm4.808-13.41a1 1 0 1 0-1.616-1.18l-3.61 4.951-1.806-2.222a1 1 0 0 0-1.552 1.26l2.625 3.232a1 1 0 0 0 1.584-.042l4.375-6Z" fill="#7DBF85"/>
    </symbol>

    <symbol id="arrow-left" viewBox="0 0 24 24">
        <path fill-rule="evenodd" clip-rule="evenodd" d="M3.333 10c0-.46.373-.833.834-.833h11.666a.833.833 0 1 1 0 1.666H4.167A.833.833 0 0 1 3.333 10Z" fill="##2A9CC8"/>
        <path fill-rule="evenodd" clip-rule="evenodd" d="M10.59 3.577a.833.833 0 0 1 0 1.179L5.344 10l5.244 5.244a.833.833 0 0 1-1.178 1.179l-5.834-5.834a.833.833 0 0 1 0-1.178l5.834-5.834a.833.833 0 0 1 1.178 0Z" fill="##2A9CC8"/>
    </symbol>

    <symbol id="lock" viewBox="0 0 24 24">
        <path fill-rule="evenodd" clip-rule="evenodd" d="M7.643 2.643A3.333 3.333 0 0 1 13.333 5v2.5H6.668V5c0-.884.351-1.732.976-2.357ZM5 7.5V5a5 5 0 1 1 10 0v2.5h.834a2.5 2.5 0 0 1 2.5 2.5v5.833a2.5 2.5 0 0 1-2.5 2.5H4.167a2.5 2.5 0 0 1-2.5-2.5V10a2.5 2.5 0 0 1 2.5-2.5H5Zm9.167 1.667h-10a.833.833 0 0 0-.833.833v5.833c0 .46.373.834.833.834h11.667c.46 0 .833-.373.833-.834V10a.833.833 0 0 0-.833-.833h-1.667Z" fill="currentColor"/>
    </symbol>
</svg>