<?xml version="1.0" encoding="utf-8"?>
<!-- Generator: Adobe Illustrator 17.0.0, SVG Export Plug-In . SVG Version: 6.00 Build 0)  -->
<!DOCTYPE svg PUBLIC "-//W3C//DTD SVG 1.1//EN" "http://www.w3.org/Graphics/SVG/1.1/DTD/svg11.dtd">
<svg version="1.1" id="Layer_1" xmlns="http://www.w3.org/2000/svg" xmlns:xlink="http://www.w3.org/1999/xlink" x="0px" y="0px"
	 width="85.946px" height="54.955px" viewBox="0 0 85.946 54.955" enable-background="new 0 0 85.946 54.955" xml:space="preserve">
<rect fill="#FFFFFF" width="85.946" height="54.955"/>
<rect x="5.766" y="5.586" width="21.802" height="3.784"/>
<rect x="5.766" y="13.045" width="21.802" height="39.207"/>
<rect x="32.072" y="5.586" width="21.802" height="3.784"/>
<rect x="58.973" y="5.586" width="21.802" height="3.784"/>
<rect x="32.072" y="13.045" width="21.802" height="39.207"/>
<rect x="58.973" y="13.045" width="21.802" height="39.207"/>
<rect x="4.89" y="14.978" fill="#FFFFFF" width="77.605" height="1.583"/>
<rect x="4.89" y="18.728" fill="#FFFFFF" width="77.605" height="1.583"/>
<rect x="4.89" y="22.478" fill="#FFFFFF" width="77.605" height="1.583"/>
<rect x="4.89" y="26.228" fill="#FFFFFF" width="77.605" height="1.583"/>
<rect x="4.89" y="29.978" fill="#FFFFFF" width="77.605" height="1.583"/>
<rect x="4.89" y="33.728" fill="#FFFFFF" width="77.605" height="1.583"/>
<rect x="4.89" y="37.478" fill="#FFFFFF" width="80.13" height="1.583"/>
<rect x="4.89" y="41.228" fill="#FFFFFF" width="77.605" height="1.583"/>
<rect x="4.89" y="44.978" fill="#FFFFFF" width="77.605" height="1.583"/>
<rect x="4.89" y="48.728" fill="#FFFFFF" width="80.55" height="1.583"/>
</svg>
