<svg xmlns="http://www.w3.org/2000/svg" xmlns:xlink="http://www.w3.org/1999/xlink">
    <symbol id="empty-screen" viewBox="0 0 520 520">
        <title>Empty Screen</title>
        <defs><clipPath id="a"><circle cx="403.29" cy="248.37" r="82.93" fill="none"/></clipPath><clipPath id="b"><circle cx="196.25" cy="120.92" r="90.92" transform="rotate(-45 196.256 120.918)" fill="none"/></clipPath><clipPath id="c"><circle cx="69.07" cy="294.49" r="65.08" fill="none"/></clipPath></defs><path d="M459.5 462.41c-77.53-.18-250.75-2.12-386.87 4.36s-20.91 31 72.84 24.83 159.34 8.52 274.09 1.87 129.9-30.85 39.94-31.06Z" fill="#f5f5f5"/><path d="M189.11 470.26s-66.38-32.73-77.8-49.8 5.37-18 5.37-18-29.62-28.81-25.46-40.94 19.72-.54 19.72-.54-19.25-42.87-10.27-47.13c16.73-7.94 40.2 37.68 40.2 37.68s-5.05-19.82 6.47-19.17c17.37 1 16.66 45.8 16.66 45.8s2-17.19 12.43-11.61c18.78 9.99 12.68 103.71 12.68 103.71Z" style="isolation:isolate" fill="#4eb8ac" opacity=".8"/><path d="M180 361.83c-9.16-5.42-16.14 7.32-16.14 7.32s.87-35.85-16.5-36.82c-11.52-.65-6.47 19.17-6.47 19.17s-23.47-45.62-40.2-37.68l88.52 155.72c.6-10.88 2.94-100.54-9.21-107.71Z" style="isolation:isolate" fill="#4eb8ac" opacity=".8"/><path d="M187.39 470.67s-54.29 6.74-68.34.73-4-13.43-4-13.43-30.17-6-32.5-15.19 12.08-8.35 12.08-8.35-29.42-18.91-25.55-25.22c7.2-11.75 40.38 7.17 40.38 7.17s-11.2-10.31-3.75-14.59c11.23-6.45 29 21.8 29 21.8s-1.1-7 7.7-7.74c15.78-1.38 44.98 54.82 44.98 54.82Z" fill="#4eb8ac" opacity=".8"/><path d="M142.36 411.15c-8.8.78-7.66 12.44-7.66 12.44s-15.73-30.14-29-22.23c-7.39 4.39 2.85 14.62 2.85 14.62s-32.23-18.52-39.43-6.77l118.48 61.16c-4.07-7.04-30.49-60.51-45.24-59.22Z" style="isolation:isolate" fill="#4eb8ac" opacity=".8"/><path d="m500.12 436.42-85.77-61.11a184.45 184.45 0 0 0 20.56-120.58c-17-101.06-113-169.47-214.07-152.49S51.35 215.08 68.35 316.3c15.23 90.7 94.11 155.08 183.18 155.08A186.2 186.2 0 0 0 389.66 410l85.77 61.11a21.28 21.28 0 1 0 25.23-34.27l-.54-.39Zm-224.76-9.59c-77.92 13.08-152-39.66-165-117.58a143.29 143.29 0 0 1 117.57-165 145 145 0 0 1 23.81-2c68.67 0 129.49 49.65 141.24 119.57a143.3 143.3 0 0 1-117.58 165Z" fill="#fddfc6"/><g clip-path="url(#a)"><circle cx="403.29" cy="248.37" r="82.93" fill="#fff"/><circle cx="403.29" cy="248.37" r="82.93" style="isolation:isolate" fill="#4dadd3" opacity=".2"/><path d="M389.87 181.56c12.6-11.22 21.85-4.53 28.74 2.95 5.49 6 6.26 7.28 10.8 13.46a5.51 5.51 0 0 1 1.21 3.07c.12 6.83 3.62 35.7-.26 45.67-4.53 11.61-60.36 16.93-60.36 16.93Z" fill="#313c60"/><path d="M425.63 253.38a.63.63 0 0 1-.55-.71.64.64 0 0 1 .55-.56 5.31 5.31 0 0 0 4.08-2.25c6.25-8.1 2.73-35.16-.34-49.87a.63.63 0 1 1 1.24-.26 197.61 197.61 0 0 1 3.61 26.53c.72 12.22-.46 20.42-3.51 24.37a6.54 6.54 0 0 1-5 2.74ZM394.6 178.21c-24.21 13.39-9.45 58.66-40.16 74.8-8.5 4.47-34.64 27.16-17.51 57.08 11.2 19.57 44.68 15.35 55.7-2s1.97-129.88 1.97-129.88Z" fill="#313c60"/><path d="M330.17 281.19h-.09a.64.64 0 0 1-.54-.71 32.89 32.89 0 0 1 3-9A39.63 39.63 0 0 1 347 255.1c14.19-9 23.62-17.55 34.76-59.53a.63.63 0 1 1 1.22.32c-5.39 20.3-10.73 34-16.82 43.2-5.65 8.52-11.47 12.61-18.48 17.07a37.8 37.8 0 0 0-16.91 24.49.63.63 0 0 1-.6.54Z" fill="#313c60"/><path d="M330.7 269.47a.59.59 0 0 1-.34-.1.64.64 0 0 1-.2-.87 44.15 44.15 0 0 1 13.31-13.56c19.94-12.9 23.24-20.31 39.71-62.79a.63.63 0 0 1 1.18.46c-8.24 21.25-13.17 33.7-18.55 42.52C360 244.62 353.48 250 344.16 256a42.79 42.79 0 0 0-12.93 13.18.62.62 0 0 1-.53.29Z" fill="#313c60"/><path d="M393.76 206.46a70.66 70.66 0 0 0-7.05 33s1 6.09 4.81 7.38 9.29-2.57 9-7.7 1.29-17.63 3.21-22.12-9.97-10.56-9.97-10.56Z" fill="#cca285"/><path d="M349.72 326.75c.52 4.73-.66 4.33 3.54 5.12s11.68-2.1 11.68-2.1l-8.4-15.61Z" fill="#6791c9"/><path d="M387.71 230.19c-2.36 7.67-20.07 1.77-26.27 3.54S349.92 261.48 349 284.8s.29 41.93 2.66 44.88 41.33 4.13 44.87 2.95S367 316.69 367 316.69s-2.07-27.16.59-41 26.57-32.18 26.57-32.18ZM396 232.55c6.2 9.45 22.44 8.26 28 15.94s17.42 49.89 17.42 49.89l12.4-42.8s10-1.69 6.79 5.31c-5.81 12.46-8 52.64-14.28 58.35-7 6.35-14 1.18-17.9-9.93-3.81-10.75-13.29-33.95-20.08-42.81s-14.17-23-14.17-23Z" fill="#cca285"/><path d="M369.11 233.73c12.4 14.47 36.61 13.87 41.93 12.1l5.31-1.77s4.13-1.47 7.68 2.66 12.1 30.11 13.58 36 3.84 15.64 3.84 15.64-6.34 7.61-6.34 15.28 2.69 7.75 2.69 7.75-7.87-1.77-9.64-6.49-17.71-47.53-17.71-47.53l-44 .88.59 48.42s-3.84-3.54-9.16 0-7.08 11.81-6.19 13-1.78 1.18-1.78.29-5-22.43-1.47-57.86 10.33-39.27 14.17-39.56a12.37 12.37 0 0 1 6.5 1.19Z" fill="#e03a38"/><path d="M436 320.79Z" fill="#6791c9"/><path d="M437.7 299.46c-2.56.79-6.89 9.84-6.89 9.84S421 287.85 418 258.12l-3.51 20.17c4.85 13 12.46 33.45 13.65 36.63 1.62 4.32 8.16 6.12 9 6.32-.24-.08-.78-.41-1.23-1.71-.26-.23-1.74-.92-2-1.18-2.36-2.16-1.37-7.28.2-13s6.15-6.68 3.59-5.89ZM368.57 268.23l-4.88-22.31c-5.31 7.48-5.9 33.07-3.74 50.59 1.78 14.36 4.44 18.09 6.26 19.59a5.51 5.51 0 0 1 .84.59l-.59-48.42Z" style="isolation:isolate" fill="#010101" opacity=".2"/><path d="M354.44 245.72c9.06 24.41 4.53 29.33 16.45 58 6.65 16 19.48 28 19.48 28a81.58 81.58 0 0 0 23.32 1.77c13-.89 22.5-1.78 22.5-1.78s-13.64-8.21-14.19-13.82-3.15-27.86.19-43.61c2.58-12.28-8.19-24.61-8.19-24.61l-18-.88Z" fill="#e03a38"/><path d="M370.39 283.12c-1.58-5.71 6.69 1.77 20.27 3.15s28.74-.79 21.26 1.58-27.95-1.19-24.21 6.29c4.4 8.81 9.6 17.33 17.12 22.44 4.92 3.35 16.73 6.5 5.32 4.73s-23.62-15.16-28.94-23.82-10.47-13.1-10.82-14.37ZM400.46 236.92C400.58 231 402 221 403.7 217c1.38-3.21-4.32-7.25-7.66-9.28l-2.83-.13c-.43.94-.83 1.88-1.21 2.8-3 19.6 5.95 27.69 10.21 29.32a12.81 12.81 0 0 0 5.66.63 34.34 34.34 0 0 1-7.41-3.42Z" style="isolation:isolate" fill="#010101" opacity=".2"/><path d="M395.05 245.66a13.37 13.37 0 0 1-3.15-.38c-2.47-.6-8.36-2.89-9.73-11.11a.36.36 0 0 1 .28-.41.37.37 0 0 1 .41.29c1.3 7.8 6.86 10 9.19 10.53 3.62.89 7.46.07 8.93-1.89 1.18-1.57.47-4.93.46-5a.39.39 0 0 1 .28-.43.35.35 0 0 1 .42.27c0 .15.79 3.71-.58 5.54-1.2 1.67-3.71 2.59-6.51 2.59Z" fill="#f6ce5c"/><path d="M422.84 214.16c-2 10.58-6.63 19.11-14.46 17.5s-16.06-12.78-13.89-23.32 10.27-17.79 18.09-16.18 12.92 7.91 10.26 22ZM450.69 266.39s-14.46 38.88-15.15 42.91.69 6.59 1.08 6.59 12.7-21.06 12.7-21.06ZM451.28 264.69c1.19-3.94-.65-8.93-.65-8.93l5.25.66Z" fill="#cca285"/><path d="M457.05 258h-14.64a1.33 1.33 0 0 1-1.33-1.35 1.49 1.49 0 0 1 .05-.36l9.25-31a1.33 1.33 0 0 1 1.27-.95h14.65a1.34 1.34 0 0 1 1.33 1.34 1.19 1.19 0 0 1-.06.37l-9.24 31a1.33 1.33 0 0 1-1.28.95Z" fill="#4c7dbf"/><path d="M458.89 258h-14.65a1.34 1.34 0 0 1-1.33-1.33 1.59 1.59 0 0 1 .06-.38l9.25-31a1.32 1.32 0 0 1 1.27-.95h14.64a1.34 1.34 0 0 1 1.33 1.35 1.49 1.49 0 0 1 0 .36l-9.25 31a1.33 1.33 0 0 1-1.32.95Z" fill="#2f5c9b"/><path d="M448.29 235.5c-1.57 5.63-2.62 10.25-2.35 10.32s1.74-4.43 3.31-10 2.61-10.25 2.34-10.32-1.74 4.38-3.3 10Z" fill="#9dbde5"/><path d="M458.24 267.18c.43-5.11 4.86-9.91 6.55-11.43a2.41 2.41 0 0 0 .79-1.82c0-2.55-.14-8.56-.66-9.27-.68-.89-2.35-12.41-3.14-12s.23 10.51.23 10.51-1.9-.89-2.91-1.34S454 246 454 246s-1.94 4.9 3.36 2.8c6.3-2.5 1.58 4.46-2.62 8.92-3.46 3.68-.52 4.49-.52 4.49l2.8-.11Z" fill="#cca285"/><path d="M456.65 271.23a4.88 4.88 0 0 1-1.52-.24c-1.37-.42-3.76-1.8-4.4-6.22a.36.36 0 1 1 .71-.1c.53 3.7 2.31 5.07 3.71 5.58a3.56 3.56 0 0 0 2.43.11.35.35 0 0 1 .68-.07.5.5 0 0 1-.11.53 2.17 2.17 0 0 1-1.5.41Z" fill="#f6ce5c"/><path d="M456.1 270a8.38 8.38 0 0 1-1.32-.1c-2.54-.37-4.25-1.66-4.68-3.55a.36.36 0 1 1 .69-.21s0 0 0 .05A4 4 0 0 0 454 269a6.09 6.09 0 0 0 3.82 0 .36.36 0 0 1 .48-.14.37.37 0 0 1 .13.49 3.32 3.32 0 0 1-2.33.65Z" fill="#f6ce5c"/><path d="M413.85 219.72h-.49c-2.51-.39-4-3.62-3.46-7.36s3-6.37 5.5-6 4 3.62 3.47 7.36c-.54 3.48-2.69 6-5.02 6Zm1.08-12.15c-1.67 0-3.36 2.17-3.78 5s.65 5.65 2.4 5.92 3.62-2 4.07-4.93-.65-5.65-2.41-5.92a1.28 1.28 0 0 0-.28-.07ZM422.05 219.73h-.25c-1.68-.26-2.56-3-2.05-6.32s2.17-5.68 3.84-5.42 2.56 3 2.05 6.32a9.81 9.81 0 0 1-1.38 3.89 2.83 2.83 0 0 1-2.21 1.53Zm1.29-10.83c-.93 0-2.22 1.83-2.64 4.63s.3 5.09 1.24 5.23c.46.07 1-.33 1.52-1.1a9 9 0 0 0 1.23-3.52c.45-2.9-.3-5.08-1.24-5.23Z" fill="#fff"/><path d="M411.13 209.94H411l-19.29-5.51a.63.63 0 0 1 .34-1.22l19.29 5.51a.65.65 0 0 1 .44.78.61.61 0 0 1-.65.44Z" fill="#fff"/><path d="M424.91 197.89c-29.85 17.59-31.49 5.78-31.49 5.78l1.77-16.8 17.71 1Z" fill="#313c60"/><path d="M395.73 207.57c.69 3-.26 5.74-2.12 6.17s-3.94-1.62-4.64-4.59.26-5.74 2.12-6.17 3.91 1.62 4.64 4.59Z" fill="#cca285"/><path d="M393.68 211.47a1.18 1.18 0 1 1-1.19-1.17 1.19 1.19 0 0 1 1.19 1.17Z" fill="#f6ce5c"/><path d="M402.27 323.6s8.07-3.54 10.44-2 9.18 8.79 9.18 8.79Z" fill="#cca285"/><path d="M421.45 331.07c-.16.19-.39.27-.51.18l-16.61-12.37c-.89-.66-1.32-1.68-.89-2.22s1.52-.34 2.36.38l15.71 13.49c.12.11.09.35-.06.54Z" fill="#2f5c9b"/><path d="M377.87 322.09s13.38 5.32 15 5.32 10.36-5.91 13.31-5.12 17.39 8.07 17 8.66-4.53 2-16.73 1.58-32.09-2.17-32.09-2.17Z" fill="#cca285"/></g><g clip-path="url(#b)"><circle cx="196.25" cy="120.92" r="90.92" transform="rotate(-45 196.256 120.918)" fill="#fff"/><circle cx="196.25" cy="120.92" r="90.92" transform="rotate(-45 196.256 120.918)" style="isolation:isolate" fill="#4dadd3" opacity=".2"/><path d="M181.22 124.68a6.63 6.63 0 0 1-7.16 1c-4-1.91-18.51-12.18-18.07-14.69s7.23-3.1 7.23-3.1 21.04 16.68 18 16.79Z" fill="#275197"/><path d="M177.39 124.3c2.73-.44-6.24-7.57-9.17-10.52a46 46 0 0 0-4.82-4.32s-5 .61-5 1.58 14.37 12.45 14.37 12.45 3.39 1 4.62.81Z" fill="#ef8219"/><path d="M195 137.12s-5.24-8.84-7.74-11.2S176.28 119 175 119c-2.2 0 7.53 6.52 7.53 6.52s-1.32 8.55-.14 11.64 13.55 7.23 13.55 7.23Z" fill="#a48b70"/><path d="M204.71 146.41s-8.54-12.83-10.46-11.94-7.07 11.94-7.07 11.94 15 15.62 15 12.67 2.53-12.67 2.53-12.67Z" fill="#4eb8ac"/><path d="M204.71 146.41s-8.54-12.83-10.46-11.94-7.07 11.94-7.07 11.94 15 15.62 15 12.67 2.53-12.67 2.53-12.67Z" style="isolation:isolate" fill="#010101" opacity=".2"/><path d="M228.36 77.73S237.2 109 243.09 122s8.85 37.14 7.67 79.59 7.07 41.27-5.31 46.58-56.6-3.59-62.45-17.17 3.95-68.77 18.57-89c14.43-20 20.89-27.13 20.89-31.84s-5.71-24.76-5.71-24.76Z" fill="#a48b70"/><path d="M183 231c-5.9-13.56 3.95-68.77 18.57-89 6.72-9.31 11.72-15.83 15.15-20.61a104.92 104.92 0 0 1 22.1-10.39c1.49 4.18 3 8 4.27 10.91 5.9 13 8.85 37.14 7.67 79.59s7.07 41.27-5.31 46.58-56.6-3.5-62.45-17.08Z" fill="#4eb8ac"/><path d="M244.08 105.44c-.15-2.42-31.64 10-31.84 12.38s-2.05 11.16-4.66 15.9 43.84 31.21 42.13 18.32-5.24-40.11-5.63-46.6Z" fill="#4eb8ac"/><path d="M222.43 110.68a4.51 4.51 0 0 0 0-.52c0-4.72-5.71-24.76-5.71-24.76l11.61-7.67s2 7.26 4.84 16.22c-3.58 10.77-6.95 14.44-10.74 16.73Z" fill="#a48b70"/><path d="M222.43 110.68a4.51 4.51 0 0 0 0-.52c0-4.72-5.71-24.76-5.71-24.76l11.61-7.67s2 7.26 4.84 16.22c-3.58 10.77-6.95 14.44-10.74 16.73Z" style="isolation:isolate" fill="#010101" opacity=".2"/><path d="M195.82 93c2.45 11.11 10.13 19 19 16.84 6.5-1.59 16.5-10.69 13.3-24-2.67-11.06-11.67-18.52-20.59-16.55S193.37 81.92 195.82 93ZM185.75 165.37c-8.05-13.91-8.95-26.89-14.65-31-8-5.7-14.61-18.46-11.71-19s14.67 10.27 14.67 10.27-3.06-4.19-2.33-4.54 6.66 4 7.57 9 12.3 28.43 21.85 35.91-7.35 13.26-15.4-.64Z" fill="#a48b70"/><path d="M237.9 130.34c14.27 3.55 7.74 46.63-4.28 72.17S199 206 190.54 199.73a28 28 0 0 1-6.71-6.86c2.71-15.24 7.36-31.6 13.1-43.11 13.47 15.81 19.87-24.68 40.97-19.42Z" style="isolation:isolate" fill="#010101" opacity=".2"/><path d="M233.62 127.25c17.93 1.79 8.11 46.57-5 64.65s-31.79.59-37.69-9.83S173.1 154 173.1 142.43c0-2.17 4.42-2.61 9.73-2.21 5 .37 27.57 31.44 27.57 31.44s7.53-45.99 23.22-44.41Z" fill="#4eb8ac"/><path d="M190.34 69.86c-11 4.62-4.39 19.23 1.39 19.77s12.47-10.11 15.9-10.47-.69 6 2.37 7.41 5.91 3.84 6.8 7.64 3.33 12.05-.66 12.42-8.33-4-11-4.16a14.92 14.92 0 0 0-5.06.6s6.92 9.52 11.92 10.06 10.53-6.84 14.45-13.13 2.26-10.41 2.26-10.41 4 4.53 6.55 4.16-3.79-4-4-14.63-4.88-16.27-10.66-16.27-5.07-2.94-13.9-2.71c-7.91.25-13.78 8.64-16.36 9.72Z" fill="#1f3159"/><path d="M214.46 91.65c-.25 2.75 1.16 5.13 3.16 5.32s3.83-1.9 4.08-4.65-1.16-5.13-3.16-5.32-3.82 1.9-4.08 4.65Z" fill="#a48b70"/></g><g clip-path="url(#c)"><circle cx="69.07" cy="294.49" r="65.08" fill="#fff"/><circle cx="69.07" cy="294.49" r="65.08" style="isolation:isolate" fill="#4dadd3" opacity=".2"/><path d="M58.83 263.48c-5 9.92-.86 21.34 8.9 25.37s20.55 1.76 25.51-8.16 1.28-21.81-8.23-26.56-21.22-.56-26.18 9.35Z" fill="#313c60"/><path d="M85.55 290.17a2.8 2.8 0 0 1-.81-.09.62.62 0 0 1-.38-.8.63.63 0 0 1 .72-.41s2.3.54 5.72-2.5c3.86-3.42 6.56-11.2 2.56-22.76a.61.61 0 0 1 .37-.79.63.63 0 0 1 .8.39c5.29 15.29-.89 22.32-2.91 24.12-2.75 2.44-4.94 2.84-6.07 2.84Z" fill="#313c60"/><path d="M70.39 302.07c-5.64 1.27-12.77 16.95-16.26 27s-9.48 22.71-13.39 26.61-29.57 13-29.57 13 63.42.12 62.12 0-2.9-66.61-2.9-66.61Z" fill="#25378b"/><path d="M36.72 363.61c3.48-.5 16 1.11 10.67-1.12s-4.59-5.08-4.59-5.08 7.56 6.32 8.93.79c1.17-4.77 1.62-21.6 6.09-38.48 3.69-8.37 8.51-16.74 12.57-17.65 0 0 .15 5.94.38 14.28-1.56 18.43-4.2 45.52-4.87 52.35H31.65l-7.82-.37s9.42-4.23 12.89-4.72Z" style="isolation:isolate" fill="#010101" opacity=".2"/><path d="M91.15 298.6s17.95 10 22.14 12.16S101.56 375.52 98 378.2s-34.69.46-38.24-2.92 2.73-13.76-.34-34.53 9.36-38.72 11-38.68 12-3.47 12-3.47Z" fill="#25378b"/><path d="M98 378.2c-3.52 2.69-25.81 2.8-35.3-.2-1.07-.33-5.93-2.27-6.05-4.09 1.15-.21 5.7.33 7.54-.09 6.42-1.48 10-9.43 10-9.43s3.54-1.27 11.44-4.62 4.65-13.48 4.84-17.95 7.81-19.06 22.14-30.13l1.31.59c.97 10.16-12.62 63.44-15.92 65.92Z" style="isolation:isolate" fill="#010101" opacity=".2"/><path d="M80.13 362.62c-11.29 2.1-14.06 4.7-20.21 5.69-7 1.12-6.15 2.66-1 2.66s18.2.2 22.66-.79-1.45-7.56-1.45-7.56Z" fill="#cca285"/><path d="M114.7 311.94c8.65 27.65 20.91 59 19 59s-51.61 2-53.57.34-1.39-8.09-1.11-8.93 28.23-5.8 28.23-5.8-3.68-7.17-5.08-21.19 10.89-28.67 12.53-23.42Z" fill="#25378b"/><path d="m84.57 274.57 7 25.46s-11.78 18.37-15 16.74 1.81-14.93 1.81-16.74-5-20.46-5-20.46Z" fill="#ab8b6c"/><path d="M78.1 301.33a7.09 7.09 0 0 0 .24-1.3c0-1.81-5-20.46-5-20.46l11.28-5 2.26 8.43a44.14 44.14 0 0 1-8.78 18.33Z" style="isolation:isolate" fill="#010101" opacity=".2"/><path d="M58.5 274.15c-1.33 7.38-.45 17.18 6.1 19.68s14.46-2.28 17.64-10.66.46-17.18-6.1-19.68-16.05 1.84-17.64 10.66Z" fill="#ab8b6c"/><ellipse cx="84.13" cy="279.51" rx="4.96" ry="3.66" transform="rotate(-70.41 84.133 279.514)" fill="#ab8b6c"/><path d="M58.42 264.87C60.66 282.2 81.7 280 81.7 280s4.35-5.7 6.3-2.71-2.71-17.6-14.79-18.29c-3.97-.17-14.79 5.87-14.79 5.87Z" fill="#313c60"/><ellipse cx="91.22" cy="257.55" rx="11.4" ry="10.7" fill="#313c60"/></g><g opacity=".8"><path d="M341.26 464.71s50.92-25.11 59.68-38.21-4.12-13.83-4.12-13.83 22.72-22.1 19.53-31.41-15.13-.41-15.13-.41S416 348 409.1 344.69c-12.83-6.09-30.83 28.91-30.83 28.91s3.86-15.2-5-14.71C360 359.64 360.52 394 360.52 394s-1.5-13.19-9.54-8.91c-14.41 7.72-9.72 79.62-9.72 79.62Z" fill="#4eb8ac" opacity=".8"/><path d="M349.74 379.85c8.71-2.62 10.73 7 10.73 7s-.5-27.25 12.83-28c8.83-.49 5 14.71 5 14.71s18-35 30.83-28.91l-67.93 119.5c-.48-8.34-4-80.52 8.54-84.3Z" style="isolation:isolate" fill="#4eb8ac" opacity=".8"/><path d="M342.57 465s41.65 5.17 52.43.56 3.06-10.3 3.06-10.3 23.15-4.55 24.94-11.65-9.27-6.41-9.27-6.41 22.58-14.51 19.61-19.35c-5.53-9-31 5.5-31 5.5s8.59-7.91 2.88-11.19c-8.6-4.93-22.22 16.74-22.22 16.74s.85-5.34-5.9-5.93C365 421.91 342.57 465 342.57 465Z" fill="#4eb8ac" opacity=".8"/><path d="M376.5 421.55c6.75.6 6.49 7.35 6.49 7.35s13.63-21.67 22.25-16.72c5.71 3.28-2.88 11.19-2.88 11.19s25.45-14.51 31-5.5l-90.9 46.92c3.08-5.4 22.72-44.23 34.04-43.24Z" style="isolation:isolate" fill="#4eb8ac" opacity=".8"/></g><path d="M261.38 455.82s-70.19-48.75-99.87-20.64c-23.71 22.44 18.37 48.81 72.2 41.72 37.89-5 42.19 2.26 48.82 2.1 49.39-3.78 115.93-18.56 83.55-41.77-44.12-31.62-74 1.9-89.33 10.25Z" fill="#252f50"/><path d="M352.12 436.06c-18.44-3.81-88.72 22.25-88.72 22.25s-61.19-18.44-75.83-20.2-21.38 3.8-21.38 3.8 6.91-7.78 14.93-8.49 19.62-2.63 19.62-2.63 117.12-5.57 132.64-2.05 18.74 7.32 18.74 7.32Z" fill="#1b243c"/><path d="M252.6 341.19c-2.79.44-46 19.31-46.58 27.22s11.85 72 35.8 80.38 50.74 0 50.74 0 28.11-69.39 19.76-82.56-46.11-25-46.11-25Z" fill="#4dadd3"/><path d="M220.8 356.13c-41.34 22.15-51.49 62.14-40.55 70.95 7.65 6.18 36.54 19.84 61.57 19a407.64 407.64 0 0 1 48.55 1.48s42.94-8.74 51.5-21.61-15.19-54.68-36.5-66.76-84.57-3.06-84.57-3.06Z" fill="#4dadd3"/><path d="M260.21 366.23a10.42 10.42 0 0 1-10.4-10.4v-35a10.4 10.4 0 0 1 20.79 0v35a10.43 10.43 0 0 1-10.39 10.4Z" fill="#cca285"/><path d="M260.21 310.45a10.43 10.43 0 0 0-10.4 10.39v28.61c6.13 5.13 12.06 2.44 20.79-4.32v-24.29a10.43 10.43 0 0 0-10.39-10.39ZM299.65 379c11.72 6.24 21.92 29.92 21.92 29.92s-26.35 4.09-31.82 8.19.79-1.56 3.91-12.88 5.99-25.23 5.99-25.23ZM218.11 377.3c2.74 12.5 15.82 47.37 15.82 47.37s-12.12-13.79-25-14.57-17.65-1-17.57 2.14c0 .62 2.15-13.86 12.1-22.84s14.65-12.1 14.65-12.1Z" style="isolation:isolate" fill="#010101" opacity=".2"/><path d="M296.62 456H225.9a5.82 5.82 0 0 1-5.75-4.87l-8.53-50.89a5.83 5.83 0 0 1 4.78-6.72 6.24 6.24 0 0 1 1-.08h87.78a5.83 5.83 0 0 1 5.83 5.83 6.24 6.24 0 0 1-.08 1l-8.52 50.89a5.84 5.84 0 0 1-5.79 4.84Z" fill="#3565ae"/><path d="M296.62 456H225.9a5.77 5.77 0 0 1-5.75-4.69l-8.53-49.06a5.68 5.68 0 0 1 4.76-6.48 5.5 5.5 0 0 1 1-.07h87.78a5.69 5.69 0 0 1 5.82 5.54 6.77 6.77 0 0 1-.07 1l-8.52 49.06a5.79 5.79 0 0 1-5.77 4.7Z" fill="#c3cdd4"/><path d="M270.6 476c-.42-.07-45.67-11.4-55.77-3.05s33.81 8.49 41.72 6.66S270.6 476 270.6 476ZM280.7 478s9.67-7.28 22.4-6 23.72 4.1 12.74 7.54a80.72 80.72 0 0 1-27.67 3.46 9.55 9.55 0 0 1-7.47-5Z" fill="#1b243c"/><path d="M280.91 326c.65-4.16.86-7.15-1.73-7.49-.36-.19-.31-.38-.3-.51.18-.22.19-.37 0-.36.17-2.65.4-4.93-.21-6.95-1.29-5.9-5.37-10-16.67-10.28-14.21-.34-18 8.13-18.27 17.9-2.59.25-2.46 3.4-2.28 7.28.12 3 1.93 4.09 3.78 5.12 4 18.73 16.33 18.42 16.33 18.42a8.45 8.45 0 0 0 4.83-.09c6.61-1.9 7.75-6.64 9.43-12.49.58-1.37 1.18-4.26 1.6-5.73 2.1-.61 2.96-1.65 3.49-4.82Z" fill="#cca285"/><path d="M261 295.1c-2-1.24-8.61-1-13.49 4.71-2.09 2.45-3.68 7.51-3.87 12.49s-.23 5.89-.23 5.89l1.26.32 1-2.9a.43.43 0 0 0 0-.16c.1-.63.94-5.18 4.28-7.57a6.62 6.62 0 0 1 4.73-1Z" fill="#eabf2f"/><path d="M279.51 318.84s2.38-8.25-.32-14c-2-4.39-2.66-6.89-7.56-8.46-2.23-.71-14.55-6.06-16.95.46-.68 1.86-.92 10.08-.92 10.08 1.45 1.92 8.5-.48 12.61-.68a10 10 0 0 1 8.55 4.78c1 1.93 3.38 7.93 3.38 7.93h.29c.89-.07-.2 0 .64 0" fill="#eabf2f"/>
    </symbol>
    <!-- next symbol example -->
    <!-- 
        id="xxx" used to call it in a component
        check if all <path /> have a fill attr
        if not, check if it's class css (wrong implementation)
        svg file needs optimization
        then, don't hesitate to copy/paste the svg code into 
        https://jakearchibald.github.io/svgomg/ to optimize the code
        then call your file in your component as follow :
        <svg class="xxx"><use xlink:href="assets/svg-sprite.svg#ID"></use></svg>
        -->
    <!-- <symbol id="empty-screen" viewBox="0 0 520 520">
        paste the svg inside and change viewBox above according to svg viewBox
    </symbol> -->
</svg>
