<svg width="250" height="250" viewBox="0 0 250 250" fill="none" xmlns="http://www.w3.org/2000/svg">
<path d="M125 225C180.228 225 225 180.228 225 125C225 69.7715 180.228 25 125 25C69.7715 25 25 69.7715 25 125C25 180.228 69.7715 225 125 225Z" fill="#E5F5FF"/>
<path d="M210.076 137.296L148.18 170.637V95.0083L210.076 75.6851V137.296Z" fill="#DA6A0B"/>
<path d="M148.18 95.0082L75.1123 87.6165L60.1373 65.5234C59.964 65.2678 59.8637 64.9697 59.847 64.6613C59.8303 64.3529 59.8979 64.0458 60.0426 63.7729C60.1873 63.5 60.4036 63.2717 60.6682 63.1125C60.9329 62.9533 61.2359 62.8691 61.5448 62.8691H130.375C130.686 62.8691 130.991 62.9543 131.257 63.1154C131.522 63.2764 131.739 63.5072 131.883 63.7827L148.18 95.0082Z" fill="#FFCBA0"/>
<path d="M75.1123 163.245L49.5942 157.936C49.2116 157.856 48.868 157.647 48.6214 157.344C48.3749 157.041 48.2402 156.662 48.2402 156.271V84.1158C48.2402 83.8631 48.2965 83.6137 48.4051 83.3855C48.5136 83.1573 48.6716 82.9562 48.8677 82.7967C49.0637 82.6373 49.2928 82.5236 49.5383 82.4638C49.7838 82.404 50.0395 82.3997 50.2869 82.4512L75.1123 87.6167V163.245Z" fill="#FFCBA0"/>
<path d="M148.18 170.636L75.1121 163.245V87.6162L148.18 95.008V170.636Z" fill="#2A9CC8"/>
<path d="M129.6 190.872L55.0452 187.897L75.112 163.245L148.18 170.636L130.946 190.293C130.779 190.484 130.571 190.635 130.338 190.735C130.105 190.835 129.853 190.882 129.6 190.872Z" fill="#FFCBA0"/>
<path d="M148.18 95.0085L210.076 75.6852L134.419 68.6426L148.18 95.0085Z" fill="#FF8D2E"/>
<path d="M75.1121 163.245L148.18 129.127V95.008L75.1121 87.6162V163.245Z" fill="#2F7EA7"/>
<path d="M113.138 152.887C113.138 152.887 82.7095 151.019 86.2648 172.764C86.2648 172.764 85.5521 176.606 88.9713 178.352C88.9713 178.352 89.0273 176.72 92.0941 177.283C93.1863 177.47 94.2964 177.525 95.4012 177.446C96.8984 177.345 98.3216 176.746 99.4529 175.742C99.4529 175.742 108.013 172.145 111.344 157.887C111.344 157.887 113.81 154.771 113.746 153.972L108.605 156.215C108.605 156.215 110.359 159.992 108.974 163.132C108.974 163.132 108.814 156.354 107.821 156.509C107.62 156.509 105.154 157.822 105.154 157.822C105.154 157.822 108.173 164.396 105.891 169.184C105.891 169.184 106.756 161.076 104.209 158.295L100.59 160.448C100.59 160.448 104.121 167.243 101.727 172.789C101.727 172.789 102.344 164.282 99.8293 160.97L96.5463 163.572C96.5463 163.572 99.8693 170.277 97.8435 174.877C97.8435 174.877 97.5792 164.975 95.8336 164.225C95.8336 164.225 92.967 166.802 92.5346 167.862C92.5346 167.862 94.8007 172.756 93.3914 175.293C93.3914 175.293 92.5266 168.694 91.7899 168.662C91.7899 168.662 88.9312 173.034 88.635 176.003C88.7734 173.235 89.6209 170.552 91.0932 168.221C89.4457 168.539 87.9257 169.341 86.7212 170.53C86.7212 170.53 87.1616 167.438 91.7978 167.169C91.7978 167.169 94.2001 163.85 94.7926 163.646C94.7926 163.646 90.1804 163.254 87.3858 164.518C87.3858 164.518 89.8441 161.606 95.6414 162.887L98.8444 160.195C98.8444 160.195 92.7747 159.38 90.1964 160.285C90.1964 160.285 93.1591 157.708 99.7172 159.584L103.24 157.439C103.24 157.439 98.0677 156.297 94.9848 156.713C94.9848 156.713 98.2358 154.926 104.273 156.859L106.796 155.709C106.796 155.709 103 154.951 101.895 154.829C100.79 154.706 100.726 154.396 100.726 154.396C103.127 153.989 105.592 154.272 107.845 155.212C107.845 155.212 113.25 153.23 113.138 152.887Z" fill="#5AC235"/>
<path d="M154.094 154.347C154.094 154.347 145.312 130.996 130.289 140.91C130.289 140.91 127.186 141.66 127.028 144.796C127.028 144.796 128.263 144.294 128.869 146.772C129.095 147.65 129.425 148.498 129.854 149.297C130.43 150.381 131.352 151.244 132.479 151.754C132.479 151.754 138.024 156.947 149.767 154.676C149.767 154.676 152.915 155.478 153.489 155.164L150.098 152.073C150.098 152.073 147.869 154.643 145.064 154.656C145.064 154.656 150.064 152.274 149.616 151.584C149.55 151.435 147.746 150.031 147.746 150.031C147.746 150.031 143.854 154.48 139.521 154.374C139.521 154.374 145.855 152.314 147.077 149.483L144.261 147.499C144.261 147.499 140.377 152.404 135.441 152.467C135.441 152.467 141.99 150.088 143.618 147.105L140.58 145.521C140.58 145.521 136.693 150.241 132.586 150.263C132.586 150.263 139.88 146.761 139.855 145.207C139.855 145.207 136.975 143.926 136.04 143.957C136.04 143.957 133.149 147.283 130.787 147.077C130.787 147.077 135.417 144.228 135.195 143.667C135.195 143.667 130.98 142.991 128.667 143.761C130.777 142.941 133.061 142.678 135.29 143C134.503 141.875 133.396 141.008 132.108 140.505C132.108 140.505 134.559 139.802 136.311 143.175C136.311 143.175 139.589 143.861 139.939 144.236C139.939 144.236 138.689 140.66 136.811 138.995C136.811 138.995 139.804 139.859 140.788 144.617L143.866 146.111C143.866 146.111 142.445 141.305 140.907 139.681C140.907 139.681 143.82 141.034 144.614 146.558L147.392 148.474C147.392 148.474 146.513 144.229 145.172 142.065C145.172 142.065 147.591 143.897 148.169 149.052L149.87 150.552C149.87 150.552 149.166 147.464 148.888 146.598C148.609 145.732 148.819 145.58 148.819 145.58C149.925 147.238 150.539 149.173 150.591 151.17C150.591 151.17 153.876 154.545 154.094 154.347Z" fill="#F1CA00"/>
<path d="M70.0334 185.158C70.0334 185.158 59.5805 155.868 41.1788 167.678C41.1788 167.678 37.386 168.505 37.153 172.392C37.153 172.392 38.6627 171.808 39.3725 174.902C39.6381 176 40.0317 177.064 40.5451 178.07C41.2312 179.44 42.3449 180.546 43.7144 181.219C43.7144 181.219 50.4156 187.85 64.7619 185.437C64.7619 185.437 68.5813 186.541 69.274 186.133L65.1502 182.199C65.1502 182.199 62.4039 185.307 58.9847 185.238C58.9847 185.238 65.1059 182.443 64.5734 181.582C64.4999 181.391 62.3073 179.579 62.3073 179.579C62.3073 179.579 57.505 184.978 52.231 184.69C52.231 184.69 60.0004 182.343 61.501 178.885L58.0917 176.327C58.0917 176.327 53.2936 182.276 47.2731 182.188C47.2731 182.188 55.285 179.459 57.3124 175.815L53.622 173.742C53.622 173.742 48.8305 179.461 43.8243 179.349C43.8243 179.349 52.7585 175.257 52.7727 173.318C52.7727 173.318 49.2759 171.634 48.1236 171.616C48.1236 171.616 44.5826 175.609 41.6905 175.31C41.6905 175.31 47.3353 171.956 47.1112 171.264C47.1112 171.264 41.9848 170.279 39.1258 171.166C41.7122 170.219 44.5038 169.973 47.2222 170.451C46.277 169.028 44.9409 167.912 43.3779 167.239C43.3779 167.239 46.3805 166.455 48.4703 170.695C48.4703 170.695 52.4476 171.624 52.8809 172.139C52.8809 172.139 51.4025 167.663 49.13 165.532C49.13 165.532 52.7757 166.704 53.8755 172.647L57.6237 174.645C57.6237 174.645 55.9709 168.618 54.0948 166.57C54.0948 166.57 57.6268 168.345 58.5318 175.221L61.8907 177.693C61.8907 177.693 60.8664 172.394 59.2642 169.663C59.2642 169.663 62.1921 172.031 62.8304 178.441L64.8897 180.357C64.8897 180.357 64.0678 176.502 63.7344 175.415C63.401 174.328 63.6614 174.148 63.6614 174.148C64.9933 176.243 65.7224 178.666 65.7674 181.146C65.7674 181.146 69.7395 185.385 70.0334 185.158Z" fill="#5AC235"/>
<path d="M146.294 202.206C146.294 202.206 123.923 188.636 118.129 206.055C118.129 206.055 116.084 208.593 117.994 211.24C117.994 211.24 118.669 210.082 120.782 211.709C121.532 212.278 122.344 212.76 123.204 213.145C124.377 213.667 125.687 213.797 126.936 213.516C126.936 213.516 134.848 214.298 142.949 205.183C142.949 205.183 146.036 203.879 146.269 203.255L141.497 202.837C141.497 202.837 141.349 206.317 139.062 208.069C139.062 208.069 141.59 203.017 140.802 202.752C140.639 202.699 138.266 202.637 138.266 202.637C138.266 202.637 137.981 208.679 134.374 211.285C134.374 211.285 138.205 205.674 137.366 202.606L133.773 202.717C133.773 202.717 133.786 209.15 129.802 212.246C129.802 212.246 133.603 206.24 132.995 202.798L129.487 203.4C129.487 203.4 129.379 209.651 126.043 212.224C126.043 212.224 129.713 204.852 128.694 203.591C128.694 203.591 125.509 204.334 124.761 204.94C124.761 204.94 124.581 209.424 122.507 210.745C122.507 210.745 124.43 205.553 123.909 205.246C123.909 205.246 120.03 207.313 118.626 209.397C119.819 207.417 121.515 205.784 123.546 204.656C122.169 204.232 120.701 204.213 119.32 204.602C119.32 204.602 120.872 202.51 124.524 204.162C124.524 204.162 127.614 202.673 128.172 202.777C128.172 202.777 124.828 200.647 122.21 200.454C122.21 200.454 125.22 199.296 129.095 202.586L132.607 201.906C132.607 201.906 128.33 198.85 126.011 198.512C126.011 198.512 129.266 197.799 133.506 201.808L137.025 201.638C137.025 201.638 133.537 198.732 131.05 197.804C131.05 197.804 134.221 197.791 138.045 201.636L140.407 201.794C140.407 201.794 137.825 199.721 137.031 199.189C136.236 198.658 136.312 198.404 136.312 198.404C138.295 199.064 140.057 200.257 141.402 201.848C141.402 201.848 146.236 202.494 146.294 202.206Z" fill="#D1AF00"/>
<path d="M172.815 178.838L148.18 170.636V95.0078L173.889 103.567C174.227 103.679 174.522 103.896 174.731 104.186C174.94 104.475 175.052 104.823 175.052 105.18V177.224C175.052 177.494 174.988 177.759 174.865 177.999C174.743 178.239 174.565 178.446 174.346 178.604C174.128 178.761 173.875 178.865 173.609 178.905C173.342 178.946 173.07 178.923 172.815 178.838Z" fill="#FFCBA0"/>
</svg>
